<svg id="Capa_1" enable-background="new 0 0 512 512" height="512" viewBox="0 0 512 512" width="512" xmlns="http://www.w3.org/2000/svg"><g><path d="m391.713 216.255 3.328-9.714-14.655-50.985c-5.811-20.217-24.305-34.144-45.341-34.144l-71.053 71.039 39.544 17.52c13.48 5.972 24.681 15.91 32.23 28.337l9.988 2.358z" fill="#dae4ea"/><path d="m348.243 155.556 20.894 72.69 22.576-11.991 3.329-9.714-14.655-50.985c-5.811-20.217-24.305-34.144-45.341-34.144l-7.164 7.162c9.645 6.024 17.056 15.483 20.361 26.982z" fill="#b9c1cb"/><g><path d="m379.775 30.072h31.597v28.24h-31.597z" fill="#f6f9f9"/></g><g><path d="m395.574 30.072h15.799v28.24h-15.799z" fill="#dae4ea"/></g><g><path d="m34.725 5.635v431.81l53.788 44.788h66.339c53.141 0 96.221-43.08 96.221-96.221v-126.541c0-10.117 4.122-19.798 11.416-26.809l77.71-74.698c7.294-7.011 11.416-16.692 11.416-26.81v-125.519zm146.91 367.561c0 21.785-17.66 39.445-39.445 39.445-21.785 0-39.445-17.66-39.445-39.445v-135.997c0-21.785 17.66-39.445 39.445-39.445 21.785 0 39.445 17.66 39.445 39.445z" fill="#e28086"/></g><g><g><path d="m311.675 5.635v102.681c0 10.117-4.122 19.798-11.416 26.809l-77.71 74.698c-7.294 7.011-11.416 16.692-11.416 26.809v142.013c0 34.865-28.264 63.128-63.129 63.128h-67.288l7.797 40.459h66.339c53.141 0 96.221-43.08 96.221-96.221v-126.54c0-10.117 4.122-19.798 11.416-26.809l77.71-74.698c7.294-7.011 11.416-16.692 11.416-26.81v-125.519z" fill="#dd636e"/></g></g><g><path d="m88.513 482.233h-45.788c-4.418 0-8-3.582-8-8v-36.788c0-4.971 4.029-9 9-9h35.788c4.971 0 9 4.029 9 9z" fill="#dae4ea"/></g><g><path d="m79.49 428.445h-10.75v14.823c0 10.6-8.593 19.193-19.193 19.193h-14.822v11.753c0 4.429 3.591 8.02 8.02 8.02h45.768v-44.765c0-4.984-4.039-9.024-9.023-9.024z" fill="#b9c1cb"/></g><g><path d="m18.409 10.625v67.135c0 5.868 4.757 10.625 10.625 10.625h51.616c12.408 0 22.467-10.059 22.467-22.467 0-11.999 9.727-21.726 21.726-21.726h27.167c11.613 0 22.527 5.545 29.375 14.923l10.476 14.346c6.848 9.378 17.763 14.923 29.375 14.923h151.112c5.868 0 10.625-4.757 10.625-10.625v-67.134c-.001-5.868-4.758-10.625-10.626-10.625h-343.313c-5.868 0-10.625 4.757-10.625 10.625z" fill="#f6f9f9"/></g><g><g><path d="m18.409 61.505v16.255c0 5.868 4.757 10.625 10.625 10.625h51.616c12.408 0 22.467-10.059 22.467-22.467 0-1.512.155-2.988.449-4.413z" fill="#dae4ea"/></g><g><path d="m372.347 0h-16.255v50.88c0 5.868-4.757 10.625-10.625 10.625h-162.338l8.731 11.957c6.848 9.378 17.763 14.923 29.375 14.923h151.112c5.868 0 10.625-4.757 10.625-10.625v-67.135c0-5.868-4.757-10.625-10.625-10.625z" fill="#dae4ea"/></g></g><g><circle cx="227.818" cy="197.754" fill="#f6f9f9" r="14.916"/></g><g><circle cx="62.682" cy="50.136" fill="#dae4ea" r="14.916"/></g><g><circle cx="227.818" cy="50.136" fill="#dae4ea" r="14.916"/></g><g><path d="m231.988 183.44c.385 1.325.602 2.721.602 4.171 0 8.238-6.678 14.916-14.916 14.916-1.449 0-2.846-.217-4.171-.603 1.806 6.206 7.525 10.746 14.314 10.746 8.238 0 14.916-6.678 14.916-14.916.001-6.789-4.539-12.508-10.745-14.314z" fill="#dae4ea"/></g><g><path d="m66.852 35.822c.385 1.325.602 2.721.602 4.171 0 8.238-6.678 14.916-14.916 14.916-1.449 0-2.846-.217-4.171-.602 1.806 6.206 7.525 10.746 14.314 10.746 8.238 0 14.916-6.678 14.916-14.916.001-6.79-4.539-12.509-10.745-14.315z" fill="#b9c1cb"/></g><g><path d="m231.988 35.822c.385 1.325.602 2.721.602 4.171 0 8.238-6.678 14.916-14.916 14.916-1.449 0-2.846-.217-4.171-.602 1.806 6.206 7.525 10.746 14.314 10.746 8.238 0 14.916-6.678 14.916-14.916.001-6.79-4.539-12.509-10.745-14.315z" fill="#b9c1cb"/></g><g><path d="m442.033 88.385h-22.627c-4.66 0-8.438-3.778-8.438-8.438v-71.509c0-4.66 3.778-8.438 8.438-8.438h22.627c4.66 0 8.438 3.778 8.438 8.438v71.51c0 4.659-3.778 8.437-8.438 8.437z" fill="#f6f9f9"/></g><g><path d="m442.012 0h-4.284v69.485c0 3.401-2.757 6.158-6.158 6.158h-20.602v4.284c0 4.672 3.787 8.459 8.459 8.459h22.585c4.672 0 8.459-3.787 8.459-8.459v-71.468c0-4.672-3.787-8.459-8.459-8.459z" fill="#dae4ea"/></g><g><path d="m410.968 51.626h39.503v15.038h-39.503z" fill="#b9c1cb"/></g><g><path d="m410.968 21.733h39.503v15.038h-39.503z" fill="#b9c1cb"/></g><g><path d="m453.962 354.848c-18.682-27.45-32.876-57.699-42.049-89.611l-16.872-58.696c-4.77-1.706-9.908-2.639-15.266-2.639-21.272 0-39.115 14.649-44.011 34.408 2.231 3.67 4.159 7.546 5.715 11.614l14.65 38.288c13.914 36.363 34.492 69.81 60.678 98.623l51.332 56.481c6.847 7.534 19.234 5.204 22.875-4.304 4.563-11.915 3.004-25.31-4.175-35.858z" fill="#055e7f"/></g><g><path d="m486.838 403.152-32.876-48.304c-18.682-27.45-32.876-57.699-42.049-89.611l-16.872-58.696c-4.77-1.706-9.908-2.639-15.266-2.639-5.906 0-11.546 1.133-16.719 3.187l16.714 58.148c9.173 31.912 23.367 62.161 42.049 89.611l32.876 48.304c6.312 9.274 8.276 20.749 5.557 31.484l7.887 8.678c6.847 7.534 19.234 5.204 22.875-4.304 4.563-11.915 3.003-25.31-4.176-35.858z" fill="#004c67"/></g><g><path d="m327.816 512h-24.15c-4.153 0-7.519-3.366-7.519-7.519s3.366-7.519 7.519-7.519h16.632v-36.842h-16.632c-4.153 0-7.519-3.366-7.519-7.519s3.366-7.519 7.519-7.519h24.15c4.153 0 7.519 3.366 7.519 7.519v51.88c0 4.153-3.366 7.519-7.519 7.519z" fill="#b9c1cb"/></g><g><path d="m296.648 486.417h-24.15c-4.153 0-7.519-3.366-7.519-7.519s3.366-7.519 7.519-7.519h16.632v-36.842h-16.632c-4.153 0-7.519-3.366-7.519-7.519s3.366-7.519 7.519-7.519h24.15c4.153 0 7.519 3.366 7.519 7.519v51.88c0 4.153-3.366 7.519-7.519 7.519z" fill="#dae4ea"/></g><g><path d="m338.465 425.76c-1.356 0-2.728-.366-3.963-1.135l-20.508-12.752c-3.526-2.193-4.608-6.829-2.415-10.355 2.193-3.528 6.832-4.607 10.355-2.415l14.123 8.782 19.455-31.287-14.123-8.782c-3.526-2.193-4.608-6.83-2.415-10.355 2.193-3.527 6.829-4.608 10.356-2.415l20.507 12.753c3.526 2.193 4.608 6.829 2.415 10.355l-27.395 44.057c-1.425 2.29-3.88 3.549-6.392 3.549z" fill="#dae4ea"/></g></g></svg>