<svg id="Capa_1" enable-background="new 0 0 512 512" height="512" viewBox="0 0 512 512" width="512" xmlns="http://www.w3.org/2000/svg"><g><g><g><g><path d="m269.517 0h-27.034c-3.031 0-5.708 1.977-6.598 4.875l-30.519 99.293c-1.607 5.228-2.424 10.666-2.424 16.135v56.88h106.117v-56.88c0-5.469-.817-10.907-2.424-16.135l-30.52-99.293c-.89-2.898-3.567-4.875-6.598-4.875z" fill="#dae4ea"/></g><g><path d="m306.635 104.168-30.52-99.293c-.89-2.898-3.567-4.875-6.598-4.875h-19.479c3.031 0 5.708 1.977 6.598 4.875l30.519 99.293c1.607 5.228 2.424 10.666 2.424 16.135v56.88h19.479v-56.88c0-5.469-.816-10.907-2.423-16.135z" fill="#b9c1cb"/></g><g><path d="m248.503 0h14.994v103.325h-14.994z" fill="#004c67"/></g><g><circle cx="256" cy="93.419" fill="#055e7f" r="19.465"/></g><g><path d="m260.622 74.529c.362 1.484.575 3.027.575 4.622 0 10.75-8.715 19.465-19.465 19.465-1.596 0-3.138-.213-4.622-.575 2.078 8.515 9.735 14.843 18.89 14.843 10.75 0 19.465-8.715 19.465-19.465 0-9.155-6.328-16.813-14.843-18.89z" fill="#004c67"/></g></g><g><g><circle cx="256" cy="177.163" fill="#f6f9f9" r="53.058"/></g><g><path d="m284.834 132.633c5.388 8.303 8.528 18.199 8.528 28.834 0 29.303-23.755 53.059-53.058 53.059-10.635 0-20.531-3.141-28.834-8.528 9.457 14.575 25.862 24.225 44.53 24.225 29.303 0 53.059-23.755 53.059-53.059 0-18.669-9.65-35.074-24.225-44.531z" fill="#dae4ea"/></g><g><circle cx="256" cy="177.163" fill="#dae4ea" r="15.258"/></g><g><path d="m261.844 163.07c.747 1.801 1.164 3.773 1.164 5.844 0 8.427-6.831 15.258-15.258 15.258-2.071 0-4.044-.417-5.844-1.164 2.294 5.526 7.738 9.414 14.094 9.414 8.427 0 15.258-6.831 15.258-15.258 0-6.356-3.888-11.8-9.414-14.094z" fill="#b9c1cb"/></g></g></g><g><g><path d="m157.417 311.27 14.779-33.287c3.362-7.573 1.157-16.461-5.354-21.585l-7.849-6.176 12.257-13.597 52.687 47.062-7.534 37.717-5.954 13.412c-13.004 29.29-16.026 62.578-8.51 93.733l11.492 47.628c3.758 15.576-5.822 31.249-21.398 35.007-15.576 3.758-31.249-5.822-35.007-21.398l-11.492-47.629c-10.555-43.747-6.378-89.756 11.883-130.887z" fill="#e28086"/></g><g><path d="m214.756 269.627s-3.79 11.026-6.179 16.406l-20.797 46.842c-13.147 29.61-16.202 63.263-8.603 94.76l11.618 48.15c3.412 14.139-4.053 28.352-17.012 33.858 5.56 2.392 11.913 3.071 18.249 1.542 15.576-3.758 25.156-19.432 21.398-35.007l-11.492-47.628c-7.517-31.155-4.495-64.443 8.51-93.733l5.954-13.412 6.034-30.029z" fill="#dd636e"/></g><g><path d="m150.607 243.624 8.386 6.598h5.936c21.08 0 39.301 14.712 43.744 35.319l7.731 35.863 14.617-32.922c8.477-19.094 12.775-39.367 12.775-60.258v-21.402c0-3.205-2.598-5.802-5.802-5.802h-46.419c-3.205 0-5.802 2.598-5.802 5.802v17.672c0 1.602-1.299 2.901-2.901 2.901h-26.959c-5.133 0-9.26 4.307-8.963 9.505.15 2.655 1.567 5.079 3.657 6.724z" fill="#057096"/></g><g><path d="m237.993 201.019h-16.501v24.095c0 21.007-4.303 41.394-12.782 60.607l7.692 35.683 14.617-32.922c8.477-19.094 12.775-39.367 12.775-60.258v-21.402c.002-3.205-2.596-5.803-5.801-5.803z" fill="#055e7f"/></g><g><path d="m354.583 311.27-14.779-33.287c-3.362-7.573-1.157-16.461 5.354-21.585l16.234-12.774c2.09-1.645 3.507-4.069 3.659-6.724.297-5.197-3.83-9.505-8.963-9.505h-26.958c-1.602 0-2.901-1.299-2.901-2.901v-17.672c0-3.205-2.598-5.802-5.802-5.802h-46.419c-3.205 0-5.802 2.598-5.802 5.802v21.402c0 20.891 4.298 41.164 12.775 60.258l20.571 46.334c13.004 29.29 16.026 62.578 8.51 93.733l-11.492 47.628c-3.758 15.576 5.822 31.249 21.398 35.007 15.576 3.758 31.249-5.822 35.007-21.398l11.492-47.629c10.554-43.747 6.377-89.756-11.884-130.887z" fill="#e28086"/></g><g><path d="m354.583 311.27-14.779-33.287c-3.362-7.573-1.157-16.461 5.354-21.585l7.849-6.176-36.208-9.379-25.362 59.625 4.159 20.936 5.954 13.412c13.004 29.29 16.026 62.578 8.51 93.733l-11.492 47.628c-3.758 15.576 5.822 31.249 21.398 35.007 15.576 3.758 31.249-5.822 35.007-21.398l11.492-47.629c10.556-43.747 6.379-89.756-11.882-130.887z" fill="#e28086"/></g><g><g><path d="m354.583 311.27-14.779-33.287c-3.362-7.573-1.157-16.461 5.354-21.585l7.849-6.176-3.351-7.268s-7.933-.975-10.022.669l-16.234 12.774c-6.511 5.124-8.716 14.012-5.354 21.585l14.779 33.287c18.262 41.131 22.438 87.14 11.883 130.887l-11.492 47.629c-2.281 9.455-8.956 16.693-17.332 20.087 1.309.528 2.671.97 4.083 1.311 15.576 3.758 31.249-5.822 35.007-21.398l11.492-47.629c10.555-43.746 6.378-89.755-11.883-130.886z" fill="#dd636e"/></g></g><g><path d="m361.393 243.624-8.386 6.598h-5.936c-21.08 0-39.301 14.712-43.744 35.319l-7.731 35.863-14.617-32.922c-8.477-19.094-12.775-39.367-12.775-60.258v-21.402c0-3.205 2.598-5.802 5.802-5.802h46.419c3.205 0 5.802 2.598 5.802 5.802v17.672c0 1.602 1.299 2.901 2.901 2.901h26.959c5.133 0 9.26 4.307 8.963 9.505-.15 2.655-1.567 5.079-3.657 6.724z" fill="#057096"/></g><g><g><path d="m307.371 227.395h21.759c-1.602 0-2.901-1.299-2.901-2.901v-17.672c0-3.205-2.598-5.802-5.802-5.802h-15.957v23.475c-.001 1.601 1.298 2.9 2.901 2.9z" fill="#055e7f"/></g><g><path d="m356.089 227.395h-21.759c5.133 0 9.26 4.307 8.963 9.505-.152 2.655-1.569 5.08-3.659 6.724l-16.234 12.774c-.824.648-1.577 1.357-2.26 2.116 7.373-5.247 16.355-8.292 25.932-8.292h5.936l8.386-6.598c2.09-1.645 3.507-4.069 3.659-6.724.296-5.198-3.831-9.505-8.964-9.505z" fill="#055e7f"/></g></g></g></g></svg>