<svg id="Capa_1" enable-background="new 0 0 512 512" height="512" viewBox="0 0 512 512" width="512" xmlns="http://www.w3.org/2000/svg"><g><g><path d="m354.033 191.996-348.329 95.368c-3.369.922-5.704 3.983-5.704 7.475v53.584c0 2.355 1.421 4.477 3.598 5.374l5.853 2.412c1.419.585 3.011.585 4.429 0l9.966-4.106c1.418-.584 3.011-.584 4.429 0l9.963 4.106c1.419.585 3.011.585 4.429 0l9.964-4.106c1.418-.585 3.011-.585 4.429 0l9.965 4.106c1.419.585 3.011.585 4.429 0l9.964-4.106c1.419-.585 3.011-.585 4.429 0l9.965 4.106c1.418.584 3.01.585 4.429 0l9.967-4.107c1.418-.584 3.01-.584 4.429 0l9.966 4.106c1.418.584 3.01.584 4.429 0l9.965-4.106c1.418-.584 3.01-.584 4.429 0l9.965 4.106c1.418.585 3.01.585 4.429 0l9.966-4.106c1.418-.584 3.01-.584 4.429 0l9.966 4.106c1.419.585 3.011.584 4.43 0l9.96-4.105c1.419-.585 3.011-.585 4.43 0l9.964 4.106c1.418.585 3.01.585 4.429 0l9.967-4.107c1.418-.584 3.011-.584 4.429 0l9.965 4.106c1.419.585 3.011.585 4.429 0l9.965-4.106c1.418-.585 3.011-.585 4.429 0l9.967 4.107c1.418.584 3.01.584 4.428 0l9.969-4.107c1.418-.584 3.01-.584 4.428 0l9.967 4.107c1.418.584 3.01.584 4.429 0l9.968-4.107c1.418-.584 3.01-.584 4.428 0l9.969 4.107c1.418.584 3.01.584 4.428 0l9.971-4.107c1.418-.584 3.01-.584 4.428 0l9.068 3.737c1.882.775 4.045.333 5.472-1.119l9.716-9.89c.919-.935 1.433-2.193 1.433-3.504v-149.33zm-314.864 128.34c-4.886 0-8.847-3.961-8.847-8.847s3.961-8.847 8.847-8.847 8.847 3.961 8.847 8.847-3.961 8.847-8.847 8.847z" fill="#dae4ea"/></g><g><path d="m354.033 191.996-12.377 3.389v123.289c0 2.355-1.421 4.478-3.599 5.375l-7.696 3.17c-1.418.584-3.01.584-4.428 0l-9.967-4.107c-1.418-.584-3.01-.584-4.428 0l-9.97 4.107c-1.418.584-3.01.584-4.428 0l-9.969-4.107c-1.418-.584-3.01-.584-4.428 0l-9.968 4.107c-1.418.584-3.01.584-4.429 0l-9.967-4.107c-1.418-.584-3.01-.584-4.429 0l-9.969 4.107c-1.418.584-3.01.584-4.428 0l-9.967-4.107c-1.419-.584-3.011-.584-4.429 0l-9.965 4.106c-1.419.585-3.011.585-4.429 0l-9.965-4.106c-1.418-.585-3.01-.585-4.429 0l-9.967 4.107c-1.419.584-3.011.584-4.429 0l-9.964-4.106c-1.419-.585-3.011-.585-4.43 0l-9.96 4.105c-1.419.585-3.011.585-4.429 0l-9.966-4.106c-1.418-.584-3.01-.584-4.429 0l-9.965 4.106c-1.419.585-3.011.585-4.429 0l-9.965-4.106c-1.419-.585-3.011-.585-4.429 0l-9.965 4.106c-1.419.585-3.011.585-4.429 0l-9.965-4.106c-1.418-.584-3.01-.585-4.429 0l-9.967 4.107c-1.418.584-3.01.584-4.429 0l-9.965-4.106c-1.419-.585-3.011-.585-4.429 0l-9.964 4.106c-1.419.585-3.011.585-4.429 0l-9.965-4.106c-1.419-.585-3.011-.585-4.429 0l-9.964 4.106c-1.419.585-3.011.585-4.429 0l-9.249-3.812v25.015c0 2.355 1.421 4.477 3.598 5.374l5.853 2.412c1.419.585 3.011.585 4.429 0l9.966-4.106c1.418-.584 3.011-.584 4.429 0l9.963 4.106c1.419.585 3.011.585 4.429 0l9.964-4.106c1.418-.585 3.011-.585 4.429 0l9.965 4.106c1.419.585 3.011.585 4.429 0l9.964-4.106c1.419-.585 3.011-.585 4.429 0l9.965 4.106c1.418.584 3.01.585 4.429 0l9.967-4.107c1.418-.584 3.01-.584 4.429 0l9.966 4.106c1.418.584 3.01.584 4.429 0l9.965-4.106c1.418-.584 3.01-.584 4.429 0l9.965 4.106c1.418.585 3.01.585 4.429 0l9.966-4.106c1.418-.584 3.01-.584 4.429 0l9.966 4.106c1.419.585 3.011.584 4.43 0l9.96-4.105c1.419-.585 3.011-.585 4.43 0l9.964 4.106c1.418.585 3.01.585 4.429 0l9.967-4.107c1.418-.584 3.011-.584 4.429 0l9.965 4.106c1.419.585 3.011.585 4.429 0l9.965-4.106c1.418-.585 3.011-.585 4.429 0l9.967 4.107c1.418.584 3.01.584 4.428 0l9.969-4.107c1.418-.584 3.01-.584 4.428 0l9.967 4.107c1.418.584 3.01.584 4.429 0l9.968-4.107c1.418-.584 3.01-.584 4.428 0l9.969 4.107c1.418.584 3.01.584 4.428 0l9.971-4.107c1.418-.584 3.01-.584 4.428 0l9.068 3.737c1.882.775 4.045.333 5.472-1.119l9.716-9.89c.919-.935 1.433-2.193 1.433-3.504v-149.33h-16.614z" fill="#b9c1cb"/></g><path d="m457.809 285.09-46.436 12.714c-3.763 1.03-7.777-.298-10.184-3.369l-16.244-20.733c-5.124-6.54-7.911-14.607-7.917-22.916l-.002-3.275-34.715-58.795-35.389 9.689c-5.073 1.389-8.581 6.01-8.555 11.269l.38 78.153c.016 3.307 1.44 6.451 3.915 8.644l47.194 41.824c2.126 1.884 4.869 2.925 7.71 2.925h26.828c2.679 0 5.346-.359 7.931-1.066l74.719-20.457z" fill="#f9ef63"/><g><g><path d="m178.516 305.627c-2.191 0-4.333-.715-6.13-2.087-2.537-1.936-3.992-4.877-3.992-8.068v-20.729c0-6.562 4.42-12.356 10.75-14.088l79.586-21.79c3.076-.844 6.3-.217 8.836 1.72 2.538 1.936 3.993 4.877 3.993 8.069v20.73c0 6.562-4.42 12.356-10.749 14.088l-79.586 21.79c-.898.244-1.808.365-2.708.365zm4.826-30.623v14.178l73.267-20.06v-14.178z" fill="#b9c1cb"/></g></g><g><circle cx="342.31" cy="281.81" fill="#ecbe6b" r="9.748"/></g><path d="m469.731 297.2-87.524 23.963c-2.693.737-5.472 1.111-8.264 1.111h-42.167l18.078 16.021c2.126 1.884 4.869 2.925 7.71 2.925h26.828c2.679 0 5.346-.358 7.931-1.066l74.719-20.457z" fill="#f4dd45"/><g><path d="m511.659 297.602-.433-1.58c-1.92-7.014-5.779-13.344-11.133-18.265-5.919-5.441-8.449-13.648-6.618-21.477l1.877-8.031c.844-3.612.774-7.378-.206-10.956l-4.002-14.617c-.98-3.578-2.837-6.855-5.404-9.534l-5.514-5.753c-5.58-5.823-7.832-14.213-5.476-21.926 2.138-6.999 2.246-14.459.314-21.516l-.433-1.58c-1.389-5.075-6.63-8.063-11.706-6.674l-120.615 33.024v38.906c0 14.141 13.081 24.654 26.891 21.613l7.824-1.723-.017-23.688c-.003-4.411 2.973-8.267 7.241-9.381l48.09-12.552c4.269-1.114 8.442 2.102 8.451 6.514l.051 24.482c.015 7.437 2.259 14.699 6.443 20.848l14.323 21.053c2.664 3.9.566 9.272-4.022 10.364-9.714 2.66-15.325 12.804-12.416 22.446 2.805 9.296 12.508 14.664 21.874 12.099l37.943-10.388c5.075-1.391 8.063-6.632 6.673-11.708z" fill="#057096"/></g><g><g><path d="m511.659 297.602-.433-1.58c-1.92-7.014-5.779-13.344-11.133-18.265-5.919-5.441-8.449-13.648-6.618-21.477l1.877-8.031c.844-3.612.774-7.378-.206-10.956l-4.002-14.617c-.98-3.578-2.837-6.855-5.404-9.534l-5.514-5.753c-5.58-5.823-7.832-14.213-5.476-21.926 2.138-6.999 2.247-14.459.315-21.516l-.433-1.58c-1.389-5.075-6.63-8.063-11.706-6.674l-12.252 3.354c.041 3.945-.5 7.892-1.664 11.702-2.356 7.713-.105 16.103 5.476 21.926l5.514 5.754c2.567 2.678 4.424 5.955 5.404 9.533l4.002 14.616c.98 3.578 1.051 7.344.206 10.957l-1.877 8.031c-1.851 7.916.756 16.22 6.818 21.659 5.406 4.85 9.084 11.331 11.002 18.336l.364 1.329c1.389 5.075-1.598 10.316-6.674 11.705l-34.759 9.517c.111 1.16.331 2.326.681 3.486 2.805 9.296 12.508 14.664 21.874 12.099l37.943-10.388c5.077-1.39 8.065-6.631 6.675-11.707z" fill="#055e7f"/></g></g></g></svg>