<svg id="Capa_1" enable-background="new 0 0 512 512" height="512" viewBox="0 0 512 512" width="512" xmlns="http://www.w3.org/2000/svg"><g><g><path d="m394.365 345.937h-108.151c-4.184 0-7.576-3.392-7.576-7.576s3.392-7.576 7.576-7.576h108.151c4.184 0 7.576 3.392 7.576 7.576s-3.392 7.576-7.576 7.576z" fill="#004c67"/></g><g><path d="m227.715 345.927h-108.151c-4.184 0-7.576-3.392-7.576-7.576s3.392-7.576 7.576-7.576h108.151c4.184 0 7.576 3.392 7.576 7.576s-3.392 7.576-7.576 7.576z" fill="#057096"/></g><g><g><path d="m96.41 378.467h144.097v35.505h-144.097z" fill="#dae4ea"/></g><g><path d="m205.212 378.467 2.668 12.489c.694 3.246-1.782 6.306-5.101 6.306h-106.369v16.709h144.097v-35.505h-35.295z" fill="#b9c1cb"/></g></g><g><g><path d="m139.747 263.487h78.622v35.505h-78.622z" fill="#dae4ea"/></g><g><path d="m183.075 263.487 2.668 12.489c.694 3.246-1.782 6.306-5.101 6.306h-40.894v16.709h78.622v-35.505h-35.295z" fill="#b9c1cb"/></g></g><g><g><path d="m154.81 148.861h37.745v35.505h-37.745z" fill="#b9c1cb"/></g></g><path d="m301.322 88.031-4.676 8.145-85.598 415.824 24.577-7.719 26.552 7.719 87.274-423.969z" fill="#ecbe6b"/><path d="m329.662 88.031-86.925 418.318 19.44 5.651 87.274-423.969z" fill="#e7a561"/><path d="m140.876 88.031-4.677 8.145-85.597 415.824 24.71-9.406 26.419 9.406 87.274-423.969z" fill="#ecbe6b"/><path d="m168.39 88.031-85.866 417.13 19.207 6.839 87.274-423.969z" fill="#e7a561"/><g><path d="m214.512 460.677-9.791 47.562c-.4 1.942 1.083 3.761 3.066 3.761h58.674c2.476 0 4.61-1.74 5.109-4.165l4.701-22.838c.401-1.949-.63-3.911-2.464-4.686l-53.584-22.637c-2.424-1.024-5.18.425-5.711 3.003z" fill="#055e7f"/></g><g><path d="m52.652 460.677-9.791 47.562c-.4 1.942 1.083 3.761 3.066 3.761h58.673c2.476 0 4.61-1.74 5.109-4.165l4.701-22.838c.401-1.949-.63-3.911-2.463-4.686l-53.584-22.637c-2.425-1.024-5.181.425-5.711 3.003z" fill="#055e7f"/></g><g><path d="m273.808 480.311-38.618-16.314-8.233 39.994c-.96 4.663-5.065 8.009-9.826 8.009h49.329c2.476 0 4.61-1.74 5.109-4.165l4.701-22.838c.403-1.949-.629-3.911-2.462-4.686z" fill="#004c67"/></g><g><path d="m111.947 480.311-17.709-7.481-6.896 33.501c-.679 3.301-3.585 5.669-6.955 5.669h24.213c2.476 0 4.61-1.74 5.109-4.165l4.701-22.838c.402-1.949-.629-3.911-2.463-4.686z" fill="#004c67"/></g><g><g><path d="m209.685 50.079h-20.844c-1.322 0-2.31 1.213-2.044 2.507l4.9 23.803h20.844l-4.9-23.803c-.266-1.294.723-2.507 2.044-2.507z" fill="#055e7f"/></g></g><g><circle cx="112.454" cy="338.361" fill="#057096" r="7.8"/></g><g><path d="m136.199 96.176h51.129l13.605-66.088-49.051-10.097z" fill="#055e7f"/></g><g><path d="m296.646 96.176h51.129l13.604-66.088-49.05-10.097z" fill="#055e7f"/></g><path d="m297.272 487.999-80.657-391.823-4.677-8.145h-45.128l-1.324 8.145 80.658 391.823z" fill="#f9ef63"/><path d="m457.574 487.999-80.657-391.823-4.677-8.145h-45.128l-1.323 8.145 80.656 391.823z" fill="#f9ef63"/><path d="m297.272 487.999-80.657-391.823-4.677-8.145h-17.843l82.333 399.968z" fill="#f4dd45"/><path d="m457.574 487.999-80.657-391.823-4.677-8.145h-17.843l82.333 399.968z" fill="#f4dd45"/><g><path d="m299.056 460.677 9.791 47.562c.4 1.942-1.083 3.761-3.066 3.761h-58.674c-2.476 0-4.61-1.74-5.109-4.165l-4.701-22.838c-.401-1.949.63-3.911 2.463-4.686l53.584-22.637c2.425-1.024 5.181.425 5.712 3.003z" fill="#057096"/></g><g><path d="m308.846 508.239-9.791-47.562c-.531-2.578-3.287-4.027-5.711-3.003l-16.503 6.972 8.974 43.593c.4 1.942-1.083 3.761-3.066 3.761h23.032c1.982 0 3.465-1.819 3.065-3.761z" fill="#055e7f"/></g><g><path d="m459.348 460.677 9.791 47.562c.4 1.942-1.083 3.761-3.066 3.761h-58.673c-2.476 0-4.61-1.74-5.109-4.165l-4.701-22.838c-.401-1.949.63-3.911 2.464-4.686l53.584-22.637c2.424-1.024 5.18.425 5.71 3.003z" fill="#057096"/></g><g><path d="m469.139 508.239-9.791-47.562c-.531-2.578-3.287-4.027-5.712-3.003l-16.503 6.972 8.974 43.593c.4 1.942-1.083 3.761-3.066 3.761h23.032c1.983 0 3.466-1.819 3.066-3.761z" fill="#055e7f"/></g><g><path d="m361.406 20.823c-2.484-12.065-13.228-20.823-25.547-20.823h-157.631c-7.35 0-14.508 2.846-19.536 8.207-5.868 6.256-8.261 14.81-6.552 23.135l13.346 64.835h51.129l-8.973-43.591c-.266-1.294.722-2.507 2.044-2.507h104.913c.99 0 1.844.696 2.044 1.666l9.146 44.432h51.128z" fill="#057096"/></g><g><path d="m186.798 52.586 8.973 43.591h20.844l-8.973-43.591c-.1-.485-.023-.959.181-1.362.341-.671 1.037-1.145 1.863-1.145h-20.844c-1.322 0-2.31 1.212-2.044 2.507z" fill="#055e7f"/></g><g><path d="m361.406 20.823c-2.484-12.065-13.228-20.823-25.547-20.823h-10.83c7.548 3.358 13.343 10.189 15.086 18.652l15.958 77.524h20.844z" fill="#055e7f"/></g><g><g><circle cx="163.245" cy="36.697" fill="#dae4ea" r="21.32"/></g><g><path d="m172.237 17.386c1.276 2.735 2.009 5.774 2.009 8.992 0 11.775-9.545 21.32-21.32 21.32-3.217 0-6.257-.733-8.992-2.009 3.394 7.275 10.753 12.328 19.311 12.328 11.775 0 21.32-9.545 21.32-21.32 0-8.557-5.053-15.917-12.328-19.311z" fill="#b9c1cb"/></g></g><g><circle cx="239.965" cy="338.361" fill="#057096" r="7.8"/></g><g><path d="m399.312 396.22-12.113-17.753h-112.456l7.308 35.505h109.63z" fill="#f6f9f9"/></g><g><path d="m377.375 281.239-15.443-17.752h-110.858l7.308 35.504h109.156z" fill="#f6f9f9"/></g><g><path d="m356 166.613-16.753-17.752h-111.769l7.309 35.505h109.025z" fill="#f6f9f9"/></g><g><path d="m363.624 181.951-6.104-30.652c-.282-1.418-1.527-2.438-2.972-2.438h-15.301l2.668 12.489c.694 3.246-1.782 6.306-5.101 6.306h-105.467l3.44 16.709h126.856c1.274.001 2.23-1.164 1.981-2.414z" fill="#dae4ea"/></g><g><path d="m386.309 296.577-6.104-30.652c-.282-1.418-1.527-2.438-2.972-2.438h-15.301l2.668 12.489c.694 3.246-1.782 6.306-5.101 6.306h-104.556l3.44 16.709h125.945c1.274 0 2.23-1.165 1.981-2.414z" fill="#dae4ea"/></g><g><path d="m411.576 411.557-6.104-30.652c-.282-1.418-1.527-2.438-2.972-2.438h-15.301l2.668 12.489c.694 3.246-1.782 6.306-5.101 6.306h-106.154l3.44 16.709h127.544c1.273.001 2.229-1.164 1.98-2.414z" fill="#dae4ea"/></g></g></svg>