<svg id="Capa_1" enable-background="new 0 0 512 512" height="512" viewBox="0 0 512 512" width="512" xmlns="http://www.w3.org/2000/svg"><g><g><g><path d="m261.932 209.202-105.7-71.948-34.708 25.047 68.903 46.901z" fill="#e7a561"/></g><g><path d="m156.232 137.254-15.793 11.398 88.955 60.55h32.538z" fill="#e4936b"/></g><g><path d="m322.579 209.202 68.903-46.901-34.708-25.047-105.7 71.948z" fill="#e7a561"/></g><g><path d="m289.302 209.202h33.277l68.903-46.901-16.152-11.656z" fill="#e4936b"/></g></g><g><g><path d="m235.831 77.295h40.236v144.313h-40.236z" fill="#e7a561"/></g></g><g><path d="m256.764 77.295h19.302v144.313h-19.302z" fill="#e4936b"/></g><g><path d="m45.894 299.983h432.324v40.236h-432.324z" fill="#e7a561"/></g><g><path d="m360.981 299.983 26.705 17.321c1.678 1.089.912 3.694-1.089 3.7l-340.703.985v18.23h432.324v-40.236z" fill="#e4936b"/></g><g><g><path d="m161.551 232.32h40.236v188.642h-40.236z" fill="#e7a561"/></g></g><g><g><path d="m311.219 232.32h40.236v188.642h-40.236z" fill="#e7a561"/></g></g><g><path d="m182.653 232.32h19.134v188.642h-19.134z" fill="#e4936b"/></g><g><path d="m332.321 232.32h19.134v188.642h-19.134z" fill="#e4936b"/></g><g><path d="m140.03 236.88-114.162 77.708 22.41 33.418 163.257-111.126z" fill="#ecbe6b"/></g><g><path d="m372.976 236.88 114.162 77.708-22.41 33.418-163.258-111.126z" fill="#ecbe6b"/></g><g><path d="m477.118 329.529 10.02-14.941-114.162-77.708h-31.969z" fill="#e7a561"/></g><g><path d="m177.949 236.88-140.197 95.43 10.526 15.696 163.257-111.126z" fill="#e7a561"/></g><g><path d="m506.971 460.677h-501.942c-2.778 0-5.029-2.252-5.029-5.029v-52.144c0-2.778 2.252-5.029 5.029-5.029h501.941c2.778 0 5.029 2.252 5.029 5.029v52.144c.001 2.778-2.251 5.029-5.028 5.029z" fill="#dae4ea"/></g><g><path d="m506.971 398.475h-15.349v36.794c0 2.778-2.252 5.029-5.029 5.029h-486.593v15.349c0 2.778 2.252 5.029 5.029 5.029h501.941c2.778 0 5.029-2.252 5.029-5.029v-52.144c.001-2.776-2.251-5.028-5.028-5.028z" fill="#b9c1cb"/></g><g><g><path d="m472.663 241.726h-92.568l-15.928-1.84-15.992 1.84h-308.898v-40.236h433.386z" fill="#ecbe6b"/></g></g><g><path d="m378.256 201.49 26.975 17.742c1.668 1.097.891 3.693-1.106 3.693h-364.848v18.801h433.386v-40.236z" fill="#e7a561"/></g><g><g><path d="m492.49 429.576h-30.177c-2.778 0-5.029-2.252-5.029-5.029v-191.232c0-.666-.329-1.288-.88-1.663l-199.324-135.676c-.683-.465-1.581-.465-2.264 0l-199.323 135.676c-.55.375-.88.997-.88 1.663v191.231c0 2.778-2.252 5.029-5.029 5.029h-30.177c-2.778 0-5.029-2.252-5.029-5.029v-201.427c0-7.613 3.758-14.715 10.054-18.996l218.59-148.791c7.855-5.348 18.003-5.345 25.857.001l218.595 148.795c6.288 4.276 10.047 11.378 10.047 18.991v201.427c-.001 2.778-2.253 5.03-5.031 5.03z" fill="#ecbe6b"/></g></g><g><g><path d="m487.473 204.128-218.595-148.795c-7.853-5.346-18.001-5.349-25.857-.001l-3.637 2.476 228.787 156.472c6.288 4.276 10.047 11.378 10.047 18.991v196.304h14.273c2.778 0 5.029-2.252 5.029-5.029v-201.427c0-7.613-3.759-14.715-10.047-18.991z" fill="#e7a561"/></g></g></g></svg>