<svg id="Capa_1" enable-background="new 0 0 512 512" height="512" viewBox="0 0 512 512" width="512" xmlns="http://www.w3.org/2000/svg"><g><g><path d="m202.539 154.249h-32.939c-12.148 0-22.031-9.883-22.031-22.031s9.883-22.031 22.031-22.031h32.939c4.134 0 7.484 3.35 7.484 7.484s-3.35 7.484-7.484 7.484h-32.939c-3.895 0-7.064 3.169-7.064 7.064s3.169 7.064 7.064 7.064h32.939c4.134 0 7.484 3.35 7.484 7.484 0 4.132-3.351 7.482-7.484 7.482z" fill="#057096"/></g><path d="m369.331 57.156h-104.063l-73.265 92.074v188.616c0 16.643 5.136 32.881 14.706 46.497l31.454 44.751c9.033 12.852 23.758 20.5 39.467 20.5h78.736c15.709 0 30.434-7.649 39.467-20.5l31.454-44.751c9.57-13.616 14.706-29.854 14.706-46.497v-188.616l-6-22.316z" fill="#055e7f"/><path d="m408.623 98.273v206.203c0 16.643-5.135 32.881-14.706 46.497l-31.454 44.751c-9.033 12.852-23.758 20.5-39.467 20.5h-78.736c-6.053 0-11.955-1.146-17.446-3.278l11.35 16.147c9.033 12.852 23.758 20.5 39.467 20.5h78.736c15.709 0 30.434-7.648 39.467-20.5l31.454-44.751c9.571-13.616 14.706-29.854 14.706-46.497v-188.615l-6-22.316z" fill="#004c67"/><g><path d="m133.029 215.437c-4.134 0-7.484-3.35-7.484-7.484v-47.552c0-19.667 16-35.667 35.667-35.667 4.134 0 7.484 3.35 7.484 7.484s-3.35 7.484-7.484 7.484c-11.414 0-20.7 9.286-20.7 20.7v47.552c.001 4.133-3.349 7.483-7.483 7.483z" fill="#b9c1cb"/></g><g><path d="m230.906 122.626c15.217-32.275 48.044-54.611 86.092-54.611s70.876 22.336 86.092 54.611c7.227 15.329 22.163 25.438 38.903 26.604v-104.896c.001-24.485-19.848-44.334-44.333-44.334h-161.323c-24.485 0-44.334 19.849-44.334 44.334v104.896c16.74-1.166 31.676-11.275 38.903-26.604z" fill="#e28086"/></g><g><path d="m441.994 44.334c0-21.097-14.741-38.739-34.481-43.221 0 0-.001 0-.002 0 .72 3.17 1.112 6.464 1.112 9.851v120.574c8.062 10.251 20.144 16.771 33.37 17.692v-104.896z" fill="#dd636e"/></g><g><path d="m383.01 224.797h-132.023c-5.523 0-10-4.477-10-10v-150.903c0-5.523 4.477-10 10-10h132.023c5.523 0 10 4.477 10 10v150.903c0 5.523-4.477 10-10 10z" fill="#b4d9fc"/></g><g><path d="m383.032 53.894h-17.766v133.18c0 5.511-4.468 9.978-9.978 9.978h-114.301v17.766c0 5.511 4.467 9.978 9.978 9.978h132.067c5.511 0 9.978-4.467 9.978-9.978v-150.945c0-5.511-4.467-9.979-9.978-9.979z" fill="#8ac7fd"/></g><path d="m141.255 352.745c10.028-13.032 32.529-44.265 32.529-62.125 0-23.186-18.863-42.049-42.049-42.049s-42.048 18.863-42.048 42.049c0 17.861 22.501 49.094 32.529 62.126-13.089 16.849-52.209 69.552-52.209 97.526 0 34.037 27.692 61.729 61.729 61.729 34.038 0 61.73-27.692 61.73-61.729-.001-27.974-39.122-80.677-52.211-97.527zm-9.52-89.207c14.933 0 27.082 12.148 27.082 27.082 0 10.261-14.831 33.485-27.083 49.898-12.252-16.406-27.08-39.624-27.08-49.898 0-14.934 12.149-27.082 27.081-27.082zm0 233.494c-25.785 0-46.761-20.977-46.761-46.761 0-19.84 29.789-63.066 46.761-85.349 16.973 22.283 46.763 65.51 46.763 85.349-.001 25.785-20.978 46.761-46.763 46.761z" fill="#b9c1cb"/><g><path d="m148.797 201.967h-34.124c-3.307 0-5.987 2.68-5.987 5.987v43.348c0 12.73 10.319 23.049 23.049 23.049 12.73 0 23.049-10.319 23.049-23.049v-43.348c0-3.307-2.68-5.987-5.987-5.987z" fill="#e28086"/></g><g><path d="m131.735 274.351c-3.934 0-7.637-.988-10.878-2.726 7.244-3.885 12.171-11.528 12.171-20.323v-43.348c0-3.307-2.68-5.987-5.987-5.987h21.755c3.306 0 5.987 2.68 5.987 5.987v43.348c.001 12.729-10.318 23.049-23.048 23.049z" fill="#dd636e"/></g><g><circle cx="256.547" cy="285.894" fill="#f9ef63" r="20.206"/></g><g><circle cx="377.45" cy="285.894" fill="#dae4ea" r="20.206"/></g><g><circle cx="256.547" cy="363.42" fill="#dae4ea" r="20.206"/></g><g><circle cx="377.45" cy="363.42" fill="#e28086" r="20.206"/></g><g><circle cx="316.999" cy="324.267" fill="#dae4ea" r="20.206"/></g><g><path d="m263.604 266.98c.821 2.2 1.292 4.57 1.292 7.057 0 11.159-9.046 20.206-20.206 20.206-2.486 0-4.857-.471-7.057-1.292 2.865 7.674 10.241 13.149 18.914 13.149 11.159 0 20.206-9.046 20.206-20.206.001-8.673-5.475-16.048-13.149-18.914z" fill="#f4dd45"/></g><g><path d="m384.507 266.98c.821 2.2 1.292 4.57 1.292 7.057 0 11.159-9.047 20.206-20.206 20.206-2.486 0-4.857-.471-7.057-1.292 2.865 7.674 10.241 13.149 18.914 13.149 11.16 0 20.206-9.046 20.206-20.206 0-8.673-5.475-16.048-13.149-18.914z" fill="#b9c1cb"/></g><g><path d="m263.604 344.506c.821 2.2 1.292 4.57 1.292 7.057 0 11.16-9.046 20.206-20.206 20.206-2.486 0-4.857-.471-7.057-1.292 2.865 7.674 10.241 13.15 18.914 13.15 11.159 0 20.206-9.047 20.206-20.206.001-8.674-5.475-16.049-13.149-18.915z" fill="#b9c1cb"/></g><g><path d="m384.507 344.506c.821 2.2 1.292 4.57 1.292 7.057 0 11.16-9.047 20.206-20.206 20.206-2.486 0-4.857-.471-7.057-1.292 2.865 7.674 10.241 13.15 18.914 13.15 11.16 0 20.206-9.047 20.206-20.206 0-8.674-5.475-16.049-13.149-18.915z" fill="#dd636e"/></g><g><path d="m324.055 305.353c.821 2.2 1.292 4.571 1.292 7.057 0 11.16-9.046 20.206-20.206 20.206-2.486 0-4.857-.471-7.057-1.292 2.865 7.674 10.241 13.15 18.914 13.15 11.16 0 20.206-9.047 20.206-20.206.001-8.674-5.474-16.049-13.149-18.915z" fill="#b9c1cb"/></g><g><g><path d="m298.527 188.229c-9.399 0-10.149-.25-11.142-.582-2.386-.796-4.25-2.689-4.98-5.063-1.235-4.015.636-6.465 3.737-10.524 2.387-3.126 6.831-8.944 14.283-19.593 2.4-3.428 3.384-5.839 3.781-7.33l.103-.814c-.186-2.364-2.168-4.231-4.579-4.231-2.191 0-4.087 1.554-4.507 3.694-.796 4.055-4.727 6.701-8.785 5.902-4.057-.796-6.698-4.729-5.902-8.785 1.795-9.143 9.867-15.779 19.194-15.779 10.786 0 19.561 8.776 19.561 19.562 0 .317-.02.633-.06.947l-.233 1.825c-.032.25-.076.499-.133.744-.926 3.992-3.004 8.315-6.178 12.847-3.528 5.041-6.401 9.03-8.713 12.179 3.143-.019 6.516-.05 9.741-.09.032-.001.064-.001.096-.001 4.089 0 7.429 3.289 7.481 7.389.053 4.133-3.256 7.526-7.388 7.577-6.775.088-11.729.126-15.377.126z" fill="#62b5fe"/></g></g><g><g><path d="m350.491 188.946c-11.652 0-21.133-9.48-21.133-21.133v-21.827c0-11.652 9.48-21.133 21.133-21.133 11.652 0 21.133 9.48 21.133 21.133v21.827c0 11.653-9.48 21.133-21.133 21.133zm0-49.125c-3.4 0-6.165 2.765-6.165 6.165v21.827c0 3.4 2.765 6.165 6.165 6.165s6.165-2.765 6.165-6.165v-21.827c.001-3.4-2.765-6.165-6.165-6.165z" fill="#62b5fe"/></g></g><g><path d="m287.88 92.663h-19.04c-4.134 0-7.484-3.35-7.484-7.484s3.35-7.484 7.484-7.484h19.04c4.134 0 7.484 3.35 7.484 7.484s-3.35 7.484-7.484 7.484z" fill="#62b5fe"/></g></g></svg>