<svg id="Capa_1" enable-background="new 0 0 512 512" height="512" viewBox="0 0 512 512" width="512" xmlns="http://www.w3.org/2000/svg"><g><g><path d="m499.145 442.071-109.696-30.634c-3.565-.995-7.334-.995-10.899 0l-117.101 32.702c-3.565.995-7.334.995-10.899 0l-117.101-32.702c-3.565-.995-7.334-.995-10.899 0l-109.695 30.634c-6.458 1.803-12.855-3.052-12.855-9.757v-341.079c0-4.545 3.028-8.534 7.405-9.757l115.145-32.156c3.565-.995 7.334-.995 10.899 0l117.101 32.702c3.565.995 7.334.995 10.899 0l117.101-32.702c3.565-.995 7.334-.995 10.899 0l115.145 32.156c4.378 1.223 7.405 5.211 7.405 9.757v341.079c.001 6.705-6.396 11.56-12.854 9.757z" fill="#f6f9f9"/></g><g><path d="m504.595 81.478-27.952-7.806v321.21c0 2.012-1.919 3.468-3.856 2.927l-83.337-23.273c-3.565-.995-7.334-.995-10.899 0l-117.101 32.702c-3.565.995-7.334.995-10.899 0l-117.101-32.702c-3.565-.995-7.334-.995-10.899 0l-109.696 30.634c-6.458 1.803-12.855-3.052-12.855-9.757v36.901c0 6.705 6.397 11.56 12.855 9.757l109.696-30.634c3.565-.995 7.334-.995 10.899 0l117.101 32.702c3.565.996 7.334.996 10.899 0l117.101-32.702c3.565-.995 7.334-.995 10.899 0l109.696 30.634c6.458 1.804 12.855-3.052 12.855-9.757v-341.079c-.001-4.545-3.028-8.534-7.406-9.757z" fill="#dae4ea"/></g><g><path d="m250.551 82.025-117.102-32.703c-1.782-.498-3.616-.747-5.449-.747v362.115c1.833 0 3.667.249 5.449.747l117.101 32.702c1.782.498 3.616.747 5.449.747v-362.115c-1.833 0-3.666-.249-5.448-.746z" fill="#dae4ea"/></g><g><path d="m504.595 81.478-115.146-32.156c-1.782-.498-3.616-.747-5.449-.747v362.115c1.833 0 3.667.249 5.449.747l109.696 30.634c6.458 1.804 12.855-3.052 12.855-9.757v-341.079c0-4.545-3.027-8.534-7.405-9.757z" fill="#dae4ea"/></g><g><path d="m133.449 374.536c-1.782-.498-3.616-.747-5.449-.747v36.901c1.833 0 3.667.249 5.449.747l117.101 32.702c1.782.498 3.616.747 5.449.747v-36.901c-1.834 0-3.667-.249-5.449-.747z" fill="#b9c1cb"/></g><g><path d="m504.595 81.478-27.952-7.806v321.21c0 2.012-1.919 3.468-3.856 2.927l-83.337-23.273c-1.782-.498-3.616-.747-5.449-.747v36.901c1.833 0 3.667.249 5.449.747l109.696 30.634c6.458 1.804 12.855-3.052 12.855-9.757v-341.079c-.001-4.545-3.028-8.534-7.406-9.757z" fill="#b9c1cb"/></g><path d="m384 296.435-52.599 14.689c-4.041 1.129-6.402 5.32-5.274 9.361.938 3.359 3.99 5.556 7.314 5.556.676 0 1.364-.091 2.048-.282l48.511-13.547z" fill="#b9c1cb"/><path d="m455.162 347.659-11.764-3.285v-12.087c0-4.196-3.401-7.597-7.597-7.597s-7.597 3.402-7.597 7.597v7.844l-7.677-2.144c-4.042-1.13-8.233 1.233-9.361 5.274-1.129 4.041 1.233 8.232 5.274 9.361l11.764 3.285v12.087c0 4.196 3.401 7.597 7.597 7.597s7.597-3.402 7.597-7.597v-7.844l7.677 2.144c.684.191 1.371.282 2.048.282 3.324 0 6.376-2.198 7.314-5.556 1.128-4.041-1.233-8.232-5.275-9.361z" fill="#909ba5"/><path d="m121.764 277.74c-1.128-4.041-5.32-6.403-9.361-5.274l-112.403 31.39v15.776l34.271-9.571v47.709c0 2.376 1.111 4.615 3.004 6.052 1.336 1.014 2.953 1.546 4.594 1.546.683 0 1.37-.092 2.043-.28l53.837-15.035c4.042-1.129 6.403-5.32 5.274-9.361-1.128-4.042-5.32-6.402-9.361-5.274l-44.196 12.342v-41.943l67.024-18.717c4.042-1.128 6.403-5.319 5.274-9.36z" fill="#b9c1cb"/><g><g><path d="m337.245 462.398-297.161-223.495c-3.887-2.924-1.82-9.113 3.044-9.113h294.122c4.476 0 8.104 3.628 8.104 8.104v220.456c0 4.177-4.771 6.559-8.109 4.048zm-171.623-183.581 131.308 98.757c2.003 1.506 4.866.077 4.866-2.429v-95.718c0-3.357-2.721-6.078-6.078-6.078h-128.27c-2.918 0-4.159 3.713-1.826 5.468z" fill="#ecbe6b"/></g></g><g><g><path d="m337.25 229.79h-13.468v222.483l13.462 10.125c3.338 2.51 8.109.129 8.109-4.048v-220.456c.001-4.475-3.627-8.104-8.103-8.104z" fill="#e7a561"/></g></g><g><g><path d="m246.666 258.917c-4.196 0-7.597-3.402-7.597-7.597v-21.53h15.195v21.529c0 4.196-3.402 7.598-7.598 7.598z" fill="#e7a561"/></g><g><path d="m194.513 247.876c-4.196 0-7.597-3.402-7.597-7.597v-10.489h15.195v10.488c0 4.197-3.402 7.598-7.598 7.598z" fill="#e7a561"/></g><g><path d="m298.82 247.876c-4.196 0-7.597-3.402-7.597-7.597v-10.489h15.195v10.488c-.001 4.197-3.402 7.598-7.598 7.598z" fill="#e7a561"/></g><g><path d="m90.207 247.876c-4.196 0-7.597-3.402-7.597-7.597v-10.489h15.195v10.488c-.001 4.197-3.402 7.598-7.598 7.598z" fill="#e7a561"/></g><g><path d="m142.36 258.917c-4.196 0-7.597-3.402-7.597-7.597v-21.53h15.195v21.529c-.001 4.196-3.402 7.598-7.598 7.598z" fill="#e7a561"/></g></g><path d="m466.354 204.477-80.311-22.428c-1.34-.373-2.757-.374-4.096.002l-28.996 8.131v-77.442c0-2.391-1.126-4.643-3.038-6.077s-4.389-1.884-6.684-1.217l-36.812 10.725v-46.704l-15.195 4.243v46.888l-35.138 10.237-64.185-20.195c-2.308-.726-4.824-.309-6.774 1.122s-3.103 3.706-3.103 6.125v73.649l-54.022-16.916v15.922l59.349 18.584c2.308.723 4.821.303 6.769-1.128s3.099-3.705 3.099-6.122v-73.634l56.503 17.777c1.431.45 2.963.466 4.405.047l79.632-23.199v77.337c0 2.378 1.113 4.618 3.007 6.054s4.354 1.902 6.642 1.261l36.597-10.263 78.263 21.856c.684.191 1.371.282 2.048.282 3.324 0 6.376-2.198 7.314-5.556 1.128-4.041-1.233-8.232-5.274-9.361z" fill="#b9c1cb"/><g fill="#909ba5"><path d="m256 130.808-64.101-20.168c-2.308-.726-4.824-.309-6.774 1.122s-3.103 3.706-3.103 6.125v73.649l-54.022-16.916v15.922l59.349 18.584c2.308.723 4.821.303 6.769-1.128s3.099-3.705 3.099-6.122v-73.634l56.503 17.777c.742.233 1.511.345 2.28.345z"/><path d="m466.354 204.477-80.311-22.428c-.668-.186-1.356-.279-2.043-.28v15.487l.003-.001 78.263 21.856c.684.191 1.371.282 2.048.282 3.324 0 6.376-2.198 7.314-5.556 1.128-4.04-1.233-8.231-5.274-9.36z"/><path d="m449.241 66.02v41.858l-32.435-9.058c-4.041-1.129-8.233 1.233-9.361 5.274-1.129 4.041 1.233 8.232 5.274 9.361l42.076 11.75c.673.188 1.36.28 2.044.28 1.64 0 3.257-.532 4.593-1.546 1.892-1.436 3.004-3.676 3.004-6.052v-47.624z"/></g><path d="m90.572 186.34 37.428-11.72v15.922l-32.888 10.298c-4.893 1.532-9.868-2.123-9.868-7.25 0-3.321 2.158-6.257 5.328-7.25z" fill="#b9c1cb"/></g></svg>