<svg id="Capa_1" enable-background="new 0 0 512 512" height="512" viewBox="0 0 512 512" width="512" xmlns="http://www.w3.org/2000/svg"><g><g><path d="m159.599 72.963h38.371v94.483h-38.371z" fill="#f6f9f9"/></g><g><path d="m179.783 72.963h18.187v94.483h-18.187z" fill="#dae4ea"/></g><g><path d="m205.929 209.496h-54.289v-66.886c0-2.761 2.239-5 5-5h44.289c2.761 0 5 2.239 5 5z" fill="#055e7f"/></g><g><path d="m200.937 137.61h-22.181c2.757 0 4.992 2.235 4.992 4.992v66.894h22.181v-66.894c0-2.757-2.235-4.992-4.992-4.992z" fill="#004c67"/></g><g><path d="m227.532 303.77v-95.512c0-2.757-2.235-4.992-4.992-4.992h-87.694c-2.757 0-4.992 2.235-4.992 4.992v95.512c0 14.16-2.931 28.167-8.61 41.139l-.155.355c-3.951 9.025-6.561 18.527-7.791 28.207-1.152 9.064 12.89 44.493 12.89 44.493l-3.014 50.698 4.958 34.763c.702 4.92 4.915 8.574 9.884 8.574h80.417c4.943 0 9.142-3.617 9.874-8.505l5.223-34.876-4.928-50.306s16.515-36.143 15.284-45.56c-1.249-9.553-3.843-18.93-7.744-27.843-5.679-12.972-8.61-26.979-8.61-41.139z" fill="#057096"/></g><g><path d="m236.142 344.909c-5.678-12.972-8.61-26.979-8.61-41.139v-95.512c0-2.757-2.235-4.992-4.992-4.992h-30.44c2.757 0 4.992 2.235 4.992 4.992v95.512c0 14.16 2.931 28.167 8.61 41.139 7.747 17.699 10.34 37.226 7.478 56.333l-15.313 102.252c-.732 4.888-4.931 8.505-9.874 8.505h30.44c4.943 0 9.142-3.617 9.874-8.505l5.223-34.876-4.928-50.306s16.515-36.143 15.284-45.56c-1.249-9.553-3.843-18.93-7.744-27.843z" fill="#055e7f"/></g><g><path d="m237.132 286.383h-116.752c-4.418 0-8-3.582-8-8v-38.893c0-4.418 3.582-8 8-8h116.753c4.418 0 8 3.582 8 8v38.893c-.001 4.418-3.582 8-8.001 8z" fill="#055e7f"/></g><g><path d="m237.145 231.49h-12.481v26.438c0 4.411-3.576 7.987-7.987 7.987h-104.297v12.481c0 4.411 3.576 7.987 7.987 7.987h116.778c4.411 0 7.987-3.576 7.987-7.987v-38.919c.001-4.411-3.576-7.987-7.987-7.987z" fill="#004c67"/></g><g><path d="m197.97 82.057h-38.371v-41.995c0-4.126.984-8.193 2.869-11.863l13.652-26.573c1.114-2.169 4.214-2.169 5.328 0l13.652 26.572c1.886 3.67 2.869 7.737 2.869 11.863v41.996z" fill="#dae4ea"/></g><g><path d="m195.101 28.199-13.652-26.573c-1.114-2.169-4.214-2.169-5.328 0l-6.429 12.514 7.223 14.058c1.886 3.67 2.869 7.737 2.869 11.863v41.996h18.187v-41.995c-.001-4.127-.984-8.193-2.87-11.863z" fill="#b9c1cb"/></g><g><path d="m179.354 468.675c-12.475 0-22.587-10.113-22.587-22.587v-52.546c0-12.474 10.113-22.587 22.587-22.587 12.474 0 22.587 10.113 22.587 22.587v52.546c0 12.474-10.112 22.587-22.587 22.587z" fill="#f9ef63"/></g><g><g><path d="m340.084 142.456h-38.371v-43.281c0-2.757 2.235-4.992 4.992-4.992h28.387c2.757 0 4.992 2.235 4.992 4.992z" fill="#dae4ea"/></g><g><path d="m301.712 165.671h38.371v82.078h-38.371z" fill="#f9ef63"/></g><g><path d="m335.092 94.182h-17.285c2.757 0 4.992 2.235 4.992 4.992v43.282h17.285v-43.281c0-2.758-2.235-4.993-4.992-4.993z" fill="#b9c1cb"/></g><g><path d="m322.799 165.671h17.285v82.078h-17.285z" fill="#f4dd45"/></g><g><path d="m343.89 260.537h-45.984c-2.761 0-5-2.239-5-5v-37.749c0-2.761 2.239-5 5-5h45.984c2.761 0 5 2.239 5 5v37.749c0 2.762-2.239 5-5 5z" fill="#dae4ea"/></g><g><path d="m343.89 183.793h-45.984c-2.761 0-5-2.239-5-5v-37.749c0-2.761 2.239-5 5-5h34.911l3.702 2.706 3.564-2.706h3.806c2.761 0 5 2.239 5 5v37.749c.001 2.761-2.238 5-4.999 5z" fill="#dae4ea"/></g><g><path d="m343.898 212.788h-11.081v26.684c0 2.757-2.235 4.992-4.992 4.992h-34.919v11.081c0 2.757 2.235 4.992 4.992 4.992h45.999c2.757 0 4.992-2.235 4.992-4.992v-37.765c.001-2.757-2.234-4.992-4.991-4.992z" fill="#b9c1cb"/></g><g><path d="m343.898 136.044h-11.081v26.684c0 2.757-2.235 4.992-4.992 4.992h-34.919v11.081c0 2.757 2.235 4.992 4.992 4.992h45.999c2.757 0 4.992-2.235 4.992-4.992v-37.765c.001-2.757-2.234-4.992-4.991-4.992z" fill="#b9c1cb"/></g></g><g><g><path d="m362.874 293.541-30.176-23.702 25.941-33.026c2.549-3.245 5.834-5.835 9.584-7.557l27.15-12.464c2.216-1.017 4.654.898 4.19 3.291l-5.677 29.33c-.784 4.051-2.523 7.857-5.071 11.101z" fill="#dae4ea"/></g><g><path d="m393.886 249.414 5.677-29.33c.463-2.394-1.975-4.308-4.19-3.291l-11.889 5.458-3.191 16.486c-.784 4.051-2.523 7.857-5.071 11.101l-25.941 33.026 9.238 7.256 15.711-11.037 14.585-18.568c2.548-3.245 4.287-7.05 5.071-11.101z" fill="#b9c1cb"/></g><g><path d="m322.938 261.348h38.371v55.1h-38.371z" fill="#f6f9f9" transform="matrix(.786 .618 -.618 .786 251.526 -149.626)"/></g><g><path d="m322.865 286.768h55.1v17.285h-55.1z" fill="#dae4ea" transform="matrix(.618 -.786 .786 .618 -98.352 388.506)"/></g><g><path d="m318.624 356.038-36.162-28.404c-2.172-1.706-2.549-4.849-.844-7.021l23.318-29.686c1.706-2.172 4.849-2.549 7.021-.844l36.162 28.404c2.172 1.706 2.549 4.849.844 7.021l-23.318 29.686c-1.706 2.172-4.85 2.55-7.021.844z" fill="#dae4ea"/></g><g><path d="m348.125 318.493-8.714-6.845-16.483 20.985c-1.703 2.168-4.841 2.545-7.009.842l-27.46-21.569-6.845 8.714c-1.703 2.168-1.326 5.306.842 7.009l36.174 28.414c2.168 1.703 5.306 1.326 7.009-.842l23.327-29.699c1.704-2.168 1.327-5.306-.841-7.009z" fill="#b9c1cb"/></g></g><path d="m123.668 370.955c-3.735 0-7.256.912-10.359 2.518-1.152 9.064-1.105 18.283.198 27.416l9.666 67.774c.165.004.329.012.495.012 12.474 0 22.587-10.113 22.587-22.587v-52.546c0-12.474-10.112-22.587-22.587-22.587z" fill="#f9ef63"/><path d="m212.454 393.542v52.546c0 11.966 9.307 21.753 21.076 22.531l10.09-67.376c1.42-9.485 1.494-19.073.263-28.49-2.716-1.157-5.704-1.798-8.842-1.798-12.475 0-22.587 10.113-22.587 22.587z" fill="#f9ef63"/><path d="m235.041 370.955c-9.306 0-17.295 5.629-20.754 13.667.077 5.539-.28 11.097-1.107 16.62l-.726 4.847v39.998c0 11.966 9.307 21.753 21.076 22.531l10.09-67.376c1.42-9.485 1.494-19.073.263-28.49-2.716-1.156-5.704-1.797-8.842-1.797z" fill="#f4dd45"/></g></svg>