<svg id="Capa_1" enable-background="new 0 0 512 512" height="512" viewBox="0 0 512 512" width="512" xmlns="http://www.w3.org/2000/svg"><g><g><path d="m495.609 308.957h-16.558v-32.949h16.558c9.052 0 16.391 7.338 16.391 16.391v.168c0 9.052-7.338 16.39-16.391 16.39z" fill="#e28086"/></g><path d="m504.825 278.846c.003.124.019.244.019.368v.168c0 9.052-7.338 16.391-16.391 16.391h-9.402v13.185h16.558c9.052 0 16.391-7.338 16.391-16.391v-.168c0-5.635-2.845-10.603-7.175-13.553z" fill="#dd636e"/><g><path d="m412.655 263.159h55.611v55.611h-31.832c-13.132 0-23.778-10.646-23.778-23.778v-31.833z" fill="#057096"/></g><g><path d="m435.132 263.159v55.598c.171.004.34.013.511.013h32.623v-55.611z" fill="#055e7f"/></g><g><path d="m479.64 222.335-10.615-12.752c-3.846-4.62-11.363-1.901-11.363 4.11v137.647h30.708v-104.872c-.001-8.817-3.089-17.356-8.73-24.133z" fill="#dae4ea"/></g><g><path d="m479.64 222.335-10.615-12.752c-3.846-4.62-11.363-1.901-11.363 4.11v.684l6.624 7.958c5.641 6.777 8.73 15.316 8.73 24.133v104.872h15.354v-104.872c-.001-8.817-3.089-17.356-8.73-24.133z" fill="#b9c1cb"/></g><g><path d="m120.371 375.111c1.031-10.948 9.844-19.657 21.018-20.381 11.193-.725 21.133 7.174 23.536 18.13l.006.029c1.051 4.794.509 9.801-1.546 14.259l-5.853 12.703c-3.431 7.446-2.035 16.226 3.536 22.241l17.864 19.287c2.565 2.769 5.798 4.849 9.406 5.956 11.566 3.548 23.623 5.82 35.982 6.677 3.333.231 5.286-3.692 3.11-6.228l-13.086-15.248c-6.728-7.839-7.265-19.249-1.302-27.685 6.864-9.712 20.093-12.419 30.22-6.184l.429.264c4.179 2.573 7.404 6.44 9.185 11.014l5.075 13.033c2.975 7.64 10.262 12.733 18.459 12.901l32.166.661c.638.013 1.272-.133 1.839-.428 10.749-5.601 20.732-12.353 29.817-20.07 2.539-2.156 1.212-6.314-2.104-6.627l-23.481-2.211c-9.66-.91-17.043-9.02-17.043-18.723v-3.242c0-10.725 7.465-20.005 17.942-22.301 4.794-1.051 9.801-.508 14.258 1.546l12.703 5.853c7.446 3.431 16.227 2.035 22.242-3.536l21.441-19.86c1.834-1.699 3.177-3.857 3.921-6.244 6.948-22.281 9.164-46.407 5.627-71.01-12.735-88.6-95.904-150.366-184.397-136.903-88.407 13.449-149.1 96.075-135.528 184.433 4.677 30.452 17.57 57.6 36.071 79.552 2.153 2.555 6.329 1.238 6.642-2.089z" fill="#dae4ea"/></g><g><g><path d="m214.346 432.537c-.119-.139-.222-.288-.338-.429-16.613.791-32.868-.999-48.333-5.042l13.258 14.314c2.565 2.769 5.798 4.849 9.406 5.956 11.566 3.548 23.623 5.82 35.982 6.677 3.333.231 5.286-3.692 3.11-6.228z" fill="#b9c1cb"/></g><g><path d="m395.741 269.689c-7.178-49.937-36.731-91.346-77.001-115.569 24.659 23.733 42.019 55.444 47.616 91.883 6.857 44.646-5.254 87.822-30.313 121.356l6.466 2.979c7.446 3.431 16.226 2.035 22.241-3.536l21.441-19.86c1.835-1.699 3.177-3.857 3.921-6.244 6.95-22.28 9.166-46.406 5.629-71.009z" fill="#b9c1cb"/></g><g><path d="m338.131 409.417-23.481-2.211c-4.948-.466-9.29-2.829-12.357-6.32-13.179 9.702-27.957 17.493-43.993 22.892 3.161 7.19 10.208 11.94 18.113 12.102l32.166.661c.638.013 1.272-.133 1.839-.428 10.749-5.601 20.732-12.353 29.817-20.07 2.539-2.156 1.212-6.314-2.104-6.626z" fill="#b9c1cb"/></g></g><g><path d="m488.369 358.879h-448.024c-12.356 0-22.408-10.052-22.408-22.409 0-12.356 10.052-22.409 22.408-22.409h9.977c2.513 0 4.874-.978 6.65-2.754l30.528-30.59c2.945-2.943 7.717-2.943 10.662 0 2.944 2.945 2.944 7.717 0 10.662l-30.527 30.589c-4.624 4.623-10.772 7.169-17.312 7.169h-9.977c-4.042 0-7.331 3.289-7.331 7.332s3.289 7.332 7.331 7.332h448.024c4.164 0 7.538 3.375 7.538 7.538s-3.375 7.54-7.539 7.54z" fill="#057096"/></g><g><path d="m345.319 120.513 24.778-17.583c8.322-5.905 19.45-5.969 27.839-.158l42.09 29.156c7.755 5.372 8.56 16.536 1.656 22.965l-42.825 39.878z" fill="#057096"/></g><g><path d="m440.026 131.928-42.09-29.156c-8.388-5.811-19.517-5.747-27.839.158l-1.834 1.301 50.343 34.873c3.166 2.193 3.495 6.751.676 9.376l-32.189 29.974 11.765 16.317 42.825-39.878c6.903-6.429 6.098-17.593-1.657-22.965z" fill="#055e7f"/></g><g><path d="m191.031 93.184-31.129-30.558c-6.53-6.334-16.959-6.175-23.293.355l-18.675 19.253c-3.642 3.755-9.175 4.967-14.052 3.076-12.315-4.776-26.828-2.073-36.604 8.005l-57.712 59.498c-13.035 13.438-12.708 34.899.73 47.934l39.182 38.37z" fill="#e28086"/></g><g><g><path d="m141.887 71.71 35.843 35.186 13.301-13.712-31.129-30.558c-6.53-6.334-16.959-6.175-23.293.355l-3.505 3.613c3.198.938 6.224 2.634 8.783 5.116z" fill="#dd636e"/></g></g><g><circle cx="235.662" cy="292.667" fill="#057096" r="47.114"/></g><g><circle cx="235.662" cy="292.667" fill="#f6f9f9" r="17.68"/></g><g><path d="m253.137 289.983c-1.195-7.783-7.298-13.588-14.676-14.77.128.518.243 1.044.325 1.582 1.482 9.651-5.14 18.676-14.791 20.159-1.868.287-3.711.263-5.482-.021 2.174 8.779 10.721 14.609 19.833 13.209 9.651-1.482 16.273-10.508 14.791-20.159z" fill="#dae4ea"/></g><g><path d="m282.23 285.515c-2.219-14.448-10.783-26.348-22.421-33.303 3.029 5.071 5.158 10.794 6.11 16.992 3.95 25.719-13.697 49.771-39.416 53.721-11.271 1.731-22.221-.686-31.3-6.112 9.539 15.971 28.09 25.422 47.611 22.423 25.719-3.951 43.366-28.002 39.416-53.721z" fill="#055e7f"/></g><g><path d="m137.871 280.298c5.41-42.946 38.901-78.826 84.014-85.209 53.871-7.621 104.132 30.468 111.435 84.383.038.278.074.556.109.835.894 7.046 6.818 12.361 13.921 12.361h90.702c7.07 0 12.68-5.963 12.244-13.02-.424-6.869-1.181-13.78-2.282-20.718-18.907-119.093-130.931-198.903-249.692-178.013-99.552 17.512-171.54 101.329-177.329 198.789-.418 7.034 5.2 12.962 12.247 12.962h90.71c7.104-.001 13.033-5.321 13.921-12.37z" fill="#f6f9f9"/></g><g><path d="m450.296 279.647c-.424-6.869-1.181-13.78-2.282-20.718-18.078-113.872-121.29-191.819-234.122-180.172 94.325 9.857 173.849 81.543 189.508 180.173 1.101 6.937 1.858 13.849 2.282 20.718.436 7.057-5.174 13.02-12.244 13.02h44.615c7.069-.001 12.679-5.964 12.243-13.021z" fill="#dae4ea"/></g><g><path d="m87.767 246.808h10c11.016 0 19.946-8.93 19.946-19.946 0-11.016-8.93-19.946-19.946-19.946h-5.629c-5.063 0-9.959-1.809-13.805-5.101l-30.98-26.513c-4.257-3.643-10.63-3.277-14.441.83-3.319 3.577-3.718 8.976-.961 13.002l30.286 44.217c5.769 8.422 15.321 13.457 25.53 13.457z" fill="#dae4ea"/></g><g><g><path d="m97.767 206.915h-2.189c2.583 3.886 4.091 8.549 4.091 13.565 0 12.86-9.892 23.403-22.482 24.451 3.347 1.219 6.919 1.876 10.579 1.876h10c11.016 0 19.946-8.93 19.946-19.946.001-11.015-8.929-19.946-19.945-19.946z" fill="#b9c1cb"/></g></g><g><path d="m280.275 152.915c-2.865 0-5.729-1.067-7.91-3.202l-13.29-13.006-13.288 13.005c-4.366 4.271-11.464 4.268-15.824-.002l-13.286-13.003-13.286 13.005c-4.362 4.268-11.46 4.268-15.822 0l-18.56-18.165c-2.975-2.912-3.026-7.686-.115-10.661 2.912-2.974 7.685-3.027 10.661-.115l15.925 15.587 13.286-13.005c4.362-4.268 11.461-4.27 15.823 0l13.287 13.005 13.287-13.005c4.361-4.266 11.458-4.269 15.821-.003l13.292 13.009 15.931-15.588c2.976-2.912 7.749-2.86 10.66.116 2.912 2.975 2.86 7.748-.116 10.66l-18.564 18.166c-2.182 2.135-5.048 3.201-7.912 3.202z" fill="#b9c1cb"/></g></g></svg>