<svg id="Capa_1" enable-background="new 0 0 513.535 513.535" height="512" viewBox="0 0 513.535 513.535" width="512" xmlns="http://www.w3.org/2000/svg"><g><g><path d="m130.36 378.236h96.542v51.557h-96.542z" fill="#055e7f"/></g><g><path d="m205.18 378.236h21.722v51.557h-21.722z" fill="#004c67"/></g><g><path d="m284.478 506.15h-211.694c-22.212 0-40.219-18.007-40.219-40.219 0-22.212 18.007-40.219 40.219-40.219h211.695c22.212 0 40.219 18.007 40.219 40.219-.001 22.213-18.007 40.219-40.22 40.219z" fill="#057096"/></g><g><path d="m72.784 506.15h211.695c22.212 0 40.219-18.007 40.219-40.219 0-22.212-18.007-40.219-40.219-40.219h-47.056c-9.258 10.821-14.861 24.861-14.861 40.219 0 2.826.192 5.607.562 8.332.554 4.082-2.541 7.737-6.661 7.737h-180.551c6.203 14.213 20.374 24.15 36.872 24.15z" fill="#055e7f"/></g><g><path d="m103.038 453.443h151.4v24.978h-151.4z" fill="#055e7f"/></g><g><path d="m222.561 465.932c0 2.826.192 5.607.562 8.332.203 1.497-.088 2.934-.737 4.157h32.052v-24.978h-30.598c-.828 4.035-1.279 8.208-1.279 12.489z" fill="#004c67"/></g><g><circle cx="72.784" cy="465.932" fill="#f6f9f9" r="40.219"/></g><g><circle cx="284.478" cy="465.932" fill="#f6f9f9" r="40.219"/></g><g><path d="m93.537 431.477c3.657 6.059 5.764 13.159 5.764 20.753 0 22.212-18.007 40.219-40.219 40.219-7.593 0-14.694-2.107-20.753-5.764 7.041 11.665 19.836 19.466 34.455 19.466 22.212 0 40.219-18.007 40.219-40.219 0-14.619-7.801-27.414-19.466-34.455z" fill="#dae4ea"/></g><g><path d="m305.231 431.477c3.657 6.059 5.764 13.16 5.764 20.753 0 22.212-18.007 40.219-40.219 40.219-7.593 0-14.694-2.107-20.753-5.764 7.041 11.665 19.836 19.466 34.455 19.466 22.212 0 40.219-18.007 40.219-40.219 0-14.619-7.801-27.414-19.466-34.455z" fill="#dae4ea"/></g><g><path d="m284.478 513.535h-211.694c-26.248 0-47.603-21.355-47.603-47.603s21.355-47.603 47.603-47.603h211.695c26.248 0 47.603 21.355 47.603 47.603-.001 26.248-21.355 47.603-47.604 47.603zm-211.694-80.438c-18.105 0-32.835 14.73-32.835 32.835s14.73 32.835 32.835 32.835h211.695c18.105 0 32.835-14.73 32.835-32.835s-14.73-32.835-32.835-32.835z" fill="#b9c1cb"/></g><g><circle cx="72.784" cy="465.932" fill="#004c67" r="10.727"/></g><g><circle cx="284.478" cy="465.932" fill="#004c67" r="10.727"/></g><g><path d="m65.079 214.122c-2.573 0-5.072-1.347-6.431-3.745-2.01-3.548-.763-8.054 2.784-10.065l327.924-185.793c3.548-2.011 8.054-.763 10.065 2.784 2.01 3.548.763 8.054-2.784 10.065l-327.924 185.793c-1.15.652-2.401.961-3.634.961z" fill="#f4dd45"/></g><g><path d="m156.443 315.426c-1.596 0-3.202-.515-4.554-1.576-3.208-2.518-3.767-7.16-1.249-10.367l227.997-290.467c2.519-3.208 7.16-3.767 10.367-1.249s3.767 7.16 1.249 10.367l-227.997 290.467c-1.457 1.856-3.624 2.825-5.813 2.825z" fill="#057096"/></g><g><g><path d="m466.531 338.13c-.407 0-.814-.009-1.223-.028-13.101-.603-23.836-11.338-24.439-24.439-.434-9.422 4.308-18.304 12.374-23.181 3.684-2.227 5.884-6.053 5.884-10.234v-10.454c0-4.078 3.306-7.384 7.384-7.384s7.384 3.306 7.384 7.384v10.454c0 9.255-4.985 18.019-13.01 22.872-3.431 2.074-5.447 5.854-5.263 9.864.251 5.464 4.901 10.114 10.365 10.365 3.016.141 5.878-.928 8.052-3.004 2.175-2.078 3.374-4.878 3.374-7.885 0-4.078 3.306-7.384 7.384-7.384s7.384 3.306 7.384 7.384c0 7.081-2.82 13.674-7.942 18.565-4.825 4.607-11.073 7.105-17.708 7.105z" fill="#b9c1cb"/></g><g><g><path d="m450.195 192.139c-4.078 0-7.384-3.306-7.384-7.384v-126.117c0-4.078 3.306-7.384 7.384-7.384s7.384 3.306 7.384 7.384v126.118c0 4.077-3.306 7.383-7.384 7.383z" fill="#057096"/></g><g><path d="m484.048 192.139c-4.078 0-7.384-3.306-7.384-7.384v-126.117c0-4.078 3.306-7.384 7.384-7.384s7.384 3.306 7.384 7.384v126.118c0 4.077-3.306 7.383-7.384 7.383z" fill="#057096"/></g></g><g><circle cx="466.942" cy="192.139" fill="#dae4ea" r="26.582"/></g><g><path d="m478.634 168.264c1.731 3.529 2.707 7.496 2.707 11.692 0 14.681-11.901 26.583-26.583 26.583-4.196 0-8.163-.976-11.692-2.707 4.327 8.818 13.39 14.891 23.875 14.891 14.681 0 26.582-11.901 26.582-26.582.001-10.487-6.071-19.551-14.889-23.877z" fill="#b9c1cb"/></g><g><circle cx="466.942" cy="49.299" fill="#dae4ea" r="26.582"/></g><g><path d="m478.634 25.424c1.731 3.529 2.707 7.496 2.707 11.692 0 14.681-11.901 26.582-26.583 26.582-4.196 0-8.163-.976-11.692-2.707 4.327 8.818 13.39 14.891 23.875 14.891 14.681 0 26.582-11.901 26.582-26.582.001-10.486-6.071-19.55-14.889-23.876z" fill="#b9c1cb"/></g><g><path d="m462.237 200.84-23.388 21.229c-1.928 1.75-2.725 4.425-2.07 6.945l9.5 36.527c.802 3.085 3.587 5.238 6.775 5.238h27.776c3.187 0 5.972-2.153 6.775-5.238l9.5-36.527c.655-2.52-.142-5.195-2.07-6.945l-23.388-21.229c-2.669-2.422-6.741-2.422-9.41 0z" fill="#f9ef63"/></g><path d="m495.035 222.069-13.731-12.463-10.163 39.076c-.802 3.085-3.587 5.238-6.775 5.238h-21.109l3.023 11.621c.802 3.085 3.587 5.238 6.775 5.238h27.776c3.187 0 5.972-2.153 6.775-5.238l9.5-36.527c.654-2.52-.143-5.195-2.071-6.945z" fill="#f4dd45"/></g><g><path d="m189.757 343.69c-2.003 0-3.998-.81-5.455-2.405l-113.262-124.034v82.43c0 4.078-3.306 7.384-7.384 7.384s-7.384-3.306-7.384-7.384v-101.467c0-3.048 1.872-5.782 4.714-6.884 2.843-1.102 6.068-.346 8.123 1.905l126.099 138.093c2.75 3.011 2.538 7.682-.474 10.432-1.416 1.292-3.2 1.93-4.977 1.93z" fill="#f4dd45"/></g><path d="m456.326 49.208c2.016-3.358 1.059-7.707-2.182-9.908l-29.224-19.853c-3.239-2.2-7.635-1.488-10.015 1.623l-99.922 130.669c-5.078 6.64-9.813 13.656-14.074 20.854l-74.918 126.567c-1.986 3.356-1.021 7.678 2.205 9.869l29.224 19.853c1.268.861 2.712 1.276 4.144 1.276 2.212 0 4.394-.992 5.843-2.863l90.059-116.283c6.396-8.256 12.206-17.135 17.434-26.152zm-137.011 186.947-27.721-18.832.427-.721 49.803-9.51zm-27.894 36.016-7.877-41.25.512-.865 26.198 17.797zm59.056-142.537 9.276 48.576-30.551-20.754zm12.03-15.732.642-.839 26.726 18.155-18.254 30.411zm10.936-14.3 39.994-7.637-15.95 26.571-25.353-17.223zm48.953-64.017 17.676 12.008-16.442 27.391-36.724 7.013zm-101.929 133.791 30.748 20.888-49.161 9.387 11.564-19.536c2.156-3.642 4.452-7.226 6.849-10.739zm-60.488 143.392-17.746-12.056 29.943-50.587 7.183 37.618z" fill="#e7a561"/><g><path d="m196.876 338.505h-58.98v-13.298c0-16.287 13.203-29.49 29.49-29.49 16.287 0 29.49 13.203 29.49 29.49z" fill="#ecbe6b"/></g><g><path d="m167.386 295.718c-3.867 0-7.555.752-10.939 2.105 10.869 4.346 18.551 14.965 18.551 27.385v13.297h21.878v-13.297c0-16.287-13.203-29.49-29.49-29.49z" fill="#e7a561"/></g><g><path d="m65.072 322.421h155.001v69.143h-155.001z" fill="#f9ef63"/></g><g><path d="m87.524 391.564h-66.396c-3.045 0-5.36-2.737-4.854-5.74l18.339-108.873c.559-3.318 3.432-5.747 6.796-5.747h43.431c3.806 0 6.892 3.086 6.892 6.892v90.063z" fill="#f9ef63"/></g><g><path d="m187.807 322.421v37.861c0 4.35-3.526 7.876-7.876 7.876h-114.859v23.406h155.002v-69.143z" fill="#f4dd45"/></g><g><path d="m84.84 271.204h-16.514v89.078c0 4.35-3.526 7.876-7.876 7.876h-41.2l-2.976 17.665c-.506 3.003 1.809 5.74 4.854 5.74h70.603v-113.468c.001-3.806-3.085-6.891-6.891-6.891z" fill="#f4dd45"/></g><g><circle cx="392.996" cy="20.943" fill="#dae4ea" r="20.943"/></g><g><path d="m400.845 1.535c.982 2.426 1.535 5.071 1.535 7.848 0 11.567-9.377 20.943-20.943 20.943-2.778 0-5.423-.553-7.848-1.535 3.107 7.675 10.619 13.095 19.409 13.095 11.567 0 20.943-9.377 20.943-20.943-.002-8.789-5.421-16.301-13.096-19.408z" fill="#b9c1cb"/></g><g><path d="m440.192 71.277-40.072-27.222c-2.884-1.959-3.453-5.978-1.225-8.661l19.372-23.326c8.906-10.723 24.5-12.929 36.031-5.096 11.394 7.74 15.157 22.804 8.742 34.993l-14.302 27.176c-1.64 3.12-5.63 4.117-8.546 2.136z" fill="#f9ef63"/></g><g><path d="m454.299 6.973c-8.083-5.491-18.161-6.043-26.534-2.191.645.365 1.281.753 1.904 1.176 11.394 7.74 15.157 22.804 8.742 34.993l-11.287 21.448 13.069 8.878c2.916 1.981 6.906.984 8.547-2.135l14.302-27.176c6.414-12.19 2.651-27.253-8.743-34.993z" fill="#f4dd45"/></g><g><path d="m252.48 349.546h-13.701c-4.078 0-7.384-3.306-7.384-7.384s3.306-7.384 7.384-7.384h13.701c4.078 0 7.384 3.306 7.384 7.384s-3.306 7.384-7.384 7.384z" fill="#057096"/></g><g><circle cx="65.072" cy="206.737" fill="#ecbe6b" r="20.943"/></g><g><path d="m72.921 187.328c.982 2.426 1.535 5.071 1.535 7.848 0 11.567-9.377 20.943-20.943 20.943-2.778 0-5.423-.553-7.848-1.535 3.107 7.675 10.619 13.095 19.408 13.095 11.567 0 20.943-9.377 20.943-20.943 0-8.788-5.42-16.301-13.095-19.408z" fill="#e7a561"/></g><path d="m310.255 339.517-47.904-68.314h-44.319c-3.866 0-7 3.134-7 7v89.955l5.008 23.406h122.717c3.866 0 7-3.134 7-7v-38.847l-4-6.2z" fill="#f9ef63"/><path d="m322.353 339.517v20.765c0 4.35-3.526 7.876-7.876 7.876h-103.444v23.406h127.834c3.806 0 6.892-3.086 6.892-6.892v-38.955l-4-6.2z" fill="#f4dd45"/><g><path d="m338.867 271.204h-76.515v31.107c0 3.617 1.53 7.065 4.213 9.492l33.835 30.608c2.353 2.129 5.413 3.307 8.586 3.307h36.773v-67.622c-.001-3.807-3.086-6.892-6.892-6.892z" fill="#b4d9fc"/></g><g><path d="m338.867 271.204h-16.514v74.514h23.406v-67.622c-.001-3.807-3.086-6.892-6.892-6.892z" fill="#8ac7fd"/></g></g></svg>