<svg id="Capa_1" enable-background="new 0 0 512 512" height="512" viewBox="0 0 512 512" width="512" xmlns="http://www.w3.org/2000/svg"><g><g><path d="m105.928 151.304v-50.451c0-2.374-2.623-3.811-4.623-2.533l-4.273 2.729c-18.155 11.595-29.142 31.65-29.142 53.192v2.072h-9.495v42.243h83.233v-37.243l-11.201-5h-19.489c-2.767 0-5.01-2.242-5.01-5.009z" fill="#909ba5"/></g><g><path d="m113.656 156.313c0 5.901-4.784 10.685-10.685 10.685h-44.576v31.558h83.233v-37.243l-11.201-5z" fill="#808b95"/></g><g><path d="m109.053 385.357-14.586-25.264c-.716-1.24-2.039-2.004-3.47-2.004h-29.174c-1.432 0-2.755.764-3.47 2.004l-14.586 25.264c-.716 1.24-.716 2.767 0 4.007l14.586 25.264c.716 1.24 2.039 2.004 3.47 2.004h29.173c1.432 0 2.755-.764 3.47-2.004l14.586-25.264c.717-1.24.717-2.767.001-4.007zm-32.644 11.563c-5.28 0-9.559-4.28-9.559-9.559 0-5.28 4.28-9.559 9.559-9.559 5.28 0 9.559 4.28 9.559 9.559.001 5.279-4.279 9.559-9.559 9.559z" fill="#057096"/></g><g><path d="m156.8 119.662h15.028v47.337h-15.028z" fill="#b9c1cb"/></g><g><path d="m186.847 125.975h-45.067c-3.314 0-6-2.686-6-6v-18.607c0-3.314 2.686-6 6-6h45.067c3.314 0 6 2.686 6 6v18.607c0 3.314-2.686 6-6 6z" fill="#909ba5"/></g><g><path d="m186.836 95.368h-8.752v9.833c0 3.32-2.691 6.011-6.011 6.011h-36.293v8.752c0 3.32 2.691 6.011 6.011 6.011h45.045c3.32 0 6.011-2.691 6.011-6.011v-18.585c0-3.32-2.691-6.011-6.011-6.011z" fill="#808b95"/></g><g><path d="m130.426 156.313v20.469c0 3.873-3.14 7.013-7.013 7.013l-20.351 4.33-19.722-4.33c-3.873 0-7.013-3.14-7.013-7.013v-22.541c0-21.542-10.987-41.597-29.142-53.192l-4.273-2.729c-2.001-1.278-4.623.159-4.623 2.533v50.451c0 2.766-2.243 5.009-5.009 5.009h-28.271c-2.766 0-5.009 2.243-5.009 5.009v50.847h200.023v-50.847c0-2.766-2.243-5.009-5.009-5.009z" fill="#dae4ea"/></g><g><g><path d="m58.733 154.242v22.541c0 3.873 3.14 7.013 7.013 7.013h17.594c-3.873 0-7.013-3.14-7.013-7.013v-22.541c0-21.542-10.987-41.597-29.142-53.192l-4.273-2.729c-2.001-1.278-4.623.159-4.623 2.533v6.892c12.902 11.84 20.444 28.655 20.444 46.496z" fill="#b9c1cb"/></g><g><path d="m195.013 156.313h-17.595c2.766 0 5.009 2.243 5.009 5.009v50.847h17.595v-50.847c.001-2.766-2.242-5.009-5.009-5.009z" fill="#b9c1cb"/></g></g><g><path d="m52.659 229.744h-52.659v61.219c0 8.023 1.933 15.927 5.636 23.044l30.048 57.756c1.548 2.975 4.623 4.841 7.976 4.841h.001c4.965 0 8.991-4.025 8.991-8.99z" fill="#dae4ea"/></g><g><path d="m30.431 229.744-.007 131.909 5.26 10.111c1.548 2.975 4.622 4.841 7.976 4.841h.001c4.965 0 8.991-4.025 8.991-8.99l.008-137.871z" fill="#b9c1cb"/></g><g><path d="m506 240.544h-506v-56.749h506c3.314 0 6 2.686 6 6v44.749c0 3.314-2.686 6-6 6z" fill="#909ba5"/></g><g><path d="m505.989 183.795h-12.494v32.232c0 3.32-2.691 6.011-6.011 6.011h-487.484v18.505h505.989c3.32 0 6.011-2.691 6.011-6.011v-44.727c0-3.319-2.691-6.01-6.011-6.01z" fill="#808b95"/></g><g><path d="m109.053 385.357-14.586-25.264c-.716-1.24-2.039-2.004-3.47-2.004h-15.029c1.432 0 2.755.764 3.47 2.004l14.586 25.264c.716 1.24.716 2.767 0 4.007l-14.586 25.264c-.716 1.24-2.039 2.004-3.47 2.004h15.028c1.432 0 2.755-.764 3.47-2.004l14.586-25.264c.717-1.24.717-2.767.001-4.007z" fill="#055e7f"/></g><g fill="#b9c1cb"><path d="m49.078 200.631c-4.112.124-7.282 3.711-7.282 7.825v13.583l1 2.883h13.028l1-2.883v-13.898c-.001-4.227-3.491-7.638-7.746-7.51z"/><path d="m101.059 216.328c-3.527 0-6.487 2.43-7.295 5.708-.143.578.782 2.885.782 2.885h13.028s.924-2.307.782-2.885c-.81-3.278-3.769-5.708-7.297-5.708z"/><path d="m152.809 200.627c-4.15 0-7.514 3.364-7.514 7.514v13.898l1 2.883h13.028l1-2.883v-13.898c0-4.15-3.364-7.514-7.514-7.514z"/><path d="m204.559 216.328c-3.527 0-6.487 2.43-7.295 5.708-.143.578.782 2.885.782 2.885h13.028s.924-2.307.782-2.885c-.81-3.278-3.769-5.708-7.297-5.708z"/><path d="m256.309 200.627c-4.15 0-7.514 3.364-7.514 7.514v13.898l1 2.803h13.028l1-2.803v-13.898c0-4.15-3.364-7.514-7.514-7.514z"/><path d="m308.059 216.328c-3.527 0-6.487 2.43-7.295 5.708-.143.578.782 2.805.782 2.805h13.028s.924-2.227.782-2.805c-.81-3.278-3.769-5.708-7.297-5.708z"/><path d="m359.81 200.627c-4.15 0-7.514 3.364-7.514 7.514v13.898l1 2.803h13.028l1-2.803v-13.898c0-4.15-3.364-7.514-7.514-7.514z"/><path d="m411.56 216.328c-3.527 0-6.487 2.43-7.295 5.708-.143.578.782 2.805.782 2.805h13.028s.924-2.227.782-2.805c-.81-3.278-3.77-5.708-7.297-5.708z"/><path d="m463.31 200.627c-4.15 0-7.514 3.364-7.514 7.514v13.898l1 4.711h13.028l1-4.711v-13.898c0-4.15-3.364-7.514-7.514-7.514z"/></g><path d="m41.795 222.039h15.028v18.506h-15.028z" fill="#909ba5"/><path d="m108.573 223.842c0-.623-.084-1.225-.227-1.803h-14.574c-.143.579-.227 1.18-.227 1.803v16.702h15.028z" fill="#909ba5"/><path d="m145.295 222.039h15.028v18.506h-15.028z" fill="#909ba5"/><path d="m212.073 223.842c0-.623-.084-1.225-.227-1.803h-14.574c-.143.579-.227 1.18-.227 1.803v16.702h15.028z" fill="#909ba5"/><path d="m248.796 222.039h15.028v18.506h-15.028z" fill="#909ba5"/><path d="m315.573 223.842c0-.623-.084-1.225-.227-1.803h-14.574c-.143.579-.227 1.18-.227 1.803v16.702h15.028z" fill="#909ba5"/><path d="m352.296 222.039h15.028v18.506h-15.028z" fill="#909ba5"/><path d="m419.074 223.842c0-.623-.084-1.225-.227-1.803h-14.574c-.143.579-.227 1.18-.227 1.803v16.702h15.028z" fill="#909ba5"/><path d="m455.796 222.039h15.028v18.506h-15.028z" fill="#909ba5"/><g><path d="m195.013 229.744h-89.846c-2.766 0-5.009 2.243-5.009 5.009v132.861c0 4.966 4.025 8.991 8.991 8.991 3.354 0 6.428-1.866 7.976-4.841l30.048-57.756c3.703-7.117 5.636-15.021 5.636-23.044v-18.084c0-2.767 2.243-5.009 5.009-5.009h37.195c2.766 0 5.009-2.243 5.009-5.009v-28.109c.001-2.767-2.242-5.009-5.009-5.009z" fill="#dae4ea"/></g><g><path d="m195.013 229.744h-12.865v15.244c0 2.766-2.243 5.009-5.009 5.009h-37.195c-2.766 0-5.009 2.243-5.009 5.009v18.083c0 8.023-1.933 15.927-5.636 23.044l-29.141 56.013v15.468c0 4.966 4.025 8.991 8.991 8.991 3.353 0 6.428-1.866 7.976-4.841l30.048-57.756c3.703-7.117 5.636-15.022 5.636-23.044v-18.084c0-2.766 2.243-5.009 5.009-5.009h37.195c2.766 0 5.009-2.243 5.009-5.009v-28.109c.001-2.767-2.242-5.009-5.009-5.009z" fill="#b9c1cb"/></g></g></svg>