<svg id="Capa_1" enable-background="new 0 0 512 512" height="512" viewBox="0 0 512 512" width="512" xmlns="http://www.w3.org/2000/svg"><g><g><g><path d="m417.68 494.356h-323.359c-12.15 0-22-9.85-22-22v-432.712c0-12.15 9.85-22 22-22h323.359c12.15 0 22 9.85 22 22v432.712c0 12.15-9.85 22-22 22z" fill="#057096"/></g></g><g><path d="m417.68 17.644h-44.489v388.042c0 12.25-9.931 22.181-22.181 22.181h-278.689v44.489c0 12.15 9.85 22 22 22h323.359c12.15 0 22-9.85 22-22v-432.712c0-12.15-9.85-22-22-22z" fill="#055e7f"/></g><g><path d="m72.321 247.424v224.932c0 12.15 9.85 22 22 22h323.359c12.15 0 22-9.85 22-22v-224.932z" fill="#dae4ea"/></g><g><path d="m373.191 247.424v158.262c0 12.25-9.931 22.181-22.181 22.181h-278.689v44.489c0 12.15 9.85 22 22 22h323.359c12.15 0 22-9.85 22-22v-224.932z" fill="#b9c1cb"/></g><g><path d="m256 307.205c-7.151 0-14.302-.714-21.403-2.143l-109.724-22.076c-4.094-.824-6.745-4.81-5.921-8.905.824-4.093 4.81-6.743 8.905-5.921l109.724 22.076c12.222 2.459 24.617 2.459 36.839 0l109.725-22.076c4.098-.825 8.081 1.827 8.905 5.921s-1.827 8.081-5.921 8.905l-109.725 22.076c-7.102 1.428-14.253 2.143-21.404 2.143z" fill="#b9c1cb"/></g><g><path d="m256 357.195c-7.152 0-14.301-.714-21.403-2.143l-109.724-22.075c-4.094-.824-6.745-4.81-5.921-8.905.824-4.093 4.81-6.745 8.905-5.921l109.724 22.075c12.222 2.46 24.617 2.46 36.839 0l109.725-22.075c4.098-.826 8.081 1.827 8.905 5.921s-1.827 8.081-5.921 8.905l-109.725 22.075c-7.102 1.428-14.254 2.143-21.404 2.143z" fill="#b9c1cb"/></g><g><path d="m256 407.185c-7.151 0-14.302-.714-21.403-2.143l-109.724-22.076c-4.094-.824-6.745-4.81-5.921-8.905.824-4.093 4.81-6.745 8.905-5.921l109.724 22.076c12.222 2.459 24.617 2.459 36.839 0l109.725-22.076c4.098-.827 8.081 1.827 8.905 5.921s-1.827 8.081-5.921 8.905l-109.725 22.076c-7.102 1.429-14.253 2.143-21.404 2.143z" fill="#b9c1cb"/></g><g fill="#909ba5"><path d="m384.144 268.16-10.953 2.204v15.426l13.937-2.804c4.094-.824 6.745-4.81 5.921-8.905-.824-4.094-4.807-6.746-8.905-5.921z"/><path d="m384.144 318.15-10.953 2.204v15.426l13.937-2.804c4.094-.824 6.745-4.81 5.921-8.905-.824-4.094-4.807-6.747-8.905-5.921z"/><path d="m384.144 368.141-10.953 2.204v15.426l13.937-2.804c4.094-.824 6.745-4.81 5.921-8.905-.824-4.094-4.807-6.748-8.905-5.921z"/></g><g><g><path d="m417.498 512h-322.996c-21.96 0-39.825-17.866-39.825-39.825v-432.35c0-21.959 17.865-39.825 39.825-39.825h322.997c21.96 0 39.825 17.866 39.825 39.825v432.35c-.001 21.959-17.866 39.825-39.826 39.825zm-322.996-476.712c-2.502 0-4.537 2.035-4.537 4.537v432.35c0 2.502 2.035 4.537 4.537 4.537h322.997c2.502 0 4.537-2.035 4.537-4.537v-432.35c0-2.502-2.035-4.537-4.537-4.537z" fill="#f6f9f9"/></g></g><g><g><path d="m436.598 4.89c3.114 5.674 4.89 12.183 4.89 19.099v432.35c0 21.96-17.866 39.825-39.825 39.825h-322.998c-6.917 0-13.425-1.775-19.099-4.89 6.774 12.341 19.893 20.726 34.936 20.726h322.997c21.96 0 39.825-17.866 39.825-39.825v-432.35c-.001-15.043-8.386-28.162-20.726-34.935z" fill="#dae4ea"/></g></g><g><path d="m234.125 291.88c-4.176 0-7.562-3.386-7.562-7.562v-33.7c0-4.938-2.907-9.445-7.406-11.481l-86.474-39.146c-9.897-4.48-16.291-14.395-16.291-25.259v-38.493c0-12.509 10.176-22.685 22.685-22.685h25.174c4.176 0 7.562 3.386 7.562 7.562s-3.386 7.562-7.562 7.562h-25.174c-4.17 0-7.562 3.392-7.562 7.562v38.493c0 4.938 2.907 9.445 7.405 11.481l86.474 39.146c9.897 4.48 16.292 14.395 16.292 25.259v33.7c0 4.176-3.385 7.561-7.561 7.561z" fill="#004c67"/></g><g><path d="m408.035 173.858h-237.592c-7.732 0-14-6.268-14-14v-77.487c0-7.732 6.268-14 14-14h237.592c7.732 0 14 6.268 14 14v77.486c0 7.733-6.268 14.001-14 14.001z" fill="#fff9c1"/></g><g><path d="m408.035 68.371h-14.794v21.194c0 30.651-24.847 55.498-55.498 55.498h-181.3v14.794c0 7.732 6.268 14 14 14h237.592c7.732 0 14-6.268 14-14v-77.486c0-7.732-6.268-14-14-14z" fill="#f9ef63"/></g><g><circle cx="377.129" cy="144.834" fill="#f4dd45" r="8.507"/></g><g><path d="m254.219 327.71c0-7.699 2.898-14.717 7.659-20.034 2.449-2.734 3.904-6.212 3.904-9.883v-8.85c0-5.568-4.514-10.082-10.082-10.082h-43.151c-5.568 0-10.082 4.514-10.082 10.082v8.88c0 3.666 1.452 7.14 3.895 9.873 4.751 5.314 7.641 12.324 7.641 20.013s-2.891 14.699-7.641 20.013c-2.443 2.733-3.895 6.207-3.895 9.873v85.935c0 5.568 4.514 10.082 10.082 10.082h43.151c5.568 0 10.082-4.514 10.082-10.082v-85.904c0-3.67-1.456-7.149-3.904-9.883-4.761-5.315-7.659-12.334-7.659-20.033zm-20.108 97.307c-5.2 0-9.416-4.216-9.416-9.416s4.216-9.416 9.416-9.416 9.416 4.216 9.416 9.416-4.216 9.416-9.416 9.416z" fill="#e28086"/></g><g><g><path d="m265.783 297.794v-8.85c0-5.568-4.514-10.082-10.082-10.082h-17.014c5.568 0 10.082 4.514 10.082 10.082v8.85c0 3.67-1.456 7.148-3.904 9.882-4.761 5.316-7.659 12.335-7.659 20.034s2.898 14.717 7.659 20.034c2.449 2.734 3.904 6.212 3.904 9.882v85.904c0 5.568-4.514 10.082-10.082 10.082h17.013c5.568 0 10.082-4.514 10.082-10.082v-85.904c0-3.67-1.456-7.148-3.904-9.882-4.761-5.316-7.659-12.335-7.659-20.034s2.898-14.717 7.659-20.034c2.449-2.733 3.905-6.212 3.905-9.882z" fill="#dd636e"/></g></g><g><circle cx="201.682" cy="100.23" fill="#f9ef63" r="8.507"/></g><g><path d="m237.205 70.202v16.885c0 8.169 6.622 14.791 14.791 14.791h22.83c4.156 0 8.18-1.455 11.375-4.112l2.013-1.674c6.81-5.664 16.75-5.455 23.315.491 3.723 3.372 5.847 8.161 5.847 13.184v54.662c0 5.168-1.612 10.143-4.237 14.595-1.561 2.647-2.405 5.766-2.262 9.095.363 8.45 7.28 15.41 15.728 15.819 9.523.46 17.388-7.124 17.388-16.545 0-2.915-.754-5.652-2.077-8.03-2.393-4.303-3.858-9.059-3.858-13.983v-5.835c0-6.849 2.721-13.417 7.563-18.26l35.78-35.78c4.843-4.843 7.563-11.411 7.563-18.26v-17.043c0-3.898-3.16-7.058-7.058-7.058h-137.643c-3.898 0-7.058 3.16-7.058 7.058z" fill="#e28086"/></g><g><g><path d="m381.908 63.144h-7.814v17.042c0 6.849-2.721 13.417-7.563 18.26l-35.78 35.78c-4.843 4.843-7.563 11.411-7.563 18.26v5.835c0 4.924 1.464 9.68 3.858 13.983 1.323 2.378 2.077 5.115 2.077 8.03 0 8.707-6.722 15.83-15.257 16.499 2.864 4.079 7.506 6.851 12.74 7.104 9.523.46 17.388-7.124 17.388-16.545 0-2.915-.754-5.652-2.077-8.03-2.393-4.303-3.858-9.059-3.858-13.983v-5.834c0-6.849 2.721-13.417 7.563-18.26l35.78-35.78c4.843-4.843 7.563-11.411 7.563-18.26v-17.043c.001-3.898-3.159-7.058-7.057-7.058z" fill="#dd636e"/></g></g><g><circle cx="231.156" cy="130.467" fill="#f9ef63" r="8.507"/></g><g><circle cx="245.445" cy="147.481" fill="#f9ef63" r="8.507"/></g><path d="m245.445 155.988c4.698 0 8.507-3.809 8.507-8.507 0-.84-.126-1.65-.353-2.417h-16.307c-.227.767-.353 1.577-.353 2.417-.001 4.698 3.807 8.507 8.506 8.507z" fill="#f4dd45"/><g><circle cx="259.733" cy="130.467" fill="#f9ef63" r="8.507"/></g></g></svg>