<svg id="Capa_1" enable-background="new 0 0 512 512" height="512" viewBox="0 0 512 512" width="512" xmlns="http://www.w3.org/2000/svg"><g><g><path d="m439.09 111.046h-144.344l-30.047 65.593v106.357h174.391l5-70.108v-15.755l-4.84-7.419 4.84-7.419v-60.381z" fill="#b4d9fc"/></g><g><path d="m280.111 229.024c-1.899 0-3.797-.725-5.246-2.173-2.898-2.897-2.898-7.595 0-10.492l24.273-24.273c2.897-2.897 5.32.111 8.217 3.008 2.898 2.897 5.172 4.586 2.274 7.483l-24.273 24.273c-1.448 1.449-3.346 2.174-5.245 2.174z" fill="#057096"/></g><g><path d="m412.209 111.046v171.95h26.881l5-70.108v-15.755l-4.84-7.419 4.84-7.419v-60.381l-5-10.868z" fill="#8ac7fd"/></g><g><path d="m264.699 282.996h42.092v-34.114c0-4.082-1.592-8.003-4.437-10.929l-37.655-38.735z" fill="#057096"/></g><g><path d="m302.354 237.953-37.655-38.735v26.586l19.417 19.974c2.845 2.927 4.437 6.848 4.437 10.929v26.29h18.238v-34.114c0-4.083-1.592-8.004-4.437-10.93z" fill="#055e7f"/></g><g><path d="m344.823 290.415c-4.097 0-7.419-3.322-7.419-7.419v-179.577c0-4.097 3.322-7.419 7.419-7.419s7.419 3.322 7.419 7.419v179.577c0 4.097-3.321 7.419-7.419 7.419z" fill="#f9ef63"/></g><g><path d="m444.09 212.888-91.402 26.371c-4.658 1.344-7.865 5.607-7.865 10.455v33.283h99.267z" fill="#fff9c1"/></g><g><path d="m66.059 321.11h74.116v48.099h-74.116z" fill="#fff9c1"/></g><g><path d="m108.46 321.11v16.883c0 7.236-5.866 13.101-13.101 13.101h-29.3v18.114h74.116v-48.098z" fill="#f9ef63"/></g><g><path d="m267.564 314.712h-124.328v-85.42c0-13.426 8.859-25.242 21.746-29.007l94.983-27.743c3.799-1.11 7.599 1.739 7.599 5.697z" fill="#fff9c1"/></g><g><path d="m239.93 178.393v136.318h27.634v-136.472c0-3.958-3.8-6.807-7.599-5.697z" fill="#f9ef63"/></g><g><path d="m436.906 412.835h-244.62c-37.376 0-67.675-30.299-67.675-67.675 0-37.376 30.299-67.675 67.675-67.675h244.62c37.376 0 67.675 30.299 67.675 67.675 0 37.376-30.299 67.675-67.675 67.675z" fill="#f9ef63"/></g><g><path d="m6.936 427.077h68.298c3.824 0 6.924-3.1 6.924-6.924v-151.71c0-3.824-3.1-6.924-6.924-6.924h-42.254c-4.736 0-8.074 4.648-6.561 9.136l9.695 28.759c9.518 28.235 5.101 59.31-11.909 83.774l-22.954 33.011c-3.192 4.592.093 10.878 5.685 10.878z" fill="#f9ef63"/></g><g><path d="m75.234 261.518h-12.343v105.5c0 22.528-18.263 40.791-40.791 40.791h-15.015l-5.834 8.39c-3.192 4.591.093 10.877 5.685 10.877h68.298c3.824 0 6.924-3.1 6.924-6.924v-151.71c0-3.824-3.1-6.924-6.924-6.924z" fill="#f4dd45"/></g><g><circle cx="194.706" cy="345.16" fill="#057096" r="42.164"/></g><g><path d="m213.76 307.551c2.906 5.724 4.555 12.195 4.555 19.054 0 23.286-18.878 42.164-42.164 42.164-6.859 0-13.33-1.648-19.055-4.555 6.96 13.709 21.182 23.109 37.609 23.109 23.286 0 42.164-18.877 42.164-42.164.001-16.426-9.399-30.649-23.109-37.608z" fill="#055e7f"/></g><g><g><path d="m209.089 231.218h-36.085c-4.097 0-7.419-3.322-7.419-7.419s3.322-7.419 7.419-7.419h36.085c4.097 0 7.419 3.322 7.419 7.419 0 4.098-3.322 7.419-7.419 7.419z" fill="#f4dd45"/></g><g><path d="m209.089 258.556h-36.085c-4.097 0-7.419-3.322-7.419-7.419s3.322-7.419 7.419-7.419h36.085c4.097 0 7.419 3.322 7.419 7.419s-3.322 7.419-7.419 7.419z" fill="#f4dd45"/></g></g><g><path d="m412.209 222.086v60.91h31.881v-70.108z" fill="#f9ef63"/></g><g><path d="m425.461 84.923h-117.086c-10.288 0-18.629 8.34-18.629 18.629v16.362c0 1.105.895 2 2 2h152.344v-18.362c0-10.288-8.34-18.629-18.629-18.629z" fill="#f9ef63"/></g><g><path d="m425.461 84.923h-31.881c10.288 0 18.629 8.34 18.629 18.629v18.362h31.882v-18.362c-.001-10.288-8.341-18.629-18.63-18.629z" fill="#f4dd45"/></g><path d="m512 345.162c0-.001 0-.001 0-.002 0-41.407-33.687-75.094-75.094-75.094h-244.62c-40.861 0-74.428 32.806-75.053 73.466-.026 1.715 0 3.263 0 3.263.876 40.653 34.194 73.46 75.053 73.46h244.619c41.405 0 75.091-33.684 75.094-75.089.001-.001.001-.002.001-.004zm-40.744 49.463-3.87-6.058c-2.204-3.452-6.792-4.464-10.246-2.258-3.453 2.206-4.464 6.793-2.258 10.246l3.2 5.01c-5.008 1.886-10.331 3.118-15.867 3.604v-7.415c0-4.097-3.322-7.419-7.419-7.419s-7.419 3.322-7.419 7.419v7.662h-14.981v-7.794c0-4.097-3.322-7.419-7.419-7.419s-7.419 3.322-7.419 7.419v7.794h-15.23v-7.794c0-4.097-3.322-7.419-7.419-7.419s-7.419 3.322-7.419 7.419v7.794h-15.23v-7.794c0-4.097-3.322-7.419-7.419-7.419s-7.419 3.322-7.419 7.419v7.794h-15.23v-7.794c0-4.097-3.322-7.419-7.419-7.419s-7.419 3.322-7.419 7.419v7.794h-15.23v-7.794c0-4.097-3.322-7.419-7.419-7.419s-7.419 3.322-7.419 7.419v7.794h-15.226v-7.794c0-4.097-3.322-7.419-7.419-7.419s-7.419 3.322-7.419 7.419v7.794h-15.23v-7.794c0-4.097-3.322-7.419-7.419-7.419s-7.419 3.322-7.419 7.419v7.794h-15.484v-7.662c0-4.097-3.322-7.419-7.419-7.419s-7.419 3.322-7.419 7.419v7.404c-5.527-.499-10.839-1.744-15.837-3.639l3.171-4.964c2.206-3.453 1.195-8.04-2.258-10.246-3.453-2.207-8.04-1.194-10.246 2.258l-3.825 5.987c-4.939-3.455-9.334-7.629-13.039-12.372l6.327-3.572c3.568-2.015 4.828-6.54 2.813-10.108s-6.54-4.827-10.108-2.813l-6.667 3.764c-2.333-5.273-3.927-10.94-4.659-16.872h7.528c4.097 0 7.419-3.322 7.419-7.419s-3.322-7.419-7.419-7.419h-7.529c.732-5.933 2.325-11.6 4.658-16.873l6.669 3.765c3.503 1.996 8.082.788 10.108-2.813 2.014-3.568.755-8.093-2.813-10.108l-6.33-3.574c3.706-4.743 8.101-8.918 13.04-12.374l3.827 5.991c2.219 3.482 6.843 4.445 10.246 2.258 3.453-2.206 4.464-6.793 2.258-10.246l-3.174-4.969c5.093-1.931 10.512-3.185 16.151-3.664v3.817c0 4.097 3.322 7.419 7.419 7.419s7.419-3.322 7.419-7.419v-4.051h15.176v4.031c0 4.097 3.322 7.419 7.419 7.419s7.419-3.322 7.419-7.419v-4.031h15.23v4.031c0 4.097 3.322 7.419 7.419 7.419s7.419-3.322 7.419-7.419v-4.031h15.226v4.031c0 4.097 3.322 7.419 7.419 7.419s7.419-3.322 7.419-7.419v-4.031h15.23v4.031c0 4.097 3.322 7.419 7.419 7.419s7.419-3.322 7.419-7.419v-4.031h15.23v4.031c0 4.097 3.322 7.419 7.419 7.419s7.419-3.322 7.419-7.419v-4.031h15.23v4.031c0 4.097 3.322 7.419 7.419 7.419s7.419-3.322 7.419-7.419v-4.031h15.23v4.031c0 4.097 3.322 7.419 7.419 7.419s7.419-3.322 7.419-7.419v-4.031h14.67v4.051c0 4.097 3.322 7.419 7.419 7.419s7.419-3.322 7.419-7.419v-3.828c5.648.466 11.078 1.707 16.181 3.629l-3.203 5.014c-2.206 3.453-1.195 8.04 2.258 10.246 3.403 2.188 8.027 1.223 10.246-2.258l3.873-6.062c4.96 3.455 9.374 7.636 13.095 12.388l-6.43 3.63c-3.568 2.015-4.828 6.54-2.813 10.108 2.026 3.602 6.605 4.809 10.108 2.813l6.784-3.83c2.349 5.292 3.953 10.981 4.688 16.938h-7.673c-4.097 0-7.419 3.322-7.419 7.419s3.322 7.419 7.419 7.419h7.672c-.736 5.957-2.34 11.645-4.689 16.937l-6.782-3.829c-3.568-2.014-8.093-.755-10.108 2.813-2.014 3.568-.755 8.093 2.813 10.108l6.427 3.628c-3.725 4.754-8.139 8.934-13.098 12.389z" fill="#f4dd45"/><g><path d="m431.422 368.253h-222.991c-12.754 0-23.093-10.339-23.093-23.093 0-12.754 10.339-23.093 23.093-23.093h222.991z" fill="#f6f9f9"/></g><g><path d="m371.182 322.067v12.11c0 9.842-7.978 17.82-17.82 17.82h-166.995c2.915 9.416 11.69 16.256 22.064 16.256h222.991v-46.187h-60.24z" fill="#dae4ea"/></g><g><circle cx="434.486" cy="345.16" fill="#057096" r="42.164"/></g><g><path d="m453.54 307.551c2.906 5.724 4.555 12.195 4.555 19.054 0 23.286-18.878 42.164-42.164 42.164-6.86 0-13.33-1.648-19.055-4.555 6.96 13.709 21.182 23.109 37.609 23.109 23.286 0 42.164-18.877 42.164-42.164.001-16.426-9.399-30.649-23.109-37.608z" fill="#055e7f"/></g><g><path d="m344.823 182.295h99.267v14.838h-99.267z" fill="#f9ef63"/></g><g><path d="m317.49 218.421c-1.951 0-3.899-.765-5.356-2.285l-26.404-27.543c-2.836-2.957-2.736-7.654.222-10.489 2.958-2.836 7.654-2.736 10.489.221l26.404 27.543c2.836 2.957 2.736 7.654-.222 10.489-1.438 1.379-3.287 2.064-5.133 2.064z" fill="#055e7f"/></g></g></svg>