<svg id="Capa_1" enable-background="new 0 0 512 512" height="512" viewBox="0 0 512 512" width="512" xmlns="http://www.w3.org/2000/svg"><g><g><path d="m505 326.13h-498c-3.866 0-7-3.134-7-7v-126.26c0-3.866 3.134-7 7-7h171.572l77.428 9.13 77.428-9.13h171.572c3.866 0 7 3.134 7 7v126.26c0 3.866-3.134 7-7 7z" fill="#f9ef63"/></g><g><path d="m504.959 185.87h-24.063v102.114c0 3.889-3.152 7.041-7.041 7.041h-473.855v24.063c0 3.889 3.153 7.041 7.041 7.041h497.917c3.889 0 7.041-3.152 7.041-7.041v-126.176c.001-3.889-3.151-7.042-7.04-7.042z" fill="#f4dd45"/></g><g><path d="m197.595 326.13h-15.088v-35.89c0-4.167 3.378-7.544 7.544-7.544 4.167 0 7.544 3.378 7.544 7.544z" fill="#ecbe6b"/></g><g><path d="m263.544 326.13h-15.088v-20.126c0-4.167 3.378-7.544 7.544-7.544 4.167 0 7.544 3.378 7.544 7.544z" fill="#e7a561"/></g><g><path d="m65.698 326.13h-15.088v-35.89c0-4.167 3.378-7.544 7.544-7.544 4.167 0 7.544 3.378 7.544 7.544z" fill="#e7a561"/></g><g><path d="m131.647 326.13h-15.088v-20.126c0-4.167 3.378-7.544 7.544-7.544 4.167 0 7.544 3.378 7.544 7.544z" fill="#e7a561"/></g><g><path d="m395.441 326.13h-15.088v-20.126c0-4.167 3.378-7.544 7.544-7.544 4.167 0 7.544 3.378 7.544 7.544z" fill="#e7a561"/></g><g><path d="m461.39 326.13h-15.088v-35.89c0-4.167 3.378-7.544 7.544-7.544 4.167 0 7.544 3.378 7.544 7.544z" fill="#e7a561"/></g><g><path d="m329.493 326.13h-15.088v-35.89c0-4.167 3.378-7.544 7.544-7.544 4.167 0 7.544 3.378 7.544 7.544z" fill="#ecbe6b"/></g><path d="m182.507 295.025h15.088v31.104h-15.088z" fill="#e7a561"/><path d="m314.405 295.025h15.088v31.104h-15.088z" fill="#e7a561"/><g><path d="m303.34 246.778h-94.68c-8.284 0-15-6.716-15-15v-45.908h124.68v45.908c0 8.284-6.716 15-15 15z" fill="#ade092"/></g><g><path d="m284.654 185.87v12.134c0 8.333-6.755 15.088-15.088 15.088h-75.906v18.597c0 8.333 6.755 15.088 15.088 15.088h94.503c8.333 0 15.088-6.755 15.088-15.088v-45.819z" fill="#6dd4a1"/></g><g><g><path d="m303.251 261.866h-94.503c-16.666 0-30.177-13.511-30.177-30.177v-45.819h30.177v43.807c0 1.111.901 2.012 2.012 2.012h90.479c1.111 0 2.012-.901 2.012-2.012v-43.807h30.177v45.819c0 16.667-13.51 30.177-30.177 30.177z" fill="#057096"/></g></g><g><g><path d="m318.34 185.87v41.767c0 10.571-8.569 19.141-19.141 19.141h-105.539c-4.423 0-8.619-.959-12.403-2.668 4.744 10.46 15.278 17.757 27.491 17.757h94.503c16.639 0 30.177-13.537 30.177-30.177v-45.82z" fill="#055e7f"/></g></g><g><g><circle cx="80.638" cy="256" fill="#057096" r="42.122"/></g><g><circle cx="80.638" cy="256" fill="#057096" r="42.122"/></g><g><path d="m100.286 218.742c3.1 5.867 4.863 12.55 4.863 19.647 0 23.263-18.859 42.122-42.122 42.122-7.097 0-13.78-1.763-19.647-4.863 7.062 13.363 21.093 22.474 37.258 22.474 23.263 0 42.122-18.859 42.122-42.122 0-16.166-9.111-30.197-22.474-37.258z" fill="#055e7f"/></g><g><path d="m38.516 256c0 5.713 1.143 11.158 3.204 16.126h77.836c2.061-4.968 3.204-10.413 3.204-16.126s-1.143-11.158-3.204-16.126h-77.836c-2.061 4.968-3.204 10.413-3.204 16.126z" fill="#ade092"/></g><g><path d="m119.556 239.874h-14.445c-.458 13.193-6.972 24.846-16.861 32.251h31.305c2.061-4.968 3.204-10.413 3.204-16.126s-1.142-11.157-3.203-16.125z" fill="#6dd4a1"/></g><g><path d="m80.639 305.666c-27.386 0-49.666-22.28-49.666-49.666s22.28-49.666 49.666-49.666 49.666 22.28 49.666 49.666-22.28 49.666-49.666 49.666zm0-84.244c-19.066 0-34.578 15.512-34.578 34.578s15.512 34.578 34.578 34.578 34.578-15.512 34.578-34.578-15.513-34.578-34.578-34.578z" fill="#004c67"/></g></g><g><g><circle cx="431.362" cy="256" fill="#057096" r="42.122"/></g><g><circle cx="431.362" cy="256" fill="#057096" r="42.122"/></g><g><path d="m451.009 218.742c3.1 5.867 4.863 12.55 4.863 19.647 0 23.263-18.859 42.122-42.122 42.122-7.097 0-13.78-1.763-19.647-4.863 7.062 13.363 21.093 22.474 37.258 22.474 23.263 0 42.122-18.859 42.122-42.122.001-16.166-9.111-30.197-22.474-37.258z" fill="#055e7f"/></g><g><path d="m389.24 256c0 5.713 1.143 11.158 3.204 16.126h77.836c2.061-4.968 3.204-10.413 3.204-16.126s-1.143-11.158-3.204-16.126h-77.836c-2.061 4.968-3.204 10.413-3.204 16.126z" fill="#ade092"/></g><g><path d="m470.28 239.874h-14.445c-.458 13.193-6.972 24.846-16.861 32.251h31.305c2.061-4.968 3.204-10.413 3.204-16.126s-1.142-11.157-3.203-16.125z" fill="#6dd4a1"/></g><g><path d="m431.361 305.666c-27.386 0-49.666-22.28-49.666-49.666s22.28-49.666 49.666-49.666 49.666 22.28 49.666 49.666-22.279 49.666-49.666 49.666zm0-84.244c-19.066 0-34.578 15.512-34.578 34.578s15.512 34.578 34.578 34.578 34.578-15.512 34.578-34.578-15.512-34.578-34.578-34.578z" fill="#004c67"/></g></g><g><path d="m262.952 199.81h-13.904c-4.198 0-7.601 3.403-7.601 7.601v.09c0 4.198 3.403 7.601 7.601 7.601h13.904c4.198 0 7.602-3.403 7.602-7.602v-.09c-.001-4.197-3.404-7.6-7.602-7.6z" fill="#fff9c1"/></g></g></svg>