<svg id="Capa_1" enable-background="new 0 0 512 512" height="512" viewBox="0 0 512 512" width="512" xmlns="http://www.w3.org/2000/svg"><g><g><path d="m411.05 425.736h-310.108c-7.736 0-14.203-5.883-14.933-13.584l-20.853-219.86h380.688l-19.854 219.793c-.698 7.73-7.178 13.651-14.94 13.651z" fill="#f6f9f9"/></g><g><path d="m400.168 192.292-11.633 128.78c-3.211 35.546-33.007 62.772-68.698 62.772h-236.513l2.685 28.307c.73 7.701 7.198 13.584 14.934 13.584h310.108c7.762 0 14.241-5.921 14.94-13.651l19.854-219.793h-45.677z" fill="#dae4ea"/></g><g><path d="m442.135 233.355h-166.164c-6.289 0-11.387 5.098-11.387 11.387v56.329c0 6.289 5.098 11.387 11.387 11.387h159.018z" fill="#dae4ea"/></g><g><path d="m389.314 312.458h45.675l7.146-79.103h-45.676z" fill="#b9c1cb"/></g><g><path d="m455.954 158.774h-399.908v-47.234c0-3.866 3.134-7 7-7h385.907c3.866 0 7 3.134 7 7v47.234z" fill="#b9c1cb"/></g><g><path d="m455.954 140.499h-399.908v-47.235c0-3.866 3.134-7 7-7h385.907c3.866 0 7 3.134 7 7v47.235z" fill="#dae4ea"/></g><g><path d="m377.871 363.671h-243.742c-8.656 0-17.236-2.859-24.162-8.051l-73.339-54.979c-22.935-17.193-36.628-44.57-36.628-73.235v-44.995c0-9.65 7.851-17.5 17.5-17.5h477c9.65 0 17.5 7.851 17.5 17.5v44.995c0 28.665-13.693 56.042-36.628 73.235l-73.339 54.979c-6.925 5.192-15.506 8.051-24.162 8.051zm-360.371-183.76c-1.378 0-2.5 1.121-2.5 2.5v44.995c0 23.967 11.449 46.858 30.625 61.233l73.339 54.979c4.346 3.259 9.732 5.053 15.164 5.053h243.743c5.432 0 10.818-1.794 15.163-5.053l73.34-54.979c19.177-14.375 30.626-37.266 30.626-61.233v-44.995c0-1.379-1.122-2.5-2.5-2.5z" fill="#004c67"/></g><g><path d="m473.396 204.322h-434.792c-3.866 0-7-3.134-7-7v-49.823c0-3.866 3.134-7 7-7h434.791c3.866 0 7 3.134 7 7v49.823c.001 3.866-3.133 7-6.999 7z" fill="#dae4ea"/></g><g><path d="m448.953 86.265h-17.112v23.121c0 3.866-3.134 7-7 7h-368.795v24.112h399.907v-47.233c.001-3.866-3.134-7-7-7z" fill="#b9c1cb"/></g><g><path d="m473.395 140.498h-17.112v32.711c0 3.866-3.134 7-7 7h-417.679v17.112c0 3.866 3.134 7 7 7h434.791c3.866 0 7-3.134 7-7v-49.823c.001-3.865-3.133-7-7-7z" fill="#b9c1cb"/></g><g><g><path d="m348.878 378.552h-185.756c-4.418 0-8-3.582-8-8v-28.677c0-4.418 3.582-8 8-8h185.755c4.418 0 8 3.582 8 8v28.677c.001 4.419-3.581 8-7.999 8z" fill="#057096"/></g><g><path d="m348.877 333.875h-11.369v17.307c0 4.418-3.582 8-8 8h-174.386v11.369c0 4.418 3.582 8 8 8h185.755c4.418 0 8-3.582 8-8v-28.676c.001-4.418-3.581-8-8-8z" fill="#055e7f"/></g></g><g><path d="m390.689 176.916h-46.623c-6.868 0-12.435-5.567-12.435-12.435v-23.982h71.493v23.982c.001 6.868-5.567 12.435-12.435 12.435z" fill="#909ba5"/></g><g><path d="m384.598 140.498v12.076c0 3.212-2.604 5.816-5.816 5.816h-47.151v6.091c0 6.868 5.568 12.436 12.436 12.436h46.622c6.868 0 12.436-5.568 12.436-12.436v-23.982h-18.527z" fill="#808b95"/></g><g><path d="m173.964 289.794c0 7.921-6.421 14.342-14.342 14.342s-14.342-6.421-14.342-14.342c0-6.024 8.296-19.677 12.269-25.869.97-1.512 3.176-1.512 4.146 0 3.973 6.192 12.269 19.845 12.269 25.869z" fill="#ade092"/></g><g><path d="m161.695 263.925c-.97-1.512-3.176-1.512-4.146 0-.644 1.004-1.409 2.22-2.227 3.552 2.406 4.707 4.3 9.318 4.3 12.192 0 7.71-6.089 13.981-13.717 14.31 1.791 5.879 7.253 10.157 13.717 10.157 7.921 0 14.342-6.421 14.342-14.342 0-6.024-8.296-19.677-12.269-25.869z" fill="#6dd4a1"/></g><g><path d="m243.969 144.276 8.084-58.012h-165.869l4.062 29.149c1.153 8.274 8.228 14.431 16.582 14.431h14.186c8.353 0 15.429 6.158 16.582 14.431 1.153 8.273 8.228 14.431 16.582 14.431h25.433c3.771 0 6.965 2.78 7.485 6.514l5.758 41.322c1.057 7.586-1.115 15.264-5.981 21.178-3.532 4.293-5.433 9.977-4.753 16.109 1.096 9.877 9.05 17.829 18.927 18.921 12.981 1.435 23.968-8.689 23.968-21.38 0-5.308-1.923-10.164-5.11-13.914-4.883-5.746-6.801-13.449-5.761-20.917l5.758-41.319c.52-3.735 3.714-6.514 7.485-6.514 8.353.001 15.429-6.156 16.582-14.43z" fill="#ade092"/></g><g><g><path d="m233.753 86.265-7.222 51.824c-1.153 8.273-8.228 14.431-16.582 14.431-3.771 0-6.965 2.78-7.485 6.514l-5.758 41.318c-1.041 7.468.878 15.172 5.761 20.917 3.187 3.75 5.11 8.606 5.11 13.914 0 11.131-8.452 20.285-19.288 21.4 3.36 3.36 7.819 5.622 12.758 6.168 12.981 1.435 23.968-8.69 23.968-21.38 0-5.308-1.923-10.164-5.11-13.914-4.883-5.746-6.801-13.449-5.761-20.917l5.758-41.318c.521-3.735 3.714-6.514 7.485-6.514 8.353 0 15.429-6.158 16.582-14.431l8.084-58.012z" fill="#6dd4a1"/></g></g><g><g><path d="m373.378 265.356h-80.158c-4.142 0-7.5-3.358-7.5-7.5 0-4.143 3.358-7.5 7.5-7.5h80.158c4.142 0 7.5 3.358 7.5 7.5 0 4.143-3.358 7.5-7.5 7.5z" fill="#b9c1cb"/></g><g><path d="m331.631 293.169h-38.411c-4.142 0-7.5-3.358-7.5-7.5 0-4.143 3.358-7.5 7.5-7.5h38.412c4.142 0 7.5 3.358 7.5 7.5 0 4.143-3.358 7.5-7.501 7.5z" fill="#b9c1cb"/></g></g></g></svg>