<svg id="Capa_1" enable-background="new 0 0 512 512" height="512" viewBox="0 0 512 512" width="512" xmlns="http://www.w3.org/2000/svg"><g><g><circle cx="256" cy="290.223" fill="#dae4ea" r="115.833"/></g><g><path d="m330.659 201.668c17.016 20.162 27.278 46.21 27.278 74.659 0 63.973-51.86 115.833-115.833 115.833-28.449 0-54.496-10.262-74.659-27.278 21.248 25.177 53.031 41.174 88.555 41.174 63.973 0 115.833-51.86 115.833-115.833 0-35.524-15.997-67.307-41.174-88.555z" fill="#b9c1cb"/></g><g><path d="m256 378.283c-48.556 0-88.06-39.504-88.06-88.06s39.504-88.06 88.06-88.06 88.06 39.504 88.06 88.06-39.504 88.06-88.06 88.06zm0-160.922c-40.176 0-72.862 32.685-72.862 72.862s32.686 72.862 72.862 72.862 72.862-32.685 72.862-72.862-32.686-72.862-72.862-72.862z" fill="#b9c1cb"/></g><g><path d="m179.213 425.097c-18.781 0-33.493-11.762-33.493-26.775 0-15.014 14.712-26.775 33.493-26.775 16.028 0 45.543 18.259 48.856 20.342 2.213 1.39 3.556 3.82 3.556 6.433s-1.343 5.043-3.556 6.433c-3.313 2.083-32.828 20.342-48.856 20.342zm0-38.353c-9.746 0-18.295 5.41-18.295 11.577s8.549 11.578 18.295 11.578c6.368 0 19.009-5.755 29.716-11.576-10.713-5.821-23.36-11.579-29.716-11.579z" fill="#004c67"/></g><path d="m421.079 265.707-7.249-4.268c-8.871-5.223-18.978-7.977-29.272-7.977h-68.495c-12.87 0-23.303-10.433-23.303-23.303v-25.623c0-22.145 11.437-42.939 30.56-54.107 24.914-14.55 40.613-42.85 37.19-73.847l-3.974-35.993c-2.552-23.103-22.075-40.589-45.319-40.589h-110.434c-23.244 0-42.767 17.486-45.318 40.589l-3.974 35.993c-3.423 30.997 12.276 59.297 37.19 73.847 19.123 11.168 30.56 31.962 30.56 54.107v25.623c0 12.87-10.433 23.303-23.303 23.303h-69.706c-9.526 0-18.904 2.359-27.297 6.866l-7.736 4.154c-2.63 1.412-4.271 4.156-4.271 7.141v37.198c0 2.985 1.641 5.729 4.271 7.141l7.736 4.154c8.393 4.507 17.771 6.866 27.297 6.866h69.706c12.87 0 23.303 10.433 23.303 23.303v60.497c0 2.243.074 4.483.217 6.715.099 1.535 5.395 4.595 5.395 4.595h62.296s5.296-3.06 5.395-4.595c.144-2.233.217-4.472.217-6.715v-60.497c0-12.87 10.433-23.303 23.303-23.303h68.495c10.294 0 20.401-2.754 29.272-7.977l7.249-4.268c2.474-1.457 3.993-4.114 3.993-6.985v-35.061c0-2.87-1.519-5.527-3.994-6.984zm-130.098-136.315h-68.253c-18.809 0-34.056-15.247-34.056-34.056v-42.968c4.963 7.811 13.686 12.999 23.626 12.999 6.165 0 11.862-1.995 16.485-5.374 3.47-2.536 8.117-2.536 11.587 0 4.623 3.379 10.32 5.374 16.485 5.374s11.862-1.995 16.485-5.374c3.47-2.536 8.117-2.536 11.587 0 4.623 3.379 10.32 5.374 16.485 5.374 9.94 0 18.663-5.188 23.626-12.999v42.968c-.001 18.809-15.248 34.056-34.057 34.056z" fill="#f9ef63"/><path d="m287.148 422.094s5.296-3.06 5.395-4.595c.144-2.233.217-4.472.217-6.715v-60.497c0-12.87 10.433-23.303 23.303-23.303h-23.367c-12.87 0-23.303 10.433-23.303 23.303v60.497c0 3.786-.21 7.561-.612 11.311h18.367z" fill="#f4dd45"/><g><path d="m333.169 40.589 3.974 35.993c3.423 30.997-12.276 59.297-37.19 73.847-19.123 11.168-30.56 31.962-30.56 54.107v25.623c0 12.87 10.433 23.303 23.303 23.303h23.367c-12.87 0-23.303-10.433-23.303-23.303v-25.623c0-22.145 11.437-42.939 30.56-54.107 24.914-14.55 40.613-42.85 37.19-73.847l-3.974-35.993c-2.552-23.103-22.075-40.589-45.319-40.589h-23.367c23.244 0 42.767 17.486 45.319 40.589z" fill="#f4dd45"/></g><g><path d="m421.079 265.707-7.249-4.268c-8.871-5.223-18.978-7.977-29.272-7.977h-23.367c10.294 0 20.401 2.754 29.272 7.977l7.249 4.268c2.474 1.457 3.993 4.114 3.993 6.985v35.061c0 2.871-1.519 5.528-3.993 6.985l-7.249 4.268c-8.871 5.223-18.978 7.977-29.272 7.977h23.367c10.294 0 20.401-2.754 29.272-7.977l7.249-4.268c2.474-1.457 3.993-4.114 3.993-6.985v-35.061c.001-2.871-1.518-5.528-3.993-6.985z" fill="#f4dd45"/></g><g><path d="m302.582 290.223c0 6.041-5.101 11.025-7.279 16.279-2.258 5.446-2.261 12.556-6.365 16.66s-11.214 4.106-16.66 6.365c-5.253 2.178-10.237 7.279-16.279 7.279-6.041 0-11.025-5.101-16.279-7.279-5.446-2.258-12.556-2.261-16.66-6.365s-4.106-11.214-6.364-16.66c-2.178-5.253-7.279-10.237-7.279-16.279 0-6.041 5.101-11.025 7.279-16.279 2.258-5.446 2.261-12.556 6.365-16.66s11.214-4.106 16.66-6.364c5.253-2.178 10.237-7.279 16.279-7.279 6.041 0 11.025 5.101 16.279 7.279 5.446 2.258 12.556 2.261 16.66 6.365s4.106 11.214 6.365 16.66c2.177 5.252 7.278 10.237 7.278 16.278z" fill="#055e7f"/></g><g><path d="m295.303 273.944c-2.258-5.446-2.261-12.556-6.364-16.66-4.104-4.104-11.214-4.106-16.66-6.365-.147-.061-.293-.132-.44-.197.12.337.246.669.382.995 2.178 5.253 7.279 10.238 7.279 16.279s-5.101 11.025-7.279 16.279c-2.258 5.446-2.261 12.556-6.365 16.66s-11.214 4.106-16.66 6.364c-5.253 2.179-10.237 7.279-16.279 7.279-5.872 0-10.746-4.811-15.838-7.081 1.891 5.292 2.125 11.806 5.983 15.665 4.104 4.104 11.214 4.106 16.66 6.365 5.253 2.178 10.237 7.279 16.279 7.279 6.041 0 11.025-5.101 16.279-7.279 5.446-2.258 12.556-2.26 16.66-6.364s4.106-11.214 6.365-16.66c2.178-5.253 7.279-10.238 7.279-16.279-.002-6.042-5.103-11.026-7.281-16.28z" fill="#004c67"/></g><g><path d="m190.32 18.296c1.997 8.057 9.229 13.714 17.529 13.714h98.01c8.3 0 15.532-5.658 17.529-13.714l3.818-15.399c-4.989-1.87-10.379-2.897-15.989-2.897h-110.434c-5.026 0-9.876.821-14.419 2.336z" fill="#057096"/></g><g><path d="m367.493 206.239-96.114 96.114c-7.345 7.345-19.253 7.345-26.598 0-7.345-7.345-7.345-19.253 0-26.598l96.114-96.114c7.345-7.345 19.253-7.345 26.598 0 7.345 7.345 7.345 19.253 0 26.598z" fill="#057096"/></g><g><path d="m367.493 179.641c-2.909-2.909-6.536-4.646-10.31-5.251 3.804 7.115 2.712 16.16-3.289 22.16l-96.114 96.114c-4.436 4.436-10.534 6.173-16.288 5.251.852 1.594 1.945 3.093 3.289 4.437 7.345 7.345 19.253 7.345 26.598 0l96.114-96.114c7.345-7.344 7.345-19.252 0-26.597z" fill="#055e7f"/></g><g><path d="m323.627 17.336 3.58-14.439c-4.99-1.87-10.38-2.897-15.99-2.897h-23.367c14.41 0 27.385 6.724 35.777 17.336z" fill="#055e7f"/></g><path d="m270.187 474.125 6.87-4.479 7.517-18.006c4.539-10.873 7.221-22.413 7.965-34.141h-73.078c.744 11.728 3.426 23.268 7.965 34.141l7.517 18.006 6.87 4.479z" fill="#057096"/><path d="m270.187 474.125 6.87-4.479 7.517-18.006c4.539-10.873 7.221-22.413 7.965-34.141h-23.367c-.744 11.728-3.426 23.268-7.965 34.141l-9.387 22.486h18.367z" fill="#055e7f"/><g><path d="m234.943 469.646 16.382 39.24c1.734 4.152 7.616 4.152 9.35 0l16.382-39.24z" fill="#dae4ea"/></g><g><path d="m244.317 492.098 7.008 16.788c1.734 4.152 7.616 4.152 9.35 0l16.382-39.24h-23.367z" fill="#b9c1cb"/></g></g></svg>