<svg id="Capa_1" enable-background="new 0 0 512 512" height="512" viewBox="0 0 512 512" width="512" xmlns="http://www.w3.org/2000/svg"><g><g><path d="m441.53 257.654h-152.746v103.684h152.746c28.632 0 51.842-23.21 51.842-51.842 0-28.631-23.211-51.842-51.842-51.842z" fill="#f6f9f9"/></g><path d="m456.519 259.864c1.465 4.797 2.259 9.887 2.259 15.164 0 28.632-23.21 51.842-51.842 51.842h-118.152v34.469h152.746c28.632 0 51.842-23.21 51.842-51.842 0-23.419-15.532-43.202-36.853-49.633z" fill="#dae4ea"/><g><path d="m392.392 316.875h-26.562c-4.075 0-7.378-3.303-7.378-7.378s3.303-7.378 7.378-7.378h26.562c4.075 0 7.378 3.303 7.378 7.378s-3.303 7.378-7.378 7.378z" fill="#dae4ea"/></g><g><path d="m510.814 312.358c1.581-1.581 1.581-4.144 0-5.724l-12.688-12.688c-.718-.718-.989-1.77-.706-2.745l2.171-7.486c.623-2.147-.613-4.392-2.76-5.015l-10.913-3.164c-1.077-.312-1.861-1.24-1.991-2.353l-1.349-11.597c-.258-2.22-2.268-3.811-4.488-3.553l-9.232 1.074c-1.104.129-2.178-.412-2.734-1.374l-6.025-10.436c-1.118-1.936-3.593-2.599-5.53-1.482l-9.777 5.645c-1.638.946-3.707.673-5.044-.664l-10.039-10.039c-1.581-1.581-4.144-1.581-5.725 0l-7.045 7.045c-1.632 1.632-4.277 1.632-5.909 0l-7.045-7.045c-1.581-1.581-4.144-1.581-5.724 0l-7.175 7.175c-1.632 1.632-4.277 1.632-5.909 0l-7.175-7.175c-.807-.807-1.87-1.196-2.927-1.179-1.058-.017-2.12.372-2.927 1.179l-7.175 7.175c-1.632 1.632-4.277 1.632-5.909 0l-7.175-7.175c-1.581-1.581-4.143-1.581-5.724 0l-7.045 7.045c-1.632 1.632-4.277 1.632-5.909 0l-7.045-7.045c-1.581-1.581-4.144-1.581-5.724 0l-7.24 7.241c-1.632 1.632-4.277 1.632-5.909 0l-7.24-7.241c-1.581-1.581-4.144-1.581-5.724 0l-5.542 5.542v22.708l5.542 5.542c1.581 1.581 4.144 1.581 5.724 0l7.24-7.241c1.632-1.632 4.277-1.632 5.909 0l7.24 7.241c1.581 1.581 4.144 1.581 5.724 0l7.045-7.045c1.632-1.632 4.277-1.632 5.909 0l7.045 7.045c1.581 1.581 4.144 1.581 5.724 0l7.175-7.175c1.632-1.632 4.277-1.632 5.909 0l7.175 7.175c.807.807 1.87 1.196 2.927 1.179 1.058.017 2.12-.372 2.927-1.179l7.175-7.175c1.632-1.632 4.277-1.632 5.909 0l7.175 7.175c1.581 1.581 4.144 1.581 5.724 0l7.045-7.045c1.632-1.632 4.277-1.632 5.909 0l7.045 7.045c1.581 1.581 4.144 1.581 5.725 0l4.936-4.936c1.943-1.943 5.199-1.514 6.573.865l4.606 7.977c1.118 1.936 3.593 2.599 5.529 1.482l1.232-.711c1.735-1.002 3.928.101 4.159 2.09l.374 3.212c.258 2.22 2.268 3.811 4.488 3.553l3.728-.434c1.978-.23 3.552 1.63 2.997 3.543l-1.103 3.805c-.623 2.147.613 4.392 2.76 5.015l6.061 1.758c2.035.59 2.692 3.147 1.194 4.645l-.221.221c-1.581 1.581-1.581 4.144 0 5.724l.24.24c1.499 1.498.841 4.055-1.194 4.645l-6.08 1.763c-2.147.623-3.383 2.868-2.76 5.015l1.103 3.805c.555 1.913-1.019 3.773-2.997 3.543l-3.728-.434c-2.22-.258-4.23 1.332-4.488 3.553l-.374 3.212c-.232 1.99-2.425 3.092-4.159 2.09l-1.232-.711c-1.936-1.118-4.411-.454-5.529 1.482l-4.606 7.977c-1.374 2.379-4.63 2.808-6.573.865l-4.936-4.936c-1.581-1.581-4.144-1.581-5.725 0l-7.045 7.045c-1.632 1.632-4.277 1.632-5.909 0l-7.045-7.045c-1.581-1.581-4.144-1.581-5.724 0l-7.175 7.175c-1.632 1.632-4.277 1.632-5.909 0l-7.175-7.175c-.807-.807-1.87-1.196-2.927-1.179-1.058-.017-2.12.372-2.927 1.179l-7.175 7.175c-1.632 1.632-4.277 1.632-5.909 0l-7.175-7.175c-1.581-1.581-4.143-1.581-5.724 0l-7.045 7.045c-1.632 1.632-4.277 1.632-5.909 0l-7.045-7.045c-1.581-1.581-4.144-1.581-5.724 0l-7.24 7.241c-1.632 1.632-4.277 1.632-5.909 0l-7.24-7.241c-1.581-1.581-4.144-1.581-5.724 0l-5.542 5.542v22.708l5.542 5.542c1.581 1.581 4.144 1.581 5.724 0l7.24-7.24c1.632-1.632 4.277-1.632 5.909 0l7.241 7.24c1.581 1.581 4.144 1.581 5.724 0l7.045-7.045c1.632-1.632 4.277-1.632 5.909 0l7.045 7.045c1.581 1.581 4.144 1.581 5.724 0l7.175-7.175c1.632-1.632 4.277-1.632 5.909 0l7.175 7.175c.807.807 1.87 1.196 2.927 1.179 1.058.017 2.12-.372 2.927-1.179l7.175-7.175c1.632-1.632 4.277-1.632 5.909 0l7.175 7.175c1.581 1.581 4.144 1.581 5.724 0l7.045-7.045c1.632-1.632 4.277-1.632 5.909 0l7.045 7.045c1.581 1.581 4.144 1.581 5.725 0l10.039-10.039c1.337-1.337 3.406-1.61 5.044-.664l9.778 5.645c1.936 1.118 4.411.454 5.529-1.482l6.025-10.436c.556-.962 1.63-1.503 2.734-1.374l9.232 1.074c2.22.258 4.23-1.332 4.488-3.553l1.349-11.597c.13-1.114.914-2.041 1.991-2.353l10.913-3.164c2.147-.622 3.383-2.868 2.76-5.015l-2.176-7.504c-.283-.975-.013-2.027.706-2.745z" fill="#057096"/></g><g><path d="m510.814 312.358c1.581-1.581 1.581-4.144 0-5.724l-8.103-8.103-11.876 11.876c-.718.718-.988 1.77-.706 2.745l2.176 7.504c.623 2.147-.613 4.392-2.76 5.015l-10.913 3.164c-1.077.312-1.862 1.24-1.991 2.353l-1.35 11.597c-.258 2.22-2.268 3.811-4.488 3.553l-9.232-1.074c-1.104-.129-2.178.411-2.734 1.374l-6.025 10.436c-1.118 1.936-3.593 2.599-5.529 1.482l-9.778-5.645c-1.638-.946-3.706-.673-5.044.664l-10.039 10.039c-1.581 1.581-4.143 1.581-5.724 0l-7.045-7.045c-1.632-1.632-4.277-1.632-5.909 0l-7.045 7.045c-1.581 1.581-4.144 1.581-5.725 0l-7.175-7.175c-1.632-1.632-4.277-1.632-5.909 0l-7.175 7.175c-.807.807-1.87 1.196-2.928 1.179-1.058.017-2.12-.372-2.927-1.179l-7.175-7.175c-1.632-1.632-4.277-1.632-5.909 0l-7.175 7.175c-1.581 1.581-4.144 1.581-5.724 0l-7.045-7.045c-1.632-1.632-4.277-1.632-5.909 0l-7.045 7.045c-1.581 1.581-4.144 1.581-5.724 0l-7.24-7.24c-1.632-1.632-4.277-1.632-5.909 0l-7.24 7.24c-1.079 1.079-2.611 1.403-3.981 1.009v8.094l5.542 5.542c1.581 1.581 4.144 1.581 5.724 0l7.24-7.241c1.632-1.632 4.277-1.632 5.909 0l7.24 7.241c1.581 1.581 4.144 1.581 5.724 0l7.045-7.045c1.632-1.632 4.277-1.632 5.909 0l7.045 7.045c1.581 1.581 4.144 1.581 5.724 0l7.175-7.175c1.632-1.632 4.277-1.632 5.909 0l7.175 7.175c.807.807 1.87 1.196 2.927 1.179 1.058.017 2.12-.372 2.927-1.179l7.175-7.175c1.632-1.632 4.277-1.632 5.909 0l7.175 7.175c1.581 1.581 4.144 1.581 5.724 0l7.045-7.045c1.632-1.632 4.277-1.632 5.909 0l7.045 7.045c1.581 1.581 4.144 1.581 5.725 0l10.039-10.039c1.337-1.337 3.406-1.61 5.044-.664l9.778 5.645c1.936 1.118 4.412.454 5.529-1.482l6.025-10.436c.556-.963 1.63-1.503 2.734-1.374l9.232 1.074c2.22.258 4.23-1.332 4.488-3.553l1.349-11.597c.13-1.114.914-2.041 1.991-2.353l10.913-3.164c2.147-.623 3.383-2.868 2.76-5.015l-2.176-7.504c-.283-.975-.012-2.027.706-2.745z" fill="#055e7f"/></g><g><path d="m112.152 267.328h-35.438c-9.325 0-18.413 2.94-25.971 8.403l-32.545 23.522c-10.792 7.8-17.693 20.058-18.17 33.365-.869 24.196 18.564 44.158 42.57 44.158h58.649l49.239-8.31v-71.257zm-69.2 79.933c-5.39 0-10.417-3.118-12.454-8.109-2.369-5.804-.295-12.16 4.435-15.58l18.852-13.625c4.157-3.004 9.154-4.621 14.283-4.621h13.949c1.63 0 2.951 1.321 2.951 2.951v23.243c0 8.693-7.047 15.741-15.741 15.741z" fill="#055e7f"/></g><g><path d="m112.152 267.328h-22.987v67.491c0 12.848-10.415 23.263-23.263 23.263h-58.53c7.673 11.27 20.595 18.693 35.226 18.693h58.649l49.239-8.31v-71.257z" fill="#004c67"/></g><g><path d="m176.886 185.733c-6.439-7.2-15.641-11.315-25.3-11.315h-32.676c-18.745 0-33.941 15.196-33.941 33.941v96.832c0 8.15 6.607 14.757 14.757 14.757h171.862v-108.143c0-8.15-6.607-14.757-14.757-14.757h-54.645c-9.66 0-18.861-4.115-25.3-11.315z" fill="#f9ef63"/></g><g><g><path d="m256.83 197.048h-24.84c8.15 0 14.757 6.607 14.757 14.757v108.143h24.841v-108.143c-.001-8.15-6.608-14.757-14.758-14.757z" fill="#f4dd45"/></g></g><g><path d="m281.207 226.34h-32.004c-5.293 0-10.488 1.423-15.042 4.121l-100.83 59.73v86.583h147.876c5.433 0 9.838-4.405 9.838-9.838v-130.758c0-5.433-4.405-9.838-9.838-9.838z" fill="#dae4ea"/></g><g><path d="m281.207 226.34h-18.122v112.637c0 5.433-4.405 9.838-9.838 9.838h-119.916v27.96h147.876c5.433 0 9.838-4.405 9.838-9.838v-130.759c0-5.433-4.405-9.838-9.838-9.838z" fill="#b9c1cb"/></g><g><path d="m246.894 144.396-18.908-10.916c-3.294-1.902-7.506-.773-9.407 2.521l-113.774 197.061c-2.331 4.038-3.559 8.618-3.559 13.281v30.432h49.239v-45.372c0-4.095 1.078-8.118 3.126-11.665l95.803-165.935c1.902-3.294.774-7.505-2.52-9.407z" fill="#057096"/></g><g><path d="m246.894 144.396-13.549-7.822-102.777 178.015c-2.232 3.867-3.408 8.253-3.408 12.718v49.468h23.326v-45.372c0-4.095 1.078-8.118 3.126-11.665l95.803-165.935c1.901-3.294.773-7.505-2.521-9.407z" fill="#055e7f"/></g><g><circle cx="188.749" cy="252.941" fill="#dae4ea" r="17.757"/></g><g><path d="m194.851 236.26c.696 1.903 1.076 3.958 1.076 6.102 0 9.807-7.95 17.757-17.757 17.757-2.144 0-4.199-.38-6.102-1.076 2.489 6.801 9.018 11.655 16.68 11.655 9.807 0 17.757-7.95 17.757-17.757.001-7.663-4.853-14.192-11.654-16.681z" fill="#b9c1cb"/></g><g><path d="m244.773 352.315h-36.704c-12.636 0-22.879-10.243-22.879-22.879 0-12.636 10.243-22.879 22.879-22.879h36.704c12.636 0 22.879 10.243 22.879 22.879 0 12.636-10.243 22.879-22.879 22.879z" fill="#f9ef63"/></g><path d="m260.31 312.647c.279 1.429.43 2.903.43 4.414 0 12.636-10.243 22.879-22.879 22.879h-36.704c-6 0-11.457-2.312-15.537-6.09 2.057 10.523 11.324 18.465 22.449 18.465h36.704c12.636 0 22.879-10.243 22.879-22.879 0-6.636-2.828-12.609-7.342-16.789z" fill="#f4dd45"/><g><circle cx="211.747" cy="329.436" fill="#6dd4a1" r="7.332"/></g><g><circle cx="241.095" cy="329.436" fill="#e4936b" r="7.332"/></g><g><path d="m232.31 270.167c-2.667 0-5.243-1.451-6.556-3.983-1.876-3.617-.465-8.071 3.153-9.947l38.873-20.163c18.06-9.367 29.279-27.825 29.279-48.171v-37.951c0-4.075 3.303-7.378 7.378-7.378s7.378 3.303 7.378 7.378v37.951c0 25.878-14.27 49.356-37.242 61.27l-38.873 20.164c-1.085.563-2.246.83-3.39.83z" fill="#004c67"/></g></g></svg>