<svg id="Capa_1" enable-background="new 0 0 512 512" height="512" viewBox="0 0 512 512" width="512" xmlns="http://www.w3.org/2000/svg"><g><g><path d="m101.19 139.184c-2.608 0-5.145-1.35-6.548-3.77-2.093-3.612-.862-8.238 2.75-10.331l135.546-78.55c3.612-2.092 8.237-.863 10.331 2.75 2.093 3.612.862 8.238-2.75 10.331l-135.545 78.55c-1.193.691-2.497 1.02-3.784 1.02z" fill="#004c67"/></g><g><path d="m358.342 112.03h-160.017c-13.916 0-25.198 11.282-25.198 25.198v35.405c0 13.916 11.282 25.198 25.198 25.198 3.015 0 5.46 2.444 5.46 5.46v134.009h149.07v-134.009c0-3.015 2.444-5.46 5.46-5.46h.027c13.917 0 25.198-11.282 25.198-25.198v-35.405c0-13.916-11.282-25.198-25.198-25.198z" fill="#fff9c1"/></g><g><ellipse cx="278.32" cy="274.461" fill="#f4dd45" rx="27.97" ry="13.451"/></g><g><path d="m358.342 112.03h-43.728c13.917 0 25.198 11.282 25.198 25.198v35.405c0 13.917-11.282 25.198-25.198 25.198h-.027c-3.015 0-5.46 2.444-5.46 5.46v134.009h43.728v-134.009c0-3.015 2.444-5.46 5.46-5.46h.027c13.917 0 25.198-11.282 25.198-25.198v-35.405c0-13.916-11.282-25.198-25.198-25.198z" fill="#f9ef63"/></g><g><path d="m148.247 161.922h-58.668v-29.419c0-4.418 3.582-8 8-8h42.668c4.418 0 8 3.582 8 8z" fill="#057096"/></g><g><path d="m140.184 124.503h-20.122c4.453 0 8.063 3.61 8.063 8.063v29.356h20.122v-29.356c0-4.453-3.61-8.063-8.063-8.063z" fill="#055e7f"/></g><g><path d="m89.579 233.693h-79.579c-5.523 0-10-4.477-10-10v-44.366c0-5.523 4.477-10 10-10h79.579z" fill="#057096"/></g><g><path d="m46.068 169.326v22.219c0 10.36-8.398 18.758-18.758 18.758h-27.31v13.389c0 5.523 4.477 10 10 10h79.579v-64.366z" fill="#055e7f"/></g><g><path d="m203.785 219.846h149.07v15.119h-149.07z" fill="#f9ef63"/></g><g><path d="m309.126 219.846h43.728v15.119h-43.728z" fill="#f4dd45"/></g><g><path d="m278.333 143.228c-4.175 0-7.559-3.384-7.559-7.559v-23.639h15.119v23.639c0 4.175-3.385 7.559-7.56 7.559z" fill="#f4dd45"/></g><g><path d="m241.365 143.228c-4.175 0-7.559-3.384-7.559-7.559v-23.639h15.119v23.639c-.001 4.175-3.385 7.559-7.56 7.559z" fill="#f4dd45"/></g><g><path d="m315.288 143.228c-4.175 0-7.559-3.384-7.559-7.559v-23.639h15.119v23.639c-.001 4.175-3.385 7.559-7.56 7.559z" fill="#f4dd45"/></g><g><path d="m214.885 250.233h-135.428c-5.523 0-10-4.477-10-10v-77.447c0-5.523 4.477-10 10-10h97.66c26.382 0 47.768 21.387 47.768 47.768v39.679c0 5.523-4.477 10-10 10z" fill="#f9ef63"/></g><path d="m193.863 155.811c1.884 5.131 2.913 10.675 2.913 16.46v39.679c0 5.523-4.477 10-10 10h-117.319v18.283c0 5.523 4.477 10 10 10h135.428c5.523 0 10-4.477 10-10v-39.679c0-20.488-12.902-37.958-31.022-44.743z" fill="#f4dd45"/><path d="m421.043 369.018-1.496-7.554-34.184-39.75c-4.404-5.121-10.822-8.067-17.576-8.067h-178.934c-6.754 0-13.173 2.946-17.576 8.067l-34.184 39.75-1.496 7.554z" fill="#f9ef63"/><path d="m331.928 321.714 40.681 47.304h48.435l-1.496-7.554-34.184-39.75c-4.404-5.121-10.822-8.067-17.576-8.067h-53.435c6.753.001 13.171 2.946 17.575 8.067z" fill="#f4dd45"/><g><path d="m121.529 379.561c-3.145 3.657-4.875 8.32-4.875 13.144v26.615h323.33v-26.615c0-4.823-1.73-9.487-4.875-13.144l-15.563-18.097h-282.454z" fill="#055e7f"/></g><g><path d="m435.11 379.561-15.563-18.097h-53.434l15.563 18.097c3.145 3.657 4.874 8.32 4.874 13.144v26.615h53.435v-26.615c0-4.823-1.73-9.487-4.875-13.144z" fill="#004c67"/></g><g><path d="m463.063 408.513h-369.487c-6.36 0-12.415 2.731-16.624 7.5l-29.77 33.724c-5.745 6.508-1.124 16.75 7.556 16.75h447.163c8.68 0 13.301-10.242 7.556-16.75l-29.77-33.724c-4.209-4.768-10.263-7.5-16.624-7.5z" fill="#057096"/></g><g><path d="m509.457 449.737-29.77-33.724c-4.209-4.768-10.263-7.499-16.624-7.499h-53.434c6.36 0 12.415 2.731 16.624 7.499l29.77 33.724c5.745 6.508 1.124 16.75-7.556 16.75h53.434c8.681 0 13.301-10.242 7.556-16.75z" fill="#055e7f"/></g></g></svg>