<svg id="Capa_1" enable-background="new 0 0 512 512" height="512" viewBox="0 0 512 512" width="512" xmlns="http://www.w3.org/2000/svg"><g><g><path d="m441.78 163.827-.233-64.736c-.066-18.266-14.893-33.027-33.143-33.027h-.122c-18.287 0-33.094 14.86-33.028 33.147l.233 64.89c.022 4.626-.805 9.164-2.455 13.487l-1.622 4.246c-.392 1.026-1.914.745-1.914-.353v-147.68c0-18.587-15.211-34.151-33.794-33.795-18.008.345-32.499 15.05-32.499 33.14v153.403c0 1.553-1.259 2.812-2.812 2.812-1.553 0-2.812-1.259-2.812-2.812v-152.748c0-18.586-15.21-34.15-33.793-33.795-18.008.344-32.5 15.05-32.5 33.14v153.403c0 1.553-1.259 2.812-2.812 2.812h-.436c-1.553 0-2.812-1.259-2.812-2.812v-123.806c0-18.586-15.21-34.15-33.793-33.795-18.008.344-32.5 15.05-32.5 33.14l1.194 222.006s-3.651-8.117-4.308-10.168l-20.678-64.541c-5.671-17.699-24.904-27.881-42.492-21.873-17.044 5.822-26.359 24.248-20.84 41.476l20.878 65.165c6.303 19.673 18.23 36.805 34.492 49.543l35.067 27.469c9.501 7.442 15.238 18.792 15.258 30.861v90.186c0 10.929 8.86 19.789 19.789 19.789h179.162c10.929 0 19.789-8.86 19.789-19.789v-88.963c0-14.548 2.551-28.983 7.538-42.649l5.103-13.985c1.71-4.686 3.133-9.462 4.266-14.302 2.171-9.277-23.16-41.981-23.16-41.981s26.872-37.92 27.738-41.982c.638-2.99 1.507-5.933 2.602-8.801l14.632-38.31c4.583-12.003 6.877-24.603 6.817-37.412z" fill="#ecbe6b"/></g><g><g><path d="m441.547 99.092c-.066-18.266-14.893-33.027-33.143-33.027h-.122c-6.801 0-13.119 2.058-18.372 5.581 8.851 5.923 14.695 15.995 14.736 27.446l.233 64.736c.06 12.809-2.234 25.409-6.818 37.412l-14.632 38.31c-2.583 6.763-3.908 13.942-3.908 21.182v43.233c0 14.548-2.551 28.983-7.538 42.65l-5.103 13.985c-4.987 13.666-7.538 28.102-7.538 42.649v88.963c0 10.929-8.86 19.789-19.789 19.789h36.901c10.929 0 19.789-8.86 19.789-19.789v-88.963c0-14.548 2.551-28.983 7.538-42.649l5.103-13.985c1.71-4.686 3.133-9.462 4.266-14.302 2.171-9.277-23.16-41.981-23.16-41.981s26.872-37.92 27.738-41.982c.638-2.99 1.507-5.933 2.602-8.801l14.632-38.31c4.584-12.004 6.878-24.603 6.818-37.412z" fill="#e7a561"/></g></g><g><path d="m189.748 248.353v83.958h223.395c2.17-9.277 3.279-18.786 3.279-28.346v-43.233c0-4.17.454-8.317 1.32-12.379z" fill="#f9ef63"/></g><g><path d="m413.143 332.311c2.17-9.277 3.279-18.786 3.279-28.346v-43.233c0-4.17.454-8.317 1.32-12.379h-36.901c-.866 4.062-1.32 8.209-1.32 12.379v43.233c0 9.56-1.109 19.07-3.279 28.346z" fill="#f4dd45"/></g><g><path d="m297.579 74.5v-40.699c0-18.586-15.21-34.15-33.793-33.795-18.008.344-32.5 15.05-32.5 33.14v41.354z" fill="#057096"/></g><g><path d="m335.702.006c-18.008.345-32.499 15.05-32.499 33.14v41.354h66.293v-40.699c0-18.587-15.211-34.151-33.794-33.795z" fill="#057096"/></g><g><path d="m441.547 99.092c-.066-18.266-14.893-33.027-33.143-33.027h-.122c-18.287 0-33.094 14.86-33.028 33.147l.151 41.92h66.294z" fill="#057096"/></g><g><path d="m404.646 99.092.151 42.04h36.901l-.151-42.04c-.066-18.266-14.893-33.027-33.143-33.027h-.122c-6.801 0-13.119 2.058-18.372 5.581 8.851 5.922 14.695 15.994 14.736 27.446z" fill="#055e7f"/></g><g><path d="m217.275 400.026v97.132c0 8.197 6.645 14.842 14.842 14.842h144.338c10.929 0 19.789-8.86 19.789-19.789v-88.963c0-6.057.449-12.094 1.325-18.064h-165.452c-8.197 0-14.842 6.645-14.842 14.842z" fill="#057096"/></g><g><path d="m396.244 492.211v-88.963c0-6.057.449-12.094 1.325-18.064h-36.901c-.876 5.971-1.325 12.007-1.325 18.064v88.963c0 10.929-8.86 19.789-19.789 19.789h36.901c10.929 0 19.789-8.86 19.789-19.789z" fill="#055e7f"/></g><g><path d="m264.214 58.39c-4.099 0-7.421-3.322-7.421-7.421v-16.697c0-4.099 3.322-7.421 7.421-7.421s7.421 3.322 7.421 7.421v16.697c0 4.099-3.322 7.421-7.421 7.421z" fill="#004c67"/></g><g><path d="m336.35 58.39c-4.099 0-7.421-3.322-7.421-7.421v-16.697c0-4.099 3.322-7.421 7.421-7.421s7.421 3.322 7.421 7.421v16.697c0 4.099-3.322 7.421-7.421 7.421z" fill="#004c67"/></g><g><path d="m408.476 124.747c-4.099 0-7.421-3.322-7.421-7.421v-16.697c0-4.099 3.322-7.421 7.421-7.421s7.421 3.322 7.421 7.421v16.697c0 4.099-3.322 7.421-7.421 7.421z" fill="#004c67"/></g><g fill="#e7a561"><path d="m229.364 266.869h-21.717c-4.099 0-7.421 3.322-7.421 7.421s3.322 7.421 7.421 7.421h21.717c4.099 0 7.421-3.322 7.421-7.421s-3.322-7.421-7.421-7.421z"/><path d="m330.047 281.71h21.716c4.099 0 7.421-3.322 7.421-7.421s-3.322-7.421-7.421-7.421h-21.716c-4.099 0-7.421 3.322-7.421 7.421s3.323 7.421 7.421 7.421z"/><path d="m268.847 281.71h21.717c4.099 0 7.421-3.322 7.421-7.421s-3.322-7.421-7.421-7.421h-21.717c-4.099 0-7.421 3.322-7.421 7.421s3.322 7.421 7.421 7.421z"/></g><path d="m416.422 280.963v-13.347c-.977-.474-2.07-.747-3.23-.747h-21.716c-4.099 0-7.421 3.322-7.421 7.421s3.322 7.421 7.421 7.421h21.716c1.16-.001 2.253-.274 3.23-.748z" fill="#e4936b"/><g><g><path d="m396.258 417.805c-3.551-.554-6.268-3.625-6.268-7.332 0-3.696 2.701-6.761 6.238-7.327m.016 0v14.659m-39.406.089h-22.314c-4.099 0-7.421-3.322-7.421-7.421s3.322-7.421 7.421-7.421h22.314c4.099 0 7.421 3.322 7.421 7.421s-3.322 7.421-7.421 7.421zm-62.885 0h-22.315c-4.099 0-7.421-3.322-7.421-7.421s3.322-7.421 7.421-7.421h22.315c4.099 0 7.421 3.322 7.421 7.421s-3.323 7.421-7.421 7.421zm-62.887 0h-13.791v-14.842h13.791c4.099 0 7.421 3.322 7.421 7.421s-3.322 7.421-7.421 7.421z" fill="#004c67"/></g></g><g><g><path d="m374.102 493.467h-19.775c-4.099 0-7.421-3.322-7.421-7.421s3.322-7.421 7.421-7.421h19.775c4.099 0 7.421 3.322 7.421 7.421s-3.322 7.421-7.421 7.421zm-55.73 0h-19.775c-4.099 0-7.421-3.322-7.421-7.421s3.322-7.421 7.421-7.421h19.775c4.099 0 7.421 3.322 7.421 7.421s-3.322 7.421-7.421 7.421zm-55.73 0h-19.775c-4.099 0-7.421-3.322-7.421-7.421s3.322-7.421 7.421-7.421h19.775c4.099 0 7.421 3.322 7.421 7.421s-3.322 7.421-7.421 7.421z" fill="#004c67"/></g></g><g><path d="m209.421 218.822 11.939-21.204c2.535-4.501 3.866-9.58 3.866-14.746v-120.129c0-18.586-15.21-34.15-33.793-33.795-18.008.344-32.5 15.05-32.5 33.14l1.194 222.006s-3.651-8.117-4.308-10.168l-20.678-64.541c-5.671-17.699-24.904-27.881-42.492-21.873-17.044 5.822-26.359 24.248-20.84 41.476l20.878 65.165c6.303 19.673 18.23 36.805 34.492 49.543l35.067 27.469c6.709 5.255 11.528 12.462 13.796 20.491l22.682-64.517c2.164-6.154 3.269-12.631 3.269-19.154v-60.827c-.001-9.927 2.558-19.686 7.428-28.336z" fill="#057096"/></g><g><path d="m191.974 86.96c-4.099 0-7.421-3.322-7.421-7.421v-16.697c0-4.099 3.322-7.421 7.421-7.421s7.421 3.322 7.421 7.421v16.697c0 4.099-3.322 7.421-7.421 7.421z" fill="#004c67"/></g><g><path d="m108.827 246.415c-3.144 0-6.063-2.014-7.068-5.169l-5.07-15.908c-1.245-3.905.912-8.079 4.817-9.323 3.902-1.248 8.08.911 9.323 4.817l5.07 15.908c1.245 3.905-.912 8.079-4.817 9.323-.749.239-1.508.352-2.255.352z" fill="#004c67"/></g></g></svg>