<svg id="Capa_1" enable-background="new 0 0 512 512" height="512" viewBox="0 0 512 512" width="512" xmlns="http://www.w3.org/2000/svg"><g><g><path d="m94.158 214.84h-43.033c-2.761 0-5-2.239-5-5v-38.033c0-2.761 2.239-5 5-5h43.033z" fill="#055e7f"/></g><g><path d="m67.008 166.807v28.014c0 2.79-2.262 5.052-5.052 5.052h-15.831v9.915c0 2.79 2.262 5.052 5.052 5.052h42.981v-48.033z" fill="#004c67"/></g><g><path d="m417.842 166.807h43.033c2.761 0 5 2.239 5 5v38.033c0 2.761-2.239 5-5 5h-43.033z" fill="#055e7f"/></g><g><path d="m460.823 166.807h-9.915v28.014c0 2.79-2.262 5.052-5.052 5.052h-28.014v14.967h42.981c2.79 0 5.052-2.262 5.052-5.052v-37.929c0-2.79-2.262-5.052-5.052-5.052z" fill="#004c67"/></g><g><path d="m430.025 151.423c0-57.424-33.813-109.464-86.284-132.796-55.857-24.837-119.623-24.837-175.48 0-52.471 23.331-86.284 75.371-86.284 132.796v111.055c0 5.86 1.721 11.59 4.95 16.48 23.668 35.843 36.286 77.849 36.286 120.801 0 61.989 50.252 112.241 112.241 112.241h41.095c61.989 0 112.241-50.252 112.241-112.241 0-42.952 12.618-84.958 36.286-120.801 3.229-4.89 4.95-10.621 4.95-16.48v-47.638l-9.212-27.59 9.212-20.443v-15.384z" fill="#057096"/></g><g><path d="m343.74 18.627c-37.963-16.88-79.579-22.274-119.883-16.209 18.997 2.859 37.704 8.253 55.597 16.209 52.471 23.331 86.284 75.371 86.284 132.796v111.055c0 5.86-1.721 11.591-4.95 16.48-23.668 35.843-36.286 77.849-36.286 120.801 0 58.074-44.105 105.845-100.645 111.648 3.812.391 7.68.593 11.595.593h41.095c61.989 0 112.241-50.252 112.241-112.241 0-42.952 12.618-84.958 36.286-120.801 3.229-4.89 4.95-10.62 4.95-16.48v-111.055c.001-57.424-33.813-109.464-86.284-132.796z" fill="#055e7f"/></g><g><g><path d="m383.503 258.301c0 5.1-1.278 10.115-3.736 14.584-9.768 17.759-41.272 58.816-123.767 58.816s-113.999-41.057-123.767-58.816c-2.458-4.469-3.736-9.484-3.736-14.584v-28.084h255.005v28.084z" fill="#055e7f"/></g><g><path d="m331.481 230.217v28.084c0 5.101-1.278 10.115-3.736 14.584-8.666 15.755-34.446 49.844-97.756 57.337 8.051.953 16.703 1.48 26.011 1.48 82.495 0 113.999-41.057 123.767-58.816 2.458-4.469 3.736-9.484 3.736-14.584v-28.084h-52.022z" fill="#004c67"/></g></g><g><g><path d="m364.503 277.072h-217.006c-10.493 0-19-8.507-19-19v-134.808c0-8.284 6.716-15 15-15h225.005c8.284 0 15 6.716 15 15v134.808c.001 10.493-8.506 19-18.999 19z" fill="#f6f9f9"/></g><path d="m368.737 108.276v135.03c0 10.493-8.507 19-19 19h-217.005c-1.317 0-2.603-.135-3.844-.39 1.778 8.65 9.434 15.156 18.61 15.156h217.005c10.493 0 19-8.507 19-19v-134.808c0-8.205-6.591-14.862-14.766-14.988z" fill="#dae4ea"/><g><path d="m349.376 251.579h-186.752c-4.418 0-8-3.582-8-8v-77.782c0-4.418 3.582-8 8-8h186.752c4.418 0 8 3.582 8 8v77.782c0 4.419-3.582 8-8 8z" fill="#8ac7fd"/></g><g><path d="m349.293 157.797h-21.125c0 35.663-28.91 64.573-64.573 64.573h-108.97v21.125c0 4.464 3.619 8.084 8.084 8.084h186.585c4.464 0 8.084-3.619 8.084-8.084v-77.615c-.002-4.464-3.621-8.083-8.085-8.083z" fill="#62b5fe"/></g></g><path d="m110.112 325.118c2.831 7.817 5.211 15.791 7.136 23.879 37.461 24.197 85.215 36.453 142.32 36.453 52.865 0 97.839-10.568 134.055-31.436 1.558-7.303 3.483-14.52 5.776-21.621-35.842 25.149-82.86 37.901-139.831 37.901-62.395 0-112.676-15.201-149.456-45.176z" fill="#004c67"/><path d="m103.333 75.614h305.334c-3.223-5.27-6.778-10.334-10.648-15.157h-284.038c-3.87 4.823-7.425 9.887-10.648 15.157z" fill="#004c67"/><g><path d="m204.447 313.507 14.046 3.782c.997.268.997 1.683 0 1.951l-13.97 3.761c-8.518 2.293-14.731 9.615-15.607 18.393l-6.086 60.983c-.121 1.213-1.89 1.213-2.011 0l-6.086-60.983c-.876-8.778-7.089-16.1-15.607-18.393l-13.97-3.761c-.997-.268-.997-1.683 0-1.951l14.046-3.782c8.48-2.283 14.68-9.552 15.596-18.287l6.022-57.421c.127-1.207 1.883-1.207 2.01 0l6.022 57.421c.915 8.735 7.115 16.004 15.595 18.287z" fill="#fff9c1"/></g><g><path d="m218.493 317.289-14.046-3.782c-8.48-2.283-14.68-9.552-15.596-18.287l-6.022-57.421c-.127-1.207-1.883-1.207-2.01 0l-6.022 57.421c-.419 3.997-1.955 7.679-4.299 10.725 2.779 3.61 6.697 6.323 11.297 7.562l14.046 3.782c.997.269.997 1.683 0 1.951l-13.97 3.761c-4.642 1.25-8.591 4.001-11.373 7.659 2.323 3.055 3.835 6.74 4.234 10.734l6.086 60.983c.121 1.214 1.89 1.214 2.011 0l6.086-60.983c.876-8.778 7.089-16.1 15.607-18.393l13.97-3.761c.998-.268.998-1.683.001-1.951z" fill="#f9ef63"/></g><g><path d="m230.566 446.103 13.281 3.576c.78.21.78 1.316 0 1.526l-13.093 3.525c-5.357 1.442-9.375 5.885-10.274 11.359l-4.401 26.797c-.145.883-1.415.883-1.56 0l-4.401-26.797c-.899-5.474-4.917-9.917-10.274-11.359l-13.093-3.525c-.78-.21-.78-1.316 0-1.526l13.281-3.576c5.26-1.416 9.238-5.729 10.226-11.086l4.263-23.109c.159-.863 1.395-.863 1.555 0l4.263 23.109c.989 5.357 4.967 9.669 10.227 11.086z" fill="#fff9c1"/></g><g><path d="m243.847 449.679-13.281-3.576c-5.26-1.416-9.238-5.729-10.226-11.086l-4.263-23.109c-.159-.863-1.395-.863-1.555 0l-4.263 23.109c-.424 2.3-1.403 4.406-2.795 6.174 1.849 2.35 4.43 4.103 7.431 4.911l13.281 3.576c.78.21.78 1.317 0 1.527l-13.093 3.525c-3.109.837-5.761 2.689-7.62 5.162 1.344 1.789 2.277 3.9 2.654 6.197l4.401 26.797c.145.883 1.415.883 1.56 0l4.401-26.797c.899-5.475 4.917-9.917 10.274-11.359l13.093-3.525c.781-.21.781-1.316.001-1.526z" fill="#f9ef63"/></g></g></svg>