<svg id="Capa_1" enable-background="new 0 0 512 512" height="512" viewBox="0 0 512 512" width="512" xmlns="http://www.w3.org/2000/svg"><g><path d="m489.684 121.009h-24.542c-9.67 0-17.917 6.191-20.997 14.817h-31.502c-4.127 0-7.472 3.345-7.472 7.472s3.345 7.473 7.472 7.473h31.501c3.079 8.626 11.326 14.818 20.997 14.818h24.542c12.291 0 22.289-10 22.289-22.29.001-12.292-9.997-22.29-22.288-22.29zm0 29.634h-24.542c-4.05 0-7.344-3.294-7.344-7.345 0-4.049 3.295-7.344 7.344-7.344h24.542c4.05 0 7.344 3.295 7.344 7.345s-3.295 7.344-7.344 7.344z" fill="#b9c1cb"/><g><g><path d="m402.447 385.396h-53.15c-14.967 0-28.667-7.56-36.647-20.223l-74.94-118.94c-2.473-3.925-6.72-6.269-11.359-6.269h-32.757c-3.551 0-5.891-3.7-4.369-6.908l8.201-17.289c1.649-3.477 5.154-5.693 9.002-5.693h19.92c14.879 0 28.717 7.637 36.649 20.225l74.94 118.939c2.472 3.925 6.718 6.268 11.358 6.268h53.15v29.89z" fill="#e28086"/></g></g><g><path d="m219.098 223.105c14.879 0 28.717 7.636 36.649 20.225l74.94 118.939c2.472 3.925 6.718 6.268 11.358 6.268h60.402v-13.031h-53.15c-4.639 0-8.885-2.343-11.358-6.268l-74.941-118.938c-7.932-12.589-21.77-20.225-36.649-20.225h-19.92c-3.848 0-7.353 2.216-9.002 5.693l-3.481 7.338h25.152z" fill="#dd636e"/></g><g><path d="m341.05 232.995v31.824c0 3.346 2.062 6.305 5.152 7.589 12.54 5.213 22.767 14.862 28.73 26.99 1.385 2.816 4.217 4.629 7.355 4.629h29.796v-71.033h-71.033z" fill="#dae4ea"/></g><g><path d="m341.05 255.087h27.166c5.503 0 9.963 4.461 9.963 9.963v37.842c1.224.721 2.628 1.136 4.107 1.136h29.796v-71.033h-71.032z" fill="#b9c1cb"/></g><path d="m500.936 184.929h-66.989c-6.111 0-11.064-4.954-11.064-11.064v-47.113c0-6.111-4.954-11.065-11.064-11.065h-35.549c-5.983 0-11.862 1.561-17.057 4.528l-32.031 18.296v84.348h-70.127c2.224 2.231 4.228 4.714 5.946 7.44l15.618 24.787h104.732c5.503 0 9.963 4.461 9.963 9.963v111.337c0 11.005 8.922 19.927 19.927 19.927h27.399c11.005 0 19.927-8.921 19.927-19.927v-50.81c0-16.28-2.263-32.481-6.724-48.138-3.192-11.205 5.223-22.353 16.874-22.353h11.396c16.508 0 29.89-13.382 29.89-29.89v-29.203c-.003-6.109-4.957-11.063-11.067-11.063z" fill="#e28086"/><g><path d="m98.323 128.482h228.857v81.583h-228.857z" fill="#f6f9f9"/></g><g><path d="m282.901 128.482v32.766c0 13.546-10.981 24.526-24.526 24.526h-160.052v24.29h228.857v-81.583h-44.279z" fill="#dae4ea"/></g><g><path d="m3.414 173.691 81.314 21.201v-51.238l-81.314 21.201c-2.011.524-3.414 2.34-3.414 4.418 0 2.078 1.403 3.894 3.414 4.418z" fill="#dae4ea"/></g><path d="m3.414 164.855c-2.011.524-3.414 2.34-3.414 4.418 0 2.078 1.403 3.894 3.414 4.418l81.314 21.201v-20.625l-58.707-15.307z" fill="#b9c1cb"/><g><path d="m113.025 222.86h-29.691c-2.761 0-5-2.239-5-5v-97.173c0-2.761 2.239-5 5-5h29.691c2.761 0 5 2.239 5 5v97.173c0 2.761-2.239 5-5 5z" fill="#057096"/></g><g><path d="m342.025 222.86h-29.691c-2.761 0-5-2.239-5-5v-97.173c0-2.761 2.239-5 5-5h29.691c2.761 0 5 2.239 5 5v97.173c0 2.761-2.238 5-5 5z" fill="#057096"/></g><g><path d="m113.025 115.687h-11.714v85.477c0 2.751-2.23 4.982-4.982 4.982h-17.995v11.714c0 2.761 2.239 5 5 5h29.691c2.761 0 5-2.239 5-5v-97.173c0-2.762-2.239-5-5-5z" fill="#055e7f"/></g><g><path d="m342.044 115.687h-11.733v85.477c0 2.751-2.23 4.982-4.982 4.982h-17.995v11.733c0 2.751 2.23 4.982 4.982 4.982h29.728c2.751 0 4.982-2.23 4.982-4.982v-97.209c-.001-2.753-2.231-4.983-4.982-4.983z" fill="#055e7f"/></g><g><g><path d="m78.334 143.648h39.691v14.945h-39.691z" fill="#004c67"/></g><g><path d="m78.334 179.952h39.691v14.945h-39.691z" fill="#004c67"/></g></g><g><g><path d="m307.334 143.648h39.691v14.945h-39.691z" fill="#004c67"/></g><g><path d="m307.334 179.952h39.691v14.945h-39.691z" fill="#004c67"/></g></g><g><ellipse cx="390.397" cy="220.57" fill="#fff9c1" rx="18.775" ry="12.656"/></g><g><path d="m399.702 209.588c.112.558.189 1.123.189 1.702 0 6.99-8.406 12.656-18.775 12.656-3.389 0-6.56-.614-9.305-1.673 1.236 6.182 9.075 10.953 18.585 10.953 10.369 0 18.775-5.666 18.775-12.656.001-4.705-3.816-8.801-9.469-10.982z" fill="#f9ef63"/></g><g><path d="m500.936 184.929h-6.186v21.517c0 16.508-13.382 29.89-29.89 29.89h-11.396c-11.651 0-20.066 11.147-16.874 22.353 4.461 15.657 6.724 31.858 6.724 48.138v50.81c0 11.005-8.922 19.927-19.927 19.927h-27.399c-.893 0-1.765-.079-2.627-.193.516 10.545 9.204 18.943 19.877 18.943h27.399c11.005 0 19.927-8.921 19.927-19.927v-50.81c0-16.28-2.263-32.481-6.724-48.138-3.192-11.205 5.223-22.353 16.874-22.353h11.396c16.508 0 29.89-13.382 29.89-29.89v-29.203c0-6.11-4.954-11.064-11.064-11.064z" fill="#dd636e"/></g></g></svg>