<svg id="Capa_1" enable-background="new 0 0 512 512" height="512" viewBox="0 0 512 512" width="512" xmlns="http://www.w3.org/2000/svg"><g><g><g><path d="m298.922 260.472h-153.855c-8.284 0-15-6.716-15-15v-69.337h168.855z" fill="#986b54"/></g><g><path d="m452.777 260.472h-153.855v-84.337h153.855c8.284 0 15 6.716 15 15v54.337c0 8.285-6.716 15-15 15z" fill="#986b54"/></g><g><path d="m268.897 176.136v44.363c0 5.495-4.454 9.949-9.949 9.949h-128.881v15.101c0 8.242 6.682 14.924 14.924 14.924h153.932v-84.337z" fill="#845c52"/></g><g><path d="m452.853 176.136h-15.101v44.363c0 5.495-4.454 9.949-9.949 9.949h-128.881v30.025h153.932c8.242 0 14.924-6.682 14.924-14.924v-54.489c-.001-8.243-6.682-14.924-14.925-14.924z" fill="#845c52"/></g><g><path d="m441.45 216.317h-26.58c-4.121 0-7.462-3.341-7.462-7.462s3.341-7.462 7.462-7.462h26.581c4.121 0 7.462 3.341 7.462 7.462-.001 4.122-3.342 7.462-7.463 7.462z" fill="#785252"/></g></g><g><g><path d="m213.078 176.136h-153.855c-8.284 0-15-6.716-15-15v-54.337c0-8.284 6.716-15 15-15h153.855z" fill="#986b54"/></g><g><path d="m213.078 91.799h168.855v84.337h-168.855z" fill="#986b54"/></g><g><path d="m183.053 91.799v44.363c0 5.495-4.454 9.949-9.949 9.949h-128.881v15.101c0 8.242 6.682 14.924 14.924 14.924h153.932v-84.337z" fill="#845c52"/></g><g><path d="m351.909 91.799v44.363c0 5.495-4.454 9.949-9.949 9.949h-128.882v30.025h168.855v-84.337z" fill="#845c52"/></g><g><path d="m106.033 128.736h-26.58c-4.121 0-7.462-3.341-7.462-7.462s3.341-7.462 7.462-7.462h26.58c4.121 0 7.462 3.341 7.462 7.462s-3.341 7.462-7.462 7.462z" fill="#785252"/></g><g><path d="m149.827 156.214h-11.798c-4.121 0-7.462-3.341-7.462-7.462s3.341-7.462 7.462-7.462h11.798c4.121 0 7.462 3.341 7.462 7.462s-3.341 7.462-7.462 7.462z" fill="#785252"/></g></g><g><g><path d="m298.922 91.799h-168.855v-69.337c0-8.284 6.716-15 15-15h153.855z" fill="#986b54"/></g><g><path d="m452.777 91.799h-153.855v-84.337h153.855c8.284 0 15 6.716 15 15v54.337c0 8.284-6.716 15-15 15z" fill="#986b54"/></g><g><path d="m268.897 7.462v44.363c0 5.495-4.454 9.949-9.949 9.949h-128.881v30.025h168.855v-84.337z" fill="#845c52"/></g><g><path d="m452.853 7.462h-15.101v44.363c0 5.495-4.454 9.949-9.949 9.949h-128.881v30.025h153.932c8.242 0 14.924-6.682 14.924-14.924v-54.489c-.001-8.242-6.682-14.924-14.925-14.924z" fill="#845c52"/></g><g><circle cx="381.933" cy="54.655" fill="#785252" r="7.238"/></g><g><path d="m352.762 62.117h-11.798c-4.121 0-7.462-3.341-7.462-7.462s3.341-7.462 7.462-7.462h11.798c4.121 0 7.462 3.341 7.462 7.462s-3.341 7.462-7.462 7.462z" fill="#785252"/></g></g><path d="m381.934 168.811h-161.394v-69.55h161.393c4.121 0 7.462-3.341 7.462-7.462s-3.341-7.462-7.462-7.462h-75.55v-76.875c0-4.121-3.341-7.462-7.462-7.462s-7.462 3.341-7.462 7.462v76.875h-161.392c-4.121 0-7.462 3.341-7.462 7.462s3.341 7.462 7.462 7.462h75.55v69.55h-75.55c-4.121 0-7.462 3.341-7.462 7.462s3.341 7.462 7.462 7.462h251.867c4.121 0 7.462-3.341 7.462-7.462-.001-4.122-3.341-7.462-7.462-7.462z" fill="#ecbe6b"/><g><path d="m301.909 115.379-85.476 132.286c-14.669 22.702-14.331 51.978.859 74.336 12.527 18.438 33.371 29.476 55.661 29.476h74.625c22.291 0 43.135-11.038 55.661-29.476 15.189-22.357 15.528-51.634.859-74.336l-85.476-132.286c-3.92-6.066-12.794-6.066-16.713 0z" fill="#dae4ea"/></g><g><path d="m404.098 247.666-85.476-132.286c-3.92-6.066-12.793-6.066-16.713 0l-23.053 35.677 63.066 97.604c14.669 22.702 14.331 51.978-.859 74.336-10.342 15.223-26.357 25.395-44.172 28.481h50.686c22.291 0 43.135-11.038 55.661-29.476 15.191-22.358 15.529-51.634.86-74.336z" fill="#b9c1cb"/></g><g><path d="m310.265 391.619c-4.121 0-7.462-3.341-7.462-7.462v-45.978c0-4.121 3.341-7.462 7.462-7.462s7.462 3.341 7.462 7.462v45.978c0 4.121-3.341 7.462-7.462 7.462z" fill="#004c67"/></g><g><path d="m331.694 351.478-16.377-65.342c-1.317-5.256-8.787-5.256-10.105 0l-16.377 65.342z" fill="#f6f9f9"/></g><g><path d="m336.689 444.121c0-8.702-1.272-16.86-3.493-23.9-2.05-6.499-2.966-13.302-2.966-20.116v-14.452c0-3.078-2.495-5.573-5.573-5.573h-28.782c-3.078 0-5.573 2.495-5.573 5.573v14.452c0 6.814-.915 13.618-2.966 20.116-2.221 7.04-3.493 15.198-3.493 23.9s1.272 16.86 3.493 23.9c2.05 6.499 2.966 13.302 2.966 20.116v18.29c0 3.078 2.495 5.573 5.573 5.573h28.782c3.078 0 5.573-2.495 5.573-5.573v-18.29c0-6.814.915-13.618 2.966-20.116 2.221-7.04 3.493-15.198 3.493-23.9z" fill="#057096"/></g><g><path d="m333.195 420.222c-2.05-6.499-2.966-13.302-2.966-20.116v-14.452c0-3.078-2.495-5.573-5.573-5.573h-20.486c3.078 0 5.573 2.495 5.573 5.573v14.452c0 6.814.915 13.618 2.966 20.116 2.221 7.04 3.493 15.198 3.493 23.9s-1.272 16.86-3.493 23.9c-2.051 6.499-2.966 13.302-2.966 20.116v18.29c0 3.078-2.495 5.573-5.573 5.573h20.486c3.078 0 5.573-2.495 5.573-5.573v-18.29c0-6.814.915-13.618 2.966-20.116 2.221-7.04 3.493-15.198 3.493-23.9.001-8.703-1.271-16.86-3.493-23.9z" fill="#055e7f"/></g><g><path d="m296.892 351.478h34.803l-3.585-14.303c-8.96 7.359-19.712 12.309-31.218 14.303z" fill="#dae4ea"/></g></g></svg>