<svg id="Capa_1" enable-background="new 0 0 512 512" height="512" viewBox="0 0 512 512" width="512" xmlns="http://www.w3.org/2000/svg"><g><g><path d="m297.934 115.516h-84.435c-8.146 0-14.773-6.627-14.773-14.773v-24.952c0-8.145 6.627-14.772 14.773-14.772h84.435c8.145 0 14.772 6.627 14.772 14.772v24.952c0 8.146-6.627 14.773-14.772 14.773zm-84.061-15.147h83.686v-24.203h-83.686z" fill="#057096"/></g><g><g><g><path d="m164.55 157.935c-7.027 0-13.969-3.199-18.479-9.256-7.575-10.174-5.462-24.614 4.712-32.189l15.289-11.385c4.928-3.67 10.99-5.2 17.071-4.311 6.079.89 11.449 4.094 15.119 9.023 3.669 4.928 5.2 10.991 4.31 17.07-.889 6.08-4.094 11.449-9.023 15.119l-15.289 11.386c-4.117 3.064-8.933 4.543-13.71 4.543zm-6.33-18.302c2.588 3.474 7.519 4.196 10.994 1.609l15.289-11.385c1.684-1.254 2.778-3.088 3.082-5.164s-.219-4.147-1.472-5.83-3.087-2.778-5.164-3.082c-2.074-.303-4.147.219-5.83 1.473l-15.29 11.385c-3.475 2.587-4.197 7.519-1.609 10.994z" fill="#057096"/></g></g><g><g><path d="m50.104 243.156c-7.028 0-13.969-3.2-18.479-9.256-7.575-10.173-5.461-24.613 4.712-32.189l15.29-11.386c4.928-3.669 10.988-5.201 17.071-4.311 6.08.89 11.449 4.094 15.119 9.023 3.67 4.928 5.201 10.99 4.311 17.07s-4.094 11.449-9.023 15.119l-15.29 11.385c-4.118 3.066-8.935 4.545-13.711 4.545zm-6.331-18.303c2.587 3.475 7.52 4.196 10.994 1.609l15.29-11.385c1.683-1.253 2.778-3.087 3.082-5.164.304-2.076-.219-4.147-1.472-5.83-1.254-1.684-3.088-2.778-5.164-3.082-2.076-.301-4.148.219-5.83 1.473l-15.29 11.385c-3.475 2.587-4.197 7.519-1.61 10.994z" fill="#057096"/></g><g><path d="m107.347 200.559c-1.122 0-2.25-.082-3.38-.247-6.08-.89-11.449-4.094-15.119-9.023-7.575-10.174-5.462-24.614 4.712-32.189l15.29-11.385c10.173-7.575 24.613-5.462 32.19 4.712 3.67 4.929 5.201 10.991 4.311 17.071s-4.094 11.449-9.023 15.119l-15.289 11.385c-4.014 2.986-8.779 4.557-13.692 4.557zm-6.35-18.316c1.253 1.683 3.088 2.778 5.164 3.082 2.077.304 4.148-.219 5.83-1.472l15.29-11.386c1.684-1.253 2.778-3.087 3.082-5.163.304-2.077-.219-4.147-1.473-5.83-2.588-3.475-7.519-4.197-10.994-1.609l-15.289 11.385c-3.476 2.586-4.198 7.518-1.61 10.993z" fill="#057096"/></g></g><g><path d="m186.451 126.189c-2.311 0-4.593-1.054-6.08-3.051-2.498-3.355-1.804-8.1 1.551-10.598l28.666-21.346c3.356-2.497 8.1-1.803 10.598 1.551 2.498 3.355 1.804 8.1-1.551 10.598l-28.666 21.346c-1.359 1.012-2.946 1.5-4.518 1.5z" fill="#004c67"/></g><g><path d="m129.228 168.799c-2.311 0-4.593-1.054-6.08-3.051-2.498-3.355-1.804-8.1 1.551-10.598l28.666-21.346c3.356-2.497 8.1-1.803 10.598 1.551 2.498 3.355 1.804 8.1-1.551 10.598l-28.667 21.347c-1.358 1.011-2.945 1.499-4.517 1.499z" fill="#004c67"/></g><g><path d="m72.005 211.41c-2.311 0-4.593-1.054-6.08-3.051-2.498-3.355-1.804-8.1 1.551-10.598l28.666-21.346c3.356-2.497 8.1-1.803 10.598 1.551 2.498 3.355 1.804 8.1-1.551 10.598l-28.667 21.346c-1.358 1.011-2.945 1.5-4.517 1.5z" fill="#004c67"/></g></g><g><g><g><path d="m347.43 157.948c-4.914 0-9.678-1.57-13.69-4.557l-15.29-11.386c-4.929-3.669-8.133-9.038-9.022-15.118-.89-6.079.641-12.142 4.31-17.07s9.039-8.133 15.118-9.023c6.083-.889 12.143.641 17.071 4.311l15.29 11.385c4.929 3.669 8.133 9.039 9.022 15.119.89 6.079-.641 12.142-4.31 17.07-3.669 4.928-9.039 8.132-15.118 9.022-1.13.166-2.26.247-3.381.247zm12.424-13.792h.01zm-27.649-28.459c-.384 0-.769.028-1.155.084-2.077.304-3.91 1.398-5.163 3.082-1.253 1.683-1.776 3.754-1.472 5.83s1.398 3.91 3.081 5.163l15.291 11.386c3.475 2.588 8.407 1.865 10.993-1.61 1.253-1.684 1.776-3.755 1.472-5.831s-1.398-3.91-3.081-5.163l-15.291-11.385c-1.37-1.02-2.997-1.556-4.675-1.556z" fill="#057096"/></g></g><g><g><path d="m461.877 243.169c-4.914 0-9.678-1.57-13.69-4.558l-15.29-11.385c-4.929-3.67-8.133-9.039-9.022-15.119-.89-6.079.641-12.142 4.31-17.07s9.039-8.133 15.118-9.023c6.082-.889 12.143.641 17.071 4.311l15.29 11.385c10.173 7.575 12.287 22.015 4.712 32.189-3.669 4.929-9.039 8.133-15.119 9.023-1.13.165-2.259.247-3.38.247zm-15.225-42.252c-.384 0-.769.028-1.155.084-2.077.304-3.91 1.398-5.163 3.082s-1.776 3.754-1.472 5.83c.304 2.077 1.398 3.91 3.082 5.164l15.29 11.385c1.683 1.254 3.759 1.777 5.83 1.472 2.077-.304 3.91-1.398 5.163-3.081 2.588-3.475 1.866-8.407-1.609-10.994l-15.29-11.385c-1.372-1.021-2.999-1.557-4.676-1.557z" fill="#057096"/></g><g><path d="m404.673 200.545c-4.777 0-9.592-1.478-13.71-4.544l-15.29-11.385c-10.173-7.575-12.287-22.015-4.712-32.189 7.577-10.174 22.017-12.286 32.189-4.712l15.291 11.385c10.173 7.576 12.287 22.016 4.712 32.189-4.511 6.056-11.454 9.256-18.48 9.256zm12.405-13.779h.01zm-27.656-28.455c-2.4 0-4.772 1.093-6.313 3.162-2.587 3.474-1.865 8.406 1.61 10.993l15.29 11.385c3.475 2.589 8.408 1.864 10.994-1.609 2.588-3.475 1.865-8.407-1.609-10.994l-15.29-11.385c-1.405-1.046-3.051-1.552-4.682-1.552z" fill="#057096"/></g></g><g><path d="m325.549 126.189c-1.573 0-3.159-.488-4.517-1.499l-28.666-21.346c-3.355-2.498-4.049-7.243-1.551-10.598 2.499-3.355 7.242-4.049 10.598-1.551l28.666 21.346c3.355 2.498 4.049 7.243 1.551 10.598-1.488 1.996-3.769 3.05-6.081 3.05z" fill="#004c67"/></g><g><path d="m382.772 168.799c-1.573 0-3.159-.488-4.517-1.499l-28.666-21.346c-3.355-2.498-4.049-7.243-1.551-10.598 2.499-3.355 7.242-4.049 10.598-1.551l28.666 21.346c3.355 2.498 4.049 7.243 1.551 10.598-1.488 1.996-3.77 3.05-6.081 3.05z" fill="#004c67"/></g><g><path d="m439.996 211.41c-1.573 0-3.159-.488-4.517-1.499l-28.666-21.346c-3.355-2.498-4.049-7.243-1.551-10.598 2.499-3.355 7.241-4.049 10.598-1.551l28.666 21.346c3.355 2.498 4.049 7.243 1.551 10.598-1.488 1.995-3.77 3.05-6.081 3.05z" fill="#004c67"/></g></g><g><path d="m59.377 420.391h-33.706c-8.498 0-15.413-6.914-15.413-15.413v-36.734c0-4.183 3.391-7.573 7.573-7.573s7.573 3.391 7.573 7.573v36.734c0 .146.119.266.266.266h33.706c.147 0 .266-.119.266-.266v-36.734c0-4.183 3.391-7.573 7.573-7.573s7.573 3.391 7.573 7.573v36.734c.002 8.499-6.912 15.413-15.411 15.413z" fill="#dd636e"/></g><g><path d="m95.701 239.217h320.599v76.018h-320.599z" fill="#f9ef63"/></g><g><path d="m353.705 239.217v23.01c0 11.782-9.551 21.334-21.334 21.334h-236.67v31.674h320.599v-76.018z" fill="#f4dd45"/></g><g><path d="m92.114 336.189h26.176c3.904 0 7.069-3.165 7.069-7.069v-14.08l-6.483-15.562 6.483-15.938v-64.062c0-3.904-3.165-7.069-7.069-7.069h-12.432c-2.316 0-4.509 1.118-5.802 3.04-6.648 9.878-17.932 16.377-30.735 16.377s-24.086-6.499-30.735-16.377c-1.293-1.921-3.486-3.04-5.802-3.04h-11.395c-11.813.002-21.389 9.578-21.389 21.391v125.442c0 11.813 9.576 21.389 21.389 21.389h42.268c11.813 0 21.389-9.576 21.389-21.389v-15.984c0-3.904 3.165-7.069 7.068-7.069z" fill="#f9ef63"/></g><g><path d="m118.29 212.411h-12.432c-1.268 0-2.493.346-3.56.964v92.686c0 3.904-3.165 7.069-7.069 7.069h-26.175c-3.904 0-7.069 3.165-7.069 7.069v15.984c0 11.813-9.576 21.389-21.389 21.389h-40.596v1.671c0 11.813 9.576 21.389 21.389 21.389h42.268c11.813 0 21.389-9.576 21.389-21.389v-15.984c0-3.904 3.165-7.069 7.069-7.069h26.176c3.904 0 7.069-3.165 7.069-7.069v-109.642c-.002-3.904-3.166-7.068-7.07-7.068z" fill="#f4dd45"/></g><g><circle cx="42.524" cy="344.847" fill="#057096" r="9.992"/></g><g><circle cx="42.524" cy="267.234" fill="#057096" r="9.992"/></g><g><path d="m42.545 485.584c-.417 0-.835-.009-1.254-.029-13.437-.619-24.447-11.629-25.065-25.066-.445-9.664 4.418-18.773 12.691-23.775 3.778-2.285 6.035-6.209 6.035-10.497v-10.722c0-4.183 3.391-7.573 7.573-7.573s7.573 3.391 7.573 7.573v10.722c0 9.493-5.113 18.482-13.344 23.459-3.519 2.128-5.587 6.004-5.398 10.117.258 5.604 5.027 10.373 10.631 10.631 3.082.147 6.028-.952 8.257-3.081 2.232-2.132 3.461-5.004 3.461-8.088 0-4.183 3.391-7.573 7.573-7.573s7.573 3.391 7.573 7.573c0 7.262-2.893 14.024-8.146 19.041-4.947 4.727-11.356 7.288-18.16 7.288z" fill="#dd636e"/></g><g><path d="m486.329 420.391h-33.706c-8.498 0-15.413-6.914-15.413-15.413v-36.734c0-4.183 3.39-7.573 7.573-7.573s7.573 3.391 7.573 7.573v36.734c0 .146.119.266.266.266h33.706c.147 0 .266-.119.266-.266v-36.734c0-4.183 3.39-7.573 7.573-7.573s7.573 3.391 7.573 7.573v36.734c.002 8.499-6.913 15.413-15.411 15.413z" fill="#dd636e"/></g><g><path d="m419.886 336.189h-26.176c-3.904 0-7.069-3.165-7.069-7.069v-109.641c0-3.904 3.165-7.069 7.069-7.069h12.432c2.316 0 4.509 1.118 5.802 3.04 6.648 9.878 17.932 16.377 30.735 16.377 12.802 0 24.086-6.499 30.735-16.377 1.293-1.921 3.486-3.04 5.802-3.04h11.396c11.813 0 21.389 9.576 21.389 21.389v125.442c0 11.813-9.576 21.389-21.389 21.389h-42.267c-11.813 0-21.389-9.576-21.389-21.389v-15.984c-.002-3.903-3.167-7.068-7.07-7.068z" fill="#f9ef63"/></g><g><g><path d="m490.611 212.411h-1.482v132.238c0 7.242-5.871 13.112-13.112 13.112h-49.063v1.481c0 11.813 9.576 21.389 21.389 21.389h42.267c11.813 0 21.389-9.576 21.389-21.389v-125.442c.001-11.813-9.575-21.389-21.388-21.389z" fill="#f4dd45"/></g></g><g><circle cx="469.476" cy="344.847" fill="#057096" r="9.992"/></g><g><circle cx="469.476" cy="267.234" fill="#057096" r="9.992"/></g><g><path d="m469.455 485.584c-6.805 0-13.213-2.561-18.16-7.286-5.253-5.017-8.146-11.779-8.146-19.042 0-4.183 3.39-7.573 7.573-7.573s7.573 3.391 7.573 7.573c0 3.084 1.229 5.957 3.46 8.088 2.23 2.129 5.148 3.229 8.258 3.081 5.604-.258 10.373-5.027 10.631-10.631.188-4.113-1.88-7.99-5.397-10.117-8.232-4.977-13.345-13.966-13.345-23.459v-10.722c0-4.183 3.39-7.573 7.573-7.573s7.573 3.391 7.573 7.573v10.722c0 4.288 2.256 8.212 6.035 10.497 8.272 5.001 13.135 14.11 12.691 23.774-.619 13.438-11.629 24.448-25.066 25.067-.418.019-.836.028-1.253.028z" fill="#dd636e"/></g><g><path d="m266.98 84.228h-21.96c-3.263 0-6.068-2.313-6.69-5.515l-8.585-44.182c-.817-4.207 2.405-8.115 6.69-8.115h39.13c4.286 0 7.508 3.908 6.69 8.115l-8.585 44.182c-.622 3.203-3.427 5.515-6.69 5.515z" fill="#f9ef63"/></g><g><path d="m275.565 26.416h-20.494c4.286 0 7.508 3.908 6.69 8.115l-8.585 44.182c-.622 3.203-3.427 5.515-6.69 5.515h20.493c3.263 0 6.068-2.312 6.69-5.515l8.585-44.182c.819-4.207-2.403-8.115-6.689-8.115z" fill="#f4dd45"/></g><g><path d="m302.524 276.013h-88.864c-4.183 0-7.573-3.391-7.573-7.573 0-4.183 3.391-7.573 7.573-7.573h88.864c4.183 0 7.573 3.391 7.573 7.573.001 4.182-3.39 7.573-7.573 7.573z" fill="#f4dd45"/></g></g></svg>