<svg id="Capa_1" enable-background="new 0 0 512 512" height="512" viewBox="0 0 512 512" width="512" xmlns="http://www.w3.org/2000/svg"><g><g><path d="m67.979 272.999h-36.117c-10 0-18.135-8.136-18.135-18.135v-62.216c0-10 8.136-18.136 18.135-18.136h36.117c10 0 18.135 8.136 18.135 18.136v62.216c0 10-8.136 18.135-18.135 18.135zm-36.117-83.714c-1.854 0-3.362 1.509-3.362 3.363v62.216c0 1.854 1.508 3.362 3.362 3.362h36.117c1.854 0 3.362-1.509 3.362-3.362v-62.216c0-1.854-1.508-3.363-3.362-3.363z" fill="#f4dd45"/></g><g><path d="m506.635 251.594h-439.773c-2.761 0-5-2.239-5-5v-45.675c0-2.761 2.239-5 5-5h439.774c2.761 0 5 2.239 5 5v45.675c-.001 2.761-2.239 5-5.001 5z" fill="#986b54"/></g><g><path d="m506.635 195.918h-17.531v28.22c0 2.72-2.205 4.924-4.924 4.924h-422.318v17.607c0 2.72 2.205 4.924 4.924 4.924h439.85c2.761 0 5-2.239 5-5v-45.675c-.001-2.761-2.239-5-5.001-5z" fill="#845c52"/></g><g><path d="m262.373 267.549v-15.955l-9.936-27.838 9.936-27.838v-2.671c0-2.35-1.905-4.255-4.255-4.255h-107.238c-2.35 0-4.255 1.905-4.255 4.255v74.302c0 13.824-6.514 26.839-17.58 35.124l-6.393 4.787h163.694l-6.393-4.787c-11.065-8.285-17.58-21.3-17.58-35.124z" fill="#b9c1cb"/></g><g><path d="m279.953 302.674c-11.066-8.285-17.58-21.301-17.58-35.125v-74.302c0-2.35-1.905-4.255-4.255-4.255h-29.966c2.35 0 4.255 1.905 4.255 4.255v74.302c0 13.824 6.514 26.839 17.58 35.125l6.393 4.787h29.966z" fill="#909ba5"/></g><g><path d="m78.727 231.142h-71.341c-4.08 0-7.386-3.307-7.386-7.386s3.307-7.386 7.386-7.386h71.341c4.08 0 7.386 3.307 7.386 7.386.001 4.079-3.306 7.386-7.386 7.386z" fill="#f9ef63"/></g><g><circle cx="295.612" cy="223.756" fill="#004c67" r="8.05"/></g><g><circle cx="332.914" cy="223.756" fill="#004c67" r="8.05"/></g><g><circle cx="113.886" cy="223.756" fill="#004c67" r="8.05"/></g><g><path d="m182.729 242.771c-.869 0-1.753-.154-2.615-.48-3.814-1.445-5.736-5.709-4.291-9.524l28.573-75.455c1.445-3.816 5.707-5.736 9.524-4.292 3.814 1.445 5.736 5.709 4.291 9.524l-28.573 75.455c-1.119 2.953-3.927 4.772-6.909 4.772z" fill="#dae4ea"/></g><g><path d="m234.018 117.077-11.632-4.405c-1.25-.473-2.662-.063-3.463 1.007l-15.932 21.264c-.679.906-1.087 1.985-1.179 3.113l-2.148 26.483c-.108 1.332.678 2.575 1.928 3.048l11.632 4.405c1.25.473 2.662.063 3.463-1.007l15.932-21.264c.679-.906 1.087-1.985 1.179-3.113l2.148-26.483c.108-1.332-.678-2.575-1.928-3.048z" fill="#dae4ea"/></g><g><path d="m233.795 146.634 2.153-26.543c.106-1.312-.668-2.536-1.899-3.002l-11.696-4.429c-.758-.287-1.576-.242-2.278.08.195.44.286.93.245 1.433l-2.153 26.543c-.09 1.111-.492 2.174-1.161 3.065l-15.968 21.312c-.303.404-.696.711-1.133.911.313.706.895 1.281 1.653 1.568l11.696 4.429c1.231.466 2.621.062 3.411-.991l15.968-21.312c.669-.89 1.072-1.953 1.162-3.064z" fill="#b9c1cb"/></g><g><path d="m185.723 306.304c4.266-12.105 5.928-23.94 5.194-33.79-.294-3.949.248-7.913 1.65-11.616l12.095-31.942c.729-1.925-.241-4.075-2.165-4.804l-27.136-10.276c-1.925-.729-4.075.241-4.804 2.165l-12.095 31.942c-1.403 3.704-3.621 7.032-6.458 9.796-7.518 7.326-14.495 18.122-19.378 31.016-2.251 5.944-3.865 11.845-4.883 17.509z" fill="#057096"/></g><g><path d="m168.18 306.304h17.543c4.266-12.105 5.928-23.94 5.194-33.79-.294-3.949.248-7.913 1.65-11.616l12.095-31.942c.729-1.925-.241-4.075-2.165-4.804l-15.299-5.793c1.924.729 2.894 2.88 2.165 4.804l-12.095 31.942c-1.403 3.704-1.945 7.667-1.65 11.616.78 10.468-1.144 23.178-6.026 36.072-.452 1.19-.927 2.357-1.412 3.511z" fill="#055e7f"/></g><g><path d="m264.174 399.53h-119.35c-14.817 0-26.828-12.011-26.828-26.828v-72.03c0-5.523 4.477-10 10-10h153.006c5.523 0 10 4.477 10 10v72.03c0 14.817-12.011 26.828-26.828 26.828z" fill="#dae4ea"/></g><g><path d="m483.371 267.549v-15.955l-11.278-27.838 11.278-27.838v-2.671c0-2.35-1.905-4.255-4.255-4.255h-107.238c-2.35 0-4.255 1.905-4.255 4.255v74.302c0 13.824-6.514 26.839-17.58 35.124l-6.393 4.787h163.694l-6.393-4.787c-11.066-8.285-17.58-21.3-17.58-35.124z" fill="#b9c1cb"/></g><g><path d="m500.951 302.674c-11.066-8.285-17.58-21.301-17.58-35.125v-74.302c0-2.35-1.905-4.255-4.255-4.255h-29.966c2.35 0 4.255 1.905 4.255 4.255v74.302c0 13.824 6.514 26.839 17.58 35.125l6.393 4.787h29.966z" fill="#909ba5"/></g><g><circle cx="407.255" cy="279.5" fill="#f9ef63" r="52.789"/></g><path d="m435.176 234.704c5.06 8.101 7.993 17.666 7.993 27.921 0 29.155-23.635 52.789-52.789 52.789-10.255 0-19.82-2.934-27.921-7.994 9.325 14.93 25.896 24.869 44.796 24.869 29.155 0 52.789-23.635 52.789-52.789 0-18.9-9.939-35.47-24.868-44.796z" fill="#f4dd45"/><g><circle cx="405.286" cy="279.5" fill="#057096" r="21.348"/></g><g><path d="m414.197 260.101c1.248 2.713 1.95 5.73 1.95 8.912 0 11.79-9.558 21.348-21.348 21.348-3.182 0-6.199-.701-8.912-1.95 3.377 7.339 10.79 12.437 19.398 12.437 11.79 0 21.348-9.558 21.348-21.348.001-8.608-5.097-16.021-12.436-19.399z" fill="#055e7f"/></g><g><path d="m485.172 399.53h-119.35c-14.817 0-26.828-12.011-26.828-26.828v-72.03c0-5.523 4.477-10 10-10h153.006c5.523 0 10 4.477 10 10v72.03c0 14.817-12.011 26.828-26.828 26.828z" fill="#dae4ea"/></g><path d="m281.002 290.672h-13.605v74.253c0 6.075-4.925 11-11 11h-135.177c-1.031 0-2.046-.064-3.046-.177 1.513 13.382 12.865 23.782 26.651 23.782h119.349c14.817 0 26.828-12.011 26.828-26.828v-72.03c0-5.522-4.477-10-10-10z" fill="#b9c1cb"/><path d="m502 290.672h-13.605v74.253c0 6.075-4.925 11-11 11h-135.177c-1.031 0-2.046-.064-3.046-.177 1.513 13.382 12.865 23.782 26.651 23.782h119.349c14.817 0 26.828-12.011 26.828-26.828v-72.03c0-5.522-4.477-10-10-10z" fill="#b9c1cb"/><g><path d="m227.633 399.53h-46.268c-9.337 0-16.906-7.569-16.906-16.906v-44.873c0-2.761 2.239-5 5-5h70.079c2.761 0 5 2.239 5 5v44.873c.001 9.338-7.568 16.906-16.905 16.906z" fill="#b9c1cb"/></g><g><path d="m448.631 399.53h-46.268c-9.337 0-16.906-7.569-16.906-16.906v-44.873c0-2.761 2.239-5 5-5h70.079c2.761 0 5 2.239 5 5v44.873c.001 9.338-7.568 16.906-16.905 16.906z" fill="#b9c1cb"/></g><g fill="#909ba5"><path d="m239.539 332.751h-18.605v36.174c0 3.866-3.134 7-7 7h-49.474v6.699c0 9.337 7.569 16.906 16.906 16.906h46.268c9.337 0 16.906-7.569 16.906-16.906v-44.874c-.001-2.76-2.24-4.999-5.001-4.999z"/><path d="m460.537 332.751h-18.605v36.174c0 3.866-3.134 7-7 7h-49.474v6.699c0 9.337 7.569 16.906 16.906 16.906h46.268c9.337 0 16.906-7.569 16.906-16.906v-44.874c-.001-2.76-2.24-4.999-5.001-4.999z"/></g></g></svg>