<svg id="Capa_1" enable-background="new 0 0 512 512" height="512" viewBox="0 0 512 512" width="512" xmlns="http://www.w3.org/2000/svg"><g><g><path d="m270.526 292.997h-28.052l-4-15.246v-158.462h35.052v158.462z" fill="#986b54"/></g><g><path d="m270.526 292.997 3-15.246v-158.462h-17.526v173.708z" fill="#845c52"/></g><g><path d="m317.695 31.241c0-17.254-13.987-31.241-31.241-31.241h-60.907c-17.254 0-31.242 13.987-31.242 31.242v4.58c0 18.08 6.98 35.461 19.485 48.518l9.662 10.09c6.101 6.37 10.157 14.419 11.647 23.113l1.638 9.551c.24 1.402 1.456 2.427 2.878 2.427h32.767c1.423 0 2.638-1.025 2.879-2.427l1.638-9.551c1.491-8.694 5.547-16.743 11.647-23.113l9.663-10.09h-.001c12.566-13.12 19.486-30.351 19.486-48.518v-4.581zm-61.695 75.468c-3.817 0-6.911-3.094-6.911-6.911s3.094-6.911 6.911-6.911 6.911 3.094 6.911 6.911-3.094 6.911-6.911 6.911zm32.49-70.888c0 10.553-4.074 20.698-11.373 28.319-5.264 5.496-12.544 8.604-20.154 8.604h-1.926c-7.61 0-14.891-3.108-20.154-8.605-7.298-7.621-11.373-17.766-11.373-28.318.247-1.751-1.015-6.698 2.036-6.617h60.907c3.051-.088 1.791 4.876 2.037 6.617z" fill="#055e7f"/></g><g><path d="m326.053 316.34h-140.829c-1.883 0-3.292 1.726-2.917 3.57 4.618 22.69 5.02 46.037 1.185 68.872l-4.105 24.444c-3.72 22.153 5.013 44.561 22.743 58.355l50.443 39.243c2.015 1.568 4.838 1.568 6.853 0l50.443-39.243c17.73-13.793 26.463-36.201 22.743-58.355l-4.432-26.392c-3.622-21.568-3.466-43.601.46-65.115l.341-1.868c.334-1.828-1.07-3.511-2.928-3.511z" fill="#057096"/></g><g><path d="m332.612 413.226-4.432-26.392c-3.622-21.568-3.466-43.601.46-65.115l.341-1.868c.334-1.828-1.07-3.511-2.928-3.511h-29.264c-3.068 19.887-2.946 40.147.39 60.013l4.432 26.392c3.72 22.153-5.014 44.561-22.743 58.354l-45.105 35.09 18.811 14.634c2.015 1.568 4.838 1.568 6.853 0l50.442-39.243c17.73-13.792 26.463-36.2 22.743-58.354z" fill="#055e7f"/></g><g><g><path d="m317.695 31.241c0-17.254-13.987-31.241-31.241-31.241h-16.195c17.254 0 31.241 13.987 31.241 31.241v4.58c0 18.167-6.92 35.398-19.486 48.518h.001l-9.663 10.09c-6.101 6.37-10.157 14.419-11.647 23.113l-1.638 9.551c-.24 1.402-1.456 2.427-2.879 2.427h16.195c1.423 0 2.638-1.025 2.879-2.427l1.638-9.551c1.491-8.694 5.547-16.743 11.647-23.113l9.663-10.09h-.001c12.566-13.12 19.486-30.351 19.486-48.518z" fill="#004c67"/></g></g><g><path d="m273.526 302.864v-25.113h-35.051v25.113c0 7.443-6.034 13.476-13.476 13.476l24.006 77.772c2.125 6.883 11.867 6.883 13.992 0l24.006-77.772c-7.444 0-13.477-6.034-13.477-13.476z" fill="#055e7f"/></g><g><path d="m273.526 302.864v-25.113h-17.526v25.113c0 5.272 3.027 9.837 7.438 12.051 3.281 1.647 4.769 5.538 3.686 9.046l-19.887 64.427 1.767 5.725c2.124 6.883 11.867 6.883 13.992 0l24.006-77.772c-7.443-.001-13.476-6.035-13.476-13.477z" fill="#004c67"/></g></g></svg>