<svg id="Capa_1" enable-background="new 0 0 512 512" height="512" viewBox="0 0 512 512" width="512" xmlns="http://www.w3.org/2000/svg"><g><g><path d="m469.833 240.579h-427.666l24.711 186.091c1.317 9.92 9.777 17.331 19.784 17.331h38.96l134.128-12.926 126.628 12.926h38.96c10.007 0 18.467-7.411 19.784-17.331z" fill="#057096"/></g><g><path d="m441.222 240.579-21.314 160.509c-1.317 9.92-9.777 17.331-19.784 17.331h-334.342l1.096 8.252c1.317 9.92 9.777 17.331 19.784 17.331h38.96l134.128-12.926 126.628 12.926h38.96c10.007 0 18.467-7.411 19.784-17.331l24.711-186.092z" fill="#055e7f"/></g><g><path d="m178.261 162.831 13.056-49.587c.527-2.002 2.874-2.872 4.582-1.702 4.325 2.963 9.556 4.699 15.195 4.699 5.947 0 11.443-1.928 15.899-5.192 3.893-2.852 9.215-2.852 13.108 0 4.456 3.264 9.951 5.192 15.899 5.192 6.024 0 11.584-1.979 16.07-5.321 3.95-2.943 9.378-2.943 13.328 0 4.485 3.342 10.045 5.321 16.069 5.321 5.452 0 10.525-1.62 14.765-4.404 1.711-1.123 4.016-.247 4.537 1.733l12.97 49.26h33.021l-17.018-64.635c-4.682-17.78-20.791-30.197-39.176-30.197h-109.132c-18.385 0-34.495 12.418-39.176 30.197l-17.018 64.635h33.021z" fill="#ecbe6b"/></g><g><g><path d="m349.742 98.196c-4.682-17.78-20.791-30.197-39.176-30.197h-19.085c18.385 0 34.495 12.418 39.176 30.197l17.018 64.635h19.085z" fill="#e7a561"/></g></g><g><path d="m502 261.325h-492c-5.523 0-10-4.477-10-10v-60.524c0-20.272 16.434-36.707 36.707-36.707h24.47l58.484 8.736 58.484-8.736h42.244l36.792 8.736 36.792-8.736h39.881l58.484 8.736 58.484-8.736h24.47c20.272 0 36.707 16.434 36.707 36.707v60.524c.001 5.523-4.476 10-9.999 10z" fill="#055e7f"/></g><g><path d="m475.793 154.105c.002.141.011.281.011.423v60.622c0 5.511-4.468 9.979-9.979 9.979h-465.825v26.217c0 5.511 4.468 9.979 9.979 9.979h492.042c5.511 0 9.979-4.468 9.979-9.979v-60.622c0-20.088-16.173-36.391-36.207-36.619z" fill="#004c67"/></g><g><path d="m281.973 190.897h-49.583c-6.627 0-12-5.373-12-12v-24.802h73.583v24.802c0 6.627-5.372 12-12 12z" fill="#b4d9fc"/></g><g><path d="m276.248 154.094v14.088c0 2.756-2.234 4.99-4.99 4.99h-50.868v5.751c0 6.614 5.361 11.975 11.975 11.975h49.634c6.614 0 11.975-5.361 11.975-11.975v-24.828h-17.726z" fill="#8ac7fd"/></g><g><path d="m386.378 443.98h-131.718l-14.224-6.015-14.09 6.015h-100.724v-66.32c0-8.284 6.716-15 15-15h230.755c8.284 0 15 6.716 15 15v66.32z" fill="#b4d9fc"/></g><g><path d="m371.409 362.66h-10.623v39.087c0 9.191-7.45 16.641-16.641 16.641h-218.523v25.591h100.725l14.09-6.015 14.969 6.015h130.972v-66.351c0-8.266-6.702-14.968-14.969-14.968z" fill="#8ac7fd"/></g><g><path d="m187.675 362.66h14.969v81.32h-14.969z" fill="#62b5fe"/></g><g><path d="m309.357 362.66h14.969v81.32h-14.969z" fill="#62b5fe"/></g><g><path d="m273.391 412.849-14.529-25.165c-.713-1.235-2.031-1.996-3.457-1.996h-29.058c-1.426 0-2.744.761-3.457 1.996l-14.529 25.165c-.713 1.235-.713 2.757 0 3.992l14.529 25.165c.713 1.235 2.031 1.996 3.457 1.996h29.058c1.426 0 2.744-.761 3.457-1.996l14.529-25.165c.713-1.236.713-2.757 0-3.992zm-32.515 9.554c-4.175 0-7.559-3.384-7.559-7.559s3.384-7.559 7.559-7.559 7.559 3.384 7.559 7.559-3.384 7.559-7.559 7.559z" fill="#f6f9f9"/></g><g><path d="m273.391 412.849-14.529-25.165c-.713-1.235-2.031-1.996-3.457-1.996h-14.969c1.426 0 2.744.761 3.457 1.996l14.529 25.165c.713 1.235.713 2.757 0 3.992l-14.529 25.165c-.713 1.235-2.031 1.996-3.457 1.996h14.969c1.426 0 2.744-.761 3.457-1.996l14.529-25.165c.713-1.236.713-2.757 0-3.992z" fill="#dae4ea"/></g><g><path d="m299.991 384.533 7.521-28.068c.369-1.377-.025-2.847-1.033-3.856l-20.547-20.547c-1.008-1.008-2.478-1.402-3.856-1.033l-28.068 7.521c-1.377.369-2.453 1.445-2.822 2.822l-7.521 28.068c-.369 1.377.025 2.847 1.033 3.856l20.547 20.547c1.008 1.008 2.478 1.402 3.856 1.033l28.068-7.521c1.377-.368 2.453-1.444 2.822-2.822zm-29.819-16.164c-2.991-2.991-2.991-7.841 0-10.833 2.991-2.991 7.841-2.991 10.833 0 2.991 2.991 2.991 7.841 0 10.833-2.992 2.991-7.842 2.991-10.833 0z" fill="#dae4ea"/></g><g><path d="m299.991 384.533 7.521-28.068c.369-1.377-.025-2.847-1.033-3.856l-10.584-10.584c1.008 1.008 1.402 2.478 1.033 3.856l-7.521 28.068c-.369 1.377-1.445 2.453-2.822 2.822l-28.068 7.521c-1.377.369-2.847-.025-3.856-1.033l10.584 10.584c1.008 1.008 2.478 1.402 3.856 1.033l28.068-7.521c1.377-.368 2.453-1.444 2.822-2.822z" fill="#b9c1cb"/></g><g><path d="m166.145 190.897h-92.968c-6.627 0-12-5.373-12-12v-24.802h116.969v24.802c-.001 6.627-5.373 12-12.001 12z" fill="#b4d9fc"/></g><g><path d="m160.525 154.094v14.193c0 2.756-2.234 4.99-4.99 4.99h-94.358v5.646c0 6.614 5.361 11.975 11.975 11.975h93.019c6.614 0 11.975-5.361 11.975-11.975v-24.828h-17.621z" fill="#8ac7fd"/></g><g><path d="m189.672 294.607h-140.022c-3.866 0-7-3.134-7-7v-41.245c0-3.866 3.134-7 7-7h140.022c3.866 0 7 3.134 7 7v41.245c0 3.866-3.134 7-7 7z" fill="#057096"/></g><g><path d="m438.823 190.897h-92.969c-6.627 0-12-5.373-12-12v-24.802h116.969v24.802c0 6.627-5.372 12-12 12z" fill="#b4d9fc"/></g><g><path d="m433.203 154.094v14.193c0 2.756-2.234 4.99-4.99 4.99h-94.359v5.646c0 6.614 5.361 11.975 11.975 11.975h93.019c6.614 0 11.975-5.361 11.975-11.975v-24.828h-17.62z" fill="#8ac7fd"/></g><g><path d="m449.547 290.825-14.344 3.782h-112.875c-3.866 0-7-3.134-7-7v-41.245c0-3.866 3.134-7 7-7h140.022c3.866 0 7 3.134 7 7v41.245c0 3.763-2.969 6.832-6.692 6.993-.102.005-13.111-3.775-13.111-3.775z" fill="#057096"/></g><g><path d="m189.687 239.362h-15.744v25.53c0 3.858-3.127 6.985-6.985 6.985h-124.308v15.744c0 3.858 3.127 6.985 6.985 6.985h140.051c3.858 0 6.985-3.127 6.985-6.985v-41.274c.001-3.857-3.127-6.985-6.984-6.985z" fill="#055e7f"/></g><g><path d="m462.365 239.362h-15.744v25.53c0 3.858-3.127 6.985-6.985 6.985h-124.308v15.744c0 3.858 3.128 6.985 6.985 6.985h140.051c3.858 0 6.985-3.127 6.985-6.985v-41.274c.001-3.857-3.126-6.985-6.984-6.985z" fill="#055e7f"/></g><g><path d="m432.551 227.944h-80.425c-2.204 0-3.992 1.787-3.992 3.992v68.637c0 2.204 1.787 3.992 3.992 3.992h9.148c1.719 0 3.291 1.074 3.818 2.71 3.709 11.51 14.503 19.839 27.247 19.839s23.537-8.329 27.247-19.839c.527-1.637 2.099-2.71 3.818-2.71h9.148c2.204 0 3.992-1.787 3.992-3.992v-68.637c-.001-2.205-1.788-3.992-3.993-3.992z" fill="#ecbe6b"/></g><g><path d="m432.551 227.944h-28.068c2.204 0 3.992 1.787 3.992 3.992v68.637c0 2.205-1.787 3.992-3.992 3.992h-9.148c-1.72 0-3.291 1.074-3.818 2.71-2.223 6.9-7.004 12.638-13.212 16.143 4.149 2.342 8.929 3.696 14.034 3.696 12.744 0 23.537-8.329 27.247-19.839.527-1.637 2.099-2.71 3.818-2.71h9.148c2.205 0 3.992-1.787 3.992-3.992v-68.637c-.001-2.205-1.788-3.992-3.993-3.992z" fill="#e7a561"/></g><g><g><path d="m375.5 257.742c-4.133 0-7.484-3.351-7.484-7.484v-22.314h14.969v22.314c-.001 4.134-3.352 7.484-7.485 7.484z" fill="#e4936b"/></g><g><path d="m409.179 257.742c-4.133 0-7.484-3.351-7.484-7.484v-22.314h14.969v22.314c-.001 4.134-3.352 7.484-7.485 7.484z" fill="#e4936b"/></g></g><g><path d="m159.873 227.944h-80.424c-2.205 0-3.992 1.787-3.992 3.992v68.637c0 2.204 1.787 3.992 3.992 3.992h9.148c1.719 0 3.291 1.074 3.818 2.71 3.709 11.51 14.503 19.839 27.247 19.839s23.537-8.329 27.247-19.839c.527-1.637 2.099-2.71 3.818-2.71h9.148c2.204 0 3.992-1.787 3.992-3.992v-68.637c-.002-2.205-1.789-3.992-3.994-3.992z" fill="#ecbe6b"/></g><g><path d="m159.873 227.944h-28.068c2.204 0 3.992 1.787 3.992 3.992v68.637c0 2.205-1.787 3.992-3.992 3.992h-9.148c-1.72 0-3.291 1.074-3.818 2.71-2.223 6.9-7.004 12.638-13.212 16.143 4.149 2.342 8.929 3.696 14.034 3.696 12.744 0 23.537-8.329 27.247-19.839.527-1.637 2.099-2.71 3.818-2.71h9.148c2.205 0 3.992-1.787 3.992-3.992v-68.637c-.001-2.205-1.788-3.992-3.993-3.992z" fill="#e7a561"/></g><g><g><path d="m102.821 257.742c-4.133 0-7.484-3.351-7.484-7.484v-22.314h14.969v22.314c-.001 4.134-3.352 7.484-7.485 7.484z" fill="#e4936b"/></g><g><path d="m136.5 257.742c-4.133 0-7.484-3.351-7.484-7.484v-22.314h14.969v22.314c-.001 4.134-3.351 7.484-7.485 7.484z" fill="#e4936b"/></g></g><path d="m265.245 393.844c1.008 1.008 2.478 1.402 3.856 1.033l28.068-7.521c1.377-.369 2.453-1.445 2.823-2.823l5.861-21.873h-22.618c.078 2.057-.659 4.138-2.229 5.709-2.991 2.991-7.841 2.991-10.833 0-1.57-1.57-2.308-3.652-2.23-5.709h-22.461l-1.817 6.78c-.369 1.378.025 2.847 1.033 3.856z" fill="#f6f9f9"/><path d="m269.1 394.877 28.068-7.521c1.377-.369 2.453-1.445 2.823-2.823l5.861-21.873h-13.42l-3.025 11.288c-.369 1.378-1.445 2.453-2.823 2.823l-28.068 7.521c-1.378.369-2.847-.025-3.856-1.033l10.584 10.584c1.009 1.009 2.479 1.403 3.856 1.034z" fill="#dae4ea"/></g></svg>