<svg id="Capa_1" enable-background="new 0 0 512 512" height="512" viewBox="0 0 512 512" width="512" xmlns="http://www.w3.org/2000/svg"><g><path d="m144.005 132.763v293.949h15.029v-53.467l58.78 58.78 12.828-5.314v-293.948zm61.07 15.03-46.04 46.04v-46.04zm-46.041 82.235 45.952 45.952h-45.952zm46.247 60.982-46.247 46.247v-46.247zm10.333 117.561-45.952-45.952h45.952zm-45.658-60.982 45.658-45.658v45.658zm45.658-82.236-45.952-45.952h45.952zm-45.864-60.981 45.864-45.864v45.864z" fill="#f4dd45"/><g><path d="m56.601 130.605c-1.953 0-3.904-.756-5.376-2.264-2.9-2.969-2.844-7.727.125-10.627l118.02-114.498c2.969-2.9 7.726-2.844 10.627.125 2.9 2.969 2.844 7.727-.125 10.627l-118.021 114.498c-1.461 1.428-3.356 2.139-5.25 2.139z" fill="#b9c1cb"/></g><g><path d="m93.814 211.887h-37.229c-4.427 0-8.016-3.589-8.016-8.016v-129.726c0-4.427 3.589-8.016 8.016-8.016h37.229c4.427 0 8.016 3.589 8.016 8.016v129.726c-.001 4.427-3.589 8.016-8.016 8.016z" fill="#f6f9f9"/></g><g><path d="m93.798 66.129h-6.753v122.942c0 4.436-3.596 8.031-8.031 8.031h-30.445v6.753c0 4.436 3.596 8.031 8.031 8.031h37.198c4.436 0 8.031-3.596 8.031-8.031v-129.695c0-4.435-3.595-8.031-8.031-8.031z" fill="#dae4ea"/></g><g><path d="m67.958 66.129h15.029v145.757h-15.029z" fill="#b9c1cb"/></g><path d="m149.516 118.356h-40.172v-21.244c0-4.15-3.365-7.515-7.515-7.515h-76.086c-4.15 0-7.515 3.365-7.515 7.515v21.245h-5.198c-4.15 0-7.515 3.364-7.515 7.515s3.365 7.515 7.515 7.515h136.485c4.15 0 7.515-3.365 7.515-7.515s-3.364-7.516-7.514-7.516zm-116.258-13.73h61.057v13.73h-61.057z" fill="#f4dd45"/><g><path d="m389.931 212.07c-9.772 0-18.274-6.95-20.216-16.526l-13.587-66.951c-.825-4.068 1.803-8.034 5.871-8.859 4.065-.824 8.034 1.802 8.859 5.87l13.587 66.952c.526 2.599 2.835 4.485 5.486 4.485 2.652 0 4.959-1.887 5.487-4.486l13.585-66.952c.826-4.067 4.793-6.694 8.859-5.87 4.068.825 6.696 4.792 5.871 8.859l-13.586 66.952c-1.944 9.577-10.446 16.526-20.216 16.526z" fill="#b9c1cb"/></g><g><path d="m407.614 75.989c-.668 0-1.346-.09-2.022-.278l-210.131-60.956c-3.998-1.114-6.335-5.259-5.221-9.257s5.255-6.333 9.257-5.221l210.13 60.957c3.998 1.114 6.336 5.259 5.221 9.257-.926 3.323-3.946 5.498-7.234 5.498z" fill="#b9c1cb"/></g><path d="m504.302 119.062-54.528-54.528c-1.051-1.036-2.319-2.055-4.44-2.055-1.924 0-157.64-.138-164.46-.146-2.855-.073-4.897 1.648-6.645 3.532-.803 2.326-59.069 55.684-55.399 58.511.001 4.15 3.365 7.515 7.515 7.515 0 0 245.488.015 272.642 0 6.462.205 10.082-8.382 5.315-12.829zm-67.358-12.761-28.939-28.939h28.939zm-54.528-18.311v28.871h-28.871zm-39.499 18.243v-28.871h28.871zm-15.029.224-29.095-29.095h29.095zm-54.529-18.468v28.872h-28.872zm15.03.225 28.647 28.647h-28.647zm109.056-.157 28.804 28.804h-28.804zm54.529 28.804v-28.872l28.872 28.872z" fill="#f4dd45"/><g><path d="m388.882 273.693c-.414 0-.828-.009-1.245-.028-13.334-.614-24.258-11.539-24.871-24.872-.441-9.588 4.384-18.627 12.592-23.591 3.75-2.267 5.988-6.16 5.988-10.415v-10.638c0-4.15 3.364-7.515 7.515-7.515s7.515 3.364 7.515 7.515v10.638c0 9.42-5.073 18.339-13.242 23.276-3.49 2.111-5.542 5.957-5.354 10.039.255 5.561 4.987 10.293 10.548 10.548 3.079.14 5.981-.944 8.194-3.057 2.214-2.115 3.433-4.965 3.433-8.025 0-4.15 3.364-7.515 7.515-7.515s7.515 3.364 7.515 7.515c0 7.206-2.871 13.916-8.083 18.894-4.91 4.69-11.269 7.231-18.02 7.231z" fill="#b9c1cb"/></g><g><path d="m388.861 303.593c-4.151 0-7.515-3.364-7.515-7.515v-40.912c0-4.15 3.364-7.515 7.515-7.515s7.515 3.364 7.515 7.515v40.912c0 4.151-3.364 7.515-7.515 7.515z" fill="#057096"/></g><g><path d="m500.026 338.162h-222.33c-3.212 0-5.816-2.604-5.816-5.816v-30.452c0-3.212 2.604-5.816 5.816-5.816h222.33c3.212 0 5.816 2.604 5.816 5.816v30.452c.001 3.212-2.603 5.816-5.816 5.816z" fill="#ecbe6b"/></g><g><path d="m500.015 296.078h-13.05v17.379c0 3.218-2.609 5.828-5.827 5.828h-209.258v13.05c0 3.218 2.609 5.828 5.827 5.828h222.307c3.218 0 5.827-2.609 5.827-5.828v-30.429c.002-3.219-2.607-5.828-5.826-5.828z" fill="#e7a561"/></g><g><path d="m305.101 296.078h15.029v42.084h-15.029z" fill="#057096"/></g><g><path d="m457.273 296.078h15.029v42.084h-15.029z" fill="#057096"/></g><path d="m228.441 73.516-19.542-64.616c-1.609-5.323-6.427-8.9-11.988-8.9h-19.173c-5.561 0-10.378 3.576-11.988 8.899l-19.665 65.024c-1.379 4.559-2.079 9.295-2.079 14.058v27.119h15.029v-32.078l13.183-43.591 42.858 42.858c.345 2.02.539 4.063.539 6.119v26.692h15.029v-26.692c-.001-5.045-.743-10.063-2.203-14.892zm-48.844-58.487h15.455l11.264 37.245-29.162-29.162z" fill="#f4dd45"/><g><path d="m227.062 159.562h-79.477c-7.278 0-13.177-5.9-13.177-13.177v-62.57c0-7.278 5.9-13.177 13.177-13.177h32.992l59.662 55.233v20.513c.001 7.278-5.899 13.178-13.177 13.178z" fill="#057096"/></g><g><path d="m248.255 467.828h-121.863v-34.834c0-4.418 3.582-8 8-8h105.863c4.418 0 8 3.582 8 8z" fill="#057096"/></g><g><path d="m240.24 424.995h-35.804c4.427 0 8.016 3.589 8.016 8.016v34.818h35.804v-34.819c-.001-4.427-3.589-8.015-8.016-8.015z" fill="#055e7f"/></g><g><path d="m239.989 465.785h-105.33c-5.461 0-10.872 1.038-15.946 3.059l-39.555 15.758c-3.43 1.366-5.68 4.685-5.68 8.377v14.01c0 2.767 2.243 5.01 5.01 5.01h217.672c2.767 0 5.01-2.243 5.01-5.01v-14.01c0-3.692-2.25-7.011-5.68-8.377l-39.555-15.758c-5.074-2.021-10.485-3.059-15.946-3.059z" fill="#055e7f"/></g><g><path d="m295.489 484.602-39.555-15.758c-5.073-2.021-10.485-3.059-15.946-3.059h-68.712c8.346 0 16.616 1.587 24.37 4.676l60.452 24.084c5.242 2.088 8.681 7.161 8.681 12.803v4.652h31.38c2.767 0 5.01-2.243 5.01-5.01v-14.01c.001-3.692-2.25-7.011-5.68-8.378z" fill="#004c67"/></g><g><path d="m210.409 98.254v61.307h16.654c7.278 0 13.177-5.9 13.177-13.177v-20.513z" fill="#055e7f"/></g><g><g><path d="m200.639 77.292c-4.473-4.271-10.421-6.654-16.606-6.654h-3.455v45.213c0 5.534 4.486 10.02 10.02 10.02h49.642v-.483c0-6.571-2.689-12.856-7.442-17.393z" fill="#b4d9fc"/></g><g><path d="m232.798 107.995-22.389-21.376v39.251h29.831v-.483c0-6.57-2.689-12.854-7.442-17.392z" fill="#8ac7fd"/></g></g></g></svg>