<svg id="Capa_1" enable-background="new 0 0 512 512" height="512" viewBox="0 0 512 512" width="512" xmlns="http://www.w3.org/2000/svg"><g><g><path d="m425.14 293.691c-8.157.384-14.433 7.411-14.433 15.578v9.553c0 21.22-17.202 38.422-38.422 38.422h-20.954c-33.994 0-61.648 27.664-61.632 61.661.006 12.628-10.256 22.855-22.884 22.855h-81.477c-12.578 0-22.925-10.15-22.884-22.729.084-26.211-21.215-47.562-47.406-47.562 0 0-.402-.001-1.061-.004-6.263-.022-11.33-5.105-11.33-11.369v-66.422h-32.093v63.616c0 24.583 19.928 44.511 44.511 44.511 9.504 0 17.011 7.775 17.047 17.279.111 29.25 23.941 53.012 53.216 53.012h81.151c29.311 0 53.86-23.565 53.544-52.874-.187-17.414 13.925-31.641 31.298-31.641h20.954c37.972 0 68.754-30.782 68.754-68.754v-9.981c.001-8.621-7.189-15.561-15.899-15.151z" fill="#057096"/></g><g><path d="m425.14 293.691c-.213.01-.419.043-.629.062 2.334 40.053-27.769 74.807-67.956 77.994l-22.467 1.782c-18.627 1.477-32.548 17.931-30.866 36.587 2.83 31.399-21.486 58.753-52.914 61.245l-9.194.729h25.376c29.311 0 53.86-23.565 53.545-52.874-.187-17.414 13.925-31.641 31.298-31.641h20.954c37.972 0 68.754-30.782 68.754-68.754v-9.981c-.001-8.619-7.191-15.559-15.901-15.149z" fill="#055e7f"/></g><g><path d="m457.511 284.951c-3.701-51.621-15.299-102.443-34.454-150.674-23.684-59.635-81.355-98.784-145.521-98.784h-42.714c-63.268 0-120.241 38.293-144.135 96.875-19.885 48.754-32.006 100.238-36.011 152.582h402.835z" fill="#ecbe6b"/></g><g><path d="m423.056 134.277c-23.684-59.635-81.355-98.784-145.521-98.784h-42.714c-4.03 0-8.033.159-12.005.465 59.245 4.561 111.266 42.448 133.455 98.318 19.155 48.231 30.753 99.053 34.454 150.674h66.785c-3.701-51.62-15.299-102.441-34.454-150.673z" fill="#e7a561"/></g><g><path d="m308.979 66.793v-28.029c0-8.376-6.79-15.166-15.166-15.166h-76.022c-8.376 0-15.166 6.79-15.166 15.166v28.028c0 38.579-7.882 76.752-23.163 112.176l-38.554 89.375h229.788l-38.554-89.375c-15.281-35.424-23.163-73.596-23.163-112.175z" fill="#e7a561"/></g><g><path d="m332.142 178.969c-15.281-35.424-23.163-73.597-23.163-112.176v-28.029c0-8.376-6.79-15.166-15.166-15.166h-36.698c8.376 0 15.166 6.79 15.166 15.166v28.028c0 38.579 7.882 76.752 23.163 112.176l38.554 89.375h36.698z" fill="#e4936b"/></g><g><g><path d="m425.44 330.771c-13.155 0-26.311-2.588-38.702-7.79-33.065-13.879-80.789-21.839-130.936-21.839-50.073 0-97.75 7.941-130.809 21.785-26.687 11.179-56.951 10.233-83.025-2.592l-36.317-17.863c-5.011-2.465-7.075-8.525-4.61-13.535l13.388-27.218c2.465-5.011 8.525-7.075 13.535-4.61l36.318 17.863c12.962 6.375 27.973 6.858 41.182 1.326 39.588-16.579 92.979-25.71 150.339-25.71 57.449 0 110.898 9.156 150.502 25.78 13.228 5.553 28.255 5.077 41.232-1.306l36.5-17.953c5.011-2.465 11.071-.401 13.535 4.61l13.388 27.218c2.465 5.011.401 11.071-4.61 13.535l-36.5 17.953c-13.996 6.885-29.201 10.346-44.41 10.346z" fill="#f9ef63"/></g></g><g><path d="m510.96 288.937-13.388-27.218c-2.465-5.011-8.525-7.075-13.535-4.61l-1.294.637 2.879 5.853c2.465 5.011.401 11.071-4.61 13.535l-36.5 17.953c-13.995 6.884-29.2 10.345-44.409 10.346-13.155 0-26.311-2.588-38.702-7.79-33.065-13.879-80.789-21.839-130.936-21.839-50.073 0-97.75 7.941-130.809 21.785-26.687 11.179-56.951 10.233-83.025-2.592l-14.953-7.355-.637 1.294c-2.465 5.011-.401 11.071 4.61 13.535l36.318 17.863c26.074 12.826 56.338 13.771 83.025 2.592 33.059-13.845 80.736-21.785 130.809-21.785 50.147 0 97.871 7.96 130.936 21.839 12.391 5.202 25.547 7.79 38.702 7.79 15.209 0 30.414-3.462 44.409-10.346l36.5-17.953c5.01-2.463 7.074-8.524 4.61-13.534z" fill="#f4dd45"/></g><path d="m255.812 84.676c19.265 0 34.939-15.674 34.939-34.939v-26.139h-15.166v26.138c0 10.903-8.87 19.773-19.773 19.773s-19.773-8.87-19.773-19.773v-26.138h-15.166v26.138c0 19.266 15.673 34.94 34.939 34.94z" fill="#ecbe6b"/><g><path d="m342.673 203.781h-173.742c-3.314 0-6-2.686-6-6v-48.586c0-3.314 2.686-6 6-6h173.742c3.314 0 6 2.686 6 6v48.586c0 3.313-2.686 6-6 6z" fill="#057096"/></g><g><path d="m342.606 143.195h-10.436v38.016c0 3.35-2.716 6.067-6.067 6.067h-163.172v10.436c0 3.35 2.716 6.067 6.067 6.067h173.609c3.35 0 6.067-2.716 6.067-6.067v-48.452c-.001-3.351-2.717-6.067-6.068-6.067z" fill="#055e7f"/></g><g><circle cx="255.802" cy="173.488" fill="#fff9c1" r="47.773"/></g><g><path d="m273.424 129.085c2.167 5.454 3.371 11.396 3.371 17.622 0 26.384-21.389 47.773-47.773 47.773-6.226 0-12.168-1.204-17.622-3.371 7.015 17.659 24.244 30.151 44.403 30.151 26.384 0 47.773-21.389 47.773-47.773-.001-20.157-12.492-37.387-30.152-44.402z" fill="#f9ef63"/></g><g><path d="m255.803 228.844c-30.523 0-55.356-24.833-55.356-55.356s24.833-55.356 55.356-55.356 55.356 24.833 55.356 55.356-24.833 55.356-55.356 55.356zm0-95.546c-22.161 0-40.19 18.029-40.19 40.19s18.029 40.19 40.19 40.19 40.19-18.029 40.19-40.19-18.029-40.19-40.19-40.19z" fill="#b9c1cb"/></g><g><path d="m236.643 488.402h-24.384c-25.863 0-46.828-20.966-46.828-46.828v-3.368c0-5.761 4.67-10.431 10.431-10.431h97.179c5.761 0 10.431 4.67 10.431 10.431v3.368c-.001 25.862-20.966 46.828-46.829 46.828z" fill="#055e7f"/></g><path d="m273.041 427.775h-37.875c5.761 0 10.431 4.67 10.431 10.431v3.368c0 23.571-17.417 43.067-40.083 46.338 2.203.318 4.454.49 6.745.49h24.384c25.863 0 46.828-20.966 46.828-46.828v-3.368c0-5.761-4.669-10.431-10.43-10.431z" fill="#004c67"/><g><path d="m244.534 463.672h-38.938c-4.189 0-7.583-3.395-7.583-7.583s3.395-7.583 7.583-7.583h38.938c4.189 0 7.583 3.395 7.583 7.583.001 4.187-3.394 7.583-7.583 7.583z" fill="#004c67"/></g><g><circle cx="255.802" cy="173.488" fill="#f4dd45" r="8.531"/></g></g></svg>