<svg id="Capa_1" enable-background="new 0 0 512 512" height="512" viewBox="0 0 512 512" width="512" xmlns="http://www.w3.org/2000/svg"><g><g><path d="m497.656 364.388h-71.465c-3.961 0-7.171-3.21-7.171-7.171s3.21-7.171 7.171-7.171h71.465c3.961 0 7.171 3.21 7.171 7.171 0 3.96-3.21 7.171-7.171 7.171z" fill="#b9c1cb"/></g><g><path d="m480.191 361.633c-3.961 0-7.171-3.21-7.171-7.171v-29.699c0-3.961 3.21-7.171 7.171-7.171s7.171 3.21 7.171 7.171v29.699c0 3.961-3.21 7.171-7.171 7.171z" fill="#b9c1cb"/></g><g><path d="m424.13 382.039h-28.795v-53.392l52.495-7.726-10.005 49.897c-1.309 6.525-7.04 11.221-13.695 11.221z" fill="#f6f9f9"/></g><g><path d="m430.932 323.407-9.507 47.41c-1.309 6.526-7.039 11.221-13.695 11.221h16.399c6.655 0 12.387-4.696 13.695-11.221l10.005-49.897z" fill="#dae4ea"/></g><g><path d="m502.768 310.199-7.073-25.129c-1.058-3.758-1.137-7.718-.232-11.516 2.552-10.715 2.154-24.365-1.812-38.452-3.965-14.087-10.746-25.942-18.512-33.752-2.753-2.768-4.751-6.188-5.809-9.946l-5.325-18.916-35.204 9.909 5.325 18.916c1.058 3.758 1.137 7.718.232 11.516-2.552 10.715-2.154 24.365 1.812 38.453 3.965 14.087 10.746 25.941 18.512 33.751 2.753 2.768 4.751 6.188 5.809 9.946l7.073 25.129z" fill="#057096"/></g><g><path d="m449.757 195.412c1.084 3.85 3.132 7.355 5.953 10.191 7.959 8.003 14.906 20.149 18.969 34.585 4.063 14.435 4.472 28.422 1.857 39.402-.927 3.891-.846 7.95.238 11.8l6.815 24.209 19.181-5.399-7.073-25.129c-1.058-3.758-1.137-7.718-.232-11.516 2.552-10.715 2.154-24.365-1.812-38.453s-10.746-25.941-18.512-33.752c-2.753-2.768-4.752-6.188-5.809-9.946l-5.325-18.916-19.181 5.399z" fill="#055e7f"/></g><g><g><path d="m58.124 157.796h328.344v41.114h-328.344z" fill="#dae4ea" transform="matrix(.994 -.108 .108 .994 -17.978 25.076)"/></g></g><g><path d="m383.284 140.168-60.964 6.63-3.115 16.15c-.636 3.296-3.346 5.793-6.684 6.156l-253.375 27.553 2.162 19.881 326.42-35.497z" fill="#b9c1cb"/></g><g><path d="m104.405 150.087h-59.766c-8.758 0-16.397 5.949-18.541 14.441l-11.954 47.338c-7.498 29.693-11.291 60.201-11.291 90.826v72.208h33.345v-19.171c0-31.583 3.489-63.07 10.402-93.887 4.076-18.168 20.206-31.08 38.825-31.08 3.744.253 9.016.137 9.827-4.54l14.763-69.201c.762-3.57-1.96-6.934-5.61-6.934z" fill="#f9ef63"/></g><g><path d="m104.405 150.087h-16.833l-12.787 59.94c-.81 4.678-6.085 4.792-9.827 4.54-18.619 0-34.749 12.912-38.825 31.08-6.914 30.817-10.402 62.304-10.402 93.887v35.366h20.468v-19.171c0-31.583 3.489-63.07 10.402-93.887 4.076-18.168 20.206-31.08 38.825-31.08 3.744.253 9.016.137 9.827-4.54l14.763-69.201c.761-3.57-1.961-6.934-5.611-6.934z" fill="#f4dd45"/></g><g><g><path d="m402.655 383.93h-388.313c-7.921 0-14.342-6.422-14.342-14.342 0-7.921 6.421-14.342 14.342-14.342h388.313c7.921 0 14.342 6.421 14.342 14.342 0 7.92-6.421 14.342-14.342 14.342z" fill="#dae4ea"/></g></g><g><path d="m403.416 355.284c-.021 7.903-6.432 14.304-14.34 14.304h-388.313c-.257 0-.508-.025-.761-.038 0 .013-.002.026-.002.038 0 7.921 6.421 14.342 14.342 14.342h388.313c7.921 0 14.342-6.421 14.342-14.342 0-7.664-6.016-13.906-13.581-14.304z" fill="#b9c1cb"/></g><g><path d="m511.845 311.499c-1.154-7.836-8.441-13.254-16.278-12.101l-82.25 12.105c-2.258.086-3.395-.897-3.64-3.143v-30.866c0-17.553-4.555-34.915-13.171-50.207l-16.179-28.714c-1.346-2.389.185-5.376 2.91-5.679l87.649-9.735c7.531-.837 10.343-10.324 4.484-15.129l-30.342-24.883c-13.81-11.325-31.595-16.619-49.35-14.688l-43.479 4.728c-2.462.268-4.474 2.085-4.99 4.506l-11.277 52.862c-.816 3.827 2.354 7.331 6.244 6.899 2.624-.291 5.168 1.012 6.463 3.312l22.878 40.601c6.213 11.026 9.477 23.469 9.477 36.125v30.317c0 7.317 2.279 14.522 6.82 20.259 6.202 7.836 15.457 12.152 25.032 12.152 1.544 0 3.099-.113 4.648-.34l82.251-12.105c7.835-1.152 13.253-8.44 12.1-16.276z" fill="#f9ef63"/></g><g><g><path d="m423.559 144.974 31.011 25.432c5.273 4.324 3.67 12.351-2.041 14.794l18.356-2.039c7.531-.837 10.343-10.324 4.484-15.129l-30.342-24.883c-13.81-11.325-31.595-16.618-49.35-14.688l-11.329 1.232c14.264.816 28.017 6.1 39.211 15.281z" fill="#f4dd45"/></g></g><g><circle cx="59.086" cy="194.189" fill="#057096" r="16.269"/></g><g><path d="m63.226 178.472c.348 1.324.552 2.707.552 4.14 0 8.985-7.284 16.269-16.269 16.269-1.433 0-2.816-.204-4.14-.552 1.834 6.976 8.165 12.13 15.717 12.13 8.985 0 16.269-7.284 16.269-16.269 0-7.553-5.153-13.885-12.129-15.718z" fill="#055e7f"/></g><g><g><path d="m511.845 311.499c-1.154-7.836-8.441-13.254-16.278-12.101l-18.591 2.736c6.607.581 12.202 5.606 13.21 12.455 1.057 7.185-3.298 13.903-9.986 16.064l19.543-2.876c7.837-1.154 13.255-8.442 12.102-16.278z" fill="#f4dd45"/></g></g></g></svg>