<svg id="Capa_1" enable-background="new 0 0 512 512" height="512" viewBox="0 0 512 512" width="512" xmlns="http://www.w3.org/2000/svg"><g><g><path d="m340.078 433.819c-.057-14.921-6.224-29.169-16.775-39.72l-40.556-40.75c-4.586-4.608-7.168-10.84-7.186-17.341l-.128-48.166h-39.548l-.27 69.162c-.061 15.649 6.128 30.674 17.194 41.739l12.536 12.536c9.879 9.879 9.879 25.895 0 35.774-9.879 9.879-25.895 9.879-35.774 0l-30.217-30.217c-4.744-4.744-12.881-2.147-13.978 4.471-.826 4.978-1.179 10.115-1.011 15.364 1.326 41.419 35.406 74.806 76.844 75.322 43.465.541 78.87-34.53 78.87-77.871-.001-.101-.001-.202-.001-.303z" fill="#dae4ea"/></g><g><g><path d="m340.078 433.819c-.057-14.921-6.224-29.169-16.775-39.72l-40.556-40.75c-4.586-4.608-7.168-10.84-7.186-17.341l-.128-48.166h-29.782l.128 48.166c.017 6.501 2.599 12.733 7.186 17.341l40.556 40.75c10.55 10.55 16.718 24.799 16.775 39.72 0 .101.001.203.001.304 0 37.886-27.055 69.451-62.898 76.435 4.485.873 9.097 1.377 13.81 1.436 43.465.541 78.87-34.53 78.87-77.871-.001-.102-.001-.203-.001-.304z" fill="#b9c1cb"/></g></g><g><g><path d="m331.779 73.871c-4.137 0-7.491-3.354-7.491-7.491v-58.889c0-4.137 3.354-7.491 7.491-7.491s7.491 3.354 7.491 7.491v58.889c0 4.137-3.354 7.491-7.491 7.491z" fill="#b9c1cb"/></g><g><path d="m301.504 73.871c-4.137 0-7.491-3.354-7.491-7.491v-58.889c0-4.137 3.354-7.491 7.491-7.491s7.491 3.354 7.491 7.491v58.889c0 4.137-3.354 7.491-7.491 7.491z" fill="#b9c1cb"/></g><g><path d="m210.496 73.871c-4.137 0-7.491-3.354-7.491-7.491v-58.889c0-4.137 3.354-7.491 7.491-7.491s7.491 3.354 7.491 7.491v58.889c.001 4.137-3.353 7.491-7.491 7.491z" fill="#b9c1cb"/></g><g><path d="m180.221 73.871c-4.137 0-7.491-3.354-7.491-7.491v-58.889c0-4.137 3.354-7.491 7.491-7.491s7.491 3.354 7.491 7.491v58.889c0 4.137-3.354 7.491-7.491 7.491z" fill="#b9c1cb"/></g></g><g><path d="m364.719 89.562-8.15-23.182-6.197-6.482c-3.856-4.033-9.193-6.314-14.772-6.314h-40.57l-36.342 7.01-27.019-7.01h-55.267c-5.58 0-10.917 2.281-14.772 6.314l-30.558 31.962c-4.363 4.564-6.798 10.634-6.798 16.948v52.171l15.888 16.437 4.926 26.168 28.527 45.75 19.823 12.635 4.534 26.427 14.57 23.366c3.546 5.687 9.774 9.143 16.475 9.143h10.724l53.125-28.279 90.364-115.209.629-1.008c2.529-4.055 3.869-8.738 3.869-13.517v-54.083c0-2.963-.536-5.873-1.557-8.599-1.155-3.082-21.452-10.648-21.452-10.648z" fill="#f9ef63"/></g><g><path d="m362.953 91.763-6.385-25.383-6.197-6.482c-3.856-4.033-9.193-6.314-14.772-6.314h-40.569c5.58 0 10.917 2.281 14.772 6.314l30.558 31.962c4.363 4.564 6.798 10.634 6.798 16.948v54.083c0 4.779-1.34 9.462-3.869 13.517l-73.701 118.197 23.277-1.979 90.364-115.209.629-1.008c2.529-4.055 3.869-8.738 3.869-13.517v-54.083c0-2.963-.536-5.873-1.557-8.599-1.154-3.082-23.217-8.447-23.217-8.447z" fill="#f4dd45"/></g><g><path d="m231.669 53.584-107.395 107.395v1.912c0 4.779 1.34 9.462 3.869 13.517l16.945 27.176 150-150z" fill="#057096"/></g><g><path d="m173.615 249.334 24.357 39.062 188.179-188.179c-1.154-3.082-2.907-5.935-5.222-8.356l-24.36-25.48z" fill="#057096"/></g><g><path d="m383.229 177.416-143.489 143.488h43.243c6.702 0 12.929-3.456 16.475-9.143z" fill="#057096"/></g><g><path d="m231.669 53.584-107.395 107.395v1.912c0 4.779 1.34 9.462 3.869 13.517l16.945 27.176 150-150z" fill="#057096"/></g><g><circle cx="256" cy="116.925" fill="#f6f9f9" r="22.768"/></g><g><path d="m263.053 95.276c.723 2.221 1.119 4.59 1.119 7.053 0 12.574-10.194 22.768-22.768 22.768-2.462 0-4.831-.396-7.053-1.119 2.97 9.121 11.537 15.715 21.649 15.715 12.574 0 22.768-10.194 22.768-22.768 0-10.112-6.594-18.679-15.715-21.649z" fill="#dae4ea"/></g><g><circle cx="256" cy="256.762" fill="#f6f9f9" r="22.768"/></g><g><path d="m263.053 235.113c.723 2.221 1.119 4.59 1.119 7.053 0 12.574-10.194 22.768-22.768 22.768-2.462 0-4.831-.396-7.053-1.119 2.97 9.121 11.537 15.715 21.649 15.715 12.574 0 22.768-10.194 22.768-22.768 0-10.112-6.594-18.68-15.715-21.649z" fill="#dae4ea"/></g><g><path d="m256 147.184c-16.685 0-30.259-13.574-30.259-30.259s13.574-30.259 30.259-30.259 30.259 13.574 30.259 30.259-13.574 30.259-30.259 30.259zm0-45.536c-8.424 0-15.277 6.853-15.277 15.277s6.853 15.277 15.277 15.277 15.277-6.853 15.277-15.277-6.853-15.277-15.277-15.277z" fill="#b9c1cb"/></g><g><path d="m256 287.021c-16.685 0-30.259-13.574-30.259-30.259s13.574-30.259 30.259-30.259 30.259 13.574 30.259 30.259-13.574 30.259-30.259 30.259zm0-45.536c-8.424 0-15.277 6.853-15.277 15.277s6.853 15.277 15.277 15.277 15.277-6.853 15.277-15.277-6.853-15.277-15.277-15.277z" fill="#b9c1cb"/></g><g><path d="m275.465 285.18-16.575 26.582c-3.546 5.687-9.774 9.143-16.475 9.143h40.569c6.702 0 12.929-3.456 16.475-9.143l83.77-134.346z" fill="#055e7f"/></g><g><path d="m340.36 91.86c4.363 4.564 6.798 10.634 6.798 16.948v30.401l38.993-38.993c-1.154-3.082-2.907-5.935-5.222-8.356l-24.36-25.48-20.74 20.74z" fill="#055e7f"/></g><g><g><circle cx="345.897" cy="177.416" fill="#f6f9f9" r="9.79"/></g><g><circle cx="345.897" cy="108.694" fill="#f6f9f9" r="9.79"/></g></g><g><g><circle cx="166.103" cy="177.416" fill="#f6f9f9" r="9.79"/></g><g><circle cx="166.103" cy="108.694" fill="#f6f9f9" r="9.79"/></g></g></g></svg>