<svg id="Capa_1" enable-background="new 0 0 512 512" height="512" viewBox="0 0 512 512" width="512" xmlns="http://www.w3.org/2000/svg"><g><g><path d="m314.857 284.433h-35.668c-3.154 0-5.284-3.221-4.049-6.123 5.547-13.037 5.547-27.77 0-40.807l-2.605-6.123h42.323v53.053z" fill="#057096"/></g><g><path d="m294.497 231.379v25.014c0 6.429-5.212 11.64-11.64 11.64h-4.555c-.693 3.498-1.743 6.942-3.161 10.275-1.236 2.905.892 6.125 4.048 6.125h35.668v-53.054z" fill="#055e7f"/></g><g><path d="m69.272 132.738h-61.81c-4.122 0-7.462-3.34-7.462-7.462s3.34-7.462 7.462-7.462h61.81c4.122 0 7.462 3.34 7.462 7.462s-3.341 7.462-7.462 7.462z" fill="#b9c1cb"/></g><g><path d="m101.358 154.744h-27.526c-5.523 0-10-4.477-10-10v-38.937c0-5.523 4.477-10 10-10h27.527v58.937z" fill="#dae4ea"/></g><g><path d="m78.372 95.807v38.184c0 4.495-3.644 8.14-8.14 8.14h-6.4v2.614c0 5.523 4.477 10 10 10h27.527v-58.938z" fill="#b9c1cb"/></g><g><path d="m109.02 70.441-12.487 10.085c-3.508 2.833-5.547 7.101-5.547 11.61v66.278c0 4.509 2.039 8.777 5.547 11.61l12.487 10.085c3.54 2.859 7.952 4.418 12.502 4.418h22.949l23.505-5v-108.504l-23.505-5h-22.949c-4.55 0-8.962 1.56-12.502 4.418z" fill="#dae4ea"/></g><g><path d="m91.003 158.736c.095 4.389 2.105 8.523 5.529 11.289l12.487 10.085c3.54 2.859 7.952 4.418 12.502 4.418h22.949l23.505-5v-20.792z" fill="#b9c1cb"/></g><g><path d="m144.472 66.023h118.951v118.504h-118.951z" fill="#057096"/></g><g><path d="m211.376 66.023v68.298c0 13.484-10.931 24.415-24.415 24.415h-42.489v25.792h118.951v-118.505z" fill="#055e7f"/></g><g><path d="m443.482 319.716-15.606-23.259c-4.962-7.395-7.612-16.1-7.612-25.006v-76.525h-164.801v35.335c0 3.297 2.673 5.97 5.97 5.97h42.965c3.297 0 5.97 2.673 5.97 5.97v47.959c0 3.297 2.673 5.97 5.97 5.97 9.279 0 17.578 5.976 20.305 14.844 3.833 12.464 9.493 24.369 16.877 35.374l15.606 23.26c4.962 7.395 7.611 16.1 7.611 25.005v46.584h89.544v-46.584c-.001-26.675-7.937-52.746-22.799-74.897z" fill="#f9ef63"/></g><g><path d="m443.482 319.716-15.606-23.259c-4.962-7.395-7.612-16.1-7.612-25.006v-76.525h-39.173v76.525c0 8.906 2.65 17.61 7.612 25.006l15.606 23.259c14.862 22.15 22.798 48.222 22.798 74.896v46.584h39.173v-46.584c0-26.674-7.936-52.745-22.798-74.896z" fill="#f4dd45"/></g><g><path d="m480.624 470.773h-201.535c-6.512 0-10.268-7.393-6.428-12.653l24.534-33.605c8.278-11.339 21.473-18.043 35.512-18.043h137.968c10.99 0 19.899 8.909 19.899 19.899v34.453c-.001 5.495-4.455 9.949-9.95 9.949z" fill="#057096"/></g><g><path d="m470.675 406.473h-6.927v27.525c0 5.495-4.454 9.949-9.949 9.949h-170.791l-10.348 14.173c-3.84 5.259-.083 12.653 6.428 12.653h201.535c5.495 0 9.949-4.454 9.949-9.949v-34.453c.001-10.989-8.908-19.898-19.897-19.898z" fill="#055e7f"/></g><g><g><path d="m211.007 102.398h-40.906c-4.122 0-7.462-3.34-7.462-7.462s3.34-7.462 7.462-7.462h40.906c4.122 0 7.462 3.34 7.462 7.462s-3.34 7.462-7.462 7.462z" fill="#004c67"/></g><g><path d="m211.007 132.738h-40.906c-4.122 0-7.462-3.34-7.462-7.462s3.34-7.462 7.462-7.462h40.906c4.122 0 7.462 3.34 7.462 7.462s-3.34 7.462-7.462 7.462z" fill="#004c67"/></g><g><path d="m211.007 163.077h-40.906c-4.122 0-7.462-3.34-7.462-7.462s3.34-7.462 7.462-7.462h40.906c4.122 0 7.462 3.34 7.462 7.462s-3.34 7.462-7.462 7.462z" fill="#004c67"/></g></g><g><path d="m482 209.324h-61.735l-19.89-8.606-19.283 8.606h-78.613v-168.097h179.521c16.569 0 30 13.431 30 30v108.098c0 16.568-13.432 29.999-30 29.999z" fill="#f9ef63"/></g><g><path d="m482 41.227h-5.358v102.892c0 16.485-13.363 29.848-29.848 29.848h-144.315v35.358h179.521c16.569 0 30-13.431 30-30v-108.098c0-16.569-13.432-30-30-30z" fill="#f4dd45"/></g><g><path d="m310.367 209.324h-43.014c-14.835 0-27.154-10.767-29.57-24.913-.282-1.653 5.468-5.63 5.468-5.63l-5.897-4.815v-102.739c0-16.569 13.431-30 30-30h43.014v168.097z" fill="#057096"/></g><g><path d="m237.353 173.966v5.358c0 16.569 13.431 30 30 30h43.014v-35.358z" fill="#055e7f"/></g><g><path d="m383.39 108.461h-27.859c-8.345 0-15.11-6.765-15.11-15.11 0-8.345 6.765-15.11 15.11-15.11h27.859c8.345 0 15.11 6.765 15.11 15.11.001 8.345-6.764 15.11-15.11 15.11z" fill="#ecbe6b"/></g><g><path d="m388.751 79.237c-.515 7.878-7.051 14.114-15.06 14.114h-27.859c-1.891 0-3.692-.363-5.361-.997-.022.331-.05.66-.05.997 0 8.345 6.765 15.11 15.11 15.11h27.859c8.345 0 15.11-6.765 15.11-15.11.001-6.455-4.054-11.949-9.749-14.114z" fill="#e7a561"/></g><g><circle cx="341.964" cy="440.044" fill="#6dd4a1" r="10.282"/></g><g><circle cx="377.498" cy="440.044" fill="#8ac7fd" r="10.282"/></g><g><circle cx="433.79" cy="93.939" fill="#6dd4a1" r="14.522"/></g><g><path d="m438.452 80.196c.497 1.465.779 3.029.779 4.662 0 8.02-6.501 14.522-14.522 14.522-1.633 0-3.197-.282-4.662-.779 1.944 5.73 7.356 9.859 13.743 9.859 8.02 0 14.522-6.502 14.522-14.522-.001-6.386-4.13-11.798-9.86-13.742z" fill="#04b59d"/></g><g fill="#e7a561"><path d="m512 87.474h-21.671c-4.122 0-7.462 3.34-7.462 7.462s3.34 7.462 7.462 7.462h21.671z"/><path d="m512 117.814h-21.671c-4.122 0-7.462 3.34-7.462 7.462s3.34 7.462 7.462 7.462h21.671z"/><path d="m512 148.153h-21.671c-4.122 0-7.462 3.34-7.462 7.462s3.34 7.462 7.462 7.462h21.671z"/></g></g></svg>