<svg id="Capa_1" enable-background="new 0 0 512 512" height="512" viewBox="0 0 512 512" width="512" xmlns="http://www.w3.org/2000/svg"><g><g><path d="m367.46 89.569-16.54 48.698c-1.143 3.365-5.881 3.424-7.108.089l-17.993-48.92c-.818-2.225-2.937-3.703-5.307-3.703h-229.832c-3.123 0-5.655 2.532-5.655 5.655v135.734l5 10.235h331.951l5-10.235v-135.734c0-3.123-2.532-5.655-5.655-5.655h-48.506c-2.423 0-4.576 1.543-5.355 3.836z" fill="#986b54"/></g><g><g><path d="m421.32 85.733h-30.07v140.169c0 4.134-1.082 8.04-2.971 11.456h33.695l5-10.235v-135.735c.001-3.123-2.53-5.655-5.654-5.655z" fill="#845c52"/></g></g><g><path d="m85.025 227.122v16.47c0 11.628 8.431 21.541 19.908 23.407l86.85 14.123c9.398 1.528 17.61 7.205 22.359 15.458 11.253 19.552 17.176 41.717 17.176 64.276 0 33.067-7.075 65.752-20.75 95.859-2.403 5.292-1.448 11.504 2.434 15.829l30.357 33.817c6.75 7.519 18.531 7.519 25.281 0l30.357-33.817c3.882-4.325 4.838-10.537 2.434-15.829-13.675-30.107-20.75-62.791-20.75-95.858 0-22.56 5.923-44.724 17.176-64.276 4.75-8.252 12.961-13.929 22.359-15.458l86.85-14.123c11.478-1.866 19.908-11.779 19.908-23.407v-16.47h-341.949zm170.975 248.806c-8.814 0-15.958-7.145-15.958-15.958s7.145-15.958 15.958-15.958 15.958 7.145 15.958 15.958-7.144 15.958-15.958 15.958z" fill="#f6f9f9"/></g><g><g><path d="m391.195 227.122c-.568 11.093-8.781 20.386-19.853 22.187l-86.85 14.124c-9.398 1.528-17.61 7.205-22.359 15.458-11.253 19.553-17.176 41.717-17.176 64.276 0 33.067 7.075 65.751 20.75 95.858 1.325 2.917 1.624 6.112.98 9.117 3.23 2.92 5.272 7.13 5.272 11.827 0 8.813-7.145 15.958-15.958 15.958-3.379 0-6.508-1.057-9.088-2.849l-13.997 15.592c-.928 1.033-1.957 1.911-3.049 2.66l13.493 15.03c6.75 7.519 18.531 7.519 25.281 0l30.357-33.817c3.882-4.325 4.838-10.537 2.434-15.829-13.675-30.107-20.75-62.791-20.75-95.858 0-22.56 5.923-44.724 17.176-64.276 4.749-8.252 12.961-13.929 22.359-15.458l86.85-14.124c11.477-1.866 19.908-11.779 19.908-23.407v-16.47h-35.78z" fill="#dae4ea"/></g></g><g><path d="m193.009 155.174h-64.262l-7-22.926v-11.966c0-26.269 5.098-52.289 15.012-76.615l15.41-37.812c3.181-7.806 14.235-7.806 17.417 0l15.41 37.812c9.914 24.327 15.012 50.346 15.012 76.615v11.966z" fill="#ecbe6b"/></g><g><path d="m184.996 43.667-15.41-37.812c-3.181-7.806-14.236-7.806-17.417 0l-2.749 6.745 12.661 31.067c9.914 24.327 15.012 50.346 15.012 76.615v34.891h15.915l7-22.926v-11.966c.001-26.268-5.097-52.287-15.012-76.614z" fill="#e7a561"/></g><g><path d="m121.747 132.248v31.696c0 10.176 8.249 18.424 18.424 18.424 2.372 0 4.295 1.923 4.295 4.295v136.231c0 12.642-2.27 25.182-6.702 37.022l-7.113 19.003c-1.295 3.459-.45 7.357 2.162 9.969l18.734 18.734c5.153 5.153 13.508 5.153 18.661 0l18.734-18.734c2.612-2.612 3.457-6.509 2.162-9.969l-7.113-19.003c-4.432-11.84-6.702-24.379-6.702-37.022v-136.23c0-2.372 1.923-4.295 4.295-4.295 10.176 0 18.425-8.249 18.425-18.425v-31.696z" fill="#dae4ea"/></g><g><path d="m177.094 132.248v31.696c0 10.176-8.249 18.425-18.424 18.425-2.372 0-4.295 1.923-4.295 4.295v136.23c0 12.642 2.27 25.182 6.702 37.022l7.113 19.003c1.295 3.46.45 7.357-2.162 9.969l-16.607 16.607 2.127 2.127c5.153 5.153 13.508 5.153 18.661 0l18.734-18.734c2.612-2.612 3.457-6.509 2.163-9.969l-7.113-19.003c-4.432-11.84-6.702-24.38-6.702-37.022v-136.23c0-2.372 1.923-4.295 4.295-4.295 10.176 0 18.425-8.249 18.425-18.425v-31.696z" fill="#b9c1cb"/></g><g><path d="m144.467 321.23v1.664c0 12.642-2.27 25.182-6.702 37.021l-7.113 19.003c-1.295 3.46-.45 7.357 2.162 9.969l18.734 18.734c5.153 5.153 13.508 5.153 18.661 0l18.734-18.734c2.612-2.612 3.457-6.509 2.163-9.969l-7.113-19.003c-4.432-11.84-6.702-24.38-6.702-37.022v-1.664h-32.824z" fill="#e28086"/></g><g><path d="m154.375 321.23v1.664c0 12.642 2.27 25.182 6.702 37.022l7.113 19.003c1.295 3.46.45 7.357-2.162 9.969l-16.607 16.607 2.127 2.127c5.153 5.153 13.508 5.153 18.661 0l18.734-18.734c2.612-2.612 3.457-6.509 2.163-9.969l-7.113-19.003c-4.432-11.84-6.702-24.38-6.702-37.022v-1.664z" fill="#dd636e"/></g><path d="m280.682 360.857c0-3.362.148-6.713.409-10.049h-50.181c.261 3.337.409 6.688.409 10.049 0 1.644-.031 3.285-.066 4.927h49.495c-.035-1.642-.066-3.283-.066-4.927z" fill="#b9c1cb"/><g><path d="m210.568 456.715c-2.404 5.292-1.448 11.504 2.434 15.829l30.357 33.817c6.75 7.519 18.531 7.519 25.281 0l30.357-33.817c3.882-4.325 4.838-10.537 2.434-15.829-9.791-21.556-16.178-44.436-19.028-67.828h-52.807c-2.849 23.393-9.237 46.273-19.028 67.828zm45.432-12.704c8.814 0 15.958 7.145 15.958 15.958s-7.145 15.958-15.958 15.958-15.958-7.145-15.958-15.958 7.144-15.958 15.958-15.958z" fill="#e28086"/></g><g><path d="m282.403 388.887h-32.872c3.466 17.224 8.868 34.051 16.175 50.138 1.325 2.917 1.624 6.112.98 9.117 3.321 2.974 5.276 7.368 5.272 11.827 0 8.813-7.145 15.958-15.958 15.958-3.234-.007-6.43-1.009-9.087-2.848h-.001l-13.997 15.592c-.928 1.033-1.957 1.911-3.049 2.66l13.493 15.03c6.75 7.519 18.531 7.519 25.281 0l30.357-33.817c3.882-4.325 4.838-10.537 2.434-15.829-9.79-21.555-16.178-44.435-19.028-67.828z" fill="#dd636e"/></g><g><path d="m240.082 173.55c-4.136 0-7.488-3.352-7.488-7.488v-52.625c0-4.136 3.352-7.488 7.488-7.488s7.488 3.352 7.488 7.488v52.625c0 4.136-3.352 7.488-7.488 7.488z" fill="#785252"/></g><g><path d="m271.958 205.454c-4.136 0-7.488-3.352-7.488-7.488v-84.529c0-4.136 3.352-7.488 7.488-7.488s7.488 3.352 7.488 7.488v84.529c0 4.136-3.352 7.488-7.488 7.488z" fill="#785252"/></g><g><path d="m319.242 205.454c-4.136 0-7.488-3.352-7.488-7.488v-20.218c0-4.136 3.352-7.488 7.488-7.488s7.488 3.352 7.488 7.488v20.218c0 4.136-3.352 7.488-7.488 7.488z" fill="#785252"/></g><g><path d="m376.333 205.454c-4.136 0-7.488-3.352-7.488-7.488v-42.013c0-4.136 3.352-7.488 7.488-7.488s7.488 3.352 7.488 7.488v42.013c0 4.136-3.352 7.488-7.488 7.488z" fill="#785252"/></g></g></svg>