<svg id="Capa_1" enable-background="new 0 0 512 512" height="512" viewBox="0 0 512 512" width="512" xmlns="http://www.w3.org/2000/svg"><g><g><path d="m193.143 95.697h58.37v-92.564c0-1.645-1.314-2.989-2.959-3.026l-1.337-.03c-7.195-.517-14.336 1.565-20.127 5.867l-13.587 10.094c-12.809 9.516-20.36 24.533-20.36 40.491z" fill="#dae4ea"/></g><g><path d="m248.554.107-1.337-.03c-3.736-.268-7.457.17-10.982 1.25v45.686c0 13.121-10.637 23.757-23.757 23.757h-19.334v24.926h58.37v-92.563c-.001-1.645-1.315-2.989-2.96-3.026z" fill="#b9c1cb"/></g><g><path d="m243.178 164.633c-3.537 0-6.773-1.935-8.446-5.052l-10.312-19.207c-1.977-3.682-.594-8.269 3.088-10.246 3.681-1.974 8.269-.593 10.245 3.088l5.423 10.103 3.646-6.791c1.673-3.115 4.91-5.05 8.445-5.05h.003c3.536.001 6.77 1.937 8.442 5.052l3.641 6.787 5.422-10.101c1.977-3.681 6.564-5.062 10.246-3.088 3.682 1.977 5.064 6.564 3.088 10.246l-10.312 19.208c-1.671 3.113-4.905 5.049-8.441 5.05-.001 0-.002 0-.003 0-3.536 0-6.77-1.934-8.444-5.049l-3.644-6.79-3.644 6.789c-1.671 3.114-4.907 5.051-8.443 5.051z" fill="#057096"/></g><g><path d="m339.529 33.919-15.525-21.416c-5.693-7.854-14.805-12.503-24.504-12.503h-3.963c-1.671 0-3.026 1.355-3.026 3.027v70.447c0 5.572-4.517 10.088-10.088 10.088h-116.024c-4.404 0-7.734 3.988-6.949 8.322l2.252 12.419c1.552 8.562 6.385 16.18 13.469 21.232 26.127 18.633 41.637 48.744 41.637 80.835v123.275c0 31.17-1.334 62.326-3.997 93.383l-3.176 37.031c-2.395 27.938 19.637 51.941 47.679 51.941 28.042 0 50.074-24.002 47.678-51.942l-3.176-37.034c-2.663-31.055-3.997-62.211-3.997-93.38v-130.75c0-27.834 11.637-54.4 32.096-73.272l.532-.49c25.704-23.71 29.607-62.9 9.082-91.213zm-103.464 86.594c0-2.786 2.258-5.044 5.044-5.044h28.311c2.786 0 5.044 2.258 5.044 5.044v53.807c0 2.786-2.258 5.044-5.044 5.044h-28.311c-2.786 0-5.044-2.258-5.044-5.044zm21.249 361.457c-11.596 0-20.996-9.4-20.996-20.996s9.4-20.996 20.996-20.996 20.996 9.4 20.996 20.996-9.4 20.996-20.996 20.996z" fill="#dae4ea"/></g><g><g><path d="m339.529 33.919c5.437 24.813-2.479 51.544-22.506 69.357-22.406 19.932-35.458 48.324-36.001 78.307l-2.468 136.305c-.593 32.765.216 65.541 2.424 98.237l2.634 38.991c1.832 27.129-18.119 50.326-44.356 53.351 5.561 2.268 11.649 3.533 18.057 3.533 28.042 0 50.074-24.002 47.678-51.942l-3.176-37.034c-2.663-31.055-3.997-62.211-3.997-93.38v-130.75c0-27.835 11.638-54.401 32.098-73.273l.521-.48c25.708-23.711 29.614-62.904 9.092-91.222z" fill="#b9c1cb"/></g></g><g><path d="m241.919 417.942c-1.837 0-3.658-.587-5.155-1.706-2.151-1.609-3.434-4.173-3.434-6.86v-179.682c0-12.537 10.199-22.736 22.735-22.736 12.537 0 22.736 10.2 22.736 22.736v179.138c0 2.658-1.201 5.12-3.295 6.753-2.099 1.637-4.787 2.206-7.372 1.557-7.854-1.978-16.121-1.803-23.806.454-.788.231-1.6.346-2.409.346zm14.147-195.852c-4.193 0-7.604 3.411-7.604 7.604v171.555c5.016-.722 10.14-.813 15.206-.252v-171.303c.001-4.193-3.41-7.604-7.602-7.604z" fill="#057096"/></g></g></svg>