<svg id="Capa_1" enable-background="new 0 0 512 512" height="512" viewBox="0 0 512 512" width="512" xmlns="http://www.w3.org/2000/svg"><g><g><g><path d="m512 344.903h-43.436v-165.076c0-12.575-4.638-24.708-13.027-34.076l-21.548-24.064c-12.601-14.072-11.409-35.694 2.663-48.295 3.799-3.402 9.637-3.08 13.039.719l38.204 42.664c15.544 17.36 24.105 39.751 24.105 63.052z" fill="#b4d9fc"/></g></g><g><path d="m487.895 116.775-38.204-42.664c-3.402-3.799-9.24-4.121-13.039-.719-2.94 2.633-5.309 5.663-7.117 8.932l36.277 40.512c15.545 17.36 24.105 39.751 24.105 63.052v159.015h22.083v-165.076c0-23.301-8.56-45.692-24.105-63.052z" fill="#8ac7fd"/></g><g><path d="m441.799 425.805 20.332 15.158h10.951c11.142 0 20.793-7.731 23.224-18.605l14.01-62.662c4.294-19.205.292-39.33-11.022-55.431-7.687-10.939-20.219-17.45-33.589-17.45h-3.575z" fill="#057096"/></g><g><g><path d="m43.436 344.903h-43.436v-165.076c0-23.302 8.56-45.695 24.105-63.052l38.204-42.664c3.402-3.799 9.24-4.121 13.039-.719 14.072 12.601 15.264 34.224 2.663 48.296l-21.548 24.063c-8.389 9.368-13.027 21.501-13.027 34.076z" fill="#b4d9fc"/></g></g><g><path d="m75.347 73.392c-3.799-3.402-9.637-3.08-13.039.719l-4.65 5.193c8.889 12.72 8.231 30.323-2.569 42.383l-21.548 24.063c-8.389 9.368-13.027 21.501-13.027 34.076v165.076h22.922v-165.075c0-12.575 4.638-24.708 13.027-34.076l21.548-24.063c12.601-14.072 11.408-35.695-2.664-48.296z" fill="#8ac7fd"/></g><g><path d="m61.049 430.295-11.18 10.668h-10.951c-11.142 0-20.793-7.731-23.224-18.605l-14.01-62.662c-4.294-19.205-.292-39.33 11.022-55.431 7.687-10.939 20.219-17.45 33.589-17.45h3.575z" fill="#057096"/></g><path d="m499.294 304.264c-4.849-6.901-11.629-12.035-19.33-14.888 6.524 13.912 8.348 29.698 4.947 44.914l-14.01 62.662c-2.431 10.874-12.082 18.605-23.224 18.605l-3.657 15.026 18.11 10.379h10.951c11.143 0 20.793-7.731 23.224-18.605l14.01-62.662c4.294-19.204.293-39.329-11.021-55.431z" fill="#055e7f"/><g><path d="m14.174 415.558 1.52 6.8c2.431 10.874 12.082 18.605 23.224 18.605h10.951l12.011-25.405z" fill="#055e7f"/></g><g><path d="m49.869 286.814v154.149h136.387c18.812 0 34.967-13.376 38.475-31.859l5.748-30.279c2.327-12.259 13.042-21.131 25.52-21.131s23.193 8.872 25.52 21.131l5.748 30.279c3.509 18.482 19.663 31.859 38.475 31.859h136.387v-154.149zm159.245 47.986-12.461 62.628c-1.331 6.689-7.528 11.536-14.749 11.536h-90.214c-8.288 0-15.007-6.332-15.007-14.142v-62.628c0-7.81 6.719-14.142 15.007-14.142h102.675c9.396 0 16.481 8.045 14.749 16.748zm226.203 60.022c0 7.81-6.719 14.142-15.006 14.142h-90.214c-7.221 0-13.419-4.847-14.749-11.536l-12.462-62.628c-1.732-8.703 5.353-16.748 14.75-16.748h102.674c8.288 0 15.006 6.332 15.006 14.142v62.628z" fill="#b4d9fc"/></g><g fill="#8ac7fd"><path d="m49.869 415.558v25.405h136.387c16.541 0 31.024-10.344 36.665-25.405z"/><path d="m447.677 415.558h-158.599c5.642 15.061 20.124 25.405 36.665 25.405h136.387v-30.317c-4.041 3.094-9.068 4.912-14.453 4.912z"/></g></g></svg>