<svg id="Capa_1" enable-background="new 0 0 512 512" height="512" viewBox="0 0 512 512" width="512" xmlns="http://www.w3.org/2000/svg"><g><g><path d="m403.881 355.481h-52.603c-5.523 0-10-4.477-10-10v-47.426c0-5.523 4.477-10 10-10h52.603z" fill="#ecbe6b"/></g><g><path d="m360.217 288.055v35.998c0 7.828-6.346 14.174-14.174 14.174h-4.766v7.251c0 5.525 4.479 10.004 10.004 10.004h52.6v-67.426h-43.664z" fill="#e7a561"/></g><g><path d="m143.621 51.764c-41.877 28.991-69.315 77.364-69.315 132.153s27.438 103.162 69.315 132.154z" fill="#fff9c1"/></g><g><path d="m103.951 90.953v136.554c0 6.913-8.107 10.573-13.348 6.065-4.05-3.484-7.924-7.166-11.608-11.03 9.515 38.531 32.928 71.585 64.626 93.529v-264.307c-15.393 10.657-28.825 23.94-39.67 39.189z" fill="#f9ef63"/></g><g><path d="m472 269.402h-184.242v-170.968h184.242c22.091 0 40 17.909 40 40v90.968c0 22.092-17.909 40-40 40z" fill="#057096"/></g><g><path d="m482.278 323.456v-79.566h-107.431v86.99c0 12.603 2.576 25.072 7.569 36.643l14.584 33.797c4.993 11.571 7.569 24.041 7.569 36.643v21.536c0 11.05 8.957 20.007 20.007 20.007h67.417c11.05 0 20.007-8.957 20.007-20.007v-25.014c0-11.49-2.141-22.88-6.314-33.586l-17.093-43.856c-4.173-10.707-6.315-22.097-6.315-33.587z" fill="#057096"/></g><g><path d="m505.686 400.898-17.093-43.856c-4.173-10.706-6.314-22.096-6.314-33.586v-79.566h-34.427v79.566c0 11.491 2.141 22.88 6.314 33.586l17.094 43.856c4.173 10.706 6.314 22.096 6.314 33.586v25.014c0 11.05-8.957 20.007-20.007 20.007h34.427c11.05 0 20.007-8.957 20.007-20.007v-25.014c-.001-11.49-2.142-22.88-6.315-33.586z" fill="#055e7f"/></g><g><path d="m271.982 158.886h205.73v50.065h-205.73z" fill="#fff9c1"/></g><g><path d="m426.85 158.886v15.759c0 10.541-8.545 19.086-19.086 19.086h-135.782v15.22h205.73v-50.065z" fill="#f9ef63"/></g><g><path d="m295.967 80.87-121.108-24.55v255.196l121.107-24.55c3.731-.756 6.413-4.036 6.413-7.843v-190.41c.001-3.807-2.681-7.087-6.412-7.843z" fill="#057096"/></g><g><path d="m295.967 80.87-29.086-5.896v174.352c0 3.807-2.682 7.087-6.413 7.843l-85.609 17.354v36.993l121.107-24.55c3.731-.756 6.413-4.036 6.413-7.843v-190.41c.001-3.807-2.681-7.087-6.412-7.843z" fill="#055e7f"/></g><g><path d="m479.941 99.227c.519 2.571.793 5.231.793 7.955v110.954c0 11.046-8.954 20-20 20h-172.976v31.266h184.227c22.099 0 40.014-17.915 40.014-40.014v-90.94c.001-19.375-13.77-35.532-32.058-39.221z" fill="#055e7f"/></g><g><path d="m38.983 194.623h-31.48c-4.144 0-7.503-3.359-7.503-7.503s3.359-7.503 7.503-7.503h31.48c4.144 0 7.503 3.359 7.503 7.503s-3.36 7.503-7.503 7.503z" fill="#fff9c1"/></g><g><path d="m53.292 114.308c-1.145 0-2.307-.264-3.398-.819l-28.054-14.28c-3.693-1.88-5.162-6.397-3.283-10.09 1.88-3.694 6.4-5.161 10.09-3.282l28.054 14.28c3.693 1.88 5.162 6.397 3.283 10.09-1.325 2.602-3.96 4.101-6.692 4.101z" fill="#fff9c1"/></g><g><path d="m25.249 289.223c-2.733 0-5.367-1.499-6.692-4.101-1.88-3.693-.41-8.21 3.283-10.09l28.054-14.28c3.692-1.879 8.21-.41 10.09 3.282 1.88 3.693.41 8.21-3.283 10.09l-28.054 14.28c-1.09.556-2.253.819-3.398.819z" fill="#fff9c1"/></g><g><path d="m184.025 335.342h-50.322c-4.418 0-8-3.582-8-8v-286.848c0-4.418 3.582-8 8-8h50.322c4.418 0 8 3.582 8 8v252.007l-5.9 8.343 5.9 7.031v19.467c0 4.418-3.582 8-8 8z" fill="#057096"/></g><g><path d="m184.022 32.494h-19.366v267.476c0 4.42-3.583 8.003-8.003 8.003h-30.95v19.366c0 4.42 3.583 8.003 8.003 8.003h50.316c4.42 0 8.003-3.583 8.003-8.003v-286.842c0-4.42-3.583-8.003-8.003-8.003z" fill="#055e7f"/></g><g><path d="m471.986 98.434h-28.562v170.968h28.562c22.099 0 40.014-17.915 40.014-40.014v-90.94c0-22.099-17.915-40.014-40.014-40.014z" fill="#055e7f"/></g><g><path d="m479.941 99.227c.519 2.571.793 5.231.793 7.955v110.954c0 11.046-8.954 20-20 20h-17.311v31.266h28.562c22.099 0 40.014-17.915 40.014-40.014v-90.94c.001-19.375-13.77-35.532-32.058-39.221z" fill="#004c67"/></g><path d="m431.934 380.319c0-4.144-3.359-7.503-7.503-7.503h-39.731l6.475 15.005h33.257c4.143.001 7.502-3.358 7.502-7.502z" fill="#004c67"/><g><circle cx="228.809" cy="233.856" fill="#ade092" r="17.078"/></g><g><circle cx="228.809" cy="183.918" fill="#b4d9fc" r="17.078"/></g><g><path d="m234.282 217.691c.583 1.72.912 3.557.912 5.474 0 9.432-7.646 17.078-17.078 17.078-1.917 0-3.754-.33-5.474-.912 2.283 6.743 8.65 11.604 16.165 11.604 9.432 0 17.078-7.646 17.078-17.078.001-7.515-4.859-13.882-11.603-16.166z" fill="#6dd4a1"/></g><g><path d="m234.282 167.753c.583 1.72.912 3.557.912 5.474 0 9.432-7.646 17.078-17.078 17.078-1.917 0-3.754-.33-5.474-.913 2.284 6.743 8.65 11.604 16.165 11.604 9.432 0 17.078-7.646 17.078-17.078.001-7.515-4.859-13.882-11.603-16.165z" fill="#8ac7fd"/></g><g><path d="m125.704 176.871h66.321v15.005h-66.321z" fill="#055e7f"/></g><g><path d="m125.704 126.559h66.321v15.005h-66.321z" fill="#055e7f"/></g><g><path d="m125.704 76.247h66.321v15.005h-66.321z" fill="#055e7f"/></g><g><path d="m125.704 277.496h66.321v15.005h-66.321z" fill="#055e7f"/></g><g><path d="m125.704 227.184h66.321v15.005h-66.321z" fill="#055e7f"/></g><g><path d="m164.657 176.871h27.369v15.005h-27.369z" fill="#004c67"/></g><g><path d="m164.657 126.559h27.369v15.005h-27.369z" fill="#004c67"/></g><g><path d="m164.657 76.247h27.369v15.005h-27.369z" fill="#004c67"/></g><g><path d="m164.657 277.496h27.369v15.005h-27.369z" fill="#004c67"/></g><g><path d="m164.657 227.184h27.369v15.005h-27.369z" fill="#004c67"/></g><g fill="#004c67"><path d="m442.063 413.661c0-4.144-3.359-7.503-7.503-7.503h-35.638c1.789 4.884 3.161 9.904 4.103 15.005h31.535c4.144.001 7.503-3.358 7.503-7.502z"/><path d="m442.063 447.003c0-4.144-3.359-7.503-7.503-7.503h-29.992v15.005h29.992c4.144.001 7.503-3.358 7.503-7.502z"/></g></g></svg>