<svg id="Capa_1" enable-background="new 0 0 512 512" height="512" viewBox="0 0 512 512" width="512" xmlns="http://www.w3.org/2000/svg"><g><g><path d="m185.131 150.46h90.922v-83.656c0-4.149-1.987-8.047-5.345-10.484l-75.979-55.156c-3.997-2.901-9.598-.046-9.598 4.893z" fill="#dae4ea"/></g><g><path d="m270.708 56.319-18.726-13.594v107.735h24.071v-83.656c0-4.149-1.987-8.047-5.345-10.485z" fill="#b9c1cb"/></g><g><path d="m211.353 13.232-16.624-12.068c-3.997-2.901-9.598-.046-9.598 4.893v144.403h26.222z" fill="#f6f9f9"/></g><path d="m185.131 67.002 50.147-36.403-12.491-9.067-37.656 27.335z" fill="#b9c1cb"/><path d="m185.131 96.673v18.135l83.074-60.306-12.491-9.067z" fill="#b9c1cb"/><g><path d="m323.533 223.749-43.453 4.392-8.732-86.382 43.453-4.392c6.594-.667 12.479 4.139 13.146 10.732l6.318 62.504c.667 6.594-4.138 12.48-10.732 13.146z" fill="#057096"/></g><g><path d="m315.06 137.341-8.031.812 6.239 61.718c.326 3.226-2.024 6.105-5.25 6.431l-29.84 3.016 1.903 18.823 43.711-4.418c6.451-.652 11.152-6.41 10.5-12.862l-6.37-63.02c-.653-6.451-6.411-11.152-12.862-10.5z" fill="#055e7f"/></g><path d="m306.571 306.484-21.636-226.328c-.504-5.271-6.528-8.018-10.838-4.941l-85.552 61.065c-6.846 4.97-10.898 12.918-10.898 21.377v54.785l26.65 82.308-26.65 108.525v84.266c0 13.508 10.951 24.459 24.459 24.459h41.672c11.466 0 21.394-7.966 23.878-19.16l37.974-171.102c1.112-5.004 1.429-10.151.941-15.254zm-80.933 167.274c-11.785 0-21.339-9.554-21.339-21.339s9.554-21.339 21.339-21.339 21.339 9.554 21.339 21.339-9.554 21.339-21.339 21.339z" fill="#ecbe6b"/><path d="m306.571 306.484-21.636-226.328c-.504-5.271-6.528-8.018-10.838-4.941l-19.657 14.031 18.724 203.546-32.589 144.399c3.947 3.872 6.402 9.261 6.402 15.227 0 11.177-8.597 20.331-19.536 21.248-4.329 3.75-9.945 5.99-16.004 5.99h-33.789v7.883c0 13.508 10.951 24.459 24.459 24.459h41.672c11.466 0 21.394-7.966 23.878-19.16l37.974-171.102c1.111-5.002 1.428-10.149.94-15.252z" fill="#e7a561"/><path d="m305.475 295.024-1.618-16.927-40.794 29.58c-3.279 2.381-4.008 6.969-1.627 10.249 2.396 3.301 7.003 3.992 10.249 1.627z" fill="#e4936b"/><g><path d="m177.648 212.442v32.716c0 5.843 1.317 11.61 3.876 16.863 6.444 13.229 10.391 31.001 10.391 50.549s-3.947 37.321-10.391 50.55c-2.559 5.253-3.876 11.02-3.876 16.863v23.293l50.962-36.994c3.803-2.761 6.054-7.176 6.054-11.876v-173.758c0-3.996-4.532-6.306-7.766-3.959z" fill="#057096"/></g><g><path d="m226.898 176.69-12.4 9.001v155.368c0 4.7-2.251 9.115-6.054 11.876l-30.47 22.119c-.209 1.63-.326 3.275-.326 4.928v23.293l50.962-36.994c3.803-2.761 6.054-7.176 6.054-11.876v-173.757c0-3.996-4.532-6.306-7.766-3.958z" fill="#055e7f"/></g><g fill="#e4936b"><path d="m302.18 260.548-1.621-16.958-37.495 27.219c-3.279 2.381-4.008 6.969-1.627 10.249 2.396 3.301 7.003 3.992 10.249 1.627z"/><path d="m298.917 226.417-1.621-16.958-34.233 24.85c-3.279 2.381-4.008 6.969-1.627 10.249 2.396 3.301 7.002 3.992 10.249 1.627z"/></g></g></svg>