<svg id="Capa_1" enable-background="new 0 0 512 512" height="512" viewBox="0 0 512 512" width="512" xmlns="http://www.w3.org/2000/svg"><g><g><path d="m415.368 239.284c-4.189 0-7.584-3.396-7.584-7.584v-30.14c0-4.501 2.022-8.687 5.548-11.485l12.679-10.063c3.281-2.604 8.052-2.054 10.655 1.226 2.604 3.281 2.055 8.051-1.226 10.655l-12.488 9.91v29.897c0 4.188-3.395 7.584-7.584 7.584z" fill="#057096"/></g><g><path d="m221.959 339.318c0 36.842-29.866 66.709-66.709 66.709s-66.709-29.866-66.709-66.709c0-29.764 19.492-54.975 46.408-63.563 6.401-2.043 20.301 12.129 20.301 12.129s13.571-14.225 19.837-12.275c27.155 8.446 46.872 33.775 46.872 63.709z" fill="#b9c1cb"/></g><g><path d="m191.268 283.182c6.681 10.391 10.573 22.746 10.573 36.018 0 36.842-29.866 66.709-66.709 66.709-13.272 0-25.627-3.891-36.018-10.573 8.302 12.912 20.928 22.78 35.836 27.543l20.3-4.791s20.146 4.844 20.301 4.794c26.916-8.589 46.408-33.8 46.408-63.564 0-23.57-12.236-44.27-30.691-56.136z" fill="#909ba5"/></g><g><path d="m134.952 402.872c6.402 2.043 13.219 3.155 20.298 3.155s13.896-1.112 20.298-3.155v-127.107c-6.402-2.043-13.219-3.155-20.298-3.155s-13.896 1.112-20.298 3.155z" fill="#dae4ea"/></g><g><path d="m242.39 245.649h123.688v93.67h-123.688z" fill="#055e7f"/></g><g><path d="m334.904 245.649h31.174v93.67h-31.174z" fill="#004c67"/></g><g><path d="m509.414 335.872-34.791 28.577c-2.713 2.229-6.116 3.447-9.627 3.447h-394.895c-4.468 0-8.09-3.622-8.09-8.09v-40.976c0-4.468 3.622-8.09 8.09-8.09h441.899v19.662c0 2.119-.949 4.126-2.586 5.47z" fill="#ecbe6b"/></g><g><path d="m494.038 310.74v1.959c0 2.118-.949 4.125-2.586 5.47l-27.773 21.559c-2.713 2.229-6.116 3.447-9.627 3.447h-392.041v16.632c0 4.468 3.622 8.09 8.09 8.09h394.895c3.511 0 6.914-1.218 9.627-3.447l34.792-28.577c1.637-1.345 2.586-3.352 2.586-5.47v-19.663z" fill="#e7a561"/></g><g><path d="m30.792 399.979c-3.35 0-6.415-2.236-7.321-5.627-1.082-4.046 1.32-8.204 5.367-9.285l85.265-22.804c4.088-1.094 6.944-4.813 6.944-9.045v-14.114c0-4.188 3.396-7.584 7.584-7.584s7.584 3.396 7.584 7.584v14.114c0 11.088-7.481 20.833-18.193 23.698l-85.264 22.803c-.657.176-1.317.26-1.966.26z" fill="#e4936b"/></g><g><path d="m17.435 338.256h-8.612c-2.383 0-4.015 2.394-3.146 4.613 2.856 7.299 4.425 15.243 4.425 23.553 0 12.44-3.516 24.056-9.604 33.917-1.381 2.236.277 5.12 2.906 5.12h22.203c2.343 0 4.611-.823 6.41-2.324l10.916-9.116c4.689-3.916 5.707-10.72 2.371-15.837l-25.033-38.39c-.626-.958-1.692-1.536-2.836-1.536z" fill="#ecbe6b"/></g><g><path d="m45.303 378.183-25.033-38.39c-.625-.958-1.692-1.536-2.836-1.536h-8.611c-2.392 0-4.009 2.406-3.138 4.633 2.099 5.369 3.494 11.088 4.088 17.044l11.9 18.249c3.337 5.117 2.318 11.921-2.371 15.837l-13.7 11.44h20.004c2.343 0 4.611-.823 6.41-2.324l10.916-9.116c4.689-3.916 5.708-10.72 2.371-15.837z" fill="#e7a561"/></g><g><path d="m363.607 215.435 10.618 1.149c52.342 5.664 100.635 30.819 135.277 70.464 1.61 1.843 2.497 4.207 2.497 6.654v34.23h-148.392z" fill="#e7a561"/></g><g><circle cx="375.438" cy="339.318" fill="#057096" r="74.902"/></g><g><path d="m417.822 277.568c8.29 12.054 13.152 26.649 13.152 42.384 0 41.367-33.535 74.902-74.902 74.902-15.735 0-30.33-4.862-42.384-13.152 13.504 19.636 36.119 32.518 61.751 32.518 41.367 0 74.902-33.535 74.902-74.902-.001-25.632-12.883-48.247-32.519-61.75z" fill="#055e7f"/></g><g><circle cx="375.438" cy="339.318" fill="#e7a561" r="28.619"/></g><g><path d="m386.399 312.878c1.401 3.376 2.178 7.077 2.178 10.961 0 15.806-12.813 28.619-28.619 28.619-3.883 0-7.584-.777-10.961-2.178 4.302 10.366 14.518 17.658 26.441 17.658 15.806 0 28.619-12.813 28.619-28.619 0-11.923-7.292-22.139-17.658-26.441z" fill="#e4936b"/></g><g><path d="m135.132 385.909c-.06 0-.119-.004-.179-.004v16.968c6.402 2.043 13.219 3.155 20.298 3.155s13.896-1.112 20.298-3.155v-30.611c-11.218 8.555-25.22 13.647-40.417 13.647z" fill="#b9c1cb"/></g><g><path d="m242.09 383.316c-4.188 0-7.584-3.396-7.584-7.584v-104.048c0-4.188 3.396-7.584 7.584-7.584s7.584 3.396 7.584 7.584v104.049c0 4.188-3.396 7.583-7.584 7.583z" fill="#e4936b"/></g><g><path d="m281.861 383.316c-4.189 0-7.584-3.396-7.584-7.584v-104.048c0-4.188 3.395-7.584 7.584-7.584s7.584 3.396 7.584 7.584v104.049c0 4.188-3.395 7.583-7.584 7.583z" fill="#e4936b"/></g><g><path d="m307.875 261.54-7.096 11.069h-68.604c-3.909 0-7.078-3.169-7.078-7.078v-39.648c0-4.837.964-9.626 2.836-14.087l44.667-106.433h91.008v145.341l-41.897 19.158c-1.855.848-3.786 1.505-5.762 1.963-2.242.52-8.074-10.285-8.074-10.285z" fill="#b4d9fc"/></g><g><path d="m334.863 105.363v158.485l28.744-13.143v-145.342z" fill="#8ac7fd"/></g><g><path d="m281.861 351.369h-39.771c-4.188 0-7.584-3.396-7.584-7.584s3.396-7.584 7.584-7.584h39.771c4.189 0 7.584 3.396 7.584 7.584s-3.395 7.584-7.584 7.584z" fill="#e4936b"/></g><g><path d="m281.861 318.283h-39.771c-4.188 0-7.584-3.396-7.584-7.584s3.396-7.584 7.584-7.584h39.771c4.189 0 7.584 3.396 7.584 7.584 0 4.189-3.395 7.584-7.584 7.584z" fill="#e4936b"/></g><g><path d="m509.503 287.048c-34.642-39.645-82.935-64.8-135.277-70.464l-10.618-1.149v23.918c42.155 6.773 81.187 26.249 111.9 55.735 2.093 2.009 3.288 4.78 3.288 7.681v25.162h11.883 10.359 10.962v-34.23c0-2.446-.887-4.81-2.497-6.653z" fill="#e4936b"/></g><g><path d="m484.413 312.229h-13.462c-4.189 0-7.584-3.396-7.584-7.584s3.395-7.584 7.584-7.584h13.462c4.189 0 7.584 3.395 7.584 7.584s-3.395 7.584-7.584 7.584z" fill="#057096"/></g><path d="m300.779 105.363v118.753h-75.639c-.029.588-.044 1.177-.044 1.767v13.401h75.682v33.326h8.316c2.313 0 4.611-.273 6.852-.792v-166.455z" fill="#62b5fe"/><g><path d="m369.674 112.947h-103.521c-4.189 0-7.584-3.396-7.584-7.584s3.395-7.584 7.584-7.584h103.521c4.189 0 7.584 3.396 7.584 7.584 0 4.189-3.395 7.584-7.584 7.584z" fill="#e4936b"/></g></g></svg>