<svg id="Capa_1" enable-background="new 0 0 512 512" height="512" viewBox="0 0 512 512" width="512" xmlns="http://www.w3.org/2000/svg"><g><g><path d="m112.889 241.407h283.333v78.798h-283.333z" fill="#ecbe6b"/></g><g><path d="m365.827 241.407v33.561c0 8.197-6.645 14.842-14.842 14.842h-238.096v30.395h283.333v-78.798z" fill="#e7a561"/></g><g><path d="m216.588 358.381c0 8.462-5.099 16.017-7.578 23.653-2.57 7.914-2.973 17.005-7.767 23.592-4.842 6.653-13.396 9.824-20.049 14.666-6.587 4.794-12.221 11.977-20.134 14.547-7.636 2.479-16.38.06-24.842.06s-17.207 2.419-24.843-.061c-7.914-2.57-13.547-9.753-20.135-14.547-6.653-4.842-15.207-8.013-20.049-14.666-4.794-6.587-5.197-15.678-7.767-23.591-2.479-7.636-7.578-15.19-7.578-23.652s5.099-16.017 7.578-23.653c2.57-7.914 2.973-17.005 7.767-23.592 4.842-6.653 13.396-9.824 20.049-14.666 6.587-4.794 12.221-11.977 20.134-14.547 7.636-2.479 16.38-.06 24.842-.06s17.207-2.419 24.843.061c7.914 2.57 13.547 9.753 20.135 14.547 6.653 4.842 15.207 8.013 20.049 14.666 4.794 6.587 5.197 15.678 7.767 23.591 2.479 7.635 7.578 15.19 7.578 23.652z" fill="#057096"/></g><g><path d="m209.01 334.729c-2.57-7.914-2.973-17.004-7.767-23.591-2.611-3.588-6.304-6.162-10.195-8.533.776 3.384 1.467 6.822 2.519 10.064 2.479 7.636 7.578 15.19 7.578 23.652s-5.099 16.017-7.578 23.653c-2.57 7.914-2.973 17.004-7.767 23.592-4.842 6.653-13.396 9.824-20.049 14.666-6.587 4.794-12.221 11.977-20.134 14.547-7.636 2.479-16.38.06-24.842.06s-17.207 2.419-24.843-.061c-7.914-2.569-13.547-9.753-20.135-14.547-3.065-2.231-6.531-4.109-9.854-6.134 1.119 4.877 2.417 9.639 5.247 13.528 4.842 6.653 13.396 9.824 20.049 14.666 6.587 4.794 12.221 11.978 20.135 14.547 7.636 2.48 16.38.061 24.843.061 8.462 0 17.207 2.419 24.842-.06 7.914-2.57 13.547-9.753 20.134-14.547 6.653-4.842 15.207-8.013 20.049-14.666 4.794-6.587 5.197-15.678 7.767-23.592 2.479-7.636 7.578-15.19 7.578-23.653.001-8.462-5.098-16.017-7.577-23.652z" fill="#055e7f"/></g><g><circle cx="136.217" cy="358.381" fill="#ecbe6b" r="53.782"/></g><g><path d="m166.767 314.126c6.002 8.678 9.526 19.2 9.526 30.549 0 29.703-24.079 53.781-53.782 53.781-11.35 0-21.872-3.524-30.549-9.526 9.705 14.032 25.902 23.232 44.255 23.232 29.703 0 53.782-24.079 53.782-53.782 0-18.352-9.2-34.549-23.232-44.254z" fill="#e7a561"/></g><g><circle cx="136.217" cy="358.381" fill="#055e7f" r="26.525"/></g><g><path d="m146.465 333.91c1.322 3.153 2.054 6.615 2.054 10.248 0 14.649-11.876 26.525-26.525 26.525-3.633 0-7.095-.732-10.248-2.054 4.009 9.561 13.455 16.277 24.471 16.277 14.649 0 26.525-11.876 26.525-26.525 0-11.016-6.716-20.462-16.277-24.471z" fill="#004c67"/></g><g><path d="m209.395 201.361h48.489v59.695h-48.489z" fill="#f9ef63"/></g><path d="m263.918 346.1h-23.001l-9.614-37.556h20.884c4.145 0 7.506-3.36 7.506-7.506s-3.36-7.505-7.506-7.505h-24.726l-10.795-42.173c-1.028-4.016-5.114-6.439-9.132-5.41-4.016 1.028-6.438 5.116-5.41 9.132l24.956 97.494c1.286 5.025 5.808 8.536 10.995 8.536h25.844c4.145 0 7.506-3.36 7.506-7.506-.001-4.146-3.362-7.506-7.507-7.506z" fill="#f9ef63"/><g><path d="m257.884 201.361h-34.512l15.281 59.695h19.231z" fill="#f4dd45"/></g><g><circle cx="136.217" cy="358.381" fill="#f9ef63" r="7.883"/></g><g><path d="m508.17 358.381c0 8.462-5.099 16.017-7.578 23.653-2.57 7.914-2.973 17.005-7.767 23.592-4.842 6.653-13.396 9.824-20.049 14.666-6.587 4.794-12.221 11.977-20.134 14.547-7.636 2.479-16.38.06-24.842.06s-17.207 2.419-24.843-.061c-7.914-2.57-13.547-9.753-20.135-14.547-6.653-4.842-15.207-8.013-20.049-14.666-4.794-6.587-5.197-15.678-7.767-23.591-2.479-7.636-7.578-15.19-7.578-23.652s5.099-16.017 7.578-23.653c2.57-7.914 2.973-17.005 7.767-23.592 4.842-6.653 13.396-9.824 20.049-14.666 6.587-4.794 12.221-11.977 20.134-14.547 7.636-2.479 16.38-.06 24.842-.06s17.207-2.419 24.843.061c7.914 2.57 13.547 9.753 20.135 14.547 6.653 4.842 15.207 8.013 20.049 14.666 4.794 6.587 5.197 15.678 7.767 23.591 2.479 7.635 7.578 15.19 7.578 23.652z" fill="#057096"/></g><g><path d="m500.592 334.729c-2.57-7.914-2.973-17.004-7.767-23.591-2.611-3.588-6.304-6.162-10.195-8.533.776 3.384 1.467 6.822 2.519 10.064 2.479 7.636 7.578 15.19 7.578 23.652s-5.099 16.017-7.578 23.653c-2.57 7.914-2.973 17.004-7.767 23.592-4.842 6.653-13.396 9.824-20.049 14.666-6.587 4.794-12.221 11.977-20.134 14.547-7.636 2.479-16.38.06-24.842.06s-17.207 2.419-24.843-.061c-7.914-2.569-13.547-9.753-20.135-14.547-3.065-2.231-6.531-4.109-9.854-6.134 1.119 4.877 2.417 9.639 5.247 13.528 4.842 6.653 13.396 9.824 20.049 14.666 6.587 4.794 12.221 11.978 20.135 14.547 7.636 2.48 16.38.061 24.843.061 8.462 0 17.207 2.419 24.842-.06 7.914-2.57 13.547-9.753 20.134-14.547 6.653-4.842 15.207-8.013 20.049-14.666 4.794-6.587 5.197-15.678 7.767-23.592 2.479-7.636 7.578-15.19 7.578-23.653.001-8.462-5.098-16.017-7.577-23.652z" fill="#055e7f"/></g><g><circle cx="427.799" cy="358.381" fill="#ecbe6b" r="53.782"/></g><g><path d="m458.349 314.126c6.002 8.678 9.526 19.2 9.526 30.549 0 29.703-24.079 53.781-53.782 53.781-11.35 0-21.872-3.524-30.549-9.526 9.705 14.032 25.902 23.232 44.255 23.232 29.703 0 53.782-24.079 53.782-53.782 0-18.352-9.2-34.549-23.232-44.254z" fill="#e7a561"/></g><g><circle cx="427.799" cy="358.381" fill="#055e7f" r="26.525"/></g><g><path d="m438.047 333.91c1.322 3.153 2.054 6.615 2.054 10.248 0 14.649-11.876 26.525-26.525 26.525-3.633 0-7.095-.732-10.248-2.054 4.009 9.561 13.455 16.277 24.471 16.277 14.649 0 26.525-11.876 26.525-26.525 0-11.016-6.716-20.462-16.277-24.471z" fill="#004c67"/></g><g><circle cx="427.799" cy="358.381" fill="#f9ef63" r="7.883"/></g><g><path d="m221.078 125.756 35.221 137.597c1.005 3.926 3.684 7.213 7.328 8.989l56.576 27.574c3.81 1.857 8.263 1.861 12.076.011l176.608-85.664c1.904-.924 3.113-2.854 3.113-4.97v-83.537z" fill="#fff9c1"/></g><g><path d="m482.885 125.756v64.114c0 2.116-1.209 4.047-3.113 4.97l-187.825 91.305 28.255 13.771c3.81 1.857 8.263 1.861 12.076.011l176.608-85.664c1.904-.924 3.113-2.854 3.113-4.97v-83.537z" fill="#f9ef63"/></g><g><path d="m307.368 125.756h-34.211l44.229 172.787 2.816 1.372c3.81 1.857 8.263 1.861 12.076.011l17.5-8.488z" fill="#f9ef63"/></g><g><path d="m378.251 125.756h-34.211l38.36 149.86 30.432-14.762z" fill="#f9ef63"/></g><g><path d="m450.179 125.756h-34.211l30.416 118.824 30.432-14.761z" fill="#f9ef63"/></g><g><path d="m311.749 276.519 5.638 22.024 2.816 1.372c3.81 1.857 8.263 1.861 12.076.011l17.5-8.488-7.605-29.71z" fill="#f4dd45"/></g><g><path d="m374.787 245.875 7.613 29.741 30.432-14.762-7.62-29.769z" fill="#f4dd45"/></g><g><path d="m438.756 214.779 7.628 29.801 30.432-14.761-7.636-29.83z" fill="#f4dd45"/></g><g><path d="m90.595 261.056h122.213c2.542 0 4.603-2.061 4.603-4.603v-145.023h-65.652l-48.139 77.676-8.584 20.801c-.711 1.723-2.391 2.847-4.255 2.847h-71.103c-10.868-.001-19.678 8.809-19.678 19.677v68.729c0 2.542 2.061 4.603 4.603 4.603h61.383c1.864 0 3.544-1.124 4.255-2.847l16.099-39.012c.711-1.724 2.391-2.848 4.255-2.848z" fill="#ecbe6b"/></g><g><path d="m192.866 111.43v121.75c0 2.542-2.061 4.603-4.603 4.603h-114.848c-1.864 0-3.544 1.124-4.255 2.847l-16.099 39.012c-.711 1.723-2.391 2.847-4.255 2.847h-48.806v18.671c0 2.542 2.061 4.603 4.603 4.603h61.383c1.864 0 3.544-1.124 4.255-2.847l16.099-39.012c.711-1.723 2.391-2.847 4.255-2.847h122.213c2.542 0 4.603-2.061 4.603-4.603v-145.024z" fill="#e7a561"/></g><g><path d="m133.324 117.124-29.704 71.981h84.643c2.542 0 4.603-2.061 4.603-4.603v-73.072h-51.032c-3.728 0-7.088 2.248-8.51 5.694z" fill="#b4d9fc"/></g><g><path d="m176.554 111.43v56.761c0 2.542-2.061 4.603-4.603 4.603h-61.6l-6.731 16.312h84.643c2.542 0 4.603-2.061 4.603-4.603v-73.073z" fill="#8ac7fd"/></g><g><path d="m151.758 111.43h15.011v83.199h-15.011z" fill="#ecbe6b"/></g><g><path d="m177.002 229.79h-14.259c-4.145 0-7.506-3.36-7.506-7.506s3.36-7.506 7.506-7.506h14.259c4.145 0 7.506 3.36 7.506 7.506-.001 4.146-3.361 7.506-7.506 7.506z" fill="#057096"/></g><g><path d="m106.099 111.43h107.738c2.103 0 3.938 1.425 4.459 3.461l9.762 38.138h283.942v-36.076c0-3.051-2.473-5.524-5.524-5.524h-200.45c-3.731 0-7.406-.907-10.708-2.643l-57.062-29.994c-3.435-1.805-7.257-2.749-11.137-2.749h-121.02c-2.542 0-4.603 2.061-4.603 4.603v26.18c0 2.543 2.061 4.604 4.603 4.604z" fill="#f9ef63"/></g><g><g><path d="m506.476 111.43h-23.591v6.271c0 4.465-3.62 8.085-8.085 8.085h-253.715l6.974 27.244h283.941v-36.076c0-3.051-2.473-5.524-5.524-5.524z" fill="#f4dd45"/></g></g></g></svg>