<svg id="Capa_1" enable-background="new 0 0 512 512" height="512" viewBox="0 0 512 512" width="512" xmlns="http://www.w3.org/2000/svg"><g><g><path d="m74.44 385.097h-43.2c-17.226 0-31.24-14.014-31.24-31.24s14.014-31.24 31.24-31.24h43.2c4.1 0 7.423 3.324 7.423 7.423s-3.324 7.423-7.423 7.423h-43.2c-9.039 0-16.393 7.354-16.393 16.393s7.354 16.393 16.393 16.393h43.2c4.1 0 7.423 3.324 7.423 7.423s-3.323 7.425-7.423 7.425z" fill="#b9c1cb"/></g><g><path d="m347.073 323.617h157.504v60.48h-157.504z" fill="#f6f9f9"/></g><g><path d="m480.943 323.617v27.652c0 8.497-6.888 15.385-15.385 15.385h-118.485v17.443h157.504v-60.48z" fill="#dae4ea"/></g><g><path d="m338.168 293.627h25.717c5.733 0 10.381-4.648 10.381-10.381v-17.057c0-13.192 4.337-26.018 12.343-36.503l8.224-10.77c4.117-5.392 3.83-12.947-.684-18.011l-39.501-44.31c-4.452-4.994-11.659-6.463-17.71-3.61l-23.579 11.115z" fill="#057096"/></g><g><path d="m394.148 200.905-39.501-44.311c-4.452-4.994-11.659-6.463-17.71-3.61l-7.983 3.764c1.481.811 2.846 1.874 4.017 3.187l39.501 44.311c4.514 5.064 4.801 12.619.684 18.011l-8.224 10.77c-8.006 10.485-12.343 23.311-12.343 36.503v17.057c0 2.721-1.055 5.189-2.768 7.041h14.064c5.733 0 10.381-4.648 10.381-10.381v-17.057c0-13.192 4.337-26.018 12.343-36.503l8.224-10.77c4.116-5.393 3.83-12.948-.685-18.012z" fill="#055e7f"/></g><g><path d="m192.397 89.397c-87.729.044-158.377 72.246-158.377 159.975v12.425c0 12.387 3.631 24.597 10.89 34.634 5.402 7.469 8.588 16.646 8.588 26.569 0 11.578-4.336 22.138-11.469 30.157-5.056 5.683-8.009 12.927-8.009 20.534v2.031c0 16.749 13.578 30.326 30.326 30.326h265.829c11.467 0 20.762-9.296 20.762-20.762v-137.43c.001-87.541-70.988-158.503-158.54-158.459z" fill="#f9ef63"/></g><path d="m287.921 121.364c20.061 26.547 31.964 59.602 31.964 95.44v137.431c0 11.467-9.296 20.762-20.762 20.762h-265.103v.726c0 16.749 13.578 30.326 30.326 30.326h265.829c11.467 0 20.762-9.296 20.762-20.762v-137.431c.001-51.675-24.739-97.566-63.016-126.492z" fill="#f4dd45"/><g><circle cx="192.479" cy="247.723" fill="#057096" r="115.856"/></g><g><path d="m260.644 154.043c13.942 19.128 22.175 42.683 22.175 68.165 0 63.985-51.87 115.855-115.856 115.855-25.482 0-49.037-8.233-68.165-22.175 21.067 28.903 55.177 47.691 93.68 47.691 63.985 0 115.856-51.87 115.856-115.855.001-38.504-18.787-72.614-47.69-93.681z" fill="#055e7f"/></g><g><path d="m504.577 394.572c-4.1 0-7.423-3.324-7.423-7.423v-66.584c0-4.1 3.324-7.423 7.423-7.423s7.423 3.324 7.423 7.423v66.584c0 4.099-3.324 7.423-7.423 7.423z" fill="#b9c1cb"/></g><g><g><path d="m384.221 345.343c-4.1 0-7.423-3.324-7.423-7.423v-14.303h14.847v14.303c-.001 4.099-3.325 7.423-7.424 7.423z" fill="#b9c1cb"/></g><g><path d="m463.96 345.343c-4.1 0-7.423-3.324-7.423-7.423v-14.303h14.847v14.303c-.001 4.099-3.324 7.423-7.424 7.423z" fill="#b9c1cb"/></g><g><path d="m424.09 356.394c-4.1 0-7.423-3.324-7.423-7.423v-25.353h14.847v25.353c0 4.099-3.324 7.423-7.424 7.423z" fill="#b9c1cb"/></g></g><g><g><path d="m241.734 285.605c-3.723 0-7.015-2.365-8.203-5.898-.029-.087-.057-.175-.083-.264l-8.172-27.698-4.932 27.329c-.728 4.035-4.589 6.715-8.624 5.987s-6.715-4.589-5.987-8.624l9.576-53.056c.759-3.943 4.015-6.821 7.935-7.084 3.913-.258 7.531 2.154 8.783 5.879.029.087.057.175.083.264l9.523 32.277 9.18-32.203c.025-.086.051-.171.078-.256 1.212-3.737 4.804-6.194 8.72-5.969 3.921.221 7.208 3.065 7.991 6.913l10.16 53.16c.769 4.027-1.871 7.915-5.898 8.685-4.027.772-7.915-1.871-8.685-5.898l-5.247-27.454-7.888 27.671c-.025.085-.05.17-.078.254-1.154 3.56-4.443 5.965-8.186 5.985-.015 0-.031 0-.046 0z" fill="#dae4ea"/></g></g><path d="m277.762 276.362-2.481-12.981c-2.647 6.96-5.945 13.599-9.821 19.842 1.67 1.528 4.009 2.283 6.404 1.824 4.027-.769 6.667-4.658 5.898-8.685z" fill="#b9c1cb"/><g><g><path d="m126.155 285.706c-4.1 0-7.423-3.324-7.423-7.423v-47.161h-4.243c-4.1 0-7.423-3.324-7.423-7.423s3.324-7.423 7.423-7.423h11.667c4.1 0 7.423 3.324 7.423 7.423v54.584c-.001 4.1-3.325 7.423-7.424 7.423z" fill="#dae4ea"/></g></g><g><g><path d="m168.075 286.82c-12.797 0-23.208-10.411-23.208-23.208v-25.243c0-12.797 10.411-23.208 23.208-23.208s23.208 10.411 23.208 23.208v25.243c0 12.797-10.411 23.208-23.208 23.208zm0-56.812c-4.61 0-8.361 3.751-8.361 8.361v25.243c0 4.611 3.751 8.361 8.361 8.361s8.361-3.751 8.361-8.361v-25.243c0-4.61-3.751-8.361-8.361-8.361z" fill="#dae4ea"/></g></g><g><path d="m293.709 422.603h-48.276c-6.718 0-12.164-5.446-12.164-12.164v-18.102c0-2.209 1.791-4 4-4h64.605c2.209 0 4 1.791 4 4v18.102c-.001 6.718-5.447 12.164-12.165 12.164z" fill="#e7a561"/></g><path d="m301.873 388.336h-11.964v11.498c0 3.758-3.046 6.805-6.804 6.805h-49.836v3.8c0 6.718 5.446 12.164 12.164 12.164h48.276c6.718 0 12.164-5.446 12.164-12.164v-18.102c0-2.21-1.791-4.001-4-4.001z" fill="#e4936b"/></g></svg>