<svg id="Capa_1" enable-background="new 0 0 512 512" height="512" viewBox="0 0 512 512" width="512" xmlns="http://www.w3.org/2000/svg"><g><path d="m211.634 373.875h55.491s3.267-3.226 3.428-4.836c.98-9.749 2.667-19.419 5.166-28.908 4.332-16.451 6.846-36.034 6.846-57.054s-2.514-40.603-6.846-57.054c-4.278-16.248-6.228-33.021-6.228-49.822v-52.264h-60.224v52.264c0 16.801-1.949 33.574-6.228 49.822-4.332 16.451-6.846 36.034-6.846 57.054s2.514 40.602 6.846 57.054c2.499 9.489 4.185 19.159 5.166 28.908.163 1.61 3.429 4.836 3.429 4.836z" fill="#986b54"/><path d="m238.806 359.267v14.608h28.319s3.267-3.226 3.428-4.836c.98-9.749 2.667-19.419 5.166-28.908 4.332-16.451 6.846-36.034 6.846-57.054s-2.514-40.603-6.846-57.054c-4.278-16.248-6.228-33.021-6.228-49.822v-52.264h-30.686v21.577c0 16.802 1.949 33.574 6.228 49.822 4.332 16.451 6.846 36.034 6.846 57.054s-2.514 40.603-6.846 57.054c-4.278 16.248-6.227 33.021-6.227 49.823z" fill="#845c52"/><g><path d="m124.491 33.064h58.887v58.887h-58.887z" fill="#dae4ea"/></g><g><path d="m155.583 33.064v31.885c0 5.961-4.832 10.794-10.794 10.794h-20.298v16.208h58.887v-58.887z" fill="#b9c1cb"/></g><g><path d="m110.956 104.076h-29.44c-4.418 0-8-3.582-8-8v-67.137c0-4.418 3.582-8 8-8h29.44c13.807 0 25 11.193 25 25v29.804l-6.665 7.65 3.099 8.559c-4.374 7.264-12.337 12.124-21.434 12.124z" fill="#dae4ea"/></g><path d="m111.772 20.959c.111.958.175 1.929.175 2.917v46.137c0 6.627-5.373 12-12 12h-26.432v14.062c0 4.418 3.582 8 8 8h29.44c13.807 0 25-11.193 25-25v-33.136c.001-13.533-10.755-24.548-24.183-24.98z" fill="#b9c1cb"/><g><path d="m309.636 66.644c0-8.359 6.777-15.136 15.136-15.136h18.193c33.179 0 61.281 21.689 70.932 51.659.676 2.1 2.605 3.541 4.811 3.541h14.732c2.786 0 5.045-2.259 5.045-5.045v-7.156c0-52.195-42.312-94.507-94.507-94.507h-161.278c-6.627 0-12 5.373-12 12v113.359c0 6.627 5.373 12 12 12h114.935c6.627 0 12-5.373 12-12v-58.715z" fill="#dae4ea"/></g><g><g><path d="m320.883 29.426h-18.193c-8.359 0-15.136 6.777-15.136 15.136v58.606c0 6.687-5.421 12.109-12.109 12.109h-104.745v10.082c0 6.627 5.373 12 12 12h114.935c6.627 0 12-5.373 12-12v-58.715c0-8.359 6.777-15.136 15.136-15.136h18.193c14.923 0 28.812 4.399 40.464 11.954-13.277-20.479-36.32-34.036-62.545-34.036z" fill="#b9c1cb"/></g><g><path d="m398.849 17.554c11.051 15.47 17.554 34.411 17.554 54.871v7.156c0 2.786-2.259 5.045-5.045 5.045h-6.443c3.801 5.678 6.846 11.905 8.982 18.541.676 2.1 2.605 3.541 4.811 3.541h14.732c2.786 0 5.045-2.259 5.045-5.045v-7.156c0-31.734-15.643-59.813-39.636-76.953z" fill="#b9c1cb"/></g></g><g><path d="m237.828 85.594c-21.882 0-38.383-9.925-38.383-23.086 0-13.162 16.501-23.087 38.383-23.087s38.383 9.925 38.383 23.087c-.001 13.161-16.502 23.086-38.383 23.086zm0-31.037c-15.002 0-23.247 5.972-23.247 7.951s8.244 7.95 23.247 7.95c15.002 0 23.247-5.971 23.247-7.95-.001-1.98-8.245-7.951-23.247-7.951z" fill="#f6f9f9"/></g><g><path d="m270.553 369.039h-62.346c.702 6.943 1.061 13.925 1.061 20.914v39.884c0 16.774-2.091 33.482-6.225 49.739l-4.251 16.718c-2.026 7.965 3.993 15.707 12.212 15.707h56.753c8.219 0 14.238-7.741 12.212-15.707l-4.252-16.718c-4.134-16.256-6.225-32.965-6.225-49.739v-39.884c0-6.989.359-13.971 1.061-20.914z" fill="#057096"/></g><g><path d="m275.717 479.575c-4.134-16.256-6.225-32.965-6.225-49.739v-39.884c0-6.989.359-13.97 1.061-20.914h-31.747v30.111c0 16.774 2.091 33.482 6.225 49.739l4.251 16.718c2.026 7.965-3.993 15.707-12.212 15.707h-34.47l-3.809 14.979c-2.026 7.965 3.993 15.707 12.212 15.707h56.753c8.219 0 14.238-7.741 12.212-15.707z" fill="#055e7f"/></g></g></svg>