<svg id="Capa_1" enable-background="new 0 0 512 512" height="512" viewBox="0 0 512 512" width="512" xmlns="http://www.w3.org/2000/svg"><g><g><path d="m324.613 5.582-20.963-4.881c-4.225-.984-8.625-.931-12.825.153l-24.571 6.344c-4.031 1.041-5.354 6.103-2.348 8.983l17.677 16.932c2.163 2.072 4.607 3.841 7.295 5.161 2.398 1.178 4.853 2.253 7.36 3.218 17.123 6.6 26.093 16.304 26.093 22.649 0 11.107-23.606 27.57-59.891 29.536-.39.021-.781.041-1.173.059-3.606.163-7.09 1.366-10.028 3.465l-2.223 1.589-58.106 41.589c-17.664 12.648-28.208 33.161-28.208 54.885v125.235h49.954v-125.235c0-5.644 2.731-10.979 7.323-14.263l53.365-38.092c22.277-2.264 43.024-8.683 59.753-18.621 24.902-14.795 39.187-36.721 39.187-60.146 0-7.575-1.451-14.891-4.201-21.816-7.409-18.658-23.919-32.191-43.47-36.744z" fill="#b9c1cb"/></g><g><path d="m368.084 42.325c-7.41-18.657-23.919-32.19-43.471-36.743l-20.963-4.881c-4.225-.984-8.625-.931-12.825.153l-5.248 1.355 14.486 3.373c19.552 4.553 36.061 18.086 43.471 36.743 2.75 6.925 4.201 14.241 4.201 21.816 0 23.425-14.284 45.351-39.187 60.146-16.729 9.937-37.476 16.357-59.753 18.621l-53.365 38.092c-4.591 3.284-7.323 8.62-7.323 14.263v125.235h24.55v-125.234c0-5.644 2.732-10.979 7.323-14.263l53.365-38.092c22.277-2.264 43.024-8.684 59.753-18.621 24.902-14.795 39.187-36.721 39.187-60.146 0-7.576-1.451-14.892-4.201-21.817z" fill="#909ba5"/></g><g><path d="m187.391 5.582 20.963-4.881c4.225-.984 8.625-.931 12.825.153l24.571 6.344c4.031 1.041 5.354 6.103 2.347 8.983l-17.677 16.932c-2.163 2.072-4.607 3.841-7.295 5.161-2.398 1.178-4.853 2.253-7.36 3.218-17.123 6.6-26.093 16.304-26.093 22.649 0 11.107 23.606 27.57 59.891 29.536.39.021.781.041 1.173.059 3.606.163 7.09 1.366 10.028 3.465l2.223 1.589 21.013 22.103 18.956 6.504 18.137 12.981c17.664 12.648 28.208 33.161 28.208 54.885v125.235h-49.954v-125.234c0-5.644-2.731-10.979-7.323-14.263l-53.365-38.092c-22.277-2.264-43.024-8.683-59.753-18.621-24.902-14.795-39.187-36.721-39.187-60.146 0-7.575 1.451-14.891 4.201-21.816 7.41-18.658 23.919-32.191 43.471-36.744z" fill="#dae4ea"/></g><g><path d="m321.093 140.379-58.106-41.589-2.223-1.588c-2.937-2.099-6.422-3.302-10.028-3.465-.392-.018-.783-.037-1.173-.059-36.285-1.966-59.891-18.43-59.891-29.536 0-6.345 8.97-16.049 26.093-22.649 2.507-.965 4.961-2.04 7.36-3.218 2.688-1.321 5.132-3.089 7.295-5.161l17.677-16.932c3.007-2.88 1.684-7.942-2.348-8.983l-24.571-6.344c-4.2-1.084-8.6-1.137-12.825-.153l-6.165 1.435 19.604 5.062c4.031 1.041 5.354 6.103 2.348 8.983l-17.677 16.932c-2.163 2.072-4.607 3.84-7.295 5.161-2.398 1.178-4.853 2.253-7.36 3.218-17.123 6.6-26.093 16.304-26.093 22.649 0 11.107 23.606 27.57 59.891 29.536.39.021.781.041 1.173.059 3.606.163 7.09 1.367 10.028 3.465l2.223 1.588 58.106 41.589c17.664 12.648 28.208 33.161 28.208 54.885v125.235h23.956v-125.235c.001-21.725-10.543-42.237-28.207-54.885z" fill="#b9c1cb"/></g><g><path d="m156.004 255.73c-4.193 12.85-13.986 23.162-26.499 28.064-4.703 1.843-7.84 6.323-7.84 11.375v12.778c0 6.728 5.454 12.182 12.182 12.182 6.747 0 12.209 5.485 12.182 12.232l-.083 20.285 22.18 47.856s-19.469 34.964-13.575 53.17c1.017 3.14 2.12 6.256 3.31 9.342l12.898 33.46c3.607 9.357 12.6 15.528 22.628 15.528 13.393 0 24.251-10.857 24.251-24.251v-229.311c0-4.959-4.02-8.98-8.98-8.98h-44.099c-3.915 0-7.341 2.549-8.555 6.27z" fill="#e28086"/></g><g><path d="m355.996 255.73c4.193 12.85 13.986 23.162 26.499 28.064 4.703 1.843 7.84 6.323 7.84 11.375v12.778c0 6.728-5.454 12.182-12.182 12.182-6.747 0-12.209 5.485-12.182 12.232l.083 20.285-11.18 48.231s8.469 34.589 2.575 52.795c-1.017 3.14-2.12 6.256-3.31 9.342l-12.898 33.46c-3.607 9.357-12.6 15.528-22.628 15.528-13.393 0-24.251-10.857-24.251-24.251v-229.311c0-4.959 4.02-8.98 8.98-8.98h44.099c3.915 0 7.341 2.549 8.555 6.27z" fill="#e28086"/></g><g><path d="m208.657 249.46h-26.939c4.96 0 8.98 4.02 8.98 8.98v229.309c0 8.405-4.277 15.809-10.772 20.16 3.901 2.605 8.555 4.09 13.461 4.09 13.393 0 24.251-10.858 24.251-24.251v-229.308c-.001-4.96-4.021-8.98-8.981-8.98z" fill="#dd636e"/></g><g><path d="m382.495 283.793c-12.513-4.902-22.306-15.214-26.499-28.064-1.214-3.721-4.64-6.27-8.554-6.27h-26.939c3.914 0 7.34 2.548 8.554 6.27 4.193 12.85 13.986 23.162 26.499 28.064 4.703 1.843 7.84 6.323 7.84 11.375v12.777c0 6.728-5.454 12.182-12.182 12.182-6.748 0-12.209 5.484-12.182 12.232l.267 64.879c.093 22.486-4.01 44.793-12.098 65.774l-12.898 33.46c-1.842 4.779-5.095 8.719-9.167 11.438 3.855 2.582 8.49 4.09 13.479 4.09 10.027 0 19.021-6.172 22.628-15.528l12.898-33.46c1.19-3.087 2.293-6.202 3.31-9.342 5.894-18.206-2.575-52.795-2.575-52.795l11.18-48.231-.084-20.284c-.028-6.747 5.434-12.232 12.182-12.232 6.728 0 12.182-5.454 12.182-12.182v-12.777c-.001-5.052-3.138-9.533-7.841-11.376z" fill="#dd636e"/></g><g><circle cx="256" cy="120.772" fill="#057096" r="38.425"/></g><g><path d="m270.852 85.325c1.917 4.569 2.978 9.586 2.978 14.852 0 21.221-17.203 38.425-38.425 38.425-5.266 0-10.283-1.062-14.852-2.978 5.809 13.846 19.491 23.573 35.446 23.573 21.221 0 38.425-17.203 38.425-38.425.001-15.956-9.726-29.638-23.572-35.447z" fill="#055e7f"/></g><path d="m278.038 152.24c4.118-2.889 7.639-6.564 10.353-10.809l-54.771-51.884c-4.084 2.932-7.569 6.642-10.237 10.919z" fill="#004c67"/><g><path d="m160.007 352.644h-14.062l-.184 44.594c-.079 19.178 2.905 38.222 8.799 56.428h5.447c11.159 0 20.205-9.046 20.205-20.205v-60.614c0-11.157-9.046-20.203-20.205-20.203z" fill="#057096"/></g><g><path d="m331.788 372.848v60.614c0 11.159 9.046 20.205 20.205 20.205h5.447c5.894-18.206 8.878-37.25 8.799-56.428l-.184-44.594h-14.062c-11.159-.001-20.205 9.045-20.205 20.203z" fill="#057096"/></g><g><path d="m351.993 453.667h5.447c5.894-18.206 8.878-37.25 8.799-56.428l-.184-44.594h-14.062c-4.885 0-9.365 1.734-12.858 4.62l.165 39.975c.063 15.19-1.797 30.296-5.499 44.969 3.262 6.772 10.17 11.458 18.192 11.458z" fill="#055e7f"/></g></g></svg>