<svg id="Capa_1" enable-background="new 0 0 512 512" height="512" viewBox="0 0 512 512" width="512" xmlns="http://www.w3.org/2000/svg"><g><g><g><path d="m345.801 93.101-11.38-21.111c-1.236-2.292-4.028-3.249-6.405-2.186-15.026 6.724-32.115 7.241-47.567 1.31-2.974-1.142-5.831-2.506-8.557-4.066v37c23.545 7.981 49.216 6.505 71.706-4.103 2.562-1.206 3.547-4.351 2.203-6.844z" fill="#ecbe6b"/></g><g><path d="m345.801 93.101-11.38-21.111c-1.236-2.292-4.029-3.249-6.405-2.186-1.197.535-2.411 1.017-3.632 1.474l4.326 8.025c1.344 2.493.359 5.638-2.203 6.846-17.14 8.084-36.128 10.864-54.615 8.199v9.701c23.545 7.981 49.216 6.505 71.706-4.103 2.562-1.207 3.547-4.352 2.203-6.845z" fill="#e7a561"/></g></g><g><path d="m266.331 251.14c-1.535-9.315-.335-18.704 3.189-27.071h-43.517c3.525 8.367 4.724 17.756 3.189 27.072-.3 1.819-.621 3.634-.965 5.446l-11.232 59.158h61.533l-11.232-59.158c-.344-1.812-.666-3.628-.965-5.447z" fill="#b9c1cb"/></g><g><path d="m267.296 256.587c-.344-1.812-.665-3.628-.965-5.446-1.535-9.315-.335-18.704 3.189-27.071h-18.506c-3.525 8.367-4.724 17.756-3.189 27.071.3 1.819.621 3.634.965 5.446l11.232 59.158h18.506z" fill="#909ba5"/></g><g><path d="m202.554 196.542c-.123 2.832 2.442 4.404 4.683 5.576 9.841 6.02 16.824 15.324 20.235 25.904 1.049 3.253 2.815 6.129 5.091 8.464 3.91 4.011 17.851 3.592 17.851 3.592s14.787-3.214 17.637-12.056c3.411-10.58 10.394-19.884 20.235-25.904 2.24-1.171 4.806-2.745 4.682-5.576v-176.468h-90.415v176.468z" fill="#dae4ea"/></g><g><path d="m274.462 20.074v170.3c.123 2.832-2.442 4.404-4.682 5.576-9.841 6.02-16.824 15.324-20.235 25.904-2.506 7.773-9.107 13.384-16.978 14.628 3.91 4.011 9.322 6.433 15.194 6.433 9.291 0 17.439-6.05 20.29-14.892 3.411-10.58 10.394-19.884 20.235-25.904 2.24-1.171 4.806-2.745 4.682-5.576v-176.469z" fill="#b9c1cb"/></g><g><path d="m231.851 235.7c.234.265.475.524.721.777 3.909 4.012 27.15 3.697 31.101-.777v-206.546h-31.822z" fill="#f6f9f9"/></g><g><path d="m277.779 351.283v-18.818c0-3.145 1.554-6.087 4.152-7.86l2.968-2.025c2.598-1.773 4.152-4.715 4.152-7.86 0-5.256-4.261-9.516-9.516-9.516h-63.546c-5.256 0-9.516 4.261-9.516 9.516 0 3.145 1.554 6.087 4.152 7.86l2.968 2.025c2.598 1.773 4.152 4.715 4.152 7.86v18.667c0 8.648-2.428 17.075-6.719 24.584-5.106 8.933-8.152 19.119-8.832 29.469-.097 1.479 5.26 21.314 5.26 21.314l-5.398 19.09v3.989c0 11.591 2.96 22.99 8.6 33.117l6.205 11.143c13.485 24.215 48.317 24.214 61.802 0l6.205-11.142c5.64-10.127 8.6-21.526 8.6-33.117v-39.954c0-11.925-3.134-23.548-8.97-33.758-4.291-7.508-6.719-15.936-6.719-24.584z" fill="#e28086"/></g><g><path d="m284.498 375.867c-4.291-7.509-6.719-15.936-6.719-24.584v-18.818c0-3.145 1.554-6.087 4.152-7.86l2.968-2.025c2.598-1.773 4.152-4.715 4.152-7.86 0-5.256-4.261-9.516-9.516-9.516h-30.766c5.256 0 9.516 4.261 9.516 9.516 0 3.145-1.554 6.087-4.152 7.86l-2.968 2.025c-2.598 1.773-4.152 4.715-4.152 7.86v18.818c0 8.648 2.428 17.076 6.719 24.584 5.835 10.21 8.97 21.833 8.97 33.758v39.954c0 11.591-2.96 22.99-8.6 33.117l-6.205 11.142c-3.798 6.819-9.288 11.717-15.518 14.696 15.893 7.598 36.597 2.7 46.285-14.696l6.205-11.142c5.64-10.127 8.6-21.526 8.6-33.117v-39.954c-.001-11.925-3.136-23.548-8.971-33.758z" fill="#dd636e"/></g><g><path d="m202.554 20.074 24.894 33.865c2.019 2.747 5.225 4.369 8.634 4.369h23.358c1.475 0 2.912-.304 4.232-.871 1.73-.744 8.843-15.593 8.843-15.593l20.453-21.77v-14.716c0-2.959-2.399-5.358-5.358-5.358h-79.699c-2.959 0-5.358 2.399-5.358 5.358v14.716z" fill="#f6f9f9"/></g><g><path d="m287.611 0h-2.568l-37.462 50.961c-3.004 4.087-7.557 6.704-12.533 7.285.343.033.687.061 1.035.061h23.358c3.409 0 6.615-1.622 8.634-4.369l24.894-33.865v-14.715c0-2.959-2.399-5.358-5.358-5.358z" fill="#dae4ea"/></g><g><path d="m249.545 221.853c-2.505 7.77-9.102 13.38-16.969 14.627 3.909 4.01 9.315 6.434 15.185 6.434 6.242 0 11.96-2.739 15.911-7.213v-35.277c-6.645 5.742-11.472 13.195-14.127 21.429z" fill="#dae4ea"/></g><g><path d="m220.66 452.874h26.756c15.144 0 27.42-12.276 27.42-27.42s-12.276-27.42-27.42-27.42h-26.756c-7.114 0-13.594 2.71-18.467 7.152-.09 1.422-.138 2.85-.138 4.282v36.123c4.889 4.518 11.423 7.283 18.605 7.283z" fill="#057096"/></g><g><path d="m262.314 402.439c.253 2.377.387 4.775.387 7.186v38.595c7.319-4.924 12.134-13.282 12.134-22.766 0-9.649-4.987-18.127-12.521-23.015z" fill="#055e7f"/></g><g><g><path d="m156.231 182.02c-12.351 0-24.697-2.387-36.353-7.155-2.624-1.073-3.775-4.163-2.563-6.726l10.257-21.676c1.114-2.354 3.853-3.456 6.282-2.518 15.358 5.928 32.451 5.548 47.57-1.184 15.12-6.732 26.838-19.181 32.708-34.561.928-2.433 3.58-3.731 6.074-2.984l22.974 6.881c2.713.813 4.241 3.733 3.284 6.399-8.831 24.598-27.275 44.556-51.252 55.232-12.421 5.53-25.704 8.292-38.981 8.292z" fill="#ecbe6b"/></g></g><g><g><path d="m243.181 112.097-22.974-6.881c-2.494-.747-5.146.551-6.074 2.984-.468 1.225-.985 2.424-1.526 3.611l8.733 2.616c2.713.813 4.241 3.733 3.284 6.399-8.831 24.598-27.275 44.556-51.252 55.232-5.821 2.592-11.832 4.567-17.942 5.943.267.002.534.019.801.019 13.277 0 26.56-2.761 38.982-8.292 23.977-10.676 42.421-30.634 51.252-55.232.957-2.666-.57-5.586-3.284-6.399z" fill="#e7a561"/></g></g><g><g><path d="m359.391 260.834c17.467-7.843 29.87-22.326 35.571-39.133.69-2.034-.409-4.246-2.427-4.983l-37.594-13.728c-1.658-.605-3.495.345-3.916 2.059-1.368 5.574-5.194 10.483-10.836 13.016s-11.853 2.131-16.928-.55c-1.561-.825-3.491-.083-4.141 1.559l-14.72 37.217c-.79 1.997.133 4.288 2.111 5.124 16.348 6.907 35.412 7.261 52.88-.581z" fill="#ecbe6b"/></g><g><g><path d="m392.535 216.718-37.594-13.728c-1.658-.605-3.495.345-3.916 2.059-.95 3.87-3.087 7.417-6.191 10.073l21.55 7.869c2.018.737 3.117 2.949 2.427 4.983-5.585 16.466-17.617 30.685-34.528 38.631 8.425-.251 16.941-2.104 25.109-5.771 17.467-7.843 29.87-22.326 35.571-39.133.688-2.034-.411-4.246-2.428-4.983z" fill="#e7a561"/></g></g></g></g></svg>