<svg id="Capa_1" enable-background="new 0 0 512 512" height="512" viewBox="0 0 512 512" width="512" xmlns="http://www.w3.org/2000/svg"><g><g><path d="m93.22 379.979c-1.907 0-3.815-.728-5.27-2.183l-60.738-60.738c-2.91-2.91-2.91-7.629 0-10.54 2.911-2.91 7.629-2.91 10.541 0l60.738 60.738c2.91 2.91 2.91 7.629 0 10.54-1.457 1.455-3.364 2.183-5.271 2.183z" fill="#004c67"/></g><g><path d="m353.926 379.979c-1.907 0-3.815-.728-5.27-2.183-2.91-2.91-2.91-7.629 0-10.54l60.737-60.738c2.911-2.91 7.629-2.91 10.541 0 2.91 2.91 2.91 7.629 0 10.54l-60.738 60.738c-1.455 1.455-3.363 2.183-5.27 2.183z" fill="#004c67"/></g><g><path d="m28.848 224.078c-4.116 0-7.453-3.337-7.453-7.453v-47.966c0-6.114-2.381-11.862-6.705-16.185l-11.328-11.328c-2.91-2.91-2.91-7.629 0-10.54 2.911-2.91 7.629-2.91 10.541 0l11.328 11.328c7.138 7.138 11.069 16.629 11.069 26.724v47.966c.001 4.117-3.335 7.454-7.452 7.454z" fill="#057096"/></g><g><path d="m224.307 345.147c-4.116 0-7.453-3.337-7.453-7.453v-48.903c0-4.116 3.336-7.453 7.453-7.453 4.116 0 7.453 3.337 7.453 7.453v48.903c-.001 4.117-3.337 7.453-7.453 7.453z" fill="#e7a561"/></g><g><g><path d="m24.532 364.561h399.551v31.798h-399.551z" fill="#057096"/></g></g><g><path d="m392.284 364.561c0 8.781-7.118 15.899-15.899 15.899h-351.853v15.899h399.551v-31.798z" fill="#055e7f"/></g><g><path d="m281.887 48.443h-115.118l-53.108 76.654c-6.27 9.049-9.629 19.796-9.629 30.805v86.736c0 33.359 27.043 60.403 60.403 60.403h119.785c33.359 0 60.403-27.043 60.403-60.403v-86.736c0-11.009-3.359-21.756-9.629-30.805z" fill="#ecbe6b"/></g><g><path d="m334.995 125.096-53.108-76.654h-51.104l53.108 76.654c6.27 9.049 9.629 19.796 9.629 30.805v86.736c0 33.359-27.043 60.403-60.403 60.403h51.104c33.359 0 60.403-27.043 60.403-60.403v-86.736c0-11.009-3.36-21.756-9.629-30.805z" fill="#e7a561"/></g><g><path d="m293.803 55.895h-138.949c-4.116 0-7.453-3.337-7.453-7.453s3.336-7.453 7.453-7.453h138.949c4.116 0 7.453 3.337 7.453 7.453s-3.337 7.453-7.453 7.453z" fill="#e4936b"/></g><g><g><path d="m40.431 449.211h-31.798v-232.586h31.798v163.835l-4.13 7.228 4.13 7.874z" fill="#057096"/></g></g><g><g><path d="m408.183 216.625h31.798v232.586h-31.798z" fill="#057096"/></g></g><g><path d="m24.532 216.625h15.899v232.586h-15.899z" fill="#055e7f"/></g><g><path d="m424.082 216.625h15.899v232.586h-15.899z" fill="#055e7f"/></g><path d="m104.049 155.067h240.559c-.078-5.08-.868-10.095-2.331-14.905h-235.897c-1.463 4.811-2.253 9.826-2.331 14.905z" fill="#e7a561"/><path d="m291.173 140.162c1.463 4.811 2.253 9.826 2.331 14.905h51.104c-.078-5.08-.868-10.095-2.331-14.905z" fill="#e4936b"/><g><path d="m42.356 456.664h-34.903c-4.116 0-7.453-3.337-7.453-7.453s3.336-7.453 7.453-7.453h34.903c4.116 0 7.453 3.337 7.453 7.453s-3.336 7.453-7.453 7.453z" fill="#004c67"/></g><g><path d="m300.526 345.147h-152.395c-46.483 0-84.3-37.816-84.3-84.299v-44.224c0-4.116 3.336-7.453 7.453-7.453s7.453 3.337 7.453 7.453v44.224c0 38.264 31.131 69.394 69.394 69.394h152.395c38.264 0 69.393-31.13 69.393-69.394v-44.224c0-4.116 3.336-7.453 7.453-7.453 4.116 0 7.453 3.337 7.453 7.453v44.224c0 46.483-37.817 84.299-84.299 84.299z" fill="#e7a561"/></g><g><circle cx="424.082" cy="424.891" fill="#055e7f" r="46.119"/></g><g><circle cx="424.082" cy="424.891" fill="#ecbe6b" r="12.012"/></g><path d="m426.902 413.226c.218.906.347 1.846.347 2.819 0 6.634-5.378 12.012-12.012 12.012-.973 0-1.913-.128-2.819-.346 1.27 5.271 6.004 9.193 11.666 9.193 6.634 0 12.012-5.378 12.012-12.012-.002-5.662-3.923-10.396-9.194-11.666z" fill="#e7a561"/><g><path d="m447.396 385.104c4.018 6.842 6.331 14.806 6.331 23.314 0 25.471-20.648 46.119-46.119 46.119-8.508 0-16.472-2.314-23.314-6.332 8.011 13.641 22.825 22.805 39.787 22.805 25.471 0 46.119-20.648 46.119-46.119.001-16.962-9.163-31.777-22.804-39.787z" fill="#004c67"/></g><g><path d="m82.228 224.078h-74.775c-4.116 0-7.453-3.337-7.453-7.453s3.336-7.453 7.453-7.453h74.775c4.116 0 7.453 3.337 7.453 7.453s-3.337 7.453-7.453 7.453z" fill="#004c67"/></g><g><path d="m449.149 210.078-25.066 6.547h-90.338c-4.178 0-7.565-3.387-7.565-7.565v-25.244c0-4.178 3.387-7.565 7.565-7.565h115.404z" fill="#057096"/></g><g><path d="m420.108 176.251v2.507c0 9.764-7.916 17.68-17.68 17.68h-76.248v12.67c0 4.152 3.366 7.518 7.518 7.518h115.452v-40.374h-29.042z" fill="#055e7f"/></g><g><path d="m493.985 173.078-26.3-26.944c-3.062-3.137-7.26-4.906-11.643-4.906h-8.06c-4.418 0-8 3.582-8 8v116.087h52.455c10.805 0 19.563-8.759 19.563-19.563v-28.428c0-16.534-6.465-32.413-18.015-44.246z" fill="#057096"/></g><g><path d="m493.985 173.078-26.3-26.944c-3.062-3.137-7.26-4.906-11.644-4.906h-8.11c-3.706 0-6.811 2.54-7.691 5.971l25.26 25.878c11.55 11.832 18.015 27.712 18.015 44.247v28.428c0 10.805-8.759 19.563-19.563 19.563h28.485c10.804 0 19.563-8.759 19.563-19.563v-28.428c0-16.534-6.465-32.413-18.015-44.246z" fill="#055e7f"/></g><g><circle cx="475.991" cy="233.812" fill="#e28086" r="9.859"/></g><g><circle cx="475.991" cy="203.272" fill="#ade092" r="9.859"/></g><path d="m478.692 224.337c.245.859.384 1.763.384 2.701 0 5.445-4.414 9.859-9.859 9.859-.938 0-1.842-.139-2.701-.384 1.176 4.13 4.968 7.158 9.475 7.158 5.445 0 9.859-4.414 9.859-9.859 0-4.507-3.028-8.299-7.158-9.475z" fill="#dd636e"/><path d="m478.692 193.797c.245.859.384 1.763.384 2.701 0 5.445-4.414 9.859-9.859 9.859-.938 0-1.842-.139-2.701-.384 1.176 4.13 4.968 7.158 9.475 7.158 5.445 0 9.859-4.414 9.859-9.859 0-4.507-3.028-8.299-7.158-9.475z" fill="#6dd4a1"/><path d="m104.033 240.153v2.484c0 4.259.446 8.412 1.285 12.422h238.022c.838-4.01 1.284-8.163 1.284-12.422v-2.484z" fill="#e7a561"/><path d="m343.339 255.059c.838-4.01 1.284-8.163 1.284-12.422v-2.484h-51.103v2.484c0 4.259-.446 8.412-1.285 12.422z" fill="#e4936b"/></g></svg>