<svg id="Capa_1" enable-background="new 0 0 512 512" height="512" viewBox="0 0 512 512" width="512" xmlns="http://www.w3.org/2000/svg"><g><g><path d="m379.215 223.168h-258.546v80.432z" fill="#004c67"/></g><g><path d="m293.084 414.342c-14.007 0-27.684-5.718-37.523-15.689l-53.535-54.253c-4.918-4.984-11.754-7.842-18.757-7.842h-9.241c-4.096 0-7.416-3.32-7.416-7.416s3.32-7.416 7.416-7.416h9.241c10.944 0 21.628 4.467 29.314 12.257l53.534 54.253c7.071 7.165 16.9 11.275 26.966 11.275 20.889 0 37.884-16.994 37.884-37.883v-105.249c0-4.096 3.32-7.416 7.416-7.416s7.416 3.32 7.416 7.416v105.248c.001 29.067-23.647 52.715-52.715 52.715z" fill="#004c67"/></g><g><path d="m51.386 329.553c-4.096 0-7.416-3.32-7.416-7.416v-191.888c0-4.096 3.32-7.416 7.416-7.416s7.416 3.32 7.416 7.416v191.888c0 4.096-3.32 7.416-7.416 7.416z" fill="#004c67"/></g><g><g><circle cx="106.59" cy="340.596" fill="#057096" r="86.663"/></g><g><circle cx="106.59" cy="340.596" fill="#fff9c1" r="47.276"/></g><g><circle cx="106.59" cy="340.596" fill="#004c67" r="14.079"/></g><g><path d="m130.062 299.564c3.966 6.918 6.245 14.926 6.245 23.472 0 26.11-21.166 47.276-47.276 47.276-8.546 0-16.554-2.279-23.472-6.245 8.151 14.218 23.467 23.804 41.031 23.804 26.11 0 47.276-21.166 47.276-47.276.001-17.564-9.585-32.88-23.804-41.031z" fill="#f9ef63"/></g><g><path d="m153.251 267.584c8.628 13.472 13.651 29.475 13.651 46.66 0 47.862-38.8 86.663-86.663 86.663-17.185 0-33.188-5.023-46.66-13.651 15.401 24.049 42.335 40.002 73.012 40.002 47.862 0 86.663-38.8 86.663-86.663-.001-30.676-15.955-57.61-40.003-73.011z" fill="#055e7f"/></g></g><g><g><path d="m33.487 94.738 9.431 38.476c13.571 55.367 50.227 102.258 100.68 128.793 13.815 7.266 29.826 9.175 44.963 5.362l182.753-46.041c11.387-2.869 19.822-12.47 21.199-24.132l6.873-58.194z" fill="#057096"/></g><g><path d="m352.829 133.369-3.399 28.783c-1.377 11.662-9.811 21.263-21.199 24.132l-182.753 46.041c-15.136 3.813-31.148 1.904-44.963-5.362-3.458-1.819-6.844-3.742-10.17-5.748 15.158 16.337 33.101 30.192 53.254 40.791 13.815 7.266 29.827 9.175 44.963 5.362l182.753-46.041c11.387-2.869 19.822-12.47 21.199-24.132l6.873-58.194z" fill="#055e7f"/></g><g><path d="m422.335 149.194c-.297 0-.597-.018-.9-.055l-410.159-49.619c-4.066-.492-6.964-4.187-6.472-8.252.491-4.067 4.186-6.966 8.253-6.472l410.158 49.618c4.066.492 6.964 4.187 6.472 8.252-.455 3.765-3.654 6.528-7.352 6.528z" fill="#004c67"/></g></g><g><path d="m440.164 225.721c-3.161 0-6.091-2.037-7.079-5.215-1.216-3.911.968-8.068 4.879-9.283l64.416-20.036c3.912-1.221 8.068.968 9.284 4.878 1.216 3.911-.968 8.068-4.879 9.283l-64.416 20.036c-.734.229-1.476.337-2.205.337z" fill="#986b54"/></g><g><g><path d="m7.566 365.802-7.342-23.604c-.811-2.607.645-5.378 3.252-6.189l426.829-132.761c2.607-.811 5.378.645 6.189 3.252l7.342 23.604c.811 2.607-.645 5.378-3.253 6.189l-426.827 132.762c-2.608.811-5.379-.645-6.19-3.253z" fill="#f9ef63"/></g></g><g><path d="m443.837 230.104-7.342-23.604c-.811-2.607-3.582-4.063-6.189-3.252l-11.942 3.715 3.737 12.015c.811 2.607-.645 5.378-3.253 6.189l-414.886 129.046 3.605 11.589c.811 2.607 3.582 4.063 6.189 3.252l426.829-132.761c2.607-.81 4.063-3.581 3.252-6.189z" fill="#f4dd45"/></g><g><path d="m169.818 187.856c-7.506 0-11.802-2.488-14.963-4.318-2.574-1.492-4.135-2.401-7.908-2.318-4.104.052-7.478-3.179-7.555-7.274-.078-4.095 3.179-7.478 7.274-7.556 7.928-.135 12.372 2.43 15.624 4.313 4.088 3.175 11.754 3.028 15.723-.299 3.178-2.006 7.531-4.753 15.447-4.904 7.92-.127 12.372 2.429 15.625 4.312 4.106 3.179 11.748 3.028 15.723-.298 3.178-2.007 7.531-4.754 15.449-4.904 7.934-.126 12.373 2.429 15.625 4.312 4.087 3.182 11.755 3.027 15.727-.299 3.179-2.006 7.532-4.753 15.45-4.904.048-.001.097-.001.144-.001 4.03 0 7.334 3.228 7.412 7.275.078 4.094-3.178 7.478-7.273 7.556-3.783.071-5.301 1.03-7.817 2.618-3.178 2.006-7.532 4.753-15.449 4.904-7.935.14-12.373-2.43-15.626-4.313-4.085-3.172-11.757-3.029-15.726.299-3.178 2.006-7.531 4.753-15.448 4.904-7.929.144-12.372-2.43-15.625-4.313-4.09-3.179-11.752-3.027-15.723.299-3.178 2.007-7.531 4.754-15.449 4.904-.224.003-.444.005-.661.005z" fill="#f9ef63"/></g></g></svg>