<svg id="Capa_1" enable-background="new 0 0 512 512" height="512" viewBox="0 0 512 512" width="512" xmlns="http://www.w3.org/2000/svg"><g><g><path d="m305.408 311.29h98.857v64.035h-98.857z" fill="#055e7f"/></g><g><path d="m386.785 311.29v30.001c0 2.784-2.257 5.041-5.041 5.041h-76.336v28.993h98.857v-64.035z" fill="#004c67"/></g><g><path d="m463.222 452.393h-216.771c-22.745 0-41.183-18.438-41.183-41.183 0-22.745 18.438-41.183 41.183-41.183h216.771c22.745 0 41.183 18.438 41.183 41.183 0 22.744-18.438 41.183-41.183 41.183z" fill="#057096"/></g><path d="m246.451 452.393h216.771c22.745 0 41.183-18.438 41.183-41.183 0-22.745-18.438-41.183-41.183-41.183h-47.893c-9.518 11.059-15.274 25.448-15.274 41.183 0 2.853.192 5.66.562 8.411.57 4.243-2.64 8.043-6.921 8.043h-185c6.352 14.553 20.862 24.729 37.755 24.729z" fill="#055e7f"/><g><path d="m257.445 92.493c-.255 0-.512-.013-.772-.039l-176.06-17.863c-4.155-.422-7.181-4.132-6.76-8.286.422-4.154 4.133-7.18 8.286-6.759l176.06 17.863c4.155.422 7.181 4.132 6.76 8.286-.396 3.894-3.682 6.798-7.514 6.798z" fill="#dae4ea"/></g><g><path d="m295.999 116.988h-46.597v-41.06c0-6.206 6.718-10.086 12.094-6.983l26.011 15.013c5.255 3.033 8.492 8.639 8.492 14.706z" fill="#055e7f"/></g><g><path d="m287.507 83.958-14.477-8.356c.662 1.826 1.021 3.776 1.021 5.779v35.607h21.948v-18.324c0-6.067-3.237-11.673-8.492-14.706z" fill="#004c67"/></g><g><path d="m67.903 54.592-23.819 21.152c-4.955 4.4-7.791 10.711-7.791 17.338v250.588h20.415l47.772-229.422c1.38-6.629.496-13.53-2.511-19.598l-18.339-36.997c-2.952-5.955-10.758-7.474-15.727-3.061z" fill="#055e7f"/></g><g><path d="m101.969 94.651-18.34-36.998c-2.952-5.955-10.757-7.474-15.727-3.061l-10.058 8.932 16.429 33.143c3.007 6.067 3.892 12.968 2.511 19.598l-40.491 194.457v32.949h20.415l47.772-229.422c1.381-6.63.497-13.531-2.511-19.598z" fill="#004c67"/></g><g><path d="m388.843 226.335-45.352 18.797-80.078-65.618c-9.236-7.568-20.089-12.912-31.719-15.618l-157.757-36.71c-5.726-1.332-9.778-6.436-9.778-12.315 0-6.983 5.661-12.644 12.644-12.644h207.316c17.481 0 33.714 9.057 42.895 23.932z" fill="#057096"/></g><g><path d="m292.988 123.582 70.027 113.458 25.829-10.705-61.829-100.176c-9.181-14.875-25.414-23.932-42.895-23.932h-13.996c9.245 4.873 17.195 12.171 22.864 21.355z" fill="#055e7f"/></g><g><circle cx="73.509" cy="113.483" fill="#dae4ea" r="18.345"/></g><g><path d="m79.16 96.035c.577 1.781.897 3.678.897 5.651 0 10.131-8.213 18.345-18.345 18.345-1.973 0-3.87-.32-5.651-.897 2.384 7.364 9.29 12.694 17.448 12.694 10.131 0 18.345-8.213 18.345-18.345 0-8.158-5.33-15.064-12.694-17.448z" fill="#b9c1cb"/></g><g><path d="m291.436 275.16c-2.68 0-5.276-1.428-6.647-3.946l-69.834-128.226c-1.998-3.667-.643-8.259 3.024-10.256 3.667-1.999 8.26-.643 10.256 3.024l69.834 128.226c1.998 3.667.643 8.259-3.024 10.256-1.149.625-2.388.922-3.609.922z" fill="#dae4ea"/></g><g><path d="m238.18 140.298c0 3.226-.981 6.223-2.66 8.709 0 0-13.475 6.86-13.752 6.846-8.214-.434-14.741-7.232-14.741-15.555 0-8.603 6.974-15.577 15.577-15.577 8.602 0 15.576 6.974 15.576 15.577z" fill="#dae4ea"/></g><g><path d="m227.402 125.483c.49 1.512.761 3.123.761 4.798 0 8.603-6.974 15.577-15.577 15.577-1.676 0-3.286-.272-4.798-.761 2.024 6.253 7.888 10.778 14.815 10.778 8.603 0 15.577-6.974 15.577-15.577 0-6.927-4.525-12.791-10.778-14.815z" fill="#b9c1cb"/></g><g><path d="m277.431 398.421h155.031v25.577h-155.031z" fill="#055e7f"/></g><path d="m400.055 411.209c0 2.853.192 5.66.562 8.411.212 1.578-.1 3.094-.795 4.377h32.64v-25.577h-31.095c-.85 4.132-1.312 8.406-1.312 12.789z" fill="#004c67"/><g><circle cx="246.451" cy="411.209" fill="#f6f9f9" r="41.183"/></g><g><circle cx="463.222" cy="411.209" fill="#f6f9f9" r="41.183"/></g><g><path d="m267.702 375.928c3.745 6.204 5.902 13.475 5.902 21.251 0 22.745-18.438 41.183-41.183 41.183-7.776 0-15.046-2.157-21.251-5.902 7.21 11.944 20.312 19.933 35.281 19.933 22.745 0 41.183-18.438 41.183-41.183.001-14.97-7.987-28.072-19.932-35.282z" fill="#dae4ea"/></g><g><path d="m484.473 375.928c3.745 6.204 5.902 13.475 5.902 21.251 0 22.745-18.438 41.183-41.183 41.183-7.776 0-15.046-2.157-21.251-5.902 7.21 11.944 20.312 19.933 35.281 19.933 22.745 0 41.183-18.438 41.183-41.183 0-14.97-7.988-28.072-19.932-35.282z" fill="#dae4ea"/></g><g><path d="m463.222 459.953h-216.771c-26.878 0-48.744-21.867-48.744-48.744 0-26.878 21.867-48.744 48.744-48.744h216.771c26.878 0 48.744 21.867 48.744 48.744 0 26.878-21.866 48.744-48.744 48.744zm-216.771-82.366c-18.539 0-33.622 15.083-33.622 33.622s15.083 33.622 33.622 33.622h216.771c18.539 0 33.622-15.083 33.622-33.622s-15.083-33.622-33.622-33.622z" fill="#b9c1cb"/></g><g><circle cx="246.451" cy="411.209" fill="#004c67" r="10.985"/></g><g><circle cx="463.222" cy="411.209" fill="#004c67" r="10.985"/></g><g><path d="m135.928 422.175h-93.56c-23.399 0-42.368-18.969-42.368-42.368 0-10.371 3.804-20.381 10.69-28.135l21.91-24.668c8.851-9.966 25.104-7.08 29.984 5.324l10.479 26.638c5.335 13.562 15.697 24.544 28.926 30.658l37.306 17.242c2.84 1.313 4.658 4.156 4.658 7.285.001 4.431-3.592 8.024-8.025 8.024z" fill="#057096"/></g><g><path d="m139.295 406.865-37.306-17.242c-13.229-6.114-23.59-17.096-28.926-30.658l-10.479-26.638c-4.88-12.404-21.133-15.29-29.984-5.324l-2.123 2.391c.564.91 1.063 1.885 1.476 2.933l10.479 26.638c5.335 13.562 15.696 24.544 28.926 30.658l37.306 17.242c2.84 1.313 4.658 4.156 4.658 7.285 0 4.432-3.593 8.025-8.025 8.025h30.631c4.432 0 8.025-3.593 8.025-8.025 0-3.129-1.818-5.972-4.658-7.285z" fill="#055e7f"/></g><g><path d="m502.001 329.829h-154.06l-17.222-3v-94h146.283c19.329 0 34.998 15.669 34.998 34.998v52.003c0 5.522-4.477 9.999-9.999 9.999z" fill="#e28086"/></g><g><path d="m489.122 235.078c1.451 3.86 2.25 8.04 2.25 12.407v51.634c0 5.568-4.514 10.081-10.081 10.081h-150.572v17.629l17.222 3h153.978c5.568 0 10.081-4.514 10.081-10.081v-51.634c0-15.12-9.513-28.014-22.878-33.036z" fill="#dd636e"/></g><g><path d="m347.941 329.829h-53.069c-5.568 0-10.081-4.514-10.081-10.081v-89.801c0-19.487 15.798-35.285 35.285-35.285h72.204c5.568 0 10.081 4.514 10.081 10.081v45.326c0 4.339-1.4 8.562-3.991 12.043z" fill="#b4d9fc"/></g><g><path d="m392.279 194.661h-12.66v47.986c0 4.907-1.583 9.684-4.514 13.62l-54.78 73.561h27.616l50.428-67.718c2.592-3.48 3.991-7.703 3.991-12.043v-45.326c.001-5.566-4.513-10.08-10.081-10.08z" fill="#8ac7fd"/></g><g><g><path d="m433.222 282.181c-4.176 0-7.561-3.385-7.561-7.561v-20.415c0-4.176 3.385-7.561 7.561-7.561s7.561 3.385 7.561 7.561v20.415c0 4.176-3.385 7.561-7.561 7.561z" fill="#055e7f"/></g><g><path d="m462.559 282.181c-4.176 0-7.561-3.385-7.561-7.561v-20.415c0-4.176 3.385-7.561 7.561-7.561s7.561 3.385 7.561 7.561v20.415c0 4.176-3.385 7.561-7.561 7.561z" fill="#055e7f"/></g></g><g><path d="m323.716 194.661h15.122v135.167h-15.122z" fill="#62b5fe"/></g></g></svg>