<svg id="Capa_1" enable-background="new 0 0 512 512" height="512" viewBox="0 0 512 512" width="512" xmlns="http://www.w3.org/2000/svg"><g><g><g><path d="m142.358 486.808h-60.803l-.029-156.415c0-45.915 37.222-83.137 83.137-83.137h163.969c2.8 0 5.069 2.27 5.069 5.069v50.693c0 2.8-2.27 5.069-5.069 5.069h-163.969c-12.319 0-22.305 9.986-22.305 22.305z" fill="#b9c1cb"/></g></g><g><path d="m328.632 247.255h-15.802v34.891c0 2.8-2.27 5.069-5.069 5.069h-145.72c-22.398 0-40.554 18.157-40.554 40.554l-.256 159.037 21.127-22.714v-133.7c0-12.319 9.986-22.305 22.305-22.305h163.969c2.8 0 5.069-2.27 5.069-5.069v-50.693c0-2.8-2.269-5.07-5.069-5.07z" fill="#909ba5"/></g><g><g><path d="m240.195 277.671c-16.798 0-30.416-13.618-30.416-30.416v-242.186c0-2.8 2.27-5.069 5.069-5.069h50.693c2.8 0 5.069 2.27 5.069 5.069v242.186c0 16.799-13.617 30.416-30.415 30.416z" fill="#b9c1cb"/></g></g><g><path d="m265.541 0h-23.952c2.8 0 5.069 2.27 5.069 5.069v242.186c0 12.545-7.597 23.314-18.44 27.964 3.676 1.576 7.723 2.452 11.976 2.452 16.798 0 30.416-13.618 30.416-30.416v-242.186c0-2.799-2.269-5.069-5.069-5.069z" fill="#909ba5"/></g><g><g><path d="m137.317 512h-50.693c-2.8 0-5.069-2.27-5.069-5.069v-30.059c0-46.27 37.509-83.779 83.779-83.779h181.333c12.673 0 22.947-10.274 22.947-22.947v-172.435c0-12.673-10.274-22.947-22.947-22.947h-181.334c-46.269 0-83.778-37.509-83.778-83.778v-85.917c0-2.8 2.27-5.069 5.069-5.069h50.693c2.8 0 5.069 2.27 5.069 5.069v85.917c0 12.673 10.274 22.947 22.947 22.947h181.333c46.27 0 83.779 37.509 83.779 83.779v172.435c0 46.27-37.509 83.779-83.779 83.779h-181.333c-12.673 0-22.947 10.274-22.947 22.947v30.059c.001 2.798-2.269 5.068-5.069 5.068z" fill="#dae4ea"/></g></g><g><path d="m394.369 128.853c9.398 13.54 14.92 29.972 14.92 47.702v190.476c0 36.306-29.432 65.738-65.738 65.738h-179.591c-23.599 0-42.729 19.13-42.729 42.729v36.502h16.087c2.8 0 5.069-2.27 5.069-5.069v-30.059c0-12.673 10.274-22.947 22.947-22.947h181.333c46.27 0 83.779-37.509 83.779-83.779v-172.435c-.001-28.539-14.283-53.731-36.077-68.858z" fill="#b9c1cb"/></g><g><g><path d="m240.193 491.657c-17.427 0-34.854-6.634-48.123-19.901-26.535-26.535-26.535-69.71 0-96.246 12.854-12.854 29.945-19.934 48.123-19.934 18.179 0 35.269 7.079 48.124 19.934 12.854 12.854 19.934 29.944 19.934 48.123s-7.079 35.269-19.935 48.123h.001c-.001 0-.001 0-.001 0-13.267 13.267-30.695 19.901-48.123 19.901zm0-120.873c-14.116 0-27.387 5.498-37.368 15.479-20.606 20.605-20.606 54.133 0 74.739 20.605 20.605 54.135 20.604 74.738 0h.001c9.981-9.982 15.479-23.253 15.479-37.369s-5.498-27.388-15.479-37.369c-9.983-9.982-23.254-15.48-37.371-15.48z" fill="#e28086"/></g><g><path d="m199.422 472.008c-1.947 0-3.892-.742-5.377-2.227-2.969-2.969-2.969-7.784 0-10.753l81.545-81.544c2.971-2.97 7.785-2.97 10.754 0 2.969 2.969 2.969 7.784 0 10.753l-81.545 81.544c-1.485 1.485-3.432 2.227-5.377 2.227z" fill="#e28086"/></g><g><path d="m280.966 472.008c-1.946 0-3.892-.743-5.377-2.227l-81.545-81.544c-2.969-2.969-2.969-7.784 0-10.753 2.97-2.969 7.784-2.969 10.754 0l81.545 81.544c2.969 2.969 2.969 7.784 0 10.753-1.484 1.485-3.431 2.227-5.377 2.227z" fill="#e28086"/></g></g><g><circle cx="240.194" cy="423.633" fill="#057096" r="23.411"/></g><g><path d="m250.032 402.389c1.388 2.992 2.167 6.323 2.167 9.837 0 12.929-10.481 23.411-23.411 23.411-3.515 0-6.846-.78-9.837-2.167 3.717 8.013 11.829 13.573 21.243 13.573 12.929 0 23.411-10.481 23.411-23.411 0-9.414-5.56-17.526-13.573-21.243z" fill="#055e7f"/></g><g><g><path d="m191.03 102.574v84.055c0 2.8-2.27 5.069-5.069 5.069h-22.305c-2.8 0-5.069-2.27-5.069-5.069v-84.055c0-2.8 2.27-5.069 5.069-5.069h22.305c2.8 0 5.069 2.27 5.069 5.069z" fill="#b9c1cb"/></g></g><g><g><path d="m442.057 226.471h-84.055c-2.8 0-5.069-2.27-5.069-5.069v-22.305c0-2.8 2.27-5.069 5.069-5.069h84.055c2.8 0 5.069 2.27 5.069 5.069v22.305c.001 2.8-2.269 5.069-5.069 5.069z" fill="#b9c1cb"/></g></g><g><g><path d="m442.057 374.639h-84.055c-2.8 0-5.069-2.27-5.069-5.069v-22.305c0-2.8 2.27-5.069 5.069-5.069h84.055c2.8 0 5.069 2.27 5.069 5.069v22.305c.001 2.799-2.269 5.069-5.069 5.069z" fill="#b9c1cb"/></g></g><g><g><path d="m352.932 102.574v84.055c0 2.8-2.27 5.069-5.069 5.069h-22.305c-2.8 0-5.069-2.27-5.069-5.069v-84.055c0-2.8 2.27-5.069 5.069-5.069h22.305c2.8 0 5.069 2.27 5.069 5.069z" fill="#b9c1cb"/></g></g><g><g><path d="m352.932 381.605v84.055c0 2.8-2.27 5.069-5.069 5.069h-22.305c-2.8 0-5.069-2.27-5.069-5.069v-84.055c0-2.8 2.27-5.069 5.069-5.069h22.305c2.8-.001 5.069 2.269 5.069 5.069z" fill="#b9c1cb"/></g></g><g><g><path d="m191.482 235.919v84.055c0 2.8-2.27 5.069-5.069 5.069h-22.305c-2.8 0-5.069-2.27-5.069-5.069v-84.055c0-2.8 2.27-5.069 5.069-5.069h22.305c2.8 0 5.069 2.269 5.069 5.069z" fill="#f6f9f9"/></g></g><g><path d="m185.961 97.505h-9.094v74.962c0 2.8-2.27 5.069-5.069 5.069h-13.211v9.094c0 2.8 2.27 5.069 5.069 5.069h22.305c2.8 0 5.069-2.27 5.069-5.069v-84.055c0-2.8-2.269-5.07-5.069-5.07z" fill="#909ba5"/></g><g><path d="m347.863 97.505h-9.094v74.962c0 2.8-2.27 5.069-5.069 5.069h-13.211v9.094c0 2.8 2.27 5.069 5.069 5.069h22.305c2.8 0 5.069-2.27 5.069-5.069v-84.055c0-2.8-2.269-5.07-5.069-5.07z" fill="#909ba5"/></g><g><path d="m347.863 376.536h-9.094v74.962c0 2.8-2.27 5.069-5.069 5.069h-13.211v9.094c0 2.8 2.27 5.069 5.069 5.069h22.305c2.8 0 5.069-2.27 5.069-5.069v-84.055c0-2.801-2.269-5.07-5.069-5.07z" fill="#909ba5"/></g><g><path d="m186.413 230.85h-9.094v74.962c0 2.8-2.27 5.069-5.069 5.069h-13.211v9.094c0 2.8 2.27 5.069 5.069 5.069h22.305c2.8 0 5.069-2.27 5.069-5.069v-84.055c0-2.801-2.269-5.07-5.069-5.07z" fill="#dae4ea"/></g><g><g><g><path d="m153.998 95.574h-84.055c-2.8 0-5.069-2.27-5.069-5.069v-22.305c0-2.8 2.27-5.069 5.069-5.069h84.055c2.8 0 5.069 2.27 5.069 5.069v22.305c.001 2.799-2.269 5.069-5.069 5.069z" fill="#b9c1cb"/></g></g><g><path d="m153.998 63.13h-9.842v12.463c0 2.8-2.27 5.069-5.069 5.069h-74.214v9.842c0 2.8 2.27 5.069 5.069 5.069h84.055c2.8 0 5.069-2.27 5.069-5.069v-22.304c.002-2.8-2.268-5.07-5.068-5.07z" fill="#909ba5"/></g></g><g><path d="m442.057 194.028h-9.842v12.463c0 2.8-2.27 5.069-5.069 5.069h-74.214v9.842c0 2.8 2.27 5.069 5.069 5.069h84.055c2.8 0 5.069-2.27 5.069-5.069v-22.305c.001-2.8-2.268-5.069-5.068-5.069z" fill="#909ba5"/></g><g><path d="m442.057 342.195h-9.842v12.463c0 2.8-2.27 5.069-5.069 5.069h-74.214v9.842c0 2.8 2.27 5.069 5.069 5.069h84.055c2.8 0 5.069-2.27 5.069-5.069v-22.305c.001-2.799-2.268-5.069-5.068-5.069z" fill="#909ba5"/></g><g><g><g><path d="m154.45 360.037h-84.055c-2.8 0-5.069-2.27-5.069-5.069v-22.305c0-2.8 2.27-5.069 5.069-5.069h84.055c2.8 0 5.069 2.27 5.069 5.069v22.305c.001 2.8-2.269 5.069-5.069 5.069z" fill="#f6f9f9"/></g></g><g><path d="m154.45 327.594h-9.842v12.463c0 2.8-2.27 5.069-5.069 5.069h-74.213v9.842c0 2.8 2.27 5.069 5.069 5.069h84.055c2.8 0 5.069-2.27 5.069-5.069v-22.305c.001-2.8-2.269-5.069-5.069-5.069z" fill="#dae4ea"/></g></g></g></svg>