<svg id="Capa_1" enable-background="new 0 0 512 512" height="512" viewBox="0 0 512 512" width="512" xmlns="http://www.w3.org/2000/svg"><g><g><path d="m192.472 116.707h-57.529v-38.917c0-2.695 2.185-4.88 4.88-4.88h47.769c2.695 0 4.88 2.185 4.88 4.88z" fill="#057096"/></g><path d="m187.592 72.91h-16.875c2.695 0 4.88 2.185 4.88 4.88v38.917h16.875v-38.917c0-2.695-2.184-4.88-4.88-4.88z" fill="#055e7f"/><g><path d="m439.031 135.6-22.625-18.453c-9.104-7.425-20.492-11.48-32.239-11.48h-256.335c-11.748 0-23.135 4.055-32.239 11.48l-22.625 18.453c-8.608 7.02-13.603 17.539-13.603 28.648v139.734c0 5.865 2.524 11.446 6.927 15.32l45.025 39.608c3.725 3.277 8.516 5.084 13.476 5.084h293.922c18.733 0 33.919-15.186 33.919-33.919v-165.827c0-11.108-4.995-21.627-13.603-28.648z" fill="#f9ef63"/></g><g><path d="m439.031 135.6-22.625-18.453c-.186-.151-.378-.292-.565-.441.452 2.316.699 4.685.699 7.085v183.387c0 9.034-7.324 16.358-16.358 16.358h-329.074l40.21 35.372c3.725 3.277 8.516 5.084 13.476 5.084h293.922c18.733 0 33.919-15.186 33.919-33.919v-165.825c-.001-11.108-4.996-21.627-13.604-28.648z" fill="#f4dd45"/></g><g><path d="m305.105 267.25h-245.739v36.732c0 5.865 2.524 11.446 6.927 15.32l45.025 39.608c3.725 3.277 8.516 5.084 13.476 5.084h180.311z" fill="#055e7f"/></g><g><path d="m71.108 323.537 40.21 35.372c3.725 3.277 8.516 5.084 13.476 5.084h180.311v-40.456z" fill="#004c67"/></g><g><path d="m404.595 363.993v-96.743h-117.926v30.655l2.706 7.651-2.706 7.651v10.33z" fill="#dae4ea"/></g><g><path d="m23.273 157.469h465.965v120.547h-465.965z" fill="#dae4ea"/></g><g><path d="m447.448 157.469v64.932c0 15.295-12.399 27.694-27.694 27.694h-396.481v27.922h465.965v-120.548z" fill="#b9c1cb"/></g><g><g><path d="m186.732 207.114h-103.578c-4.226 0-7.651-3.425-7.651-7.651s3.426-7.651 7.651-7.651h103.578c4.226 0 7.651 3.425 7.651 7.651s-3.426 7.651-7.651 7.651z" fill="#057096"/></g><g><path d="m186.732 240.772h-103.578c-4.226 0-7.651-3.425-7.651-7.651s3.426-7.651 7.651-7.651h103.578c4.226 0 7.651 3.425 7.651 7.651s-3.426 7.651-7.651 7.651z" fill="#057096"/></g></g><g><path d="m328.221 240.46h-90.781c-2.761 0-5-2.239-5-5v-41.777c0-2.761 2.239-5 5-5h90.781c2.761 0 5 2.239 5 5v41.777c0 2.761-2.238 5-5 5z" fill="#057096"/></g><path d="m328.221 188.683h-9.062v32.714c0 2.761-2.239 5-5 5h-81.719v9.062c0 2.761 2.239 5 5 5h90.781c2.761 0 5-2.239 5-5v-41.777c0-2.761-2.238-4.999-5-4.999z" fill="#055e7f"/><g><path d="m428.577 240.46h-56.254c-2.761 0-5-2.239-5-5v-41.777c0-2.761 2.239-5 5-5h56.254c2.761 0 5 2.239 5 5v41.777c0 2.761-2.239 5-5 5z" fill="#057096"/></g><path d="m428.577 188.683h-8.875v32.902c0 2.761-2.239 5-5 5h-47.379v8.875c0 2.761 2.239 5 5 5h56.254c2.761 0 5-2.239 5-5v-41.777c0-2.762-2.239-5-5-5z" fill="#055e7f"/><g><circle cx="400.45" cy="214.571" fill="#f9ef63" r="9.787"/></g><g><circle cx="301.672" cy="214.571" fill="#f9ef63" r="9.787"/></g><g><circle cx="263.989" cy="214.571" fill="#e28086" r="9.787"/></g><g><path d="m400.183 323.537h-113.514v5.579l5.217 34.877h112.709v-41.075c-1.405.393-2.881.619-4.412.619z" fill="#b9c1cb"/></g><g><circle cx="212.499" cy="313.906" fill="#ecbe6b" r="16.596"/></g><g><path d="m219.452 298.853c.297 1.242.471 2.531.471 3.863 0 9.166-7.43 16.596-16.596 16.596-2.486 0-4.836-.562-6.954-1.542 1.743 7.299 8.292 12.732 16.125 12.732 9.166 0 16.596-7.43 16.596-16.596 0-6.679-3.954-12.421-9.642-15.053z" fill="#e7a561"/></g><g><g><path d="m286.669 297.905h117.926v15.303h-117.926z" fill="#057096"/></g><g><path d="m286.669 329.116h117.926v15.303h-117.926z" fill="#057096"/></g></g><g><path d="m337.557 400.06h-91.343v-52.907c0-5.736 4.65-10.386 10.386-10.386h70.571c4.822 0 8.876 3.286 10.046 7.74.222.845-5.842 9.742-5.842 9.742l6.182 9.743z" fill="#dae4ea"/></g><path d="m327.171 336.767h-21.75c5.736 0 10.386 4.65 10.386 10.386v52.907h21.75v-52.907c0-5.736-4.65-10.386-10.386-10.386z" fill="#b9c1cb"/><g><g><path d="m443.138 421.967h-374.276c-37.971 0-68.862-30.891-68.862-68.861v-257.496c0-37.97 30.891-68.861 68.862-68.861h374.276c37.971 0 68.862 30.891 68.862 68.861v257.495c0 37.971-30.891 68.862-68.862 68.862zm-374.276-359.512c-18.282 0-33.156 14.873-33.156 33.156v257.495c0 18.282 14.873 33.156 33.156 33.156h374.276c18.282 0 33.156-14.873 33.156-33.156v-257.496c0-18.282-14.873-33.156-33.156-33.156h-374.276z" fill="#f6f9f9"/></g></g><g><path d="m482.772 39.35c7.854 11.187 12.479 24.805 12.479 39.511v271.154c0 30.488-24.715 55.203-55.203 55.203h-387.935c-14.706 0-28.325-4.625-39.511-12.479 12.479 17.662 33.038 29.228 56.26 29.228h374.276c37.971 0 68.862-30.891 68.862-68.862v-257.495c0-23.222-11.566-43.781-29.228-56.26z" fill="#dae4ea"/></g><g><g><circle cx="156.32" cy="412.086" fill="#057096" r="73.166"/></g><g><circle cx="156.32" cy="412.086" fill="#ecbe6b" r="36.152"/></g><g><circle cx="156.32" cy="412.086" fill="#004c67" r="9.783"/></g><g><path d="m172.822 379.923c2.544 4.948 3.99 10.555 3.99 16.502 0 19.966-16.186 36.152-36.152 36.152-5.947 0-11.554-1.445-16.502-3.99 5.998 11.665 18.144 19.65 32.163 19.65 19.967 0 36.152-16.186 36.152-36.152-.001-14.018-7.986-26.165-19.651-32.162z" fill="#e7a561"/></g><g><path d="m196.856 351.178c7.739 11.605 12.257 25.541 12.257 40.536 0 40.408-32.757 73.166-73.166 73.166-14.995 0-28.931-4.519-40.536-12.258 13.116 19.668 35.495 32.63 60.908 32.63 40.408 0 73.166-32.757 73.166-73.166.001-25.413-12.961-47.793-32.629-60.908z" fill="#055e7f"/></g></g><path d="m189.49 138.709c4.04-2.548 7.857-4.956 12.261-4.956 5.896 0 8.46 1.345 12.008 3.205 4.21 2.209 9.45 4.956 19.115 4.956 9.664 0 14.904-2.748 19.113-4.956 3.547-1.861 6.111-3.205 12.005-3.205 5.895 0 8.459 1.344 12.006 3.205 4.21 2.209 9.449 4.956 19.114 4.956 9.664 0 14.904-2.748 19.113-4.956 3.547-1.861 6.111-3.205 12.005-3.205 4.403 0 8.219 2.408 12.259 4.956 3.678 2.32 8.831 5.572 14.648 5.572 3.949 0 8.203-1.498 12.508-5.804 11.163-11.165 5.464-20.405 1.302-27.153-1.111-1.802-2.238-3.638-3.268-5.656h-16.572c2.002 5.846 4.725 10.3 6.816 13.69 1.178 1.91 2.958 4.796 2.911 5.614-.001.008-.172.848-2.009 2.686-1.886 1.887-2 2.001-8.168-1.89-4.894-3.088-11.598-7.318-20.424-7.318-9.665 0-14.904 2.748-19.114 4.956-3.547 1.861-6.111 3.205-12.005 3.205-5.895 0-8.458-1.344-12.005-3.205-4.21-2.209-9.45-4.956-19.114-4.956s-14.904 2.748-19.114 4.956c-3.547 1.861-6.111 3.205-12.005 3.205-5.896 0-8.46-1.345-12.008-3.205-4.21-2.209-9.45-4.956-19.115-4.956-8.828 0-15.532 4.229-20.426 7.318-6.17 3.891-6.282 3.778-8.172 1.889-1.888-1.888-2.001-2 1.89-8.168 2.265-3.591 5.138-8.159 6.512-13.82h-16.188c-.902 1.891-2.063 3.749-3.266 5.655-3.896 6.175-10.416 16.509.232 27.155 10.646 10.645 20.981 4.125 27.155.23z" fill="#f4dd45"/></g></svg>