<svg id="Capa_1" enable-background="new 0 0 512 512" height="512" viewBox="0 0 512 512" width="512" xmlns="http://www.w3.org/2000/svg"><g><g><path d="m176.381 194.732h93.041v60.967h-93.041z" fill="#057096" transform="matrix(.942 -.337 .337 .942 -62.853 88.28)"/></g><g><path d="m181.883 226.433h93.041v28.312h-93.041z" fill="#055e7f" transform="matrix(.942 -.337 .337 .942 -67.711 91.033)"/></g><g><g><path d="m455.191 261.191 49.816-59.333c6.405-7.629 8.183-18.125 4.648-27.438l-34.295-90.345c-3.535-9.313-11.831-15.985-21.685-17.442l-76.64-11.331c-4.645-.687-9.389-.172-13.779 1.494l-80.479 30.55c-4.39 1.667-8.28 4.43-11.3 8.026l-49.816 59.333c-6.405 7.629-8.183 18.125-4.648 27.438l34.295 90.345c3.535 9.313 11.831 15.985 21.685 17.442l76.64 11.331c4.645.687 9.389.172 13.779-1.494l80.479-30.55c4.39-1.666 8.281-4.429 11.3-8.026z" fill="#fff9c1"/></g><g><path d="m509.656 174.42-34.295-90.345c-3.535-9.313-11.831-15.985-21.685-17.442l-44.389-6.563 35.527 93.591c4.052 10.674 2.014 22.705-5.328 31.448l-57.097 68.005c-3.461 4.122-7.92 7.289-12.951 9.199l-79.394 30.138 59.588 8.81c4.645.687 9.389.173 13.779-1.494l80.479-30.55c4.39-1.666 8.28-4.43 11.3-8.026l49.816-59.333c6.407-7.629 8.185-18.125 4.65-27.438z" fill="#f9ef63"/></g><path d="m367.004 298.404-80.635-212.422-3.591 1.363c-3.629 1.377-6.907 3.514-9.643 6.241l78.923 207.91c3.857.224 7.727-.353 11.355-1.73z" fill="#f9ef63"/><path d="m455.191 261.191.521-.621-77.874-205.15-.802-.119c-4.645-.687-9.389-.172-13.779 1.494l-.89.338 80.635 212.421.889-.338c4.39-1.665 8.281-4.428 11.3-8.025z" fill="#f9ef63"/><g fill="#f4dd45"><path d="m352.057 301.497c3.857.224 7.727-.353 11.355-1.73l3.592-1.363-11.668-30.737-14.091 5.349z"/><path d="m430.934 195.296-11.102 13.223 23.169 61.036.889-.338c4.39-1.667 8.281-4.43 11.3-8.026l.521-.621z"/></g></g><g><path d="m38.054 323.388h-16.618c-11.839 0-21.436-9.597-21.436-21.436v-.206c0-11.839 9.597-21.436 21.436-21.436h16.618z" fill="#f9ef63"/></g><path d="m21.539 280.31c-3.129 0-6.095.682-8.778 1.882v20.924c0 4.563-3.699 8.261-8.261 8.261h-2.256c3.518 7.11 10.825 12.011 19.295 12.011h16.515v-43.078z" fill="#f4dd45"/><g><path d="m501.952 391.838h-421.473c-4.568 0-9-1.557-12.566-4.413l-33.52-26.857c-4.76-3.814-7.53-9.583-7.53-15.683v-8.437l5-23.906h475.137l5 23.906v45.342c0 5.549-4.499 10.048-10.048 10.048z" fill="#057096"/></g><g><path d="m484.125 312.542v46.888c0 2.775-2.249 5.024-5.024 5.024h-439.856l28.669 22.97c3.565 2.856 7.997 4.413 12.566 4.413h421.473c5.549 0 10.048-4.499 10.048-10.048v-45.342l-5-23.906h-22.876z" fill="#055e7f"/></g><g><path d="m492 293.053h-291.665v43.395h311.665v-23.395c0-11.046-8.954-20-20-20z" fill="#dae4ea"/></g><g><path d="m491.904 293.053h-7.779v43.395h27.875v-23.299c0-11.099-8.997-20.096-20.096-20.096z" fill="#b9c1cb"/></g><g><path d="m28.664 244.732c-1.187 3.835-1.8 7.846-1.8 11.902v47.378l5.699 9.752-5.699 9.625v13.06h184.609v-171.066c0-8.324-6.748-15.072-15.072-15.072h-35.656s-130.995 90.914-132.081 94.421z" fill="#f9ef63"/></g><g><path d="m196.401 150.311h-17.364v133.605c0 11.099-8.997 20.096-20.096 20.096h-132.078v32.436h184.609v-171.065c.001-8.324-6.747-15.072-15.071-15.072z" fill="#f4dd45"/></g><g><path d="m160.745 229.664v-79.354h-61.774c-6.812 0-13.161 3.451-16.865 9.168l-48.772 75.273c-2.017 3.113-3.569 6.478-4.655 9.985h116.995c8.323 0 15.071-6.748 15.071-15.072z" fill="#b4d9fc"/></g><g><path d="m140.131 150.311v66.778c0 3.885-3.149 7.034-7.034 7.034h-92.877l-6.887 10.629c-2.017 3.113-3.569 6.478-4.655 9.985h116.995c8.324 0 15.072-6.748 15.072-15.072v-79.354z" fill="#8ac7fd"/></g><g><path d="m69.042 407.05h140.989c2.775 0 5.024-2.249 5.024-5.024v-22.393c0-4.939-1.3-9.79-3.769-14.067l-17.838-30.896c-3.59-6.218-10.224-10.048-17.404-10.048h-73.016c-7.18 0-13.814 3.83-17.404 10.048l-17.838 30.896c-2.469 4.277-3.769 9.129-3.769 14.067v22.393c.001 2.774 2.25 5.024 5.025 5.024z" fill="#055e7f"/></g><g><path d="m326.775 407.05h140.989c2.775 0 5.024-2.249 5.024-5.024v-22.393c0-4.939-1.3-9.79-3.769-14.067l-17.838-30.896c-3.59-6.218-10.224-10.048-17.404-10.048h-73.016c-7.18 0-13.814 3.83-17.404 10.048l-17.838 30.896c-2.469 4.277-3.769 9.129-3.769 14.067v22.393c.001 2.774 2.25 5.024 5.025 5.024z" fill="#055e7f"/></g><g><path d="m211.286 365.565-17.838-30.896c-3.59-6.218-10.224-10.048-17.404-10.048h-37.54c7.18 0 13.814 3.83 17.404 10.048l17.838 30.896c2.469 4.277 3.769 9.129 3.769 14.067v22.393c0 2.775-2.249 5.024-5.024 5.024h37.54c2.775 0 5.024-2.249 5.024-5.024v-22.393c.001-4.938-1.299-9.79-3.769-14.067z" fill="#004c67"/></g><g><path d="m469.019 365.565-17.838-30.896c-3.59-6.218-10.224-10.048-17.404-10.048h-37.54c7.18 0 13.814 3.83 17.404 10.048l17.838 30.896c2.469 4.277 3.769 9.129 3.769 14.067v22.393c0 2.775-2.249 5.024-5.024 5.024h37.54c2.775 0 5.024-2.249 5.024-5.024v-22.393c0-4.938-1.3-9.79-3.769-14.067z" fill="#004c67"/></g><g><circle cx="139.537" cy="405.846" fill="#dae4ea" r="51.147"/></g><g><circle cx="397.269" cy="405.846" fill="#dae4ea" r="51.147"/></g><g><circle cx="139.537" cy="405.846" fill="#f9ef63" r="20.459"/></g><g><circle cx="397.269" cy="405.846" fill="#f9ef63" r="20.459"/></g><path d="m402.92 386.196c.516 1.797.808 3.688.808 5.65 0 11.299-9.16 20.459-20.459 20.459-1.962 0-3.854-.292-5.65-.808 2.454 8.548 10.314 14.809 19.651 14.809 11.299 0 20.459-9.16 20.459-20.459-.001-9.337-6.262-17.197-14.809-19.651z" fill="#f4dd45"/><g><path d="m145.109 386.176c.502 1.774.788 3.638.788 5.573 0 11.299-9.16 20.459-20.459 20.459-1.934 0-3.799-.287-5.573-.788 2.429 8.587 10.306 14.886 19.671 14.886 11.299 0 20.459-9.16 20.459-20.459.001-9.365-6.298-17.242-14.886-19.671z" fill="#f4dd45"/></g><g><path d="m164.132 360.996c4.011 7.299 6.297 15.679 6.297 24.595 0 28.248-22.899 51.147-51.147 51.147-8.916 0-17.297-2.286-24.595-6.297 8.696 15.824 25.519 26.552 44.85 26.552 28.248 0 51.147-22.9 51.147-51.147 0-19.331-10.728-36.153-26.552-44.85z" fill="#b9c1cb"/></g><g><path d="m421.865 360.996c4.011 7.299 6.297 15.679 6.297 24.595 0 28.248-22.899 51.147-51.147 51.147-8.916 0-17.297-2.286-24.595-6.297 8.696 15.824 25.519 26.552 44.85 26.552 28.248 0 51.147-22.9 51.147-51.147 0-19.331-10.728-36.153-26.552-44.85z" fill="#b9c1cb"/></g><g><path d="m138.504 284.617h-22.043c-4.162 0-7.536-3.374-7.536-7.536s3.374-7.536 7.536-7.536h22.043c4.162 0 7.536 3.374 7.536 7.536s-3.373 7.536-7.536 7.536z" fill="#057096"/></g></g></svg>